<?xml version="1.0" encoding="utf-8"?>
<!-- Generator: Adobe Illustrator 24.3.0, SVG Export Plug-In . SVG Version: 6.00 Build 0)  -->
<svg version="1.1" id="Layer_1" xmlns="http://www.w3.org/2000/svg" xmlns:xlink="http://www.w3.org/1999/xlink" x="0px" y="0px"
	 viewBox="0 0 840 768" style="enable-background:new 0 0 840 768;" xml:space="preserve">
<style type="text/css">
	.st0{fill:none;stroke:#BBBABA;stroke-width:2;stroke-miterlimit:10;}
	.st1{fill:#FFFFFF;stroke:#BBBABA;stroke-miterlimit:10;}
	.st2{fill:#00B4B2;}
	.st3{fill:#FFFFFF;}
	.st4{fill:#153156;}
	.st5{fill:#FFFFFF;stroke:#153156;stroke-width:3;stroke-miterlimit:10;}
	.st6{fill:#858585;}
	.st7{fill:#E74E0F;}
</style>
<g>
	<g>
		<path class="st0" d="M758.2,484.2c-10.6,0-20.9-2.1-30.6-6.2c-9.4-4-17.8-9.6-25-16.9c-7.2-7.2-12.9-15.7-16.9-25
			c-4.1-9.7-6.2-20-6.2-30.6c0-10.6,2.1-20.9,6.2-30.6c4-9.4,9.6-17.8,16.9-25c7.2-7.2,15.7-12.9,25-16.9c9.7-4.1,20-6.2,30.6-6.2
			c10.6,0,20.9,2.1,30.6,6.2c9.4,4,17.8,9.6,25,16.9c7.2,7.2,12.9,15.7,16.9,25c4.1,9.7,6.2,20,6.2,30.6c0,10.6-2.1,20.9-6.2,30.6
			c-4,9.4-9.6,17.8-16.9,25c-7.2,7.2-15.7,12.9-25,16.9C779.1,482.1,768.8,484.2,758.2,484.2z M768.4,327.5
			c-51.3-6.5-94.7,36.8-88.2,88.2c4.4,35,32.7,63.2,67.7,67.7c51.3,6.5,94.7-36.8,88.2-88.2C831.7,360.2,803.4,332,768.4,327.5z"/>
	</g>
	<g>
		<g>
			<circle class="st1" cx="69.2" cy="398.8" r="63.1"/>
			<path class="st0" d="M69.2,462c-8.5,0-16.8-1.7-24.6-5c-7.5-3.2-14.3-7.7-20.1-13.5c-5.8-5.8-10.4-12.6-13.5-20.1
				c-3.3-7.8-5-16.1-5-24.6c0-8.5,1.7-16.8,5-24.6c3.2-7.5,7.7-14.3,13.5-20.1c5.8-5.8,12.6-10.4,20.1-13.5c7.8-3.3,16.1-5,24.6-5
				c8.5,0,16.8,1.7,24.6,5c7.5,3.2,14.3,7.7,20.1,13.5c5.8,5.8,10.4,12.6,13.5,20.1c3.3,7.8,5,16.1,5,24.6c0,8.5-1.7,16.8-5,24.6
				c-3.2,7.5-7.7,14.3-13.5,20.1c-5.8,5.8-12.6,10.4-20.1,13.5C86,460.3,77.8,462,69.2,462z M77.5,336.3C36.3,331,1.5,365.8,6.7,407
				c3.6,28.1,26.2,50.7,54.3,54.3c41.2,5.2,76-29.6,70.7-70.7C128.2,362.5,105.5,339.9,77.5,336.3z"/>
		</g>
		<circle class="st2" cx="69.2" cy="398.8" r="51.6"/>
		<g>
			<path class="st3" d="M31.5,393.7c-0.4-0.4-0.6-0.9-0.6-1.5c0-0.6,0.2-1.1,0.6-1.5s0.9-0.6,1.4-0.6c0.6,0,1,0.2,1.4,0.6
				c0.4,0.4,0.6,0.9,0.6,1.5c0,0.6-0.2,1.1-0.6,1.5c-0.4,0.4-0.9,0.6-1.4,0.6C32.4,394.3,31.9,394.1,31.5,393.7z M31.5,407
				c-0.4-0.4-0.6-0.9-0.6-1.5c0-0.6,0.2-1.1,0.6-1.5c0.4-0.4,0.9-0.6,1.4-0.6c0.6,0,1,0.2,1.4,0.6c0.4,0.4,0.6,0.9,0.6,1.5
				c0,0.6-0.2,1.1-0.6,1.5c-0.4,0.4-0.9,0.6-1.4,0.6C32.4,407.6,31.9,407.4,31.5,407z"/>
			<path class="st3" d="M40.4,389.6h2.2l0.2,2.6h0.1c1.9-2,3.7-3,5.5-3c2.5,0,4.1,1.1,4.9,3.4c1-1.1,2-2,2.9-2.5
				c0.9-0.6,1.9-0.9,2.9-0.9c3.6,0,5.3,2.3,5.3,6.9v11.2h-2.6v-10.9c0-1.7-0.3-2.9-0.8-3.7c-0.6-0.8-1.4-1.2-2.6-1.2
				c-1.4,0-2.9,0.9-4.6,2.8v12.9h-2.7v-10.9c0-1.7-0.3-2.9-0.8-3.7c-0.6-0.8-1.4-1.2-2.6-1.2c-1.4,0-2.9,0.9-4.6,2.8v12.9h-2.6
				V389.6z"/>
			<path class="st3" d="M70.6,406.3c-1-0.9-1.5-2.1-1.5-3.7c0-1.9,0.9-3.4,2.6-4.4c1.7-1,4.5-1.7,8.3-2.2c0-1.4-0.3-2.5-0.9-3.4
				c-0.6-0.9-1.5-1.3-2.9-1.3c-1.7,0-3.4,0.6-5.3,1.9l-1.1-1.8c2.3-1.5,4.6-2.3,6.8-2.3c2,0,3.5,0.6,4.5,1.9c1,1.3,1.5,3,1.5,5.2
				v10.9h-2.2l-0.2-2.1h-0.1c-2.1,1.7-4.1,2.6-5.9,2.6C72.8,407.6,71.6,407.2,70.6,406.3z M77.5,404.9c0.8-0.4,1.7-1,2.6-1.9v-5.2
				c-3,0.4-5.2,0.9-6.4,1.7c-1.3,0.8-1.9,1.7-1.9,3c0,1,0.3,1.7,0.9,2.2c0.6,0.5,1.4,0.7,2.3,0.7C75.9,405.5,76.7,405.3,77.5,404.9z
				"/>
			<path class="st3" d="M88.5,389.6h2.2l0.2,2.6H91c1-1,1.9-1.7,2.8-2.2c0.9-0.5,2-0.8,3.1-0.8c1.8,0,3.2,0.6,4.1,1.7
				c0.9,1.1,1.3,2.9,1.3,5.1v11.2h-2.6v-10.9c0-1.7-0.3-2.9-0.8-3.7c-0.5-0.8-1.4-1.2-2.7-1.2c-0.9,0-1.7,0.2-2.4,0.7
				c-0.7,0.4-1.6,1.2-2.6,2.2v12.9h-2.6V389.6z"/>
		</g>
		<g>
			<circle class="st4" cx="758.2" cy="405.5" r="66.6"/>
		</g>
		<g>
			<path class="st3" d="M698.8,400c-0.4-0.4-0.6-0.9-0.6-1.5c0-0.6,0.2-1.1,0.6-1.5c0.4-0.4,0.9-0.6,1.4-0.6c0.6,0,1,0.2,1.4,0.6
				c0.4,0.4,0.6,0.9,0.6,1.5c0,0.6-0.2,1.1-0.6,1.5c-0.4,0.4-0.9,0.6-1.4,0.6C699.6,400.6,699.1,400.4,698.8,400z M698.8,413.3
				c-0.4-0.4-0.6-0.9-0.6-1.5c0-0.6,0.2-1.1,0.6-1.5c0.4-0.4,0.9-0.6,1.4-0.6c0.6,0,1,0.2,1.4,0.6c0.4,0.4,0.6,0.9,0.6,1.5
				c0,0.6-0.2,1.1-0.6,1.5c-0.4,0.4-0.9,0.6-1.4,0.6C699.6,413.9,699.1,413.7,698.8,413.3z"/>
			<path class="st3" d="M705.4,395.9h2.7l2.8,10.5l0.3,1.6c0.3,1.5,0.6,2.6,0.7,3.3h0.1c0.5-1.9,0.9-3.5,1.2-4.9l2.8-10.5h2.6
				l2.9,10.5l1.2,4.9h0.1l1.2-4.9l2.7-10.5h2.5l-4.8,17.6h-3.3l-2.7-9.8l-0.7-2.9c0-0.2-0.2-0.9-0.5-2.2h-0.1
				c-0.5,2.4-1,4.1-1.3,5.1l-2.6,9.8h-3.1L705.4,395.9z"/>
			<path class="st3" d="M736,412.8c-1.2-0.7-2.2-1.8-3-3.2c-0.7-1.4-1.1-3-1.1-4.9c0-1.9,0.4-3.5,1.1-4.9c0.7-1.4,1.7-2.5,3-3.2
				c1.2-0.7,2.6-1.1,4-1.1s2.8,0.4,4,1.1c1.2,0.7,2.2,1.8,3,3.2c0.7,1.4,1.1,3,1.1,4.9c0,1.9-0.4,3.5-1.1,4.9
				c-0.7,1.4-1.7,2.5-3,3.2c-1.2,0.7-2.6,1.1-4,1.1S737.2,413.6,736,412.8z M742.8,410.8c0.8-0.6,1.4-1.4,1.9-2.5
				c0.5-1.1,0.7-2.3,0.7-3.7c0-1.4-0.2-2.6-0.7-3.7c-0.5-1.1-1.1-1.9-1.9-2.5c-0.8-0.6-1.7-0.9-2.8-0.9c-1,0-2,0.3-2.8,0.9
				c-0.8,0.6-1.4,1.4-1.9,2.5c-0.4,1.1-0.7,2.3-0.7,3.7c0,2.1,0.5,3.8,1.5,5.1c1,1.3,2.3,1.9,3.8,1.9
				C741.1,411.7,742,411.4,742.8,410.8z"/>
			<path class="st3" d="M752.9,395.9h2.2l0.2,2.6h0.1c1.9-2,3.7-3,5.5-3c2.5,0,4.1,1.1,4.9,3.4c1-1.1,2-2,2.9-2.5
				c0.9-0.6,1.9-0.9,2.9-0.9c3.6,0,5.3,2.3,5.3,6.9v11.2h-2.6v-10.9c0-1.7-0.3-2.9-0.8-3.7c-0.6-0.8-1.4-1.2-2.6-1.2
				c-1.4,0-2.9,0.9-4.6,2.8v12.9h-2.7v-10.9c0-1.7-0.3-2.9-0.8-3.7c-0.6-0.8-1.4-1.2-2.6-1.2c-1.4,0-2.9,0.9-4.6,2.8v12.9h-2.6
				V395.9z"/>
			<path class="st3" d="M783.1,412.6c-1-0.9-1.5-2.1-1.5-3.7c0-1.9,0.9-3.4,2.6-4.4c1.7-1,4.5-1.7,8.3-2.2c0-1.4-0.3-2.5-0.9-3.4
				c-0.6-0.9-1.5-1.3-2.9-1.3c-1.7,0-3.4,0.6-5.3,1.9l-1.1-1.8c2.3-1.5,4.6-2.3,6.8-2.3c2,0,3.5,0.6,4.5,1.9c1,1.3,1.5,3,1.5,5.2
				v10.9h-2.2l-0.2-2.1h-0.1c-2.1,1.7-4.1,2.6-5.9,2.6C785.3,413.9,784.1,413.5,783.1,412.6z M790,411.2c0.8-0.4,1.7-1,2.6-1.9v-5.2
				c-3,0.4-5.2,0.9-6.4,1.7c-1.3,0.8-1.9,1.7-1.9,3c0,1,0.3,1.7,0.9,2.2c0.6,0.5,1.4,0.7,2.3,0.7C788.4,411.8,789.2,411.6,790,411.2
				z"/>
			<path class="st3" d="M801,395.9h2.2l0.2,2.6h0.1c1-1,1.9-1.7,2.8-2.2c0.9-0.5,2-0.8,3.1-0.8c1.8,0,3.2,0.6,4.1,1.7
				c0.9,1.1,1.3,2.9,1.3,5.1v11.2h-2.6v-10.9c0-1.7-0.3-2.9-0.8-3.7c-0.5-0.8-1.4-1.2-2.7-1.2c-0.9,0-1.7,0.2-2.4,0.7
				c-0.7,0.4-1.6,1.2-2.6,2.2v12.9H801V395.9z"/>
		</g>
		<path class="st5" d="M505.3,728.3H307c-5.8,0-10.5-4.7-10.5-10.5v-85.9c0-5.8,4.7-10.5,10.5-10.5h198.3c5.8,0,10.5,4.7,10.5,10.5
			v85.9C515.8,723.6,511.1,728.3,505.3,728.3z"/>
		<g>
			<path class="st4" d="M318.9,652.8c0.8-2.8,2.3-6.5,3.2-8.1l1.9-0.2c-0.7,2-1.6,5.5-2,8L318.9,652.8z M324,652.8
				c0.8-2.8,2.3-6.5,3.2-8.1l1.9-0.2c-0.7,2-1.6,5.5-2,8L324,652.8z"/>
			<path class="st4" d="M331.2,666.4c2.6-2.6,4.6-4.7,6-6.2c1.4-1.6,2.5-3,3.3-4.3c0.8-1.3,1.1-2.6,1.1-3.7c0-1.3-0.4-2.4-1.1-3.2
				c-0.7-0.8-1.8-1.2-3.2-1.2c-0.9,0-1.7,0.2-2.5,0.7c-0.8,0.5-1.5,1.1-2.2,1.9l-1.5-1.4c1-1,2-1.9,3-2.4c1-0.6,2.2-0.9,3.5-0.9
				c2,0,3.5,0.6,4.7,1.7c1.2,1.1,1.7,2.7,1.7,4.6c0,1.3-0.4,2.7-1.1,4.1c-0.7,1.4-1.7,2.8-2.9,4.2c-1.2,1.4-2.9,3.3-5.1,5.6l0.8,0
				c1.3-0.1,2.2-0.1,2.8-0.1h6.6v2.1h-13.9V666.4z"/>
			<path class="st4" d="M349.9,665.3c-1.2-2-1.8-4.8-1.8-8.4c0-3.6,0.6-6.4,1.8-8.3c1.2-1.9,2.9-2.9,5-2.9s3.8,1,5,2.9
				c1.2,1.9,1.8,4.7,1.8,8.3c0,3.6-0.6,6.4-1.8,8.4c-1.2,2-2.9,3-5,3S351.1,667.2,349.9,665.3z M358.2,663.9c0.8-1.6,1.2-3.9,1.2-7
				c0-3.1-0.4-5.4-1.2-6.9c-0.8-1.5-1.9-2.3-3.3-2.3s-2.5,0.8-3.3,2.3c-0.8,1.5-1.2,3.8-1.2,6.9c0,3.1,0.4,5.4,1.2,7
				c0.8,1.6,1.9,2.3,3.3,2.3S357.4,665.4,358.2,663.9z"/>
			<path class="st4" d="M364.7,666.4c2.6-2.6,4.6-4.7,6-6.2c1.4-1.6,2.5-3,3.3-4.3c0.8-1.3,1.1-2.6,1.1-3.7c0-1.3-0.4-2.4-1.1-3.2
				c-0.7-0.8-1.8-1.2-3.2-1.2c-0.9,0-1.7,0.2-2.5,0.7c-0.8,0.5-1.5,1.1-2.2,1.9l-1.5-1.4c1-1,2-1.9,3-2.4c1-0.6,2.2-0.9,3.5-0.9
				c2,0,3.5,0.6,4.7,1.7c1.2,1.1,1.7,2.7,1.7,4.6c0,1.3-0.4,2.7-1.1,4.1c-0.7,1.4-1.7,2.8-2.9,4.2c-1.2,1.4-2.9,3.3-5.1,5.6l0.8,0
				c1.3-0.1,2.2-0.1,2.8-0.1h6.6v2.1h-13.9V666.4z"/>
			<path class="st4" d="M383.4,665.3c-1.2-2-1.8-4.8-1.8-8.4c0-3.6,0.6-6.4,1.8-8.3c1.2-1.9,2.9-2.9,5-2.9c2.2,0,3.8,1,5,2.9
				c1.2,1.9,1.8,4.7,1.8,8.3c0,3.6-0.6,6.4-1.8,8.4c-1.2,2-2.9,3-5,3C386.3,668.2,384.6,667.2,383.4,665.3z M391.7,663.9
				c0.8-1.6,1.2-3.9,1.2-7c0-3.1-0.4-5.4-1.2-6.9c-0.8-1.5-1.9-2.3-3.3-2.3s-2.5,0.8-3.3,2.3c-0.8,1.5-1.2,3.8-1.2,6.9
				c0,3.1,0.4,5.4,1.2,7c0.8,1.6,1.9,2.3,3.3,2.3S390.9,665.4,391.7,663.9z"/>
			<path class="st4" d="M398.2,658.3h7.7v1.9h-7.7V658.3z"/>
			<path class="st4" d="M410.7,665.3c-1.2-2-1.8-4.8-1.8-8.4c0-3.6,0.6-6.4,1.8-8.3c1.2-1.9,2.9-2.9,5-2.9c2.2,0,3.8,1,5,2.9
				c1.2,1.9,1.8,4.7,1.8,8.3c0,3.6-0.6,6.4-1.8,8.4c-1.2,2-2.9,3-5,3C413.6,668.2,411.9,667.2,410.7,665.3z M419,663.9
				c0.8-1.6,1.2-3.9,1.2-7c0-3.1-0.4-5.4-1.2-6.9c-0.8-1.5-1.9-2.3-3.3-2.3s-2.5,0.8-3.3,2.3c-0.8,1.5-1.2,3.8-1.2,6.9
				c0,3.1,0.4,5.4,1.2,7c0.8,1.6,1.9,2.3,3.3,2.3S418.2,665.4,419,663.9z"/>
			<path class="st4" d="M425.5,666.4c2.6-2.6,4.6-4.7,6-6.2c1.4-1.6,2.5-3,3.3-4.3c0.8-1.3,1.1-2.6,1.1-3.7c0-1.3-0.4-2.4-1.1-3.2
				c-0.7-0.8-1.8-1.2-3.2-1.2c-0.9,0-1.7,0.2-2.5,0.7c-0.8,0.5-1.5,1.1-2.2,1.9l-1.5-1.4c1-1,2-1.9,3-2.4c1-0.6,2.2-0.9,3.5-0.9
				c2,0,3.5,0.6,4.7,1.7c1.2,1.1,1.7,2.7,1.7,4.6c0,1.3-0.4,2.7-1.1,4.1c-0.7,1.4-1.7,2.8-2.9,4.2c-1.2,1.4-2.9,3.3-5.1,5.6l0.8,0
				c1.3-0.1,2.2-0.1,2.8-0.1h6.6v2.1h-13.9V666.4z"/>
			<path class="st4" d="M442.2,658.3h7.7v1.9h-7.7V658.3z"/>
			<path class="st4" d="M453,665.7h5v-16.5h-4v-1.6c1.8-0.3,3.3-0.8,4.5-1.5h1.9v19.7h4.5v2.1h-12V665.7z"/>
			<path class="st4" d="M468.4,665.7h5v-16.5h-4v-1.6c1.8-0.3,3.3-0.8,4.5-1.5h1.9v19.7h4.5v2.1h-12V665.7z"/>
			<path class="st4" d="M483.2,652.8c0.8-2.8,2.3-6.5,3.2-8.1l1.9-0.2c-0.7,2-1.6,5.5-2,8L483.2,652.8z M488.3,652.8
				c0.8-2.8,2.3-6.5,3.2-8.1l1.9-0.2c-0.7,2-1.6,5.5-2,8L488.3,652.8z"/>
			<path class="st4" d="M325,685.9h2.2l5.2,13.1h-2.2l-4.1-10.8h-0.1l-1.7,4.5L322,699h-2.2L325,685.9z"/>
			<path class="st4" d="M341.8,685.9h2.2l5.2,13.1H347l-4.1-10.8h-0.1l-1.7,4.5l-2.3,6.2h-2.2L341.8,685.9z"/>
			<path class="st4" d="M357.2,700.1l-5-7.9h2.7l2.3,3.8c0.7,1.2,1.3,2.1,1.7,2.7h0.1l1.5-2.7l2.1-3.8h2.6l-5,8.1l5.4,8.4H363
				l-2.6-4c-0.7-1.2-1.3-2.2-1.8-3h-0.1c-0.4,0.6-0.7,1.3-1.2,2l-0.6,1l-2.4,4h-2.6L357.2,700.1z"/>
			<path class="st4" d="M369.9,708.5c-1.1-0.4-2-1-2.8-1.7l1.3-1.7c0.8,0.7,1.6,1.2,2.4,1.5c0.8,0.3,1.6,0.5,2.6,0.5
				c1.1,0,1.9-0.3,2.5-0.8c0.6-0.5,0.9-1.2,0.9-2c0-0.8-0.3-1.4-1-1.9c-0.7-0.5-1.6-0.9-2.8-1.4c-1.6-0.6-2.8-1.2-3.7-1.9
				c-0.9-0.7-1.3-1.6-1.3-2.9c0-1.3,0.5-2.4,1.5-3.3c1-0.9,2.4-1.3,4.1-1.3c0.9,0,1.8,0.2,2.7,0.5c0.9,0.3,1.6,0.8,2.3,1.3l-1.2,1.6
				c-0.7-0.5-1.3-0.8-1.9-1.1c-0.6-0.3-1.2-0.4-1.9-0.4c-1,0-1.8,0.2-2.4,0.7c-0.5,0.5-0.8,1.1-0.8,1.8c0,0.5,0.2,0.9,0.5,1.3
				c0.3,0.4,0.7,0.7,1.2,0.9s1.1,0.5,2,0.8c1.2,0.4,2.1,0.8,2.7,1.2c0.7,0.3,1.2,0.8,1.7,1.4c0.5,0.6,0.7,1.4,0.7,2.4
				c0,0.9-0.2,1.7-0.7,2.4c-0.5,0.7-1.1,1.3-2,1.8c-0.9,0.4-2,0.6-3.2,0.6C372.1,709.1,371,708.9,369.9,708.5z"/>
			<path class="st4" d="M383.8,706.8c-1.2-1.5-1.8-3.6-1.8-6.4c0-1.7,0.3-3.2,1-4.6c0.7-1.3,1.5-2.3,2.6-3c1.1-0.7,2.3-1.1,3.6-1.1
				c0.9,0,1.7,0.2,2.4,0.5c0.7,0.3,1.5,0.8,2.3,1.5l-0.1-2.9v-6.5h2.5v24.3h-2l-0.2-2h-0.1c-0.7,0.7-1.5,1.3-2.4,1.8
				c-0.9,0.4-1.8,0.7-2.7,0.7C386.6,709.1,385,708.3,383.8,706.8z M391.5,706.4c0.7-0.4,1.4-1,2.2-1.8v-9c-0.7-0.6-1.4-1.1-2.1-1.4
				c-0.7-0.3-1.4-0.4-2.1-0.4c-0.9,0-1.8,0.3-2.5,0.9c-0.8,0.6-1.4,1.4-1.8,2.4c-0.4,1-0.7,2.1-0.7,3.4c0,2,0.4,3.6,1.2,4.8
				c0.8,1.2,2,1.7,3.5,1.7C390.1,707,390.8,706.8,391.5,706.4z"/>
			<path class="st4" d="M401.9,696.1c-0.4-0.4-0.5-0.8-0.5-1.4c0-0.6,0.2-1.1,0.5-1.4c0.4-0.4,0.8-0.6,1.3-0.6c0.5,0,1,0.2,1.3,0.6
				c0.4,0.4,0.5,0.9,0.5,1.4c0,0.6-0.2,1-0.5,1.4c-0.4,0.4-0.8,0.6-1.3,0.6C402.7,696.6,402.2,696.4,401.9,696.1z M401.9,708.5
				c-0.4-0.4-0.5-0.8-0.5-1.4c0-0.6,0.2-1.1,0.5-1.4c0.4-0.4,0.8-0.6,1.3-0.6c0.5,0,1,0.2,1.3,0.6c0.4,0.4,0.5,0.9,0.5,1.4
				c0,0.6-0.2,1-0.5,1.4c-0.4,0.4-0.8,0.6-1.3,0.6C402.7,709.1,402.2,708.9,401.9,708.5z"/>
			<path class="st4" d="M410.8,706.8c-1.2-1.5-1.8-3.6-1.8-6.4c0-1.7,0.3-3.2,1-4.6c0.7-1.3,1.5-2.3,2.6-3s2.3-1.1,3.6-1.1
				c0.9,0,1.7,0.2,2.4,0.5c0.7,0.3,1.5,0.8,2.3,1.5l-0.1-2.9v-6.5h2.5v24.3h-2l-0.2-2h-0.1c-0.7,0.7-1.5,1.3-2.4,1.8
				c-0.9,0.4-1.8,0.7-2.7,0.7C413.7,709.1,412,708.3,410.8,706.8z M418.6,706.4c0.7-0.4,1.4-1,2.2-1.8v-9c-0.7-0.6-1.4-1.1-2.1-1.4
				c-0.7-0.3-1.4-0.4-2.1-0.4c-0.9,0-1.8,0.3-2.5,0.9s-1.4,1.4-1.8,2.4c-0.4,1-0.7,2.1-0.7,3.4c0,2,0.4,3.6,1.2,4.8
				c0.8,1.2,2,1.7,3.5,1.7C417.1,707,417.9,706.8,418.6,706.4z"/>
			<path class="st4" d="M429.3,707.9c-0.9-0.8-1.4-2-1.4-3.4c0-1.8,0.8-3.2,2.5-4.1c1.6-1,4.2-1.6,7.8-2c0-1.3-0.3-2.4-0.8-3.2
				c-0.5-0.8-1.4-1.2-2.7-1.2c-1.6,0-3.2,0.6-5,1.8l-1-1.7c2.2-1.5,4.3-2.2,6.4-2.2c1.9,0,3.3,0.6,4.2,1.8c0.9,1.2,1.4,2.8,1.4,4.9
				v10.2h-2l-0.2-2h-0.1c-2,1.6-3.8,2.4-5.6,2.4C431.4,709.1,430.2,708.7,429.3,707.9z M435.8,706.5c0.8-0.4,1.6-1,2.5-1.8v-4.8
				c-2.8,0.3-4.9,0.9-6,1.6c-1.2,0.7-1.8,1.6-1.8,2.8c0,0.9,0.3,1.6,0.9,2.1c0.6,0.5,1.3,0.7,2.2,0.7
				C434.2,707.1,435,706.9,435.8,706.5z"/>
			<path class="st4" d="M447.1,707.7c-0.7-0.9-1.1-2.3-1.1-4v-9.5h-2.5v-1.9l2.6-0.2l0.3-4.7h2.1v4.7h4.5v2h-4.5v9.6
				c0,1.1,0.2,1.9,0.6,2.5s1.1,0.8,2,0.8c0.5,0,1.1-0.1,1.9-0.4l0.5,1.9c-1.2,0.4-2.2,0.6-3,0.6C449,709.1,447.9,708.6,447.1,707.7z
				"/>
			<path class="st4" d="M469,701h-11.4c0.1,1.9,0.7,3.4,1.8,4.5c1.1,1.1,2.4,1.6,4,1.6c1.5,0,2.8-0.4,4.2-1.3l0.9,1.6
				c-0.8,0.5-1.7,0.9-2.5,1.2c-0.9,0.3-1.8,0.5-2.9,0.5c-1.5,0-2.8-0.3-4-1c-1.2-0.7-2.1-1.7-2.8-3c-0.7-1.3-1-2.8-1-4.6
				c0-1.7,0.3-3.2,1-4.6c0.7-1.3,1.6-2.3,2.7-3c1.1-0.7,2.3-1.1,3.6-1.1c2,0,3.6,0.7,4.8,2.1c1.1,1.4,1.7,3.3,1.7,5.7
				C469.1,700.1,469.1,700.6,469,701z M466.9,699.2c0-1.7-0.4-3.1-1.1-4c-0.8-0.9-1.8-1.4-3.1-1.4c-1.2,0-2.3,0.5-3.3,1.4
				c-1,0.9-1.5,2.3-1.7,4H466.9z"/>
		</g>
	</g>
</g>
<g>
	<g>
		<g>
			<rect x="405.7" y="354.6" class="st6" width="3.5" height="261.6"/>
		</g>
		<g>
			<polygon class="st6" points="408.1,618.8 389.1,580 392.2,578.5 407.8,610.4 421,578.6 424.2,579.9 			"/>
		</g>
	</g>
	<g>
		<g>
			<polygon class="st6" points="134.5,401.8 138.4,398.3 375.1,398.3 375.1,401.8 			"/>
		</g>
		<g>
			<polygon class="st6" points="131.8,400.7 170.7,381.7 172.2,384.8 140.3,400.5 172.1,413.7 170.7,416.9 			"/>
		</g>
	</g>
	<g>
		<g>
			<polygon class="st6" points="674.8,396.8 671.9,400.3 433.2,400.3 433.2,396.8 			"/>
		</g>
		<g>
			<polygon class="st6" points="677.4,397.9 638.6,416.9 637.1,413.8 669,398.1 637.2,384.9 638.5,381.7 			"/>
		</g>
	</g>
	<g>
		<path class="st7" d="M420.1,520.8c-0.4-0.4-0.5-0.8-0.5-1.4c0-0.6,0.2-1.1,0.5-1.4c0.4-0.4,0.8-0.6,1.3-0.6c0.5,0,1,0.2,1.3,0.6
			c0.4,0.4,0.5,0.8,0.5,1.4c0,0.6-0.2,1-0.5,1.4c-0.4,0.4-0.8,0.6-1.3,0.6C420.9,521.3,420.4,521.1,420.1,520.8z M420.1,533.1
			c-0.4-0.4-0.5-0.8-0.5-1.4c0-0.6,0.2-1.1,0.5-1.4c0.4-0.4,0.8-0.6,1.3-0.6c0.5,0,1,0.2,1.3,0.6c0.4,0.4,0.5,0.8,0.5,1.4
			c0,0.6-0.2,1-0.5,1.4c-0.4,0.4-0.8,0.6-1.3,0.6C420.9,533.7,420.4,533.5,420.1,533.1z"/>
		<path class="st7" d="M429.2,533c-1.1-0.4-2-1-2.8-1.6l1.2-1.7c0.8,0.7,1.6,1.1,2.4,1.5c0.8,0.3,1.6,0.5,2.6,0.5
			c1.1,0,1.9-0.3,2.5-0.8c0.6-0.5,0.9-1.2,0.9-2c0-0.8-0.3-1.4-1-1.9c-0.7-0.5-1.6-0.9-2.8-1.3c-1.6-0.6-2.8-1.2-3.6-1.8
			s-1.3-1.6-1.3-2.9c0-1.3,0.5-2.4,1.5-3.3c1-0.9,2.4-1.3,4.1-1.3c0.9,0,1.8,0.2,2.7,0.5c0.9,0.3,1.6,0.8,2.3,1.3l-1.2,1.6
			c-0.7-0.5-1.3-0.8-1.9-1.1c-0.6-0.2-1.2-0.4-1.9-0.4c-1,0-1.8,0.2-2.4,0.7s-0.8,1.1-0.8,1.8c0,0.5,0.2,0.9,0.5,1.3
			c0.3,0.4,0.7,0.6,1.2,0.9c0.5,0.2,1.1,0.5,2,0.8c1.1,0.4,2,0.8,2.7,1.1c0.7,0.3,1.2,0.8,1.7,1.4c0.5,0.6,0.7,1.4,0.7,2.4
			c0,0.9-0.2,1.7-0.7,2.4c-0.5,0.7-1.1,1.3-2,1.7c-0.9,0.4-1.9,0.6-3.2,0.6C431.4,533.7,430.3,533.5,429.2,533z"/>
		<path class="st7" d="M443.5,532.3c-0.7-0.9-1-2.2-1-3.9v-9.4H440v-1.9l2.6-0.2l0.3-4.6h2.1v4.6h4.5v2h-4.5v9.5
			c0,1.1,0.2,1.9,0.6,2.4c0.4,0.5,1.1,0.8,2,0.8c0.5,0,1.1-0.1,1.9-0.4l0.5,1.9c-1.2,0.4-2.2,0.6-2.9,0.6
			C445.4,533.7,444.2,533.2,443.5,532.3z"/>
		<path class="st7" d="M452.7,532.4c-0.9-0.8-1.3-1.9-1.3-3.4c0-1.8,0.8-3.1,2.4-4.1c1.6-1,4.2-1.6,7.8-2c0-1.3-0.3-2.3-0.8-3.2
			c-0.5-0.8-1.4-1.2-2.7-1.2c-1.6,0-3.2,0.6-5,1.8l-1-1.7c2.2-1.4,4.3-2.2,6.3-2.2c1.9,0,3.3,0.6,4.2,1.8c0.9,1.2,1.3,2.8,1.3,4.9
			v10.1h-2l-0.2-2h-0.1c-1.9,1.6-3.8,2.4-5.5,2.4C454.8,533.7,453.6,533.3,452.7,532.4z M459.1,531.1c0.8-0.4,1.6-1,2.4-1.7v-4.8
			c-2.8,0.3-4.8,0.9-6,1.6c-1.2,0.7-1.8,1.6-1.8,2.8c0,0.9,0.3,1.6,0.8,2.1c0.6,0.5,1.3,0.7,2.2,0.7
			C457.6,531.7,458.4,531.5,459.1,531.1z"/>
		<path class="st7" d="M469.4,516.9h2l0.2,3h0.1c0.6-1.1,1.2-1.9,2.1-2.5c0.8-0.6,1.7-0.9,2.6-0.9c0.7,0,1.2,0.1,1.7,0.3l-0.5,2.2
			c-0.6-0.2-1.1-0.3-1.6-0.3c-0.8,0-1.5,0.3-2.3,0.9s-1.4,1.6-1.9,2.9v10.7h-2.4V516.9z"/>
		<path class="st7" d="M482.3,532.3c-0.7-0.9-1-2.2-1-3.9v-9.4h-2.5v-1.9l2.6-0.2l0.3-4.6h2.1v4.6h4.5v2h-4.5v9.5
			c0,1.1,0.2,1.9,0.6,2.4c0.4,0.5,1.1,0.8,2,0.8c0.5,0,1.1-0.1,1.9-0.4l0.5,1.9c-1.2,0.4-2.2,0.6-2.9,0.6
			C484.2,533.7,483,533.2,482.3,532.3z"/>
		<path class="st7" d="M492.2,511.1h5.4c3.4,0,5.9,1,7.7,2.9c1.8,1.9,2.6,4.6,2.6,8.1c0,3.5-0.9,6.2-2.6,8.2c-1.8,2-4.3,3-7.6,3
			h-5.5V511.1z M497.5,531.2c2.7,0,4.6-0.8,6-2.4c1.3-1.6,2-3.8,2-6.7c0-2.9-0.7-5.1-2-6.6c-1.3-1.6-3.3-2.3-6-2.3h-2.7v18H497.5z"
			/>
		<path class="st7" d="M512.9,532.4c-0.9-0.8-1.3-1.9-1.3-3.4c0-1.8,0.8-3.1,2.4-4.1c1.6-1,4.2-1.6,7.8-2c0-1.3-0.3-2.3-0.8-3.2
			c-0.5-0.8-1.4-1.2-2.7-1.2c-1.6,0-3.2,0.6-5,1.8l-1-1.7c2.2-1.4,4.3-2.2,6.3-2.2c1.9,0,3.3,0.6,4.2,1.8c0.9,1.2,1.3,2.8,1.3,4.9
			v10.1h-2l-0.2-2h-0.1c-1.9,1.6-3.8,2.4-5.5,2.4C515,533.7,513.8,533.3,512.9,532.4z M519.3,531.1c0.8-0.4,1.6-1,2.4-1.7v-4.8
			c-2.8,0.3-4.8,0.9-6,1.6c-1.2,0.7-1.8,1.6-1.8,2.8c0,0.9,0.3,1.6,0.8,2.1c0.6,0.5,1.3,0.7,2.2,0.7
			C517.8,531.7,518.6,531.5,519.3,531.1z"/>
		<path class="st7" d="M530.6,532.3c-0.7-0.9-1-2.2-1-3.9v-9.4h-2.5v-1.9l2.6-0.2l0.3-4.6h2.1v4.6h4.5v2H532v9.5
			c0,1.1,0.2,1.9,0.6,2.4c0.4,0.5,1.1,0.8,2,0.8c0.5,0,1.1-0.1,1.9-0.4l0.5,1.9c-1.2,0.4-2.2,0.6-2.9,0.6
			C532.5,533.7,531.3,533.2,530.6,532.3z"/>
		<path class="st7" d="M552.2,525.6h-11.3c0.1,1.9,0.7,3.4,1.8,4.5c1.1,1.1,2.4,1.6,3.9,1.6c1.4,0,2.8-0.4,4.1-1.3l0.9,1.6
			c-0.8,0.5-1.6,0.9-2.5,1.2c-0.9,0.3-1.8,0.5-2.9,0.5c-1.4,0-2.7-0.3-3.9-1c-1.2-0.7-2.1-1.7-2.8-3c-0.7-1.3-1-2.8-1-4.6
			c0-1.7,0.3-3.2,1-4.5c0.7-1.3,1.6-2.3,2.7-3c1.1-0.7,2.3-1.1,3.6-1.1c2,0,3.6,0.7,4.7,2c1.1,1.4,1.7,3.2,1.7,5.6
			C552.3,524.7,552.3,525.2,552.2,525.6z M550.1,523.8c0-1.7-0.4-3.1-1.1-4c-0.7-0.9-1.8-1.4-3.1-1.4c-1.2,0-2.3,0.5-3.2,1.4
			s-1.5,2.2-1.7,4H550.1z"/>
	</g>
	<g>
		<path class="st7" d="M421.1,273.3h2l0.2,3h0.1c0.6-1.1,1.2-1.9,2.1-2.5c0.8-0.6,1.7-0.9,2.6-0.9c0.7,0,1.2,0.1,1.7,0.3l-0.5,2.2
			c-0.6-0.2-1.1-0.3-1.6-0.3c-0.8,0-1.5,0.3-2.3,0.9c-0.8,0.6-1.4,1.6-1.9,2.9v10.7h-2.4V273.3z"/>
		<path class="st7" d="M432.9,287.8c-1.2-1.5-1.8-3.6-1.8-6.3c0-1.7,0.3-3.2,1-4.5c0.7-1.3,1.5-2.3,2.6-3c1.1-0.7,2.3-1.1,3.5-1.1
			c0.9,0,1.7,0.2,2.4,0.5c0.7,0.3,1.5,0.8,2.3,1.5l-0.1-2.8v-6.4h2.4v24.1h-2l-0.2-2h-0.1c-0.7,0.7-1.5,1.3-2.3,1.7
			c-0.9,0.4-1.8,0.7-2.7,0.7C435.7,290,434.1,289.3,432.9,287.8z M440.6,287.4c0.7-0.4,1.4-1,2.2-1.8v-8.9c-0.7-0.6-1.4-1.1-2.1-1.4
			c-0.7-0.3-1.4-0.4-2.1-0.4c-0.9,0-1.8,0.3-2.5,0.8c-0.8,0.6-1.3,1.3-1.8,2.3c-0.4,1-0.7,2.1-0.7,3.3c0,2,0.4,3.6,1.2,4.8
			c0.8,1.1,2,1.7,3.5,1.7C439.1,287.9,439.8,287.8,440.6,287.4z"/>
		<path class="st7" d="M453.7,270.5v2.8h3.5v2h-3.5v14.3h-2.5v-14.3H449v-1.9l2.2-0.2v-2.8c0-1.7,0.4-3,1.2-3.9s1.9-1.4,3.5-1.4
			c0.9,0,1.8,0.2,2.6,0.5l-0.5,1.9c-0.6-0.3-1.3-0.4-1.9-0.4C454.5,267.2,453.7,268.3,453.7,270.5z"/>
		<path class="st7" d="M460.4,277.1c-0.4-0.4-0.5-0.8-0.5-1.4c0-0.6,0.2-1.1,0.5-1.4c0.4-0.4,0.8-0.6,1.3-0.6c0.5,0,1,0.2,1.3,0.6
			c0.4,0.4,0.5,0.8,0.5,1.4c0,0.6-0.2,1-0.5,1.4c-0.4,0.4-0.8,0.6-1.3,0.6C461.2,277.7,460.7,277.5,460.4,277.1z M460.4,289.5
			c-0.4-0.4-0.5-0.8-0.5-1.4c0-0.6,0.2-1.1,0.5-1.4c0.4-0.4,0.8-0.6,1.3-0.6c0.5,0,1,0.2,1.3,0.6c0.4,0.4,0.5,0.8,0.5,1.4
			c0,0.6-0.2,1-0.5,1.4c-0.4,0.4-0.8,0.6-1.3,0.6C461.2,290,460.7,289.9,460.4,289.5z"/>
		<path class="st7" d="M470.1,288.7c-0.7-0.9-1-2.2-1-3.9v-9.4h-2.5v-1.9l2.6-0.2l0.3-4.6h2.1v4.6h4.5v2h-4.5v9.5
			c0,1.1,0.2,1.9,0.6,2.4c0.4,0.5,1.1,0.8,2,0.8c0.5,0,1.1-0.1,1.9-0.4l0.5,1.9c-1.2,0.4-2.2,0.6-2.9,0.6
			C472,290,470.8,289.6,470.1,288.7z"/>
		<path class="st7" d="M478,296.4l0.5-2c0.4,0.2,0.9,0.3,1.3,0.3c0.9,0,1.7-0.3,2.3-1c0.6-0.7,1.1-1.6,1.5-2.7l0.4-1.2l-6.6-16.5
			h2.5l3.5,9.4l1.6,4.6h0.1c0.3-0.9,0.6-2,1-3.1l0.4-1.5l3.1-9.4h2.4l-6.2,17.9c-0.6,1.8-1.4,3.1-2.3,4.1c-0.9,1-2.1,1.5-3.6,1.5
			C479.2,296.8,478.5,296.7,478,296.4z"/>
		<path class="st7" d="M495.3,273.3h2l0.2,2h0.1c1.9-1.6,3.7-2.4,5.3-2.4c2.1,0,3.7,0.7,4.8,2.2c1.1,1.5,1.7,3.5,1.7,6.1
			c0,1.8-0.3,3.4-1,4.7c-0.7,1.3-1.5,2.4-2.6,3.1c-1.1,0.7-2.2,1.1-3.5,1.1c-1.5,0-3-0.6-4.7-1.9l0.1,2.9v5.6h-2.4V273.3z
			 M504.4,287.1c0.8-0.6,1.3-1.3,1.8-2.3c0.4-1,0.6-2.2,0.6-3.5c0-2-0.4-3.5-1.1-4.6c-0.7-1.1-1.9-1.7-3.4-1.7
			c-1.4,0-2.9,0.8-4.6,2.4v8.8c0.7,0.6,1.5,1.1,2.2,1.4c0.7,0.3,1.4,0.4,2,0.4C502.8,287.9,503.7,287.7,504.4,287.1z"/>
		<path class="st7" d="M526.3,282H515c0.1,1.9,0.7,3.4,1.8,4.5c1.1,1.1,2.4,1.6,3.9,1.6c1.4,0,2.8-0.4,4.1-1.3l0.9,1.6
			c-0.8,0.5-1.6,0.9-2.5,1.2c-0.9,0.3-1.8,0.5-2.9,0.5c-1.4,0-2.7-0.3-3.9-1c-1.2-0.7-2.1-1.7-2.8-3c-0.7-1.3-1-2.8-1-4.6
			c0-1.7,0.3-3.2,1-4.5c0.7-1.3,1.6-2.3,2.7-3c1.1-0.7,2.3-1.1,3.6-1.1c2,0,3.6,0.7,4.7,2c1.1,1.4,1.7,3.2,1.7,5.6
			C526.4,281.1,526.3,281.6,526.3,282z M524.2,280.2c0-1.7-0.4-3.1-1.1-4c-0.7-0.9-1.8-1.4-3.1-1.4c-1.2,0-2.3,0.5-3.2,1.4
			c-0.9,0.9-1.5,2.2-1.7,4H524.2z"/>
	</g>
	<g>
		<path class="st7" d="M193.9,434.3c-0.4-0.4-0.5-0.8-0.5-1.4c0-0.6,0.2-1.1,0.5-1.4c0.4-0.4,0.8-0.6,1.3-0.6c0.5,0,1,0.2,1.3,0.6
			c0.4,0.4,0.5,0.8,0.5,1.4c0,0.6-0.2,1-0.5,1.4c-0.4,0.4-0.8,0.6-1.3,0.6C194.7,434.9,194.3,434.7,193.9,434.3z M193.9,446.7
			c-0.4-0.4-0.5-0.8-0.5-1.4c0-0.6,0.2-1.1,0.5-1.4c0.4-0.4,0.8-0.6,1.3-0.6c0.5,0,1,0.2,1.3,0.6c0.4,0.4,0.5,0.8,0.5,1.4
			c0,0.6-0.2,1-0.5,1.4c-0.4,0.4-0.8,0.6-1.3,0.6C194.7,447.2,194.3,447,193.9,446.7z"/>
		<path class="st7" d="M202.2,430.5h2l0.2,2h0.1c1.9-1.6,3.7-2.4,5.3-2.4c2.1,0,3.7,0.7,4.8,2.2c1.1,1.5,1.7,3.5,1.7,6.1
			c0,1.8-0.3,3.4-1,4.7c-0.7,1.3-1.5,2.4-2.6,3.1c-1.1,0.7-2.2,1.1-3.5,1.1c-1.5,0-3-0.6-4.7-1.9l0.1,2.9v5.6h-2.4V430.5z
			 M211.4,444.3c0.8-0.6,1.3-1.3,1.8-2.3c0.4-1,0.6-2.2,0.6-3.5c0-2-0.4-3.5-1.1-4.6c-0.7-1.1-1.9-1.7-3.4-1.7
			c-1.4,0-2.9,0.8-4.6,2.4v8.8c0.7,0.6,1.5,1.1,2.2,1.4c0.7,0.3,1.4,0.4,2,0.4C209.8,445.1,210.6,444.9,211.4,444.3z"/>
		<path class="st7" d="M220.6,446c-0.9-0.8-1.3-1.9-1.3-3.4c0-1.8,0.8-3.1,2.4-4.1c1.6-1,4.2-1.6,7.8-2c0-1.3-0.3-2.3-0.8-3.2
			c-0.5-0.8-1.4-1.2-2.7-1.2c-1.6,0-3.2,0.6-5,1.8l-1-1.7c2.2-1.4,4.3-2.2,6.3-2.2c1.9,0,3.3,0.6,4.2,1.8c0.9,1.2,1.3,2.8,1.3,4.9
			v10.1h-2l-0.2-2h-0.1c-1.9,1.6-3.8,2.4-5.5,2.4C222.7,447.2,221.5,446.8,220.6,446z M227,444.7c0.8-0.4,1.6-1,2.4-1.7v-4.8
			c-2.8,0.3-4.8,0.9-6,1.6c-1.2,0.7-1.8,1.6-1.8,2.8c0,0.9,0.3,1.6,0.8,2.1c0.6,0.5,1.3,0.7,2.2,0.7
			C225.5,445.2,226.3,445,227,444.7z"/>
		<path class="st7" d="M237.2,430.5h2l0.2,3h0.1c0.6-1.1,1.2-1.9,2.1-2.5c0.8-0.6,1.7-0.9,2.6-0.9c0.7,0,1.2,0.1,1.7,0.3l-0.5,2.2
			c-0.6-0.2-1.1-0.3-1.6-0.3c-0.8,0-1.5,0.3-2.3,0.9s-1.4,1.6-1.9,2.9v10.7h-2.4V430.5z"/>
		<path class="st7" d="M250.2,445.8c-0.7-0.9-1-2.2-1-3.9v-9.4h-2.5v-1.9l2.6-0.2l0.3-4.6h2.1v4.6h4.5v2h-4.5v9.5
			c0,1.1,0.2,1.9,0.6,2.4c0.4,0.5,1.1,0.8,2,0.8c0.5,0,1.1-0.1,1.9-0.4l0.5,1.9c-1.2,0.4-2.2,0.6-2.9,0.6
			C252.1,447.2,250.9,446.8,250.2,445.8z"/>
		<path class="st7" d="M259.9,430.5h2l0.2,2.4h0.1c0.9-0.9,1.8-1.6,2.6-2.1c0.9-0.5,1.8-0.7,2.8-0.7c1.7,0,3,0.5,3.8,1.6
			c0.8,1.1,1.2,2.7,1.2,4.8v10.4h-2.5v-10.1c0-1.6-0.3-2.7-0.8-3.4s-1.3-1.1-2.5-1.1c-0.8,0-1.6,0.2-2.3,0.6c-0.7,0.4-1.5,1.1-2.4,2
			v12h-2.4V430.5z"/>
		<path class="st7" d="M290.6,439.2h-11.3c0.1,1.9,0.7,3.4,1.8,4.5c1.1,1.1,2.4,1.6,3.9,1.6c1.4,0,2.8-0.4,4.1-1.3l0.9,1.6
			c-0.8,0.5-1.6,0.9-2.5,1.2c-0.9,0.3-1.8,0.5-2.9,0.5c-1.4,0-2.7-0.3-3.9-1c-1.2-0.7-2.1-1.7-2.8-3c-0.7-1.3-1-2.8-1-4.6
			c0-1.7,0.3-3.2,1-4.5c0.7-1.3,1.6-2.3,2.7-3c1.1-0.7,2.3-1.1,3.6-1.1c2,0,3.6,0.7,4.7,2c1.1,1.4,1.7,3.2,1.7,5.6
			C290.7,438.3,290.6,438.8,290.6,439.2z M288.5,437.4c0-1.7-0.4-3.1-1.1-4c-0.7-0.9-1.8-1.4-3.1-1.4c-1.2,0-2.3,0.5-3.2,1.4
			s-1.5,2.2-1.7,4H288.5z"/>
		<path class="st7" d="M294.8,430.5h2l0.2,3h0.1c0.6-1.1,1.2-1.9,2.1-2.5c0.8-0.6,1.7-0.9,2.6-0.9c0.7,0,1.2,0.1,1.7,0.3l-0.5,2.2
			c-0.6-0.2-1.1-0.3-1.6-0.3c-0.8,0-1.5,0.3-2.3,0.9s-1.4,1.6-1.9,2.9v10.7h-2.4V430.5z"/>
		<path class="st7" d="M305,444.8h5v-16.4h-3.9v-1.6c1.8-0.3,3.3-0.8,4.5-1.5h1.9v19.5h4.5v2.1H305V444.8z"/>
	</g>
	<g>
		<path class="st7" d="M490.7,434.3c-0.4-0.4-0.5-0.8-0.5-1.4c0-0.6,0.2-1.1,0.5-1.4c0.4-0.4,0.8-0.6,1.3-0.6c0.5,0,1,0.2,1.3,0.6
			c0.4,0.4,0.5,0.8,0.5,1.4c0,0.6-0.2,1-0.5,1.4c-0.4,0.4-0.8,0.6-1.3,0.6C491.5,434.9,491.1,434.7,490.7,434.3z M490.7,446.7
			c-0.4-0.4-0.5-0.8-0.5-1.4c0-0.6,0.2-1.1,0.5-1.4c0.4-0.4,0.8-0.6,1.3-0.6c0.5,0,1,0.2,1.3,0.6c0.4,0.4,0.5,0.8,0.5,1.4
			c0,0.6-0.2,1-0.5,1.4c-0.4,0.4-0.8,0.6-1.3,0.6C491.5,447.2,491.1,447,490.7,446.7z"/>
		<path class="st7" d="M499,430.5h2l0.2,2h0.1c1.9-1.6,3.7-2.4,5.3-2.4c2.1,0,3.7,0.7,4.8,2.2c1.1,1.5,1.7,3.5,1.7,6.1
			c0,1.8-0.3,3.4-1,4.7c-0.7,1.3-1.5,2.4-2.6,3.1c-1.1,0.7-2.2,1.1-3.5,1.1c-1.5,0-3-0.6-4.7-1.9l0.1,2.9v5.6H499V430.5z
			 M508.1,444.3c0.8-0.6,1.3-1.3,1.8-2.3c0.4-1,0.6-2.2,0.6-3.5c0-2-0.4-3.5-1.1-4.6c-0.7-1.1-1.9-1.7-3.4-1.7
			c-1.4,0-2.9,0.8-4.6,2.4v8.8c0.7,0.6,1.5,1.1,2.2,1.4c0.7,0.3,1.4,0.4,2,0.4C506.5,445.1,507.4,444.9,508.1,444.3z"/>
		<path class="st7" d="M517.4,446c-0.9-0.8-1.3-1.9-1.3-3.4c0-1.8,0.8-3.1,2.4-4.1c1.6-1,4.2-1.6,7.8-2c0-1.3-0.3-2.3-0.8-3.2
			c-0.5-0.8-1.4-1.2-2.7-1.2c-1.6,0-3.2,0.6-5,1.8l-1-1.7c2.2-1.4,4.3-2.2,6.3-2.2c1.9,0,3.3,0.6,4.2,1.8c0.9,1.2,1.3,2.8,1.3,4.9
			v10.1h-2l-0.2-2h-0.1c-1.9,1.6-3.8,2.4-5.5,2.4C519.4,447.2,518.3,446.8,517.4,446z M523.8,444.7c0.8-0.4,1.6-1,2.4-1.7v-4.8
			c-2.8,0.3-4.8,0.9-6,1.6c-1.2,0.7-1.8,1.6-1.8,2.8c0,0.9,0.3,1.6,0.8,2.1c0.6,0.5,1.3,0.7,2.2,0.7
			C522.3,445.2,523,445,523.8,444.7z"/>
		<path class="st7" d="M534,430.5h2l0.2,3h0.1c0.6-1.1,1.2-1.9,2.1-2.5c0.8-0.6,1.7-0.9,2.6-0.9c0.7,0,1.2,0.1,1.7,0.3l-0.5,2.2
			c-0.6-0.2-1.1-0.3-1.6-0.3c-0.8,0-1.5,0.3-2.3,0.9s-1.4,1.6-1.9,2.9v10.7H534V430.5z"/>
		<path class="st7" d="M547,445.8c-0.7-0.9-1-2.2-1-3.9v-9.4h-2.5v-1.9l2.6-0.2l0.3-4.6h2.1v4.6h4.5v2h-4.5v9.5
			c0,1.1,0.2,1.9,0.6,2.4c0.4,0.5,1.1,0.8,2,0.8c0.5,0,1.1-0.1,1.9-0.4l0.5,1.9c-1.2,0.4-2.2,0.6-2.9,0.6
			C548.8,447.2,547.7,446.8,547,445.8z"/>
		<path class="st7" d="M556.6,430.5h2l0.2,2.4h0.1c0.9-0.9,1.8-1.6,2.6-2.1c0.9-0.5,1.8-0.7,2.8-0.7c1.7,0,3,0.5,3.8,1.6
			c0.8,1.1,1.2,2.7,1.2,4.8v10.4H567v-10.1c0-1.6-0.3-2.7-0.8-3.4s-1.3-1.1-2.5-1.1c-0.8,0-1.6,0.2-2.3,0.6c-0.7,0.4-1.5,1.1-2.4,2
			v12h-2.4V430.5z"/>
		<path class="st7" d="M587.3,439.2H576c0.1,1.9,0.7,3.4,1.8,4.5c1.1,1.1,2.4,1.6,3.9,1.6c1.4,0,2.8-0.4,4.1-1.3l0.9,1.6
			c-0.8,0.5-1.6,0.9-2.5,1.2c-0.9,0.3-1.8,0.5-2.9,0.5c-1.4,0-2.7-0.3-3.9-1c-1.2-0.7-2.1-1.7-2.8-3c-0.7-1.3-1-2.8-1-4.6
			c0-1.7,0.3-3.2,1-4.5c0.7-1.3,1.6-2.3,2.7-3c1.1-0.7,2.3-1.1,3.6-1.1c2,0,3.6,0.7,4.7,2c1.1,1.4,1.7,3.2,1.7,5.6
			C587.4,438.3,587.4,438.8,587.3,439.2z M585.2,437.4c0-1.7-0.4-3.1-1.1-4c-0.7-0.9-1.8-1.4-3.1-1.4c-1.2,0-2.3,0.5-3.2,1.4
			s-1.5,2.2-1.7,4H585.2z"/>
		<path class="st7" d="M591.6,430.5h2l0.2,3h0.1c0.6-1.1,1.2-1.9,2.1-2.5c0.8-0.6,1.7-0.9,2.6-0.9c0.7,0,1.2,0.1,1.7,0.3l-0.5,2.2
			c-0.6-0.2-1.1-0.3-1.6-0.3c-0.8,0-1.5,0.3-2.3,0.9s-1.4,1.6-1.9,2.9v10.7h-2.4V430.5z"/>
		<path class="st7" d="M601.5,445.4c2.5-2.6,4.5-4.6,5.9-6.2c1.4-1.6,2.5-3,3.2-4.3c0.8-1.3,1.1-2.5,1.1-3.7c0-1.3-0.4-2.3-1.1-3.1
			c-0.7-0.8-1.8-1.2-3.2-1.2c-0.9,0-1.7,0.2-2.5,0.7c-0.8,0.5-1.5,1.1-2.2,1.9l-1.5-1.4c0.9-1,1.9-1.8,3-2.4c1-0.6,2.2-0.8,3.5-0.8
			c2,0,3.5,0.6,4.7,1.7c1.1,1.1,1.7,2.6,1.7,4.5c0,1.3-0.4,2.6-1.1,4c-0.7,1.4-1.7,2.8-2.9,4.1c-1.2,1.4-2.9,3.3-5.1,5.6l0.8,0
			c1.3-0.1,2.2-0.1,2.8-0.1h6.5v2.1h-13.7V445.4z"/>
	</g>
	<g>
		<circle class="st1" cx="405.5" cy="106.4" r="80.6"/>
		<path class="st0" d="M405.5,187.1c-10.9,0-21.5-2.1-31.4-6.3c-9.6-4.1-18.2-9.9-25.6-17.3c-7.4-7.4-13.2-16-17.3-25.6
			c-4.2-9.9-6.3-20.5-6.3-31.4s2.1-21.5,6.3-31.4c4.1-9.6,9.9-18.2,17.3-25.6c7.4-7.4,16-13.2,25.6-17.3c9.9-4.2,20.5-6.3,31.4-6.3
			c10.9,0,21.5,2.1,31.4,6.3c9.6,4.1,18.2,9.9,25.6,17.3c7.4,7.4,13.2,16,17.3,25.6c4.2,9.9,6.3,20.5,6.3,31.4s-2.1,21.5-6.3,31.4
			c-4.1,9.6-9.9,18.2-17.3,25.6c-7.4,7.4-16,13.2-25.6,17.3C427,184.9,416.4,187.1,405.5,187.1z M416,26.5
			c-52.6-6.7-97,37.8-90.4,90.4c4.6,35.9,33.5,64.8,69.4,69.4c52.6,6.7,97-37.8,90.4-90.4C480.8,60,451.9,31.1,416,26.5z"/>
	</g>
	<g>
		<circle class="st6" cx="405.5" cy="106.4" r="67"/>
		<path class="st6" d="M405.5,173.5c-17.9,0-34.8-7-47.4-19.6c-12.7-12.7-19.6-29.5-19.6-47.4s7-34.8,19.6-47.4
			c12.7-12.7,29.5-19.6,47.4-19.6c17.9,0,34.8,7,47.4,19.6c12.7,12.7,19.6,29.5,19.6,47.4s-7,34.8-19.6,47.4
			C440.3,166.5,423.4,173.5,405.5,173.5z M405.5,39.5c-36.9,0-66.9,30-66.9,66.9s30,66.9,66.9,66.9s66.9-30,66.9-66.9
			S442.4,39.5,405.5,39.5z"/>
	</g>
	<g>
		<path class="st3" d="M347.3,88.4h3.1l4.4,12.1l1.6,4.7h0.1c0.2-0.4,0.4-1.1,0.6-1.9c0.4-1.1,0.7-2,0.9-2.8l4.3-12.1h3.1v22.2h-2.3
			V97.7c0-1.3,0.1-3.5,0.3-6.4h-0.1l-1.8,5l-4.3,11.9h-1.8l-4.4-11.9l-1.8-5h-0.1l0.1,0.8c0.2,2.4,0.3,4.2,0.3,5.6v12.8h-2.3V88.4z"
			/>
		<path class="st3" d="M371.7,109.7c-0.9-0.8-1.3-1.9-1.3-3.4c0-1.8,0.8-3.1,2.4-4.1c1.6-1,4.2-1.6,7.8-2c0-1.3-0.3-2.3-0.8-3.2
			c-0.5-0.8-1.4-1.2-2.7-1.2c-1.6,0-3.2,0.6-5,1.8l-1-1.7c2.2-1.4,4.3-2.2,6.3-2.2c1.9,0,3.3,0.6,4.2,1.8c0.9,1.2,1.3,2.8,1.3,4.9
			v10.1h-2l-0.2-2h-0.1c-1.9,1.6-3.8,2.4-5.5,2.4C373.7,111,372.6,110.6,371.7,109.7z M378.1,108.4c0.8-0.4,1.6-0.9,2.4-1.7v-4.8
			c-2.8,0.3-4.8,0.9-6,1.6c-1.2,0.7-1.8,1.6-1.8,2.8c0,0.9,0.3,1.6,0.8,2.1c0.6,0.5,1.3,0.7,2.2,0.7
			C376.6,109,377.3,108.8,378.1,108.4z"/>
		<path class="st3" d="M388.3,94.2h2l0.2,3h0.1c0.6-1.1,1.2-1.9,2.1-2.5c0.8-0.6,1.7-0.9,2.6-0.9c0.7,0,1.2,0.1,1.7,0.3l-0.5,2.2
			c-0.6-0.2-1.1-0.3-1.6-0.3c-0.8,0-1.5,0.3-2.3,0.9c-0.8,0.6-1.4,1.6-1.9,2.9v10.7h-2.4V94.2z"/>
		<path class="st3" d="M399.8,94.2h2l0.2,3h0.1c0.6-1.1,1.2-1.9,2.1-2.5c0.8-0.6,1.7-0.9,2.6-0.9c0.7,0,1.2,0.1,1.7,0.3l-0.5,2.2
			c-0.6-0.2-1.1-0.3-1.6-0.3c-0.8,0-1.5,0.3-2.3,0.9c-0.8,0.6-1.4,1.6-1.9,2.9v10.7h-2.4V94.2z"/>
		<path class="st3" d="M411.3,90.2c-0.3-0.3-0.5-0.7-0.5-1.2c0-0.5,0.2-0.9,0.5-1.2s0.7-0.5,1.2-0.5c0.5,0,0.9,0.2,1.2,0.5
			c0.3,0.3,0.5,0.7,0.5,1.2c0,0.5-0.2,0.9-0.5,1.2c-0.3,0.3-0.7,0.5-1.2,0.5C412,90.7,411.6,90.5,411.3,90.2z M411.3,94.2h2.4v16.4
			h-2.4V94.2z"/>
		<path class="st3" d="M419.7,109.7c-0.9-0.8-1.3-1.9-1.3-3.4c0-1.8,0.8-3.1,2.4-4.1c1.6-1,4.2-1.6,7.8-2c0-1.3-0.3-2.3-0.8-3.2
			c-0.5-0.8-1.4-1.2-2.7-1.2c-1.6,0-3.2,0.6-5,1.8l-1-1.7c2.2-1.4,4.3-2.2,6.3-2.2c1.9,0,3.3,0.6,4.2,1.8c0.9,1.2,1.3,2.8,1.3,4.9
			v10.1h-2l-0.2-2h-0.1c-1.9,1.6-3.8,2.4-5.5,2.4C421.7,111,420.6,110.6,419.7,109.7z M426.1,108.4c0.8-0.4,1.6-0.9,2.4-1.7v-4.8
			c-2.8,0.3-4.8,0.9-6,1.6c-1.2,0.7-1.8,1.6-1.8,2.8c0,0.9,0.3,1.6,0.8,2.1c0.6,0.5,1.3,0.7,2.2,0.7
			C424.6,109,425.3,108.8,426.1,108.4z"/>
		<path class="st3" d="M436.9,117c-1.2-0.8-1.8-1.9-1.8-3.2c0-0.7,0.2-1.4,0.6-2c0.4-0.7,1-1.2,1.8-1.8v-0.1c-0.4-0.3-0.8-0.6-1-1.1
			c-0.3-0.4-0.4-1-0.4-1.6c0-0.6,0.2-1.2,0.5-1.7c0.3-0.5,0.8-1,1.3-1.3V104c-0.6-0.5-1.1-1.1-1.5-1.9c-0.4-0.8-0.6-1.6-0.6-2.5
			c0-1.1,0.3-2.2,0.8-3.1c0.5-0.9,1.3-1.6,2.2-2.1s1.9-0.7,3-0.7c0.7,0,1.5,0.1,2.3,0.4h5.7v1.9h-3.5c0.4,0.4,0.8,0.9,1,1.6
			c0.3,0.6,0.4,1.3,0.4,2c0,1.1-0.3,2.1-0.8,3c-0.5,0.9-1.2,1.5-2.1,2c-0.9,0.5-1.9,0.7-3,0.7c-0.9,0-1.7-0.2-2.5-0.6
			c-0.4,0.3-0.6,0.6-0.8,0.9c-0.2,0.3-0.3,0.7-0.3,1.1c0,0.6,0.2,1,0.7,1.4c0.4,0.3,1.2,0.5,2.2,0.5h3.3c1.9,0,3.3,0.3,4.2,0.9
			c0.9,0.6,1.4,1.6,1.4,2.9c0,1-0.3,1.9-1,2.8c-0.7,0.9-1.6,1.6-2.9,2.1c-1.2,0.5-2.7,0.8-4.2,0.8
			C439.7,118.2,438.1,117.8,436.9,117z M444.9,115.9c0.8-0.3,1.5-0.8,1.9-1.3c0.4-0.6,0.7-1.1,0.7-1.7c0-0.8-0.3-1.3-0.8-1.6
			c-0.6-0.3-1.4-0.5-2.6-0.5h-3c-0.7,0-1.4-0.1-2.1-0.3c-1.2,0.8-1.8,1.8-1.8,2.9c0,0.9,0.4,1.7,1.3,2.2s2.1,0.8,3.6,0.8
			C443.1,116.4,444.1,116.3,444.9,115.9z M444.3,102.5c0.7-0.8,1.1-1.7,1.1-2.9c0-1.2-0.3-2.2-1-2.9c-0.7-0.7-1.6-1.1-2.6-1.1
			c-1,0-1.9,0.4-2.6,1.1c-0.7,0.7-1.1,1.7-1.1,2.9c0,1.2,0.4,2.2,1.1,2.9c0.7,0.8,1.6,1.1,2.6,1.1
			C442.7,103.7,443.6,103.3,444.3,102.5z"/>
		<path class="st3" d="M465.1,102.9h-11.3c0.1,1.9,0.7,3.4,1.8,4.5c1.1,1.1,2.4,1.6,3.9,1.6c1.4,0,2.8-0.4,4.1-1.3l0.9,1.6
			c-0.8,0.5-1.6,0.9-2.5,1.2c-0.9,0.3-1.8,0.5-2.9,0.5c-1.4,0-2.7-0.3-3.9-1c-1.2-0.7-2.1-1.7-2.8-3c-0.7-1.3-1-2.8-1-4.6
			c0-1.7,0.3-3.2,1-4.5c0.7-1.3,1.6-2.3,2.7-3c1.1-0.7,2.3-1.1,3.6-1.1c2,0,3.6,0.7,4.7,2c1.1,1.4,1.7,3.2,1.7,5.6
			C465.2,102,465.2,102.5,465.1,102.9z M463,101.1c0-1.7-0.4-3.1-1.1-4c-0.7-0.9-1.8-1.4-3.1-1.4c-1.2,0-2.3,0.5-3.2,1.4
			c-0.9,0.9-1.5,2.2-1.7,4H463z"/>
	</g>
	<g>
		<g>
			<polygon class="st6" points="404.2,190.9 407.6,194.1 407.6,433.7 404.2,433.7 			"/>
		</g>
		<g>
			<polygon class="st6" points="405.2,188.2 424.2,227 421.1,228.6 405.5,196.6 392.3,228.5 389.1,227.1 			"/>
		</g>
	</g>
	<circle class="st3" cx="405" cy="398.8" r="84"/>
	<path class="st0" d="M405,482.1c-46,0-83.4-37.4-83.4-83.4s37.4-83.4,83.4-83.4s83.4,37.4,83.4,83.4S451,482.1,405,482.1z"/>
	<g>
		<circle class="st7" cx="405.3" cy="398.8" r="71.2"/>
	</g>
	<g>
		<path class="st3" d="M340.8,387.9h3.1l4.4,12.1l1.6,4.7h0.1c0.2-0.4,0.4-1.1,0.6-1.9c0.4-1.1,0.7-2,0.9-2.8l4.3-12.1h3.1V410h-2.3
			v-12.8c0-1.3,0.1-3.5,0.3-6.4h-0.1l-1.8,5l-4.3,11.9h-1.8l-4.4-11.9l-1.8-5h-0.1l0.1,0.8c0.2,2.4,0.3,4.2,0.3,5.6V410h-2.3V387.9z
			"/>
		<path class="st3" d="M365.1,409.2c-0.9-0.8-1.3-1.9-1.3-3.4c0-1.8,0.8-3.1,2.4-4.1c1.6-1,4.2-1.6,7.8-2c0-1.3-0.3-2.3-0.8-3.2
			c-0.5-0.8-1.4-1.2-2.7-1.2c-1.6,0-3.2,0.6-5,1.8l-1-1.7c2.2-1.4,4.3-2.2,6.3-2.2c1.9,0,3.3,0.6,4.2,1.8c0.9,1.2,1.3,2.8,1.3,4.9
			V410h-2l-0.2-2h-0.1c-1.9,1.6-3.8,2.4-5.5,2.4C367.2,410.4,366,410,365.1,409.2z M371.5,407.9c0.8-0.4,1.6-1,2.4-1.7v-4.8
			c-2.8,0.3-4.8,0.9-6,1.6c-1.2,0.7-1.8,1.6-1.8,2.8c0,0.9,0.3,1.6,0.8,2.1c0.6,0.5,1.3,0.7,2.2,0.7
			C370,408.4,370.8,408.2,371.5,407.9z"/>
		<path class="st3" d="M381.7,393.7h2l0.2,3h0.1c0.6-1.1,1.2-1.9,2.1-2.5s1.7-0.9,2.6-0.9c0.7,0,1.2,0.1,1.7,0.3l-0.5,2.2
			c-0.6-0.2-1.1-0.3-1.6-0.3c-0.8,0-1.5,0.3-2.3,0.9c-0.8,0.6-1.4,1.6-1.9,2.9V410h-2.4V393.7z"/>
		<path class="st3" d="M393.2,393.7h2l0.2,3h0.1c0.6-1.1,1.2-1.9,2.1-2.5s1.7-0.9,2.6-0.9c0.7,0,1.2,0.1,1.7,0.3l-0.5,2.2
			c-0.6-0.2-1.1-0.3-1.6-0.3c-0.8,0-1.5,0.3-2.3,0.9c-0.8,0.6-1.4,1.6-1.9,2.9V410h-2.4V393.7z"/>
		<path class="st3" d="M404.7,389.7c-0.3-0.3-0.5-0.7-0.5-1.2c0-0.5,0.2-0.9,0.5-1.2s0.7-0.5,1.2-0.5c0.5,0,0.9,0.2,1.2,0.5
			c0.3,0.3,0.5,0.7,0.5,1.2c0,0.5-0.2,0.9-0.5,1.2c-0.3,0.3-0.7,0.5-1.2,0.5C405.4,390.2,405,390,404.7,389.7z M404.7,393.7h2.4V410
			h-2.4V393.7z"/>
		<path class="st3" d="M413.1,409.2c-0.9-0.8-1.3-1.9-1.3-3.4c0-1.8,0.8-3.1,2.4-4.1c1.6-1,4.2-1.6,7.8-2c0-1.3-0.3-2.3-0.8-3.2
			c-0.5-0.8-1.4-1.2-2.7-1.2c-1.6,0-3.2,0.6-5,1.8l-1-1.7c2.2-1.4,4.3-2.2,6.3-2.2c1.9,0,3.3,0.6,4.2,1.8c0.9,1.2,1.3,2.8,1.3,4.9
			V410h-2l-0.2-2h-0.1c-1.9,1.6-3.8,2.4-5.5,2.4C415.2,410.4,414,410,413.1,409.2z M419.5,407.9c0.8-0.4,1.6-1,2.4-1.7v-4.8
			c-2.8,0.3-4.8,0.9-6,1.6c-1.2,0.7-1.8,1.6-1.8,2.8c0,0.9,0.3,1.6,0.8,2.1c0.6,0.5,1.3,0.7,2.2,0.7
			C418,408.4,418.8,408.2,419.5,407.9z"/>
		<path class="st3" d="M430.3,416.5c-1.2-0.8-1.8-1.9-1.8-3.2c0-0.7,0.2-1.4,0.6-2c0.4-0.7,1-1.2,1.8-1.8v-0.1
			c-0.4-0.3-0.8-0.6-1-1.1c-0.3-0.5-0.4-1-0.4-1.6c0-0.6,0.2-1.2,0.5-1.7s0.8-1,1.3-1.3v-0.1c-0.6-0.5-1.1-1.1-1.5-1.9
			s-0.6-1.6-0.6-2.5c0-1.1,0.3-2.2,0.8-3.1c0.5-0.9,1.3-1.6,2.2-2.1s1.9-0.7,3-0.7c0.7,0,1.5,0.1,2.3,0.4h5.7v1.9h-3.5
			c0.4,0.4,0.8,0.9,1,1.6c0.3,0.6,0.4,1.3,0.4,2c0,1.1-0.3,2.1-0.8,3c-0.5,0.9-1.2,1.5-2.1,2c-0.9,0.5-1.9,0.7-3,0.7
			c-0.9,0-1.7-0.2-2.5-0.6c-0.4,0.3-0.6,0.6-0.8,0.9c-0.2,0.3-0.3,0.7-0.3,1.1c0,0.6,0.2,1,0.7,1.4c0.4,0.3,1.2,0.5,2.2,0.5h3.3
			c1.9,0,3.3,0.3,4.2,0.9c0.9,0.6,1.4,1.6,1.4,2.9c0,1-0.3,1.9-1,2.8c-0.7,0.9-1.6,1.6-2.9,2.1c-1.2,0.5-2.7,0.8-4.2,0.8
			C433.2,417.6,431.5,417.2,430.3,416.5z M438.3,415.4c0.8-0.3,1.5-0.8,1.9-1.3c0.4-0.6,0.7-1.1,0.7-1.7c0-0.8-0.3-1.3-0.8-1.6
			c-0.6-0.3-1.4-0.5-2.6-0.5h-3c-0.7,0-1.4-0.1-2.1-0.3c-1.2,0.8-1.8,1.8-1.8,2.9c0,0.9,0.4,1.7,1.3,2.2c0.9,0.5,2.1,0.8,3.6,0.8
			C436.6,415.9,437.5,415.7,438.3,415.4z M437.7,402c0.7-0.8,1.1-1.7,1.1-2.9c0-1.2-0.3-2.2-1-2.9c-0.7-0.7-1.6-1.1-2.6-1.1
			c-1,0-1.9,0.4-2.6,1.1c-0.7,0.7-1.1,1.7-1.1,2.9c0,1.2,0.4,2.2,1.1,2.9c0.7,0.8,1.6,1.1,2.6,1.1C436.1,403.1,437,402.8,437.7,402z
			"/>
		<path class="st3" d="M458.5,402.4h-11.3c0.1,1.9,0.7,3.4,1.8,4.5c1.1,1.1,2.4,1.6,3.9,1.6c1.4,0,2.8-0.4,4.1-1.3l0.9,1.6
			c-0.8,0.5-1.6,0.9-2.5,1.2c-0.9,0.3-1.8,0.5-2.9,0.5c-1.4,0-2.7-0.3-3.9-1c-1.2-0.7-2.1-1.7-2.8-3c-0.7-1.3-1-2.8-1-4.6
			c0-1.7,0.3-3.2,1-4.5c0.7-1.3,1.6-2.3,2.7-3c1.1-0.7,2.3-1.1,3.6-1.1c2,0,3.6,0.7,4.7,2c1.1,1.4,1.7,3.2,1.7,5.6
			C458.6,401.5,458.6,402,458.5,402.4z M456.5,400.6c0-1.7-0.4-3.1-1.1-4c-0.7-0.9-1.8-1.4-3.1-1.4c-1.2,0-2.3,0.5-3.2,1.4
			c-0.9,0.9-1.5,2.2-1.7,4H456.5z"/>
		<path class="st3" d="M461.5,408h5v-16.4h-3.9V390c1.8-0.3,3.3-0.8,4.5-1.5h1.9V408h4.5v2.1h-11.9V408z"/>
	</g>
</g>
</svg>
