<?xml version="1.0" encoding="utf-8"?>
<!-- Generator: Adobe Illustrator 24.3.0, SVG Export Plug-In . SVG Version: 6.00 Build 0)  -->
<svg version="1.1" id="Layer_1" xmlns="http://www.w3.org/2000/svg" xmlns:xlink="http://www.w3.org/1999/xlink" x="0px" y="0px"
	 viewBox="0 0 840 643" style="enable-background:new 0 0 840 643;" xml:space="preserve">
<style type="text/css">
	.st0{fill:#858585;}
	.st1{fill:#E74E0F;}
	.st2{fill:#FFFFFF;stroke:#153156;stroke-width:3;stroke-miterlimit:10;}
	.st3{fill:#153156;}
	.st4{fill:#FFFFFF;stroke:#BBBABA;stroke-width:3;stroke-miterlimit:10;}
	.st5{fill:#FFFFFF;}
	.st6{fill:#FFFFFF;stroke:#BBBABA;stroke-miterlimit:10;}
	.st7{fill:#00B4B2;}
</style>
<g>
	<g>
		<polygon class="st0" points="567,517.6 563.3,522.1 122.7,522.1 122.7,517.6 		"/>
	</g>
	<g>
		<polygon class="st0" points="570.4,519 520.6,543.4 518.7,539.4 559.6,519.3 518.8,502.4 520.5,498.3 		"/>
	</g>
</g>
<g>
	<g>
		<polygon class="st0" points="567,162 563.3,166.4 107.9,166.4 107.9,162 		"/>
	</g>
	<g>
		<polygon class="st0" points="570.4,163.4 520.6,187.7 518.7,183.7 559.6,163.7 518.8,146.8 520.5,142.7 		"/>
	</g>
</g>
<g>
	<path class="st1" d="M314.5,126c-0.5-0.5-0.7-1.1-0.7-1.8c0-0.7,0.2-1.4,0.7-1.8c0.5-0.5,1-0.7,1.7-0.7c0.7,0,1.2,0.2,1.7,0.7
		c0.5,0.5,0.7,1.1,0.7,1.8c0,0.7-0.2,1.3-0.7,1.8s-1,0.7-1.7,0.7C315.5,126.7,315,126.5,314.5,126z M314.5,141.8
		c-0.5-0.5-0.7-1.1-0.7-1.8c0-0.7,0.2-1.4,0.7-1.8s1-0.7,1.7-0.7c0.7,0,1.2,0.2,1.7,0.7s0.7,1.1,0.7,1.8c0,0.7-0.2,1.3-0.7,1.8
		s-1,0.7-1.7,0.7C315.5,142.5,315,142.3,314.5,141.8z"/>
	<path class="st1" d="M326.3,141.7c-1.4-0.5-2.5-1.2-3.6-2.1l1.6-2.1c1,0.8,2,1.5,3,1.9c1,0.4,2.1,0.6,3.3,0.6c1.4,0,2.4-0.3,3.2-1
		c0.7-0.7,1.1-1.5,1.1-2.5c0-1-0.4-1.8-1.3-2.4c-0.9-0.6-2.1-1.2-3.6-1.7c-2-0.7-3.5-1.5-4.7-2.4c-1.1-0.9-1.7-2.1-1.7-3.7
		c0-1.7,0.6-3.1,1.9-4.2c1.3-1.1,3-1.7,5.2-1.7c1.2,0,2.3,0.2,3.4,0.6c1.1,0.4,2.1,1,2.9,1.7l-1.5,2c-0.8-0.6-1.6-1.1-2.4-1.4
		c-0.7-0.3-1.6-0.5-2.5-0.5c-1.3,0-2.3,0.3-3,0.9c-0.7,0.6-1,1.4-1,2.3c0,0.6,0.2,1.2,0.6,1.6c0.4,0.5,0.9,0.8,1.5,1.1
		c0.6,0.3,1.5,0.6,2.6,1.1c1.5,0.5,2.6,1,3.5,1.5c0.8,0.4,1.6,1,2.2,1.8c0.6,0.8,0.9,1.8,0.9,3c0,1.1-0.3,2.2-0.9,3.1
		c-0.6,0.9-1.5,1.7-2.6,2.2c-1.1,0.5-2.5,0.8-4,0.8C329,142.5,327.6,142.3,326.3,141.7z"/>
	<path class="st1" d="M344.5,140.8c-0.9-1.2-1.3-2.9-1.3-5.1v-12.1H340v-2.4l3.3-0.2l0.4-5.9h2.6v5.9h5.7v2.6h-5.7v12.1
		c0,1.4,0.3,2.4,0.8,3.1c0.5,0.7,1.4,1,2.6,1c0.6,0,1.4-0.2,2.4-0.6l0.6,2.4c-1.6,0.5-2.8,0.8-3.8,0.8
		C346.9,142.5,345.4,142,344.5,140.8z"/>
	<path class="st1" d="M356.4,141c-1.2-1-1.7-2.5-1.7-4.4c0-2.3,1-4,3.1-5.2c2.1-1.2,5.4-2.1,9.9-2.6c0-1.6-0.3-3-1-4
		c-0.7-1.1-1.8-1.6-3.5-1.6c-2,0-4.1,0.8-6.4,2.3l-1.3-2.2c2.8-1.8,5.5-2.8,8.1-2.8c2.4,0,4.2,0.8,5.4,2.3c1.2,1.5,1.7,3.6,1.7,6.2
		v13h-2.6l-0.3-2.6h-0.1c-2.5,2-4.8,3.1-7,3.1C359,142.5,357.5,142,356.4,141z M364.6,139.3c1-0.5,2-1.2,3.1-2.2v-6.1
		c-3.6,0.4-6.2,1.1-7.7,2c-1.5,0.9-2.3,2.1-2.3,3.5c0,1.2,0.4,2.1,1.1,2.7c0.7,0.6,1.6,0.9,2.8,0.9
		C362.6,140,363.6,139.8,364.6,139.3z"/>
	<path class="st1" d="M377.7,121.1h2.6l0.3,3.8h0.1c0.7-1.4,1.6-2.4,2.6-3.2c1-0.8,2.1-1.2,3.3-1.2c0.8,0,1.6,0.1,2.2,0.4l-0.6,2.8
		c-0.7-0.2-1.4-0.3-2-0.3c-1,0-2,0.4-2.9,1.2c-1,0.8-1.8,2.1-2.5,3.8V142h-3.1V121.1z"/>
	<path class="st1" d="M394.3,140.8c-0.9-1.2-1.3-2.9-1.3-5.1v-12.1h-3.2v-2.4l3.3-0.2l0.4-5.9h2.6v5.9h5.7v2.6h-5.7v12.1
		c0,1.4,0.3,2.4,0.8,3.1c0.5,0.7,1.4,1,2.6,1c0.6,0,1.4-0.2,2.4-0.6l0.6,2.4c-1.6,0.5-2.8,0.8-3.8,0.8
		C396.6,142.5,395.2,142,394.3,140.8z"/>
	<path class="st1" d="M407,113.6h7c4.3,0,7.6,1.2,9.9,3.7c2.3,2.4,3.4,5.9,3.4,10.4s-1.1,8-3.4,10.5c-2.3,2.5-5.5,3.8-9.7,3.8H407
		V113.6z M413.7,139.4c3.4,0,6-1,7.7-3c1.7-2,2.6-4.9,2.6-8.6c0-3.7-0.9-6.5-2.6-8.5s-4.3-3-7.7-3h-3.5v23.1H413.7z"/>
	<path class="st1" d="M433.5,141c-1.2-1-1.7-2.5-1.7-4.4c0-2.3,1-4,3.1-5.2c2.1-1.2,5.4-2.1,9.9-2.6c0-1.6-0.3-3-1-4
		c-0.7-1.1-1.8-1.6-3.5-1.6c-2,0-4.1,0.8-6.4,2.3l-1.3-2.2c2.8-1.8,5.5-2.8,8.1-2.8c2.4,0,4.2,0.8,5.4,2.3c1.2,1.5,1.7,3.6,1.7,6.2
		v13h-2.6l-0.3-2.6H445c-2.5,2-4.8,3.1-7,3.1C436.1,142.5,434.7,142,433.5,141z M441.7,139.3c1-0.5,2-1.2,3.1-2.2v-6.1
		c-3.6,0.4-6.2,1.1-7.7,2c-1.5,0.9-2.3,2.1-2.3,3.5c0,1.2,0.4,2.1,1.1,2.7c0.7,0.6,1.6,0.9,2.8,0.9
		C439.7,140,440.7,139.8,441.7,139.3z"/>
	<path class="st1" d="M456.2,140.8c-0.9-1.2-1.3-2.9-1.3-5.1v-12.1h-3.2v-2.4l3.3-0.2l0.4-5.9h2.6v5.9h5.7v2.6H458v12.1
		c0,1.4,0.3,2.4,0.8,3.1c0.5,0.7,1.4,1,2.6,1c0.6,0,1.4-0.2,2.4-0.6l0.6,2.4c-1.6,0.5-2.8,0.8-3.8,0.8
		C458.5,142.5,457,142,456.2,140.8z"/>
	<path class="st1" d="M483.9,132.3h-14.5c0.1,2.5,0.9,4.3,2.3,5.7s3,2,5,2c1.8,0,3.6-0.6,5.3-1.7l1.2,2.1c-1,0.7-2.1,1.2-3.2,1.6
		c-1.1,0.4-2.3,0.6-3.7,0.6c-1.8,0-3.5-0.4-5-1.3c-1.5-0.9-2.7-2.2-3.6-3.8c-0.9-1.7-1.3-3.6-1.3-5.8c0-2.2,0.4-4.1,1.3-5.8
		c0.9-1.7,2-3,3.5-3.9c1.4-0.9,3-1.4,4.6-1.4c2.6,0,4.6,0.9,6.1,2.6c1.5,1.7,2.2,4.1,2.2,7.2C484,131.1,483.9,131.7,483.9,132.3z
		 M481.2,130c0-2.2-0.5-3.9-1.4-5.1s-2.3-1.8-4-1.8c-1.6,0-2.9,0.6-4.1,1.8c-1.2,1.2-1.9,2.9-2.2,5.1H481.2z"/>
</g>
<path class="st2" d="M823.2,225.9H583c-5.8,0-10.5-4.7-10.5-10.5V109.1c0-5.8,4.7-10.5,10.5-10.5h240.2c5.8,0,10.5,4.7,10.5,10.5
	v106.3C833.7,221.2,829,225.9,823.2,225.9z"/>
<g>
	<path class="st3" d="M603.1,136c0.9-3.4,2.7-7.8,3.8-9.6l2.3-0.2c-0.9,2.4-1.9,6.6-2.4,9.5L603.1,136z M609.1,136
		c0.9-3.4,2.7-7.8,3.8-9.6l2.3-0.2c-0.9,2.4-1.9,6.6-2.4,9.5L609.1,136z"/>
	<path class="st3" d="M617.7,152.2c3.1-3.1,5.4-5.6,7.1-7.4c1.7-1.9,3-3.6,3.9-5.2c0.9-1.6,1.4-3,1.4-4.4c0-1.6-0.4-2.8-1.3-3.8
		s-2.1-1.4-3.8-1.4c-1,0-2,0.3-3,0.8c-1,0.6-1.8,1.3-2.7,2.3l-1.7-1.7c1.1-1.2,2.3-2.2,3.6-2.9c1.2-0.7,2.6-1,4.2-1
		c2.4,0,4.2,0.7,5.6,2c1.4,1.4,2.1,3.2,2.1,5.5c0,1.6-0.4,3.2-1.3,4.8c-0.9,1.6-2,3.3-3.5,5c-1.4,1.7-3.5,3.9-6.1,6.7l1,0
		c1.5-0.1,2.6-0.2,3.4-0.2h7.8v2.6h-16.5V152.2z"/>
	<path class="st3" d="M640,150.9c-1.4-2.4-2.1-5.7-2.1-10c0-4.3,0.7-7.6,2.1-9.9c1.4-2.3,3.4-3.4,6-3.4c2.6,0,4.6,1.2,6,3.4
		c1.4,2.3,2.2,5.6,2.2,9.9c0,4.3-0.7,7.6-2.2,10c-1.4,2.4-3.4,3.5-6,3.5C643.5,154.4,641.4,153.2,640,150.9z M649.9,149.2
		c0.9-1.9,1.4-4.6,1.4-8.3c0-3.7-0.5-6.5-1.4-8.3c-0.9-1.8-2.2-2.7-3.9-2.7s-2.9,0.9-3.9,2.7s-1.4,4.5-1.4,8.3
		c0,3.7,0.5,6.5,1.4,8.3c0.9,1.9,2.2,2.8,3.9,2.8S649,151.1,649.9,149.2z"/>
	<path class="st3" d="M657.6,152.2c3.1-3.1,5.4-5.6,7.1-7.4c1.7-1.9,3-3.6,3.9-5.2c0.9-1.6,1.4-3,1.4-4.4c0-1.6-0.4-2.8-1.3-3.8
		s-2.1-1.4-3.8-1.4c-1,0-2,0.3-3,0.8c-1,0.6-1.8,1.3-2.7,2.3l-1.7-1.7c1.1-1.2,2.3-2.2,3.6-2.9c1.2-0.7,2.6-1,4.2-1
		c2.4,0,4.2,0.7,5.6,2c1.4,1.4,2.1,3.2,2.1,5.5c0,1.6-0.4,3.2-1.3,4.8c-0.9,1.6-2,3.3-3.5,5c-1.4,1.7-3.5,3.9-6.1,6.7l1,0
		c1.5-0.1,2.6-0.2,3.4-0.2h7.8v2.6h-16.5V152.2z"/>
	<path class="st3" d="M679.9,150.9c-1.4-2.4-2.1-5.7-2.1-10c0-4.3,0.7-7.6,2.1-9.9c1.4-2.3,3.4-3.4,6-3.4c2.6,0,4.6,1.2,6,3.4
		c1.4,2.3,2.2,5.6,2.2,9.9c0,4.3-0.7,7.6-2.2,10c-1.4,2.4-3.4,3.5-6,3.5C683.4,154.4,681.4,153.2,679.9,150.9z M689.8,149.2
		c0.9-1.9,1.4-4.6,1.4-8.3c0-3.7-0.5-6.5-1.4-8.3c-0.9-1.8-2.2-2.7-3.9-2.7c-1.6,0-2.9,0.9-3.9,2.7s-1.4,4.5-1.4,8.3
		c0,3.7,0.5,6.5,1.4,8.3c0.9,1.9,2.2,2.8,3.9,2.8C687.6,152,688.9,151.1,689.8,149.2z"/>
	<path class="st3" d="M697.6,142.6h9.2v2.3h-9.2V142.6z"/>
	<path class="st3" d="M712.4,150.9c-1.4-2.4-2.1-5.7-2.1-10c0-4.3,0.7-7.6,2.1-9.9c1.4-2.3,3.4-3.4,6-3.4s4.6,1.2,6,3.4
		c1.4,2.3,2.2,5.6,2.2,9.9c0,4.3-0.7,7.6-2.2,10c-1.4,2.4-3.4,3.5-6,3.5S713.8,153.2,712.4,150.9z M722.2,149.2
		c0.9-1.9,1.4-4.6,1.4-8.3c0-3.7-0.5-6.5-1.4-8.3c-0.9-1.8-2.2-2.7-3.9-2.7s-2.9,0.9-3.9,2.7s-1.4,4.5-1.4,8.3
		c0,3.7,0.5,6.5,1.4,8.3c0.9,1.9,2.2,2.8,3.9,2.8S721.3,151.1,722.2,149.2z"/>
	<path class="st3" d="M730,152.2c3.1-3.1,5.4-5.6,7.1-7.4c1.7-1.9,3-3.6,3.9-5.2c0.9-1.6,1.4-3,1.4-4.4c0-1.6-0.4-2.8-1.3-3.8
		s-2.1-1.4-3.8-1.4c-1,0-2,0.3-3,0.8c-1,0.6-1.8,1.3-2.7,2.3l-1.7-1.7c1.1-1.2,2.3-2.2,3.6-2.9c1.2-0.7,2.6-1,4.2-1
		c2.4,0,4.2,0.7,5.6,2c1.4,1.4,2.1,3.2,2.1,5.5c0,1.6-0.4,3.2-1.3,4.8c-0.9,1.6-2,3.3-3.5,5c-1.4,1.7-3.5,3.9-6.1,6.7l1,0
		c1.5-0.1,2.6-0.2,3.4-0.2h7.8v2.6H730V152.2z"/>
	<path class="st3" d="M750,142.6h9.2v2.3H750V142.6z"/>
	<path class="st3" d="M762.8,151.4h6v-19.7H764v-1.9c2.2-0.4,4-1,5.4-1.8h2.3v23.4h5.4v2.5h-14.3V151.4z"/>
	<path class="st3" d="M781.1,151.4h6v-19.7h-4.7v-1.9c2.2-0.4,4-1,5.4-1.8h2.3v23.4h5.4v2.5h-14.3V151.4z"/>
	<path class="st3" d="M798.8,136c0.9-3.4,2.7-7.8,3.8-9.6l2.3-0.2c-0.9,2.4-1.9,6.6-2.4,9.5L798.8,136z M804.8,136
		c0.9-3.4,2.7-7.8,3.8-9.6l2.3-0.2c-0.9,2.4-1.9,6.6-2.4,9.5L804.8,136z"/>
	<path class="st3" d="M610.4,175.4h2.7l6.2,15.6h-2.6l-4.8-12.8h-0.2l-2,5.4l-2.8,7.4h-2.6L610.4,175.4z"/>
	<path class="st3" d="M630.3,175.4h2.7l6.2,15.6h-2.6l-4.8-12.8h-0.2l-2,5.4l-2.8,7.4h-2.6L630.3,175.4z"/>
	<path class="st3" d="M648.7,192.3l-6-9.4h3.2l2.8,4.5c0.9,1.5,1.5,2.5,2,3.2h0.2l1.8-3.2l2.6-4.5h3.1l-6,9.7l6.4,10h-3.2l-3-4.8
		c-0.8-1.4-1.5-2.6-2.2-3.5h-0.2c-0.4,0.7-0.9,1.5-1.4,2.4l-0.7,1.2l-2.8,4.8h-3.1L648.7,192.3z"/>
	<path class="st3" d="M663.9,202.3c-1.3-0.5-2.4-1.2-3.4-2l1.5-2c1,0.8,1.9,1.4,2.8,1.8c0.9,0.4,1.9,0.6,3.1,0.6
		c1.3,0,2.3-0.3,3-0.9c0.7-0.6,1.1-1.4,1.1-2.4s-0.4-1.7-1.2-2.3c-0.8-0.6-1.9-1.1-3.4-1.6c-1.9-0.7-3.3-1.4-4.4-2.2
		c-1.1-0.8-1.6-1.9-1.6-3.4c0-1.6,0.6-2.9,1.8-4c1.2-1,2.8-1.6,4.9-1.6c1.1,0,2.2,0.2,3.2,0.6c1,0.4,1.9,0.9,2.8,1.6l-1.4,1.9
		c-0.8-0.6-1.5-1-2.2-1.3c-0.7-0.3-1.5-0.4-2.3-0.4c-1.2,0-2.2,0.3-2.8,0.9c-0.6,0.6-1,1.3-1,2.1c0,0.6,0.2,1.1,0.6,1.5
		s0.9,0.8,1.4,1c0.6,0.3,1.4,0.6,2.4,1c1.4,0.5,2.5,1,3.2,1.4c0.8,0.4,1.5,1,2,1.7c0.6,0.7,0.9,1.7,0.9,2.9c0,1.1-0.3,2-0.8,2.9
		c-0.6,0.9-1.4,1.6-2.4,2.1c-1.1,0.5-2.3,0.8-3.8,0.8C666.4,203.1,665.1,202.8,663.9,202.3z"/>
	<path class="st3" d="M680.3,200.3c-1.4-1.8-2.2-4.3-2.2-7.6c0-2.1,0.4-3.9,1.2-5.4c0.8-1.6,1.8-2.8,3.1-3.6
		c1.3-0.9,2.7-1.3,4.2-1.3c1.1,0,2,0.2,2.8,0.6c0.8,0.4,1.8,1,2.8,1.7l-0.1-3.4v-7.7h2.9v29h-2.4l-0.2-2.4h-0.1
		c-0.8,0.9-1.8,1.6-2.8,2.1c-1,0.5-2.1,0.8-3.3,0.8C683.8,203.1,681.8,202.2,680.3,200.3z M689.6,199.9c0.9-0.5,1.7-1.2,2.6-2.1
		v-10.7c-0.9-0.8-1.7-1.3-2.5-1.6c-0.8-0.3-1.7-0.5-2.5-0.5c-1.1,0-2.1,0.3-3,1c-0.9,0.7-1.6,1.6-2.1,2.8c-0.5,1.2-0.8,2.5-0.8,4
		c0,2.4,0.5,4.3,1.5,5.7c1,1.4,2.4,2.1,4.2,2.1C687.8,200.5,688.7,200.3,689.6,199.9z"/>
	<path class="st3" d="M701.9,187.5c-0.4-0.4-0.6-1-0.6-1.7c0-0.7,0.2-1.3,0.6-1.7c0.4-0.4,1-0.7,1.6-0.7c0.6,0,1.1,0.2,1.6,0.7
		c0.4,0.4,0.6,1,0.6,1.7c0,0.7-0.2,1.2-0.6,1.7c-0.4,0.4-1,0.7-1.6,0.7C702.9,188.2,702.3,188,701.9,187.5z M701.9,202.4
		c-0.4-0.4-0.6-1-0.6-1.7c0-0.7,0.2-1.3,0.6-1.7c0.4-0.4,1-0.7,1.6-0.7c0.6,0,1.1,0.2,1.6,0.7c0.4,0.4,0.6,1,0.6,1.7
		c0,0.7-0.2,1.2-0.6,1.7c-0.4,0.4-1,0.7-1.6,0.7C702.9,203.1,702.3,202.8,701.9,202.4z"/>
	<path class="st3" d="M712.5,200.3c-1.4-1.8-2.2-4.3-2.2-7.6c0-2.1,0.4-3.9,1.2-5.4c0.8-1.6,1.8-2.8,3.1-3.6
		c1.3-0.9,2.7-1.3,4.2-1.3c1.1,0,2,0.2,2.8,0.6c0.8,0.4,1.8,1,2.8,1.7l-0.1-3.4v-7.7h2.9v29h-2.4l-0.2-2.4h-0.1
		c-0.8,0.9-1.8,1.6-2.8,2.1c-1,0.5-2.1,0.8-3.3,0.8C716,203.1,714,202.2,712.5,200.3z M721.8,199.9c0.9-0.5,1.7-1.2,2.6-2.1v-10.7
		c-0.9-0.8-1.7-1.3-2.5-1.6c-0.8-0.3-1.7-0.5-2.5-0.5c-1.1,0-2.1,0.3-3,1c-0.9,0.7-1.6,1.6-2.1,2.8c-0.5,1.2-0.8,2.5-0.8,4
		c0,2.4,0.5,4.3,1.5,5.7c1,1.4,2.4,2.1,4.2,2.1C720,200.5,720.9,200.3,721.8,199.9z"/>
	<path class="st3" d="M734.6,201.6c-1.1-1-1.6-2.3-1.6-4.1c0-2.1,1-3.8,2.9-4.9s5.1-2,9.3-2.4c0-1.5-0.3-2.8-1-3.8
		c-0.6-1-1.7-1.5-3.3-1.5c-1.9,0-3.9,0.7-6,2.2l-1.2-2c2.6-1.7,5.1-2.6,7.6-2.6c2.3,0,3.9,0.7,5,2.1c1.1,1.4,1.6,3.4,1.6,5.9v12.2
		h-2.4l-0.2-2.4h-0.1c-2.3,1.9-4.5,2.9-6.6,2.9C737,203.1,735.6,202.6,734.6,201.6z M742.2,200c0.9-0.4,1.9-1.1,2.9-2.1v-5.8
		c-3.4,0.4-5.8,1-7.2,1.9c-1.4,0.8-2.1,1.9-2.1,3.3c0,1.1,0.3,1.9,1,2.5c0.7,0.6,1.5,0.8,2.6,0.8C740.4,200.7,741.3,200.4,742.2,200
		z"/>
	<path class="st3" d="M755.8,201.4c-0.8-1.1-1.3-2.7-1.3-4.7v-11.3h-3v-2.2l3.1-0.2l0.4-5.6h2.5v5.6h5.4v2.4h-5.4v11.4
		c0,1.3,0.2,2.3,0.7,2.9s1.3,1,2.4,1c0.6,0,1.3-0.2,2.3-0.5l0.6,2.2c-1.5,0.5-2.6,0.7-3.5,0.7C758,203.1,756.6,202.5,755.8,201.4z"
		/>
	<path class="st3" d="M781.8,193.4h-13.6c0.1,2.3,0.8,4.1,2.1,5.4c1.3,1.3,2.9,1.9,4.7,1.9c1.7,0,3.4-0.5,5-1.6l1.1,1.9
		c-1,0.6-2,1.1-3,1.5c-1,0.4-2.2,0.5-3.4,0.5c-1.7,0-3.3-0.4-4.7-1.2c-1.4-0.8-2.5-2-3.4-3.6c-0.8-1.6-1.2-3.4-1.2-5.5
		c0-2.1,0.4-3.9,1.2-5.4c0.8-1.6,1.9-2.8,3.3-3.6c1.4-0.9,2.8-1.3,4.3-1.3c2.4,0,4.3,0.8,5.7,2.5c1.4,1.6,2,3.9,2,6.8
		C781.9,192.3,781.9,192.9,781.8,193.4z M779.3,191.3c0-2.1-0.4-3.7-1.3-4.8c-0.9-1.1-2.1-1.7-3.7-1.7c-1.5,0-2.8,0.6-3.9,1.7
		c-1.1,1.1-1.8,2.7-2,4.8H779.3z"/>
</g>
<g>
	<path class="st4" d="M679.5,431.6c-62.3-7.9-114.9,44.7-107,107c5.4,42.5,39.7,76.7,82.1,82.1c62.3,7.9,114.9-44.7,107-107
		C756.3,471.3,722,437,679.5,431.6z"/>
</g>
<g>
	<circle class="st3" cx="667.1" cy="526.2" r="84.5"/>
</g>
<g>
	<path class="st5" d="M598.1,519.7c-0.5-0.5-0.7-1.1-0.7-1.8c0-0.7,0.2-1.4,0.7-1.8c0.5-0.5,1-0.7,1.7-0.7c0.7,0,1.2,0.2,1.7,0.7
		c0.5,0.5,0.7,1.1,0.7,1.8c0,0.7-0.2,1.3-0.7,1.8c-0.5,0.5-1,0.7-1.7,0.7C599.1,520.5,598.5,520.2,598.1,519.7z M598.1,535.6
		c-0.5-0.5-0.7-1.1-0.7-1.8c0-0.7,0.2-1.4,0.7-1.8c0.5-0.5,1-0.7,1.7-0.7c0.7,0,1.2,0.2,1.7,0.7c0.5,0.5,0.7,1.1,0.7,1.8
		c0,0.7-0.2,1.3-0.7,1.8c-0.5,0.5-1,0.7-1.7,0.7C599.1,536.3,598.5,536,598.1,535.6z"/>
	<path class="st5" d="M606,514.8h3.2l3.3,12.5l0.4,1.9c0.4,1.7,0.7,3,0.9,3.9h0.2c0.5-2.2,1-4.2,1.5-5.8l3.4-12.5h3.2l3.4,12.5
		l1.5,5.8h0.2l1.4-5.8l3.2-12.5h3l-5.7,21H625l-3.2-11.7l-0.8-3.4c-0.1-0.2-0.3-1.1-0.6-2.6h-0.2c-0.6,2.9-1.1,4.9-1.5,6.1
		l-3.1,11.6h-3.7L606,514.8z"/>
	<path class="st5" d="M642.4,535c-1.5-0.9-2.6-2.1-3.5-3.8c-0.9-1.7-1.3-3.6-1.3-5.9c0-2.2,0.4-4.2,1.3-5.9c0.9-1.7,2.1-2.9,3.5-3.8
		c1.5-0.9,3.1-1.3,4.8-1.3c1.7,0,3.3,0.4,4.8,1.3c1.5,0.9,2.6,2.2,3.5,3.8c0.9,1.7,1.3,3.6,1.3,5.9c0,2.2-0.4,4.2-1.3,5.9
		c-0.9,1.7-2.1,2.9-3.5,3.8c-1.5,0.9-3.1,1.3-4.8,1.3C645.5,536.3,643.9,535.8,642.4,535z M650.5,532.6c1-0.7,1.7-1.7,2.3-2.9
		c0.5-1.3,0.8-2.7,0.8-4.4c0-1.6-0.3-3.1-0.8-4.4c-0.5-1.3-1.3-2.3-2.3-3c-1-0.7-2.1-1.1-3.3-1.1c-1.2,0-2.3,0.4-3.3,1.1
		c-1,0.7-1.7,1.7-2.2,3c-0.5,1.3-0.8,2.7-0.8,4.4c0,2.5,0.6,4.5,1.8,6.1c1.2,1.5,2.7,2.3,4.6,2.3
		C648.4,533.6,649.5,533.3,650.5,532.6z"/>
	<path class="st5" d="M662.5,514.8h2.6l0.3,3.1h0.1c2.2-2.4,4.4-3.6,6.5-3.6c3,0,4.9,1.4,5.8,4.1c1.2-1.3,2.4-2.3,3.5-3
		c1.1-0.7,2.3-1,3.5-1c4.2,0,6.4,2.7,6.4,8.2v13.3H688v-12.9c0-2-0.3-3.5-1-4.4s-1.7-1.4-3.1-1.4c-1.6,0-3.5,1.1-5.5,3.4v15.3h-3.2
		v-12.9c0-2-0.3-3.4-1-4.4c-0.7-0.9-1.7-1.4-3.1-1.4c-1.6,0-3.5,1.1-5.5,3.4v15.3h-3.1V514.8z"/>
	<path class="st5" d="M698.5,534.7c-1.2-1-1.7-2.5-1.7-4.4c0-2.3,1-4,3.1-5.2c2.1-1.2,5.4-2.1,9.9-2.6c0-1.6-0.3-3-1-4
		c-0.7-1.1-1.8-1.6-3.5-1.6c-2,0-4.1,0.8-6.4,2.3l-1.3-2.2c2.8-1.8,5.5-2.8,8.1-2.8c2.4,0,4.2,0.8,5.4,2.3c1.2,1.5,1.7,3.6,1.7,6.2
		v13h-2.6l-0.3-2.6H710c-2.5,2-4.8,3.1-7,3.1C701.2,536.3,699.7,535.8,698.5,534.7z M706.7,533c1-0.5,2-1.2,3.1-2.2v-6.1
		c-3.6,0.4-6.2,1.1-7.7,2c-1.5,0.9-2.3,2.1-2.3,3.5c0,1.2,0.4,2.1,1.1,2.7c0.7,0.6,1.6,0.9,2.8,0.9
		C704.8,533.7,705.8,533.5,706.7,533z"/>
	<path class="st5" d="M719.8,514.8h2.6l0.3,3.1h0.1c1.2-1.2,2.3-2,3.4-2.7c1.1-0.6,2.3-1,3.7-1c2.2,0,3.8,0.7,4.8,2.1
		c1,1.4,1.6,3.4,1.6,6.1v13.3h-3.2v-12.9c0-2-0.3-3.5-1-4.4c-0.6-0.9-1.7-1.4-3.2-1.4c-1,0-2,0.3-2.9,0.8c-0.9,0.5-1.9,1.4-3.1,2.6
		v15.3h-3.1V514.8z"/>
</g>
<g>
	<g>
		<circle class="st6" cx="98" cy="522.8" r="75.1"/>
		<path class="st4" d="M98,598c-10.2,0-20-2-29.3-5.9c-9-3.8-17-9.2-23.9-16.1c-6.9-6.9-12.3-15-16.1-23.9
			c-3.9-9.3-5.9-19.1-5.9-29.3s2-20,5.9-29.3c3.8-9,9.2-17,16.1-23.9c6.9-6.9,15-12.3,23.9-16.1c9.3-3.9,19.1-5.9,29.3-5.9
			c10.2,0,20,2,29.3,5.9c9,3.8,17,9.2,23.9,16.1c6.9,6.9,12.3,15,16.1,23.9c3.9,9.3,5.9,19.1,5.9,29.3s-2,20-5.9,29.3
			c-3.8,9-9.2,17-16.1,23.9c-6.9,6.9-15,12.3-23.9,16.1C118,596,108.1,598,98,598z M107.8,448.3c-49-6.2-90.5,35.2-84.2,84.2
			c4.2,33.4,31.2,60.4,64.7,64.7c49,6.2,90.5-35.2,84.2-84.2C168.2,479.6,141.2,452.6,107.8,448.3z"/>
	</g>
	<g>
		<circle class="st7" cx="98" cy="522.8" r="61.9"/>
	</g>
	<g>
		<path class="st5" d="M55.9,519.7c-0.5-0.5-0.7-1.1-0.7-1.8c0-0.7,0.2-1.4,0.7-1.8c0.5-0.5,1-0.7,1.7-0.7s1.2,0.2,1.7,0.7
			c0.5,0.5,0.7,1.1,0.7,1.8c0,0.7-0.2,1.3-0.7,1.8c-0.5,0.5-1,0.7-1.7,0.7S56.4,520.2,55.9,519.7z M55.9,535.6
			c-0.5-0.5-0.7-1.1-0.7-1.8c0-0.7,0.2-1.4,0.7-1.8c0.5-0.5,1-0.7,1.7-0.7s1.2,0.2,1.7,0.7c0.5,0.5,0.7,1.1,0.7,1.8
			c0,0.7-0.2,1.3-0.7,1.8c-0.5,0.5-1,0.7-1.7,0.7S56.4,536,55.9,535.6z"/>
		<path class="st5" d="M66.5,514.8h2.6l0.3,3.1h0.1c2.2-2.4,4.4-3.6,6.5-3.6c3,0,4.9,1.4,5.8,4.1c1.2-1.3,2.4-2.3,3.5-3
			c1.1-0.7,2.3-1,3.5-1c4.2,0,6.4,2.7,6.4,8.2v13.3h-3.2v-12.9c0-2-0.3-3.5-1-4.4c-0.7-0.9-1.7-1.4-3.1-1.4c-1.6,0-3.5,1.1-5.5,3.4
			v15.3h-3.2v-12.9c0-2-0.3-3.4-1-4.4c-0.7-0.9-1.7-1.4-3.1-1.4c-1.6,0-3.5,1.1-5.5,3.4v15.3h-3.1V514.8z"/>
		<path class="st5" d="M102.5,534.7c-1.2-1-1.7-2.5-1.7-4.4c0-2.3,1-4,3.1-5.2c2.1-1.2,5.4-2.1,9.9-2.6c0-1.6-0.3-3-1-4
			c-0.7-1.1-1.8-1.6-3.5-1.6c-2,0-4.1,0.8-6.4,2.3l-1.3-2.2c2.8-1.8,5.5-2.8,8.1-2.8c2.4,0,4.2,0.8,5.4,2.3c1.2,1.5,1.7,3.6,1.7,6.2
			v13h-2.6l-0.3-2.6h-0.1c-2.5,2-4.8,3.1-7,3.1C105.1,536.3,103.6,535.8,102.5,534.7z M110.7,533c1-0.5,2-1.2,3.1-2.2v-6.1
			c-3.6,0.4-6.2,1.1-7.7,2c-1.5,0.9-2.3,2.1-2.3,3.5c0,1.2,0.4,2.1,1.1,2.7c0.7,0.6,1.6,0.9,2.8,0.9
			C108.7,533.7,109.7,533.5,110.7,533z"/>
		<path class="st5" d="M123.8,514.8h2.6l0.3,3.1h0.1c1.2-1.2,2.3-2,3.4-2.7c1.1-0.6,2.3-1,3.7-1c2.2,0,3.8,0.7,4.8,2.1
			c1,1.4,1.6,3.4,1.6,6.1v13.3h-3.2v-12.9c0-2-0.3-3.5-1-4.4c-0.6-0.9-1.7-1.4-3.2-1.4c-1,0-2,0.3-2.9,0.8c-0.9,0.5-1.9,1.4-3.1,2.6
			v15.3h-3.1V514.8z"/>
	</g>
</g>
<g>
	<g>
		<path class="st1" d="M220.7,470.4c-0.5-0.5-0.7-1.1-0.7-1.8c0-0.7,0.2-1.4,0.7-1.8s1-0.7,1.7-0.7s1.2,0.2,1.7,0.7s0.7,1.1,0.7,1.8
			c0,0.7-0.2,1.3-0.7,1.8s-1,0.7-1.7,0.7S221.1,470.9,220.7,470.4z M220.7,486.2c-0.5-0.5-0.7-1.1-0.7-1.8c0-0.7,0.2-1.4,0.7-1.8
			s1-0.7,1.7-0.7s1.2,0.2,1.7,0.7s0.7,1.1,0.7,1.8c0,0.7-0.2,1.3-0.7,1.8s-1,0.7-1.7,0.7S221.1,486.7,220.7,486.2z"/>
		<path class="st1" d="M231.3,455.6h3.1v8.6l-0.1,4.4c1.2-1.2,2.3-2,3.4-2.7c1.1-0.6,2.3-0.9,3.6-0.9c2.2,0,3.8,0.7,4.8,2.1
			c1,1.4,1.6,3.4,1.6,6.1v13.3h-3.2v-12.9c0-2-0.3-3.5-1-4.4c-0.6-0.9-1.7-1.4-3.2-1.4c-1,0-2,0.3-2.9,0.8c-0.9,0.5-1.9,1.4-3.1,2.6
			v15.3h-3.1V455.6z"/>
		<path class="st1" d="M254.9,485.4c-1.2-1-1.7-2.5-1.7-4.4c0-2.3,1-4,3.1-5.2c2.1-1.2,5.4-2.1,9.9-2.6c0-1.6-0.3-3-1-4
			c-0.7-1.1-1.8-1.6-3.5-1.6c-2,0-4.1,0.8-6.4,2.3l-1.3-2.2c2.8-1.8,5.5-2.8,8.1-2.8c2.4,0,4.2,0.8,5.4,2.3c1.2,1.5,1.7,3.6,1.7,6.2
			v13h-2.6l-0.3-2.6h-0.1c-2.5,2-4.8,3.1-7,3.1C257.6,486.9,256.1,486.4,254.9,485.4z M263.1,483.7c1-0.5,2-1.2,3.1-2.2v-6.1
			c-3.6,0.4-6.2,1.1-7.7,2c-1.5,0.9-2.3,2.1-2.3,3.5c0,1.2,0.4,2.1,1.1,2.7c0.7,0.6,1.6,0.9,2.8,0.9
			C261.2,484.4,262.2,484.2,263.1,483.7z"/>
		<path class="st1" d="M277.4,486.1c-1.4-0.5-2.5-1.2-3.6-2.1l1.6-2.1c1,0.8,2,1.5,3,1.9c1,0.4,2.1,0.6,3.3,0.6c1.4,0,2.4-0.3,3.2-1
			c0.7-0.7,1.1-1.5,1.1-2.5c0-1-0.4-1.8-1.3-2.4c-0.9-0.6-2.1-1.2-3.6-1.7c-2-0.7-3.5-1.5-4.7-2.4c-1.1-0.9-1.7-2.1-1.7-3.7
			c0-1.7,0.6-3.1,1.9-4.2c1.3-1.1,3-1.7,5.2-1.7c1.2,0,2.3,0.2,3.4,0.6c1.1,0.4,2.1,1,2.9,1.7l-1.5,2c-0.8-0.6-1.6-1.1-2.4-1.4
			c-0.7-0.3-1.6-0.5-2.5-0.5c-1.3,0-2.3,0.3-3,0.9c-0.7,0.6-1,1.4-1,2.3c0,0.6,0.2,1.2,0.6,1.6s0.9,0.8,1.5,1.1
			c0.6,0.3,1.5,0.6,2.6,1.1c1.5,0.5,2.6,1,3.5,1.5c0.8,0.4,1.6,1,2.2,1.8c0.6,0.8,0.9,1.8,0.9,3c0,1.1-0.3,2.2-0.9,3.1
			c-0.6,0.9-1.5,1.7-2.6,2.2c-1.1,0.5-2.5,0.8-4,0.8C280.2,486.9,278.8,486.7,277.4,486.1z"/>
		<path class="st1" d="M296.8,485.8c-1.7-0.7-3.1-1.8-4.4-3.1l1.9-2.2c1,1.1,2.2,2,3.6,2.7c1.4,0.6,2.8,1,4.3,1
			c1.9,0,3.4-0.4,4.6-1.3c1.1-0.9,1.7-2.1,1.7-3.6c0-1-0.2-1.7-0.6-2.4c-0.4-0.6-0.9-1.1-1.6-1.5c-0.6-0.4-1.5-0.8-2.7-1.3l-4.1-1.8
			c-1.7-0.7-3-1.6-4.1-2.8c-1.1-1.1-1.6-2.6-1.6-4.5c0-1.4,0.4-2.7,1.1-3.8c0.7-1.1,1.8-2,3.1-2.6c1.3-0.6,2.8-1,4.5-1
			s3.2,0.3,4.6,1c1.4,0.6,2.6,1.5,3.7,2.6l-1.7,2c-1.9-1.8-4-2.7-6.5-2.7c-1.7,0-3,0.4-4,1.2c-1,0.8-1.5,1.9-1.5,3.2
			c0,0.9,0.2,1.6,0.7,2.2c0.5,0.6,1,1.1,1.6,1.4c0.6,0.3,1.4,0.7,2.5,1.2l4.1,1.8c1.9,0.8,3.3,1.7,4.3,2.9c1,1.2,1.5,2.7,1.5,4.7
			c0,1.5-0.4,2.9-1.2,4.1c-0.8,1.2-1.9,2.2-3.3,2.9c-1.4,0.7-3.1,1-5,1C300.3,486.9,298.5,486.6,296.8,485.8z"/>
		<path class="st1" d="M317.1,465.5h2.6l0.3,2.5h0.1c2.4-2,4.7-3,6.8-3c2.7,0,4.7,1,6.2,2.9c1.4,1.9,2.1,4.5,2.1,7.8
			c0,2.3-0.4,4.3-1.3,6c-0.8,1.7-1.9,3-3.3,3.9c-1.4,0.9-2.9,1.4-4.5,1.4c-1.9,0-3.9-0.8-6-2.5l0.1,3.7v7.2h-3.1V465.5z
			 M328.9,483.2c1-0.7,1.7-1.7,2.3-3c0.5-1.3,0.8-2.8,0.8-4.5c0-2.5-0.5-4.5-1.4-5.9c-0.9-1.4-2.4-2.1-4.4-2.1c-1.8,0-3.7,1-5.9,3
			V482c1,0.8,1.9,1.4,2.8,1.8c0.9,0.4,1.8,0.5,2.6,0.5C326.8,484.3,327.9,483.9,328.9,483.2z"/>
		<path class="st1" d="M344.2,485.6c-1.5-0.9-2.6-2.1-3.5-3.8c-0.9-1.7-1.3-3.6-1.3-5.9c0-2.2,0.4-4.2,1.3-5.9
			c0.9-1.7,2.1-2.9,3.5-3.8c1.5-0.9,3.1-1.3,4.8-1.3c1.7,0,3.3,0.4,4.8,1.3c1.5,0.9,2.6,2.2,3.5,3.8s1.3,3.6,1.3,5.9
			c0,2.2-0.4,4.2-1.3,5.9s-2.1,2.9-3.5,3.8c-1.5,0.9-3.1,1.3-4.8,1.3C347.2,486.9,345.6,486.5,344.2,485.6z M352.3,483.3
			c1-0.7,1.7-1.7,2.3-2.9c0.5-1.3,0.8-2.7,0.8-4.4s-0.3-3.1-0.8-4.4c-0.5-1.3-1.3-2.3-2.3-3c-1-0.7-2.1-1.1-3.3-1.1
			c-1.2,0-2.3,0.4-3.3,1.1c-1,0.7-1.7,1.7-2.2,3c-0.5,1.3-0.8,2.7-0.8,4.4c0,2.5,0.6,4.5,1.8,6.1c1.2,1.5,2.7,2.3,4.6,2.3
			C350.2,484.3,351.3,484,352.3,483.3z"/>
		<path class="st1" d="M365.6,484.9c-1-1.4-1.6-3.4-1.6-6.1v-13.3h3.1v12.9c0,2,0.3,3.5,1,4.4c0.7,0.9,1.7,1.4,3.2,1.4
			c1.1,0,2-0.3,2.9-0.9c0.9-0.6,1.9-1.5,3-2.9v-15h3.2v21h-2.6l-0.3-3.3h-0.1c-1.1,1.2-2.2,2.2-3.3,2.9c-1.1,0.7-2.3,1-3.7,1
			C368.2,486.9,366.6,486.3,365.6,484.9z"/>
		<path class="st1" d="M388.8,486.1c-1.4-0.5-2.5-1.2-3.6-2.1l1.6-2.1c1,0.8,2,1.5,3,1.9c1,0.4,2.1,0.6,3.3,0.6c1.4,0,2.4-0.3,3.2-1
			c0.7-0.7,1.1-1.5,1.1-2.5c0-1-0.4-1.8-1.3-2.4c-0.9-0.6-2.1-1.2-3.6-1.7c-2-0.7-3.5-1.5-4.7-2.4c-1.1-0.9-1.7-2.1-1.7-3.7
			c0-1.7,0.6-3.1,1.9-4.2c1.3-1.1,3-1.7,5.2-1.7c1.2,0,2.3,0.2,3.4,0.6c1.1,0.4,2.1,1,2.9,1.7l-1.5,2c-0.8-0.6-1.6-1.1-2.4-1.4
			c-0.7-0.3-1.6-0.5-2.5-0.5c-1.3,0-2.3,0.3-3,0.9c-0.7,0.6-1,1.4-1,2.3c0,0.6,0.2,1.2,0.6,1.6s0.9,0.8,1.5,1.1
			c0.6,0.3,1.5,0.6,2.6,1.1c1.5,0.5,2.6,1,3.5,1.5c0.8,0.4,1.6,1,2.2,1.8c0.6,0.8,0.9,1.8,0.9,3c0,1.1-0.3,2.2-0.9,3.1
			c-0.6,0.9-1.5,1.7-2.6,2.2s-2.5,0.8-4,0.8C391.6,486.9,390.2,486.7,388.8,486.1z"/>
		<path class="st1" d="M421.5,476.7H407c0.1,2.5,0.9,4.3,2.3,5.7s3,2,5,2c1.8,0,3.6-0.6,5.3-1.7l1.2,2.1c-1,0.7-2.1,1.2-3.2,1.6
			c-1.1,0.4-2.3,0.6-3.7,0.6c-1.8,0-3.5-0.4-5-1.3c-1.5-0.9-2.7-2.2-3.6-3.8c-0.9-1.7-1.3-3.6-1.3-5.8c0-2.2,0.4-4.1,1.3-5.8
			c0.9-1.7,2-3,3.5-3.9c1.4-0.9,3-1.4,4.6-1.4c2.6,0,4.6,0.9,6.1,2.6c1.5,1.7,2.2,4.1,2.2,7.2C421.6,475.5,421.6,476.1,421.5,476.7z
			 M418.8,474.4c0-2.2-0.5-3.9-1.4-5.1c-1-1.2-2.3-1.8-4-1.8c-1.6,0-2.9,0.6-4.1,1.8c-1.2,1.2-1.9,2.9-2.2,5.1H418.8z"/>
		<path class="st1" d="M428.2,477.5h-3.5v-2.2h3.8l0.8-6.6h-3.7v-2.2h4l1-8h2.1l-1,8h5.9l1-8h2.1l-1,8h3.5v2.2h-3.7l-0.8,6.6h3.7
			v2.2h-3.9l-1.1,8.9h-2.1l1.1-8.9h-5.9l-1.1,8.9h-2.1L428.2,477.5z M436.5,475.2l0.8-6.6h-5.9l-0.8,6.6H436.5z"/>
		<path class="st1" d="M446.6,483.8h6.4v-21h-5v-2c2.3-0.4,4.2-1.1,5.7-1.9h2.4v24.9h5.7v2.6h-15.3V483.8z"/>
	</g>
</g>
<g>
	<g>
		<circle class="st6" cx="153.6" cy="166.4" r="145.5"/>
		<path class="st4" d="M153.6,312.1c-19.7,0-38.7-3.9-56.7-11.4c-17.3-7.3-32.9-17.8-46.3-31.2c-13.4-13.4-23.9-28.9-31.2-46.3
			c-7.6-18-11.4-37-11.4-56.7s3.9-38.7,11.4-56.7c7.3-17.3,17.8-32.9,31.2-46.3C64,50.1,79.6,39.6,96.9,32.3
			c18-7.6,37-11.4,56.7-11.4c19.7,0,38.7,3.9,56.7,11.4c17.3,7.3,32.9,17.8,46.3,31.2c13.4,13.4,23.9,28.9,31.2,46.3
			c7.6,18,11.4,37,11.4,56.7s-3.9,38.7-11.4,56.7c-7.3,17.3-17.8,32.9-31.2,46.3c-13.4,13.4-28.9,23.9-46.3,31.2
			C192.4,308.2,173.3,312.1,153.6,312.1z M172.6,22.3C77.6,10.2-2.6,90.5,9.5,185.4c8.2,64.7,60.5,117,125.2,125.2
			c94.9,12.1,175.1-68.1,163.1-163.1C289.5,82.8,237.3,30.5,172.6,22.3z"/>
	</g>
	<g>
		<g>
			<circle class="st1" cx="153.6" cy="166.4" r="131.1"/>
			<path class="st1" d="M153.6,297.7c-17.7,0-34.9-3.5-51.1-10.3c-15.6-6.6-29.7-16.1-41.7-28.1c-12.1-12.1-21.5-26.1-28.1-41.7
				c-6.8-16.2-10.3-33.4-10.3-51.1s3.5-34.9,10.3-51.1c6.6-15.6,16.1-29.7,28.1-41.7c12.1-12.1,26.1-21.5,41.7-28.1
				c16.2-6.8,33.4-10.3,51.1-10.3c17.7,0,34.9,3.5,51.1,10.3c15.6,6.6,29.7,16.1,41.7,28.1c12.1,12.1,21.5,26.1,28.1,41.7
				c6.8,16.2,10.3,33.4,10.3,51.1s-3.5,34.9-10.3,51.1c-6.6,15.6-16.1,29.7-28.1,41.7c-12.1,12.1-26.1,21.5-41.7,28.1
				C188.5,294.2,171.3,297.7,153.6,297.7z M170.7,36.5C85.1,25.7,12.8,98,23.7,183.5c7.4,58.3,54.5,105.4,112.8,112.8
				c85.6,10.9,157.8-61.4,147-147C276.1,91.1,229,44,170.7,36.5z"/>
		</g>
	</g>
	<g>
		<g>
			<path class="st5" d="M37.9,156.9c-0.5-0.5-0.7-1.1-0.7-1.8c0-0.7,0.2-1.4,0.7-1.8c0.5-0.5,1-0.7,1.7-0.7c0.7,0,1.2,0.2,1.7,0.7
				c0.5,0.5,0.7,1.1,0.7,1.8c0,0.7-0.2,1.3-0.7,1.8c-0.5,0.5-1,0.7-1.7,0.7C39,157.6,38.4,157.3,37.9,156.9z M37.9,172.7
				c-0.5-0.5-0.7-1.1-0.7-1.8c0-0.7,0.2-1.4,0.7-1.8c0.5-0.5,1-0.7,1.7-0.7c0.7,0,1.2,0.2,1.7,0.7c0.5,0.5,0.7,1.1,0.7,1.8
				c0,0.7-0.2,1.3-0.7,1.8c-0.5,0.5-1,0.7-1.7,0.7C39,173.4,38.4,173.2,37.9,172.7z"/>
			<path class="st5" d="M48.5,142h3.1v8.6l-0.1,4.4c1.2-1.2,2.3-2,3.4-2.7c1.1-0.6,2.3-0.9,3.6-0.9c2.2,0,3.8,0.7,4.8,2.1
				c1,1.4,1.6,3.4,1.6,6.1v13.3h-3.2V160c0-2-0.3-3.5-1-4.4c-0.6-0.9-1.7-1.4-3.2-1.4c-1,0-2,0.3-2.9,0.8c-0.9,0.5-1.9,1.4-3.1,2.6
				v15.3h-3.1V142z"/>
			<path class="st5" d="M72.2,171.8c-1.2-1-1.7-2.5-1.7-4.4c0-2.3,1-4,3.1-5.2c2.1-1.2,5.4-2.1,9.9-2.6c0-1.6-0.3-3-1-4
				c-0.7-1.1-1.8-1.6-3.5-1.6c-2,0-4.1,0.8-6.4,2.3l-1.3-2.2c2.8-1.8,5.5-2.8,8.1-2.8c2.4,0,4.2,0.8,5.4,2.3
				c1.2,1.5,1.7,3.6,1.7,6.2v13H84l-0.3-2.6h-0.1c-2.5,2-4.8,3.1-7,3.1C74.8,173.4,73.3,172.9,72.2,171.8z M80.4,170.1
				c1-0.5,2-1.2,3.1-2.2v-6.1c-3.6,0.4-6.2,1.1-7.7,2c-1.5,0.9-2.3,2.1-2.3,3.5c0,1.2,0.4,2.1,1.1,2.7c0.7,0.6,1.6,0.9,2.8,0.9
				C78.4,170.8,79.4,170.6,80.4,170.1z"/>
			<path class="st5" d="M94.7,172.6c-1.4-0.5-2.5-1.2-3.6-2.1l1.6-2.1c1,0.8,2,1.5,3,1.9c1,0.4,2.1,0.6,3.3,0.6c1.4,0,2.4-0.3,3.2-1
				c0.7-0.7,1.1-1.5,1.1-2.5c0-1-0.4-1.8-1.3-2.4c-0.9-0.6-2.1-1.2-3.6-1.7c-2-0.7-3.5-1.5-4.7-2.4c-1.1-0.9-1.7-2.1-1.7-3.7
				c0-1.7,0.6-3.1,1.9-4.2c1.3-1.1,3-1.7,5.2-1.7c1.2,0,2.3,0.2,3.4,0.6c1.1,0.4,2.1,1,2.9,1.7l-1.5,2c-0.8-0.6-1.6-1.1-2.4-1.4
				c-0.7-0.3-1.6-0.5-2.5-0.5c-1.3,0-2.3,0.3-3,0.9c-0.7,0.6-1,1.4-1,2.3c0,0.6,0.2,1.2,0.6,1.6c0.4,0.5,0.9,0.8,1.5,1.1
				c0.6,0.3,1.5,0.6,2.6,1.1c1.5,0.5,2.6,1,3.5,1.5c0.8,0.4,1.6,1,2.2,1.8c0.6,0.8,0.9,1.8,0.9,3c0,1.1-0.3,2.2-0.9,3.1
				c-0.6,0.9-1.5,1.7-2.6,2.2c-1.1,0.5-2.5,0.8-4,0.8C97.4,173.4,96,173.1,94.7,172.6z"/>
			<path class="st5" d="M114,172.3c-1.7-0.7-3.1-1.8-4.4-3.1l1.9-2.2c1,1.1,2.2,2,3.6,2.7c1.4,0.6,2.8,1,4.3,1
				c1.9,0,3.5-0.4,4.6-1.3c1.1-0.9,1.7-2.1,1.7-3.6c0-1-0.2-1.7-0.6-2.4c-0.4-0.6-0.9-1.1-1.6-1.5c-0.6-0.4-1.5-0.8-2.7-1.3
				l-4.1-1.8c-1.7-0.7-3-1.6-4.1-2.8c-1.1-1.1-1.6-2.6-1.6-4.5c0-1.4,0.4-2.7,1.1-3.8c0.7-1.1,1.8-2,3.1-2.6c1.3-0.6,2.8-1,4.5-1
				s3.2,0.3,4.6,1c1.4,0.6,2.6,1.5,3.7,2.6l-1.7,2c-1.9-1.8-4-2.7-6.5-2.7c-1.7,0-3,0.4-4,1.2c-1,0.8-1.5,1.9-1.5,3.2
				c0,0.9,0.2,1.6,0.7,2.2c0.5,0.6,1,1.1,1.6,1.4c0.6,0.3,1.4,0.7,2.5,1.2l4.1,1.8c1.9,0.8,3.3,1.7,4.3,2.9c1,1.2,1.5,2.7,1.5,4.7
				c0,1.5-0.4,2.9-1.2,4.1c-0.8,1.2-1.9,2.2-3.3,2.9c-1.4,0.7-3.1,1-5,1C117.6,173.4,115.7,173,114,172.3z"/>
			<path class="st5" d="M134.4,151.9h2.6l0.3,2.5h0.1c2.4-2,4.7-3,6.8-3c2.7,0,4.7,1,6.2,2.9c1.4,1.9,2.1,4.5,2.1,7.8
				c0,2.3-0.4,4.3-1.3,6c-0.8,1.7-1.9,3-3.3,3.9c-1.4,0.9-2.9,1.4-4.5,1.4c-1.9,0-3.9-0.8-6-2.5l0.1,3.7v7.2h-3.1V151.9z
				 M146.1,169.7c1-0.7,1.7-1.7,2.3-3c0.5-1.3,0.8-2.8,0.8-4.5c0-2.5-0.5-4.5-1.4-5.9c-0.9-1.4-2.4-2.1-4.4-2.1c-1.8,0-3.7,1-5.9,3
				v11.3c1,0.8,1.9,1.4,2.8,1.8c0.9,0.4,1.8,0.5,2.6,0.5C144.1,170.7,145.1,170.4,146.1,169.7z"/>
			<path class="st5" d="M161.4,172.1c-1.5-0.9-2.6-2.1-3.5-3.8c-0.9-1.7-1.3-3.6-1.3-5.9c0-2.2,0.4-4.2,1.3-5.9
				c0.9-1.7,2.1-2.9,3.5-3.8c1.5-0.9,3.1-1.3,4.8-1.3s3.3,0.4,4.8,1.3c1.5,0.9,2.6,2.2,3.5,3.8c0.9,1.7,1.3,3.6,1.3,5.9
				c0,2.2-0.4,4.2-1.3,5.9c-0.9,1.7-2.1,2.9-3.5,3.8c-1.5,0.9-3.1,1.3-4.8,1.3S162.9,173,161.4,172.1z M169.5,169.7
				c1-0.7,1.7-1.7,2.3-2.9c0.5-1.3,0.8-2.7,0.8-4.4c0-1.6-0.3-3.1-0.8-4.4c-0.5-1.3-1.3-2.3-2.3-3s-2.1-1.1-3.3-1.1
				c-1.2,0-2.3,0.4-3.3,1.1c-1,0.7-1.7,1.7-2.2,3c-0.5,1.3-0.8,2.7-0.8,4.4c0,2.5,0.6,4.5,1.8,6.1c1.2,1.5,2.7,2.3,4.6,2.3
				C167.5,170.8,168.6,170.4,169.5,169.7z"/>
			<path class="st5" d="M182.8,171.3c-1-1.4-1.6-3.4-1.6-6.1v-13.3h3.1v12.9c0,2,0.3,3.5,1,4.4c0.7,0.9,1.7,1.4,3.2,1.4
				c1.1,0,2-0.3,2.9-0.9c0.9-0.6,1.9-1.5,3-2.9v-15h3.2v21H195l-0.3-3.3h-0.1c-1.1,1.2-2.2,2.2-3.3,2.9c-1.1,0.7-2.3,1-3.7,1
				C185.5,173.4,183.9,172.7,182.8,171.3z"/>
			<path class="st5" d="M206.1,172.6c-1.4-0.5-2.5-1.2-3.6-2.1l1.6-2.1c1,0.8,2,1.5,3,1.9c1,0.4,2.1,0.6,3.3,0.6
				c1.4,0,2.4-0.3,3.2-1c0.7-0.7,1.1-1.5,1.1-2.5c0-1-0.4-1.8-1.3-2.4c-0.9-0.6-2.1-1.2-3.6-1.7c-2-0.7-3.5-1.5-4.7-2.4
				c-1.1-0.9-1.7-2.1-1.7-3.7c0-1.7,0.6-3.1,1.9-4.2c1.3-1.1,3-1.7,5.2-1.7c1.2,0,2.3,0.2,3.4,0.6c1.1,0.4,2.1,1,2.9,1.7l-1.5,2
				c-0.8-0.6-1.6-1.1-2.4-1.4c-0.7-0.3-1.6-0.5-2.5-0.5c-1.3,0-2.3,0.3-3,0.9c-0.7,0.6-1,1.4-1,2.3c0,0.6,0.2,1.2,0.6,1.6
				c0.4,0.5,0.9,0.8,1.5,1.1c0.6,0.3,1.5,0.6,2.6,1.1c1.5,0.5,2.6,1,3.5,1.5c0.8,0.4,1.6,1,2.2,1.8c0.6,0.8,0.9,1.8,0.9,3
				c0,1.1-0.3,2.2-0.9,3.1c-0.6,0.9-1.5,1.7-2.6,2.2c-1.1,0.5-2.5,0.8-4,0.8C208.8,173.4,207.4,173.1,206.1,172.6z"/>
			<path class="st5" d="M238.7,163.1h-14.5c0.1,2.5,0.9,4.3,2.3,5.7c1.4,1.4,3,2,5,2c1.8,0,3.6-0.6,5.3-1.7l1.2,2.1
				c-1,0.7-2.1,1.2-3.2,1.6c-1.1,0.4-2.3,0.6-3.7,0.6c-1.8,0-3.5-0.4-5-1.3c-1.5-0.9-2.7-2.2-3.6-3.8c-0.9-1.7-1.3-3.6-1.3-5.8
				c0-2.2,0.4-4.1,1.3-5.8c0.9-1.7,2-3,3.5-3.9c1.4-0.9,3-1.4,4.6-1.4c2.6,0,4.6,0.9,6.1,2.6c1.5,1.7,2.2,4.1,2.2,7.2
				C238.9,162,238.8,162.6,238.7,163.1z M236.1,160.8c0-2.2-0.5-3.9-1.4-5.1c-1-1.2-2.3-1.8-4-1.8c-1.6,0-2.9,0.6-4.1,1.8
				c-1.2,1.2-1.9,2.9-2.2,5.1H236.1z"/>
			<path class="st5" d="M245.5,163.9H242v-2.2h3.8l0.8-6.6h-3.7v-2.2h4l1-8h2.1l-1,8h5.9l1-8h2.1l-1,8h3.5v2.2h-3.7l-0.8,6.6h3.7
				v2.2h-3.9l-1.1,8.9h-2.1l1.1-8.9h-5.9l-1.1,8.9h-2.1L245.5,163.9z M253.8,161.7l0.8-6.6h-5.9l-0.8,6.6H253.8z"/>
			<path class="st5" d="M263.8,170.2h6.4v-21h-5v-2c2.3-0.4,4.2-1.1,5.7-1.9h2.4v24.9h5.7v2.6h-15.3V170.2z"/>
		</g>
	</g>
</g>
</svg>
