<?xml version="1.0" encoding="utf-8"?>
<!-- Generator: Adobe Illustrator 24.3.0, SVG Export Plug-In . SVG Version: 6.00 Build 0)  -->
<svg version="1.1" id="Layer_1" xmlns="http://www.w3.org/2000/svg" xmlns:xlink="http://www.w3.org/1999/xlink" x="0px" y="0px"
	 viewBox="0 0 840 768" style="enable-background:new 0 0 840 768;" xml:space="preserve">
<style type="text/css">
	.st0{opacity:0.54;fill:#858585;}
	.st1{fill:#FFFFFF;stroke:#BBBABA;stroke-miterlimit:10;}
	.st2{fill:none;stroke:#BBBABA;stroke-width:2;stroke-miterlimit:10;}
	.st3{fill:#00B4B2;}
	.st4{opacity:0.47;}
	.st5{fill:#858585;}
	.st6{fill:#FFFFFF;}
	.st7{fill:#E74E0F;}
	.st8{fill:#153156;}
	.st9{fill:none;stroke:#858585;stroke-width:4;stroke-miterlimit:10;}
	.st10{fill:#FFFFFF;stroke:#153156;stroke-width:3;stroke-miterlimit:10;}
</style>
<polygon class="st0" points="427.1,324.7 408.6,283 390.3,324.8 393.7,326.3 406.5,296.5 406.5,498.3 410.2,498.3 410.2,296 
	423.8,326.4 "/>
<polygon class="st0" points="390.3,606.2 408.7,648 427.1,606.1 423.7,604.7 410.9,634.5 410.9,432.6 407.1,432.6 407.1,634.9 
	393.6,604.6 "/>
<g>
	<circle class="st1" cx="67.5" cy="448.7" r="63.1"/>
	<path class="st2" d="M67.5,511.9c-8.5,0-16.8-1.7-24.6-5c-7.5-3.2-14.3-7.7-20.1-13.5c-5.8-5.8-10.4-12.6-13.5-20.1
		c-3.3-7.8-5-16.1-5-24.6c0-8.5,1.7-16.8,5-24.6c3.2-7.5,7.7-14.3,13.5-20.1c5.8-5.8,12.6-10.4,20.1-13.5c7.8-3.3,16.1-5,24.6-5
		c8.5,0,16.8,1.7,24.6,5c7.5,3.2,14.3,7.7,20.1,13.5c5.8,5.8,10.4,12.6,13.5,20.1c3.3,7.8,5,16.1,5,24.6c0,8.5-1.7,16.8-5,24.6
		c-3.2,7.5-7.7,14.3-13.5,20.1c-5.8,5.8-12.6,10.4-20.1,13.5C84.3,510.2,76,511.9,67.5,511.9z M75.7,386.2C34.5,381-0.2,415.8,5,457
		c3.6,28.1,26.2,50.7,54.3,54.3c41.2,5.2,76-29.6,70.7-70.7C126.4,412.5,103.8,389.8,75.7,386.2z"/>
</g>
<circle class="st3" cx="67.5" cy="448.7" r="51.6"/>
<g class="st4">
	<g>
		<polygon class="st5" points="133.5,449.3 137.7,445.5 396.7,445.5 396.7,449.3 		"/>
	</g>
	<g>
		<polygon class="st5" points="130.7,448.1 172.4,427.7 174.1,431 139.7,447.8 174,462.1 172.5,465.5 		"/>
	</g>
</g>
<g class="st4">
	<g>
		<polygon class="st5" points="667.8,443.9 664.7,447.6 404.6,447.6 404.6,443.9 		"/>
	</g>
	<g>
		<polygon class="st5" points="670.6,445.1 628.9,465.5 627.2,462.2 661.6,445.3 627.3,431.1 628.8,427.7 		"/>
	</g>
</g>
<g>
	<path class="st6" d="M29.8,443.7c-0.4-0.4-0.6-0.9-0.6-1.5c0-0.6,0.2-1.1,0.6-1.5c0.4-0.4,0.9-0.6,1.4-0.6c0.6,0,1,0.2,1.4,0.6
		c0.4,0.4,0.6,0.9,0.6,1.5c0,0.6-0.2,1.1-0.6,1.5c-0.4,0.4-0.9,0.6-1.4,0.6C30.6,444.3,30.2,444.1,29.8,443.7z M29.8,457
		c-0.4-0.4-0.6-0.9-0.6-1.5c0-0.6,0.2-1.1,0.6-1.5s0.9-0.6,1.4-0.6c0.6,0,1,0.2,1.4,0.6c0.4,0.4,0.6,0.9,0.6,1.5
		c0,0.6-0.2,1.1-0.6,1.5c-0.4,0.4-0.9,0.6-1.4,0.6C30.6,457.6,30.2,457.4,29.8,457z"/>
	<path class="st6" d="M38.7,439.5h2.2l0.2,2.6h0.1c1.9-2,3.7-3,5.5-3c2.5,0,4.1,1.1,4.9,3.4c1-1.1,2-2,2.9-2.5
		c0.9-0.6,1.9-0.9,2.9-0.9c3.6,0,5.3,2.3,5.3,6.9v11.2H60v-10.9c0-1.7-0.3-2.9-0.8-3.7c-0.6-0.8-1.4-1.2-2.6-1.2
		c-1.4,0-2.9,0.9-4.6,2.8v12.9h-2.7v-10.9c0-1.7-0.3-2.9-0.8-3.7c-0.6-0.8-1.4-1.2-2.6-1.2c-1.4,0-2.9,0.9-4.6,2.8v12.9h-2.6V439.5z
		"/>
	<path class="st6" d="M68.9,456.2c-1-0.9-1.5-2.1-1.5-3.7c0-1.9,0.9-3.4,2.6-4.4c1.7-1,4.5-1.7,8.3-2.2c0-1.4-0.3-2.5-0.9-3.4
		c-0.6-0.9-1.5-1.3-2.9-1.3c-1.7,0-3.4,0.6-5.3,1.9l-1.1-1.8c2.3-1.5,4.6-2.3,6.8-2.3c2,0,3.5,0.6,4.5,1.9c1,1.3,1.5,3,1.5,5.2v10.9
		h-2.2l-0.2-2.1h-0.1c-2.1,1.7-4.1,2.6-5.9,2.6C71.1,457.6,69.9,457.1,68.9,456.2z M75.8,454.8c0.8-0.4,1.7-1,2.6-1.9v-5.2
		c-3,0.4-5.2,0.9-6.4,1.7c-1.3,0.8-1.9,1.7-1.9,3c0,1,0.3,1.7,0.9,2.2c0.6,0.5,1.4,0.7,2.3,0.7C74.1,455.4,75,455.2,75.8,454.8z"/>
	<path class="st6" d="M86.8,439.5H89l0.2,2.6h0.1c1-1,1.9-1.7,2.8-2.2c0.9-0.5,2-0.8,3.1-0.8c1.8,0,3.2,0.6,4.1,1.7
		c0.9,1.1,1.3,2.9,1.3,5.1v11.2h-2.6v-10.9c0-1.7-0.3-2.9-0.8-3.7c-0.5-0.8-1.4-1.2-2.7-1.2c-0.9,0-1.7,0.2-2.4,0.7
		c-0.7,0.4-1.6,1.2-2.6,2.2v12.9h-2.6V439.5z"/>
</g>
<g>
	<path class="st7" d="M419.7,555c-0.4-0.4-0.6-0.9-0.6-1.5c0-0.6,0.2-1.1,0.6-1.5c0.4-0.4,0.9-0.6,1.4-0.6c0.6,0,1,0.2,1.4,0.6
		c0.4,0.4,0.6,0.9,0.6,1.5c0,0.6-0.2,1.1-0.6,1.5c-0.4,0.4-0.9,0.6-1.4,0.6C420.6,555.6,420.1,555.4,419.7,555z M419.7,568.3
		c-0.4-0.4-0.6-0.9-0.6-1.5c0-0.6,0.2-1.1,0.6-1.5s0.9-0.6,1.4-0.6c0.6,0,1,0.2,1.4,0.6s0.6,0.9,0.6,1.5c0,0.6-0.2,1.1-0.6,1.5
		s-0.9,0.6-1.4,0.6C420.6,568.9,420.1,568.7,419.7,568.3z"/>
	<path class="st7" d="M429.6,568.2c-1.1-0.4-2.1-1-3-1.8l1.3-1.8c0.9,0.7,1.7,1.2,2.5,1.6c0.8,0.4,1.7,0.5,2.8,0.5
		c1.2,0,2.1-0.3,2.7-0.8c0.6-0.6,0.9-1.3,0.9-2.1c0-0.8-0.4-1.5-1.1-2c-0.7-0.5-1.7-1-3-1.5c-1.7-0.6-3-1.3-3.9-2
		c-0.9-0.7-1.4-1.7-1.4-3.1c0-1.4,0.5-2.6,1.6-3.5c1.1-0.9,2.5-1.4,4.4-1.4c1,0,1.9,0.2,2.9,0.5c0.9,0.4,1.7,0.8,2.5,1.4l-1.3,1.7
		c-0.7-0.5-1.4-0.9-2-1.2c-0.6-0.3-1.3-0.4-2.1-0.4c-1.1,0-2,0.3-2.5,0.8c-0.6,0.5-0.9,1.2-0.9,1.9c0,0.5,0.2,1,0.5,1.4
		c0.4,0.4,0.8,0.7,1.3,0.9c0.5,0.2,1.2,0.5,2.1,0.9c1.2,0.5,2.2,0.9,2.9,1.2c0.7,0.4,1.3,0.9,1.8,1.5c0.5,0.7,0.8,1.5,0.8,2.6
		c0,0.9-0.2,1.8-0.7,2.6c-0.5,0.8-1.2,1.4-2.2,1.9s-2.1,0.7-3.4,0.7C431.9,568.9,430.7,568.7,429.6,568.2z"/>
	<path class="st7" d="M444.9,567.4c-0.8-1-1.1-2.4-1.1-4.2V553h-2.6v-2l2.8-0.2l0.3-5h2.2v5h4.8v2.2h-4.8v10.2c0,1.2,0.2,2,0.6,2.6
		c0.4,0.6,1.1,0.9,2.2,0.9c0.5,0,1.2-0.2,2-0.5l0.5,2c-1.3,0.4-2.4,0.7-3.2,0.7C446.9,568.9,445.7,568.4,444.9,567.4z"/>
	<path class="st7" d="M454.9,567.6c-1-0.9-1.5-2.1-1.5-3.7c0-1.9,0.9-3.4,2.6-4.4c1.7-1,4.5-1.7,8.3-2.2c0-1.4-0.3-2.5-0.9-3.4
		c-0.6-0.9-1.5-1.3-2.9-1.3c-1.7,0-3.4,0.6-5.3,1.9l-1.1-1.8c2.3-1.5,4.6-2.3,6.8-2.3c2,0,3.5,0.6,4.5,1.9c1,1.3,1.5,3,1.5,5.2v10.9
		h-2.2l-0.2-2.1h-0.1c-2.1,1.7-4.1,2.6-5.9,2.6C457.1,568.9,455.9,568.4,454.9,567.6z M461.8,566.1c0.8-0.4,1.7-1,2.6-1.9v-5.2
		c-3,0.4-5.2,0.9-6.4,1.7c-1.3,0.8-1.9,1.7-1.9,3c0,1,0.3,1.7,0.9,2.2c0.6,0.5,1.4,0.7,2.3,0.7C460.1,566.7,460.9,566.5,461.8,566.1
		z"/>
	<path class="st7" d="M472.8,550.8h2.2l0.2,3.2h0.1c0.6-1.1,1.3-2,2.2-2.7c0.9-0.7,1.8-1,2.8-1c0.7,0,1.3,0.1,1.8,0.4l-0.5,2.3
		c-0.6-0.2-1.2-0.3-1.7-0.3c-0.8,0-1.6,0.3-2.5,1c-0.8,0.7-1.5,1.7-2.1,3.2v11.5h-2.6V550.8z"/>
	<path class="st7" d="M486.7,567.4c-0.8-1-1.1-2.4-1.1-4.2V553h-2.6v-2l2.8-0.2l0.3-5h2.2v5h4.8v2.2h-4.8v10.2c0,1.2,0.2,2,0.6,2.6
		c0.4,0.6,1.1,0.9,2.2,0.9c0.5,0,1.2-0.2,2-0.5l0.5,2c-1.3,0.4-2.4,0.7-3.2,0.7C488.7,568.9,487.5,568.4,486.7,567.4z"/>
	<path class="st7" d="M497.4,544.6h5.8c3.6,0,6.4,1,8.3,3.1c1.9,2.1,2.8,5,2.8,8.7s-0.9,6.7-2.8,8.8c-1.9,2.1-4.6,3.2-8.2,3.2h-6
		V544.6z M503,566.2c2.9,0,5-0.9,6.4-2.6c1.4-1.7,2.2-4.1,2.2-7.2c0-3.1-0.7-5.4-2.2-7.1c-1.4-1.7-3.6-2.5-6.4-2.5h-2.9v19.4H503z"
		/>
	<path class="st7" d="M519.7,567.6c-1-0.9-1.5-2.1-1.5-3.7c0-1.9,0.9-3.4,2.6-4.4c1.7-1,4.5-1.7,8.3-2.2c0-1.4-0.3-2.5-0.9-3.4
		c-0.6-0.9-1.5-1.3-2.9-1.3c-1.7,0-3.4,0.6-5.3,1.9l-1.1-1.8c2.3-1.5,4.6-2.3,6.8-2.3c2,0,3.5,0.6,4.5,1.9c1,1.3,1.5,3,1.5,5.2v10.9
		h-2.2l-0.2-2.1h-0.1c-2.1,1.7-4.1,2.6-5.9,2.6C521.9,568.9,520.6,568.4,519.7,567.6z M526.5,566.1c0.8-0.4,1.7-1,2.6-1.9v-5.2
		c-3,0.4-5.2,0.9-6.4,1.7c-1.3,0.8-1.9,1.7-1.9,3c0,1,0.3,1.7,0.9,2.2c0.6,0.5,1.4,0.7,2.3,0.7C524.9,566.7,525.7,566.5,526.5,566.1
		z"/>
	<path class="st7" d="M538.7,567.4c-0.8-1-1.1-2.4-1.1-4.2V553h-2.6v-2l2.8-0.2l0.3-5h2.2v5h4.8v2.2h-4.8v10.2c0,1.2,0.2,2,0.6,2.6
		c0.4,0.6,1.1,0.9,2.2,0.9c0.5,0,1.2-0.2,2-0.5l0.5,2c-1.3,0.4-2.4,0.7-3.2,0.7C540.7,568.9,539.4,568.4,538.7,567.4z"/>
	<path class="st7" d="M561.9,560.2h-12.2c0.1,2.1,0.8,3.7,1.9,4.8c1.1,1.1,2.6,1.7,4.2,1.7c1.5,0,3-0.5,4.5-1.4l1,1.7
		c-0.9,0.6-1.8,1-2.7,1.3c-0.9,0.3-1.9,0.5-3.1,0.5c-1.5,0-3-0.4-4.2-1.1c-1.3-0.7-2.3-1.8-3-3.2c-0.7-1.4-1.1-3-1.1-4.9
		c0-1.8,0.4-3.5,1.1-4.9c0.7-1.4,1.7-2.5,2.9-3.2c1.2-0.8,2.5-1.1,3.8-1.1c2.2,0,3.9,0.7,5.1,2.2c1.2,1.5,1.8,3.5,1.8,6
		C562.1,559.3,562,559.8,561.9,560.2z M559.7,558.3c0-1.9-0.4-3.3-1.2-4.3c-0.8-1-1.9-1.5-3.3-1.5c-1.3,0-2.5,0.5-3.5,1.5
		c-1,1-1.6,2.4-1.8,4.3H559.7z"/>
</g>
<g>
	<path class="st7" d="M419.8,344.7h2.2l0.2,3.2h0.1c0.6-1.1,1.3-2,2.2-2.7c0.9-0.7,1.8-1,2.8-1c0.7,0,1.3,0.1,1.8,0.4l-0.5,2.3
		c-0.6-0.2-1.2-0.3-1.7-0.3c-0.8,0-1.6,0.3-2.5,1c-0.8,0.7-1.5,1.7-2.1,3.2v11.5h-2.6V344.7z"/>
	<path class="st7" d="M432.4,360.3c-1.3-1.6-1.9-3.9-1.9-6.8c0-1.8,0.3-3.5,1.1-4.9c0.7-1.4,1.6-2.5,2.8-3.2
		c1.2-0.8,2.4-1.1,3.8-1.1c0.9,0,1.8,0.2,2.5,0.5c0.7,0.3,1.6,0.9,2.5,1.6l-0.1-3v-6.9h2.6v25.9h-2.2l-0.2-2.1h-0.1
		c-0.8,0.8-1.6,1.4-2.5,1.9c-0.9,0.5-1.9,0.7-2.9,0.7C435.5,362.7,433.7,361.9,432.4,360.3z M440.7,359.8c0.8-0.4,1.5-1,2.3-1.9
		v-9.5c-0.8-0.7-1.5-1.2-2.2-1.5c-0.7-0.3-1.5-0.5-2.2-0.5c-1,0-1.9,0.3-2.7,0.9c-0.8,0.6-1.5,1.4-1.9,2.5c-0.5,1.1-0.7,2.3-0.7,3.6
		c0,2.2,0.4,3.9,1.3,5.1c0.9,1.2,2.1,1.9,3.8,1.9C439.1,360.4,439.9,360.2,440.7,359.8z"/>
	<path class="st7" d="M454.9,341.6v3h3.8v2.2h-3.8v15.4h-2.7v-15.4h-2.4v-2l2.4-0.2v-3c0-1.8,0.4-3.2,1.3-4.2c0.8-1,2.1-1.5,3.7-1.5
		c0.9,0,1.9,0.2,2.8,0.6l-0.6,2c-0.7-0.3-1.4-0.4-2-0.4C455.7,338.1,454.9,339.3,454.9,341.6z"/>
	<path class="st7" d="M462,348.8c-0.4-0.4-0.6-0.9-0.6-1.5c0-0.6,0.2-1.1,0.6-1.5c0.4-0.4,0.9-0.6,1.4-0.6s1,0.2,1.4,0.6
		c0.4,0.4,0.6,0.9,0.6,1.5c0,0.6-0.2,1.1-0.6,1.5c-0.4,0.4-0.9,0.6-1.4,0.6S462.4,349.2,462,348.8z M462,362.1
		c-0.4-0.4-0.6-0.9-0.6-1.5c0-0.6,0.2-1.1,0.6-1.5c0.4-0.4,0.9-0.6,1.4-0.6s1,0.2,1.4,0.6s0.6,0.9,0.6,1.5c0,0.6-0.2,1.1-0.6,1.5
		c-0.4,0.4-0.9,0.6-1.4,0.6S462.4,362.5,462,362.1z"/>
	<path class="st7" d="M470.9,344.7h2.2l0.2,2.1h0.1c2.1-1.7,4-2.5,5.7-2.5c2.2,0,4,0.8,5.2,2.4s1.8,3.8,1.8,6.6
		c0,1.9-0.4,3.6-1.1,5.1c-0.7,1.4-1.6,2.5-2.8,3.3c-1.2,0.8-2.4,1.1-3.8,1.1c-1.6,0-3.2-0.7-5-2.1l0.1,3.1v6.1h-2.6V344.7z
		 M480.8,359.6c0.8-0.6,1.4-1.4,1.9-2.5c0.5-1.1,0.7-2.4,0.7-3.8c0-2.1-0.4-3.8-1.2-5c-0.8-1.2-2-1.8-3.7-1.8c-1.5,0-3.1,0.8-5,2.5
		v9.5c0.8,0.7,1.6,1.2,2.4,1.5c0.8,0.3,1.5,0.5,2.1,0.5C479,360.4,480,360.1,480.8,359.6z"/>
	<path class="st7" d="M491,344.7h2.2l0.2,3.2h0.1c0.6-1.1,1.3-2,2.2-2.7c0.9-0.7,1.8-1,2.8-1c0.7,0,1.3,0.1,1.8,0.4l-0.5,2.3
		c-0.6-0.2-1.2-0.3-1.7-0.3c-0.8,0-1.6,0.3-2.5,1c-0.8,0.7-1.5,1.7-2.1,3.2v11.5H491V344.7z"/>
	<path class="st7" d="M516.2,354.1h-12.2c0.1,2.1,0.8,3.7,1.9,4.8s2.6,1.7,4.2,1.7c1.5,0,3-0.5,4.5-1.4l1,1.7
		c-0.9,0.6-1.8,1-2.7,1.3c-0.9,0.3-1.9,0.5-3.1,0.5c-1.5,0-3-0.4-4.2-1.1c-1.3-0.7-2.3-1.8-3-3.2c-0.7-1.4-1.1-3-1.1-4.9
		c0-1.8,0.4-3.5,1.1-4.9c0.7-1.4,1.7-2.5,2.9-3.2c1.2-0.8,2.5-1.1,3.8-1.1c2.2,0,3.9,0.7,5.1,2.2c1.2,1.5,1.8,3.5,1.8,6
		C516.4,353.1,516.3,353.6,516.2,354.1z M514,352.1c0-1.9-0.4-3.3-1.2-4.3c-0.8-1-1.9-1.5-3.3-1.5c-1.3,0-2.5,0.5-3.5,1.5
		c-1,1-1.6,2.4-1.8,4.3H514z"/>
	<path class="st7" d="M521.4,360.3c-1.3-1.6-1.9-3.9-1.9-6.8c0-1.8,0.3-3.5,1.1-4.9c0.7-1.4,1.6-2.5,2.8-3.2
		c1.2-0.8,2.4-1.1,3.8-1.1c0.9,0,1.8,0.2,2.5,0.5c0.7,0.3,1.6,0.9,2.5,1.6l-0.1-3v-6.9h2.6v25.9h-2.2l-0.2-2.1h-0.1
		c-0.8,0.8-1.6,1.4-2.5,1.9c-0.9,0.5-1.9,0.7-2.9,0.7C524.5,362.7,522.7,361.9,521.4,360.3z M529.7,359.8c0.8-0.4,1.5-1,2.3-1.9
		v-9.5c-0.8-0.7-1.5-1.2-2.2-1.5c-0.7-0.3-1.5-0.5-2.2-0.5c-1,0-1.9,0.3-2.7,0.9s-1.5,1.4-1.9,2.5c-0.5,1.1-0.7,2.3-0.7,3.6
		c0,2.2,0.4,3.9,1.3,5.1c0.9,1.2,2.1,1.9,3.8,1.9C528.1,360.4,528.9,360.2,529.7,359.8z"/>
	<path class="st7" d="M540.9,340.4c-0.3-0.3-0.5-0.8-0.5-1.3c0-0.5,0.2-1,0.5-1.3c0.3-0.3,0.8-0.5,1.3-0.5c0.5,0,1,0.2,1.3,0.5
		c0.3,0.3,0.5,0.8,0.5,1.3c0,0.6-0.2,1-0.5,1.3c-0.3,0.3-0.8,0.5-1.3,0.5C541.6,340.9,541.2,340.7,540.9,340.4z M540.8,344.7h2.6
		v17.6h-2.6V344.7z"/>
	<path class="st7" d="M552.2,361.6c-1.2-0.7-2.2-1.8-2.9-3.2c-0.7-1.4-1.1-3-1.1-4.9c0-1.9,0.4-3.5,1.1-4.9c0.8-1.4,1.8-2.5,3.1-3.2
		c1.3-0.7,2.7-1.1,4.2-1.1c1.9,0,3.6,0.7,5.1,2.1l-1.4,1.7c-0.6-0.5-1.2-0.9-1.7-1.2c-0.6-0.3-1.2-0.4-1.9-0.4
		c-1.1,0-2.1,0.3-2.9,0.9c-0.9,0.6-1.6,1.4-2.1,2.5c-0.5,1.1-0.7,2.3-0.7,3.7c0,2.1,0.5,3.8,1.6,5.1c1,1.3,2.4,1.9,4.1,1.9
		c1.5,0,3-0.6,4.3-1.8l1.2,1.8c-0.8,0.7-1.7,1.3-2.6,1.7c-1,0.4-2,0.6-3,0.6C554.9,362.7,553.5,362.3,552.2,361.6z"/>
	<path class="st7" d="M566,361.4c-1-0.9-1.5-2.1-1.5-3.7c0-1.9,0.9-3.4,2.6-4.4c1.7-1,4.5-1.7,8.3-2.2c0-1.4-0.3-2.5-0.9-3.4
		c-0.6-0.9-1.5-1.3-2.9-1.3c-1.7,0-3.4,0.6-5.3,1.9l-1.1-1.8c2.3-1.5,4.6-2.3,6.8-2.3c2,0,3.5,0.6,4.5,1.9c1,1.3,1.5,3,1.5,5.2v10.9
		h-2.2l-0.2-2.1h-0.1c-2.1,1.7-4.1,2.6-5.9,2.6C568.2,362.7,567,362.3,566,361.4z M572.9,359.9c0.8-0.4,1.7-1,2.6-1.9v-5.2
		c-3,0.4-5.2,0.9-6.4,1.7c-1.3,0.8-1.9,1.7-1.9,3c0,1,0.3,1.7,0.9,2.2c0.6,0.5,1.4,0.7,2.3,0.7C571.2,360.5,572.1,360.3,572.9,359.9
		z"/>
	<path class="st7" d="M585,361.2c-0.8-1-1.1-2.4-1.1-4.2v-10.1h-2.6v-2l2.8-0.2l0.3-5h2.2v5h4.8v2.2h-4.8V357c0,1.2,0.2,2,0.6,2.6
		c0.4,0.6,1.1,0.9,2.2,0.9c0.5,0,1.2-0.2,2-0.5l0.5,2c-1.3,0.4-2.4,0.7-3.2,0.7C587,362.7,585.8,362.2,585,361.2z"/>
	<path class="st7" d="M608.3,354.1h-12.2c0.1,2.1,0.8,3.7,1.9,4.8c1.1,1.1,2.6,1.7,4.2,1.7c1.5,0,3-0.5,4.5-1.4l1,1.7
		c-0.9,0.6-1.8,1-2.7,1.3c-0.9,0.3-1.9,0.5-3.1,0.5c-1.5,0-3-0.4-4.2-1.1c-1.3-0.7-2.3-1.8-3-3.2c-0.7-1.4-1.1-3-1.1-4.9
		c0-1.8,0.4-3.5,1.1-4.9c0.7-1.4,1.7-2.5,2.9-3.2c1.2-0.8,2.5-1.1,3.8-1.1c2.2,0,3.9,0.7,5.1,2.2c1.2,1.5,1.8,3.5,1.8,6
		C608.4,353.1,608.4,353.6,608.3,354.1z M606,352.1c0-1.9-0.4-3.3-1.2-4.3c-0.8-1-1.9-1.5-3.3-1.5c-1.3,0-2.5,0.5-3.5,1.5
		c-1,1-1.6,2.4-1.8,4.3H606z"/>
</g>
<g>
	<path class="st7" d="M182.5,476.6h2.2l0.2,3.2h0.1c0.6-1.1,1.3-2,2.2-2.7c0.9-0.7,1.8-1,2.8-1c0.7,0,1.3,0.1,1.8,0.4l-0.5,2.3
		c-0.6-0.2-1.2-0.3-1.7-0.3c-0.8,0-1.6,0.3-2.5,1c-0.8,0.7-1.5,1.7-2.1,3.2v11.5h-2.6V476.6z"/>
	<path class="st7" d="M195.1,492.2c-1.3-1.6-1.9-3.9-1.9-6.8c0-1.8,0.3-3.5,1.1-4.9c0.7-1.4,1.6-2.5,2.8-3.2
		c1.2-0.8,2.4-1.1,3.8-1.1c0.9,0,1.8,0.2,2.5,0.5c0.7,0.3,1.6,0.9,2.5,1.6l-0.1-3v-6.9h2.6v25.9h-2.2l-0.2-2.1h-0.1
		c-0.8,0.8-1.6,1.4-2.5,1.9c-0.9,0.5-1.9,0.7-2.9,0.7C198.1,494.6,196.4,493.8,195.1,492.2z M203.3,491.8c0.8-0.4,1.5-1,2.3-1.9
		v-9.5c-0.8-0.7-1.5-1.2-2.2-1.5c-0.7-0.3-1.5-0.5-2.2-0.5c-1,0-1.9,0.3-2.7,0.9s-1.5,1.4-1.9,2.5c-0.5,1.1-0.7,2.3-0.7,3.6
		c0,2.2,0.4,3.9,1.3,5.1c0.9,1.2,2.1,1.9,3.8,1.9C201.8,492.4,202.6,492.2,203.3,491.8z"/>
	<path class="st7" d="M217.5,473.6v3h3.8v2.2h-3.8v15.4h-2.7v-15.4h-2.4v-2l2.4-0.2v-3c0-1.8,0.4-3.2,1.3-4.2c0.8-1,2.1-1.5,3.7-1.5
		c0.9,0,1.9,0.2,2.8,0.6l-0.6,2c-0.7-0.3-1.4-0.4-2-0.4C218.4,470,217.5,471.2,217.5,473.6z"/>
	<path class="st7" d="M224.7,480.8c-0.4-0.4-0.6-0.9-0.6-1.5c0-0.6,0.2-1.1,0.6-1.5c0.4-0.4,0.9-0.6,1.4-0.6s1,0.2,1.4,0.6
		c0.4,0.4,0.6,0.9,0.6,1.5c0,0.6-0.2,1.1-0.6,1.5c-0.4,0.4-0.9,0.6-1.4,0.6S225,481.2,224.7,480.8z M224.7,494
		c-0.4-0.4-0.6-0.9-0.6-1.5c0-0.6,0.2-1.1,0.6-1.5c0.4-0.4,0.9-0.6,1.4-0.6s1,0.2,1.4,0.6c0.4,0.4,0.6,0.9,0.6,1.5
		c0,0.6-0.2,1.1-0.6,1.5c-0.4,0.4-0.9,0.6-1.4,0.6S225,494.4,224.7,494z"/>
	<path class="st7" d="M234.5,494c-1.1-0.4-2.1-1-3-1.8l1.3-1.8c0.9,0.7,1.7,1.2,2.5,1.6c0.8,0.4,1.7,0.5,2.8,0.5
		c1.2,0,2.1-0.3,2.7-0.8c0.6-0.6,0.9-1.3,0.9-2.1c0-0.8-0.4-1.5-1.1-2c-0.7-0.5-1.7-1-3-1.5c-1.7-0.6-3-1.3-3.9-2
		c-0.9-0.7-1.4-1.7-1.4-3.1c0-1.4,0.5-2.6,1.6-3.5c1.1-0.9,2.5-1.4,4.4-1.4c1,0,1.9,0.2,2.9,0.5c0.9,0.4,1.7,0.8,2.5,1.4l-1.3,1.7
		c-0.7-0.5-1.4-0.9-2-1.2c-0.6-0.3-1.3-0.4-2.1-0.4c-1.1,0-2,0.3-2.5,0.8c-0.6,0.5-0.9,1.2-0.9,1.9c0,0.5,0.2,1,0.5,1.4
		c0.4,0.4,0.8,0.7,1.3,0.9c0.5,0.2,1.2,0.5,2.1,0.9c1.2,0.5,2.2,0.9,2.9,1.2c0.7,0.4,1.3,0.9,1.8,1.5c0.5,0.7,0.8,1.5,0.8,2.6
		c0,0.9-0.2,1.8-0.7,2.6c-0.5,0.8-1.2,1.4-2.2,1.9c-1,0.5-2.1,0.7-3.4,0.7C236.8,494.6,235.7,494.4,234.5,494z"/>
	<path class="st7" d="M249.7,492.9c-0.9-1.1-1.3-2.9-1.3-5.1v-11.2h2.6v10.9c0,1.7,0.3,2.9,0.8,3.7c0.6,0.8,1.5,1.2,2.7,1.2
		c0.9,0,1.7-0.2,2.4-0.7c0.7-0.5,1.6-1.3,2.5-2.4v-12.6h2.6v17.6h-2.2l-0.2-2.8h-0.1c-0.9,1-1.8,1.8-2.7,2.4c-0.9,0.6-2,0.8-3.1,0.8
		C251.9,494.6,250.6,494.1,249.7,492.9z"/>
	<path class="st7" d="M273.2,494c-0.9-0.4-1.7-0.9-2.5-1.7h-0.1l-0.3,1.8h-2.1v-25.9h2.6v7.2l-0.1,3.2c2-1.7,3.8-2.5,5.7-2.5
		c2.2,0,4,0.8,5.2,2.4c1.2,1.6,1.8,3.8,1.8,6.6c0,1.9-0.4,3.6-1.1,5.1c-0.7,1.4-1.6,2.5-2.8,3.3c-1.2,0.8-2.4,1.1-3.8,1.1
		C275,494.6,274.1,494.4,273.2,494z M278.1,491.5c0.8-0.6,1.4-1.4,1.9-2.5c0.5-1.1,0.7-2.4,0.7-3.8c0-2.1-0.4-3.8-1.2-5
		c-0.8-1.2-2-1.8-3.7-1.8c-1.5,0-3.2,0.8-5,2.5v9.5c0.8,0.7,1.6,1.1,2.3,1.5c0.8,0.3,1.5,0.5,2.2,0.5
		C276.4,492.4,277.3,492.1,278.1,491.5z"/>
	<path class="st7" d="M288.3,476.6h2.6v19.9c0,1.8-0.4,3.2-1.1,4.2c-0.7,1-1.9,1.5-3.5,1.5c-0.9,0-1.7-0.1-2.5-0.4l0.5-2
		c0.6,0.2,1.1,0.3,1.7,0.3c0.8,0,1.4-0.3,1.7-0.9c0.3-0.6,0.5-1.5,0.5-2.7L288.3,476.6z M288.3,472.3c-0.3-0.3-0.5-0.8-0.5-1.3
		c0-0.5,0.2-1,0.5-1.3c0.3-0.3,0.8-0.5,1.3-0.5c0.5,0,1,0.2,1.3,0.5c0.3,0.3,0.5,0.8,0.5,1.3c0,0.6-0.2,1-0.5,1.3
		c-0.3,0.3-0.8,0.5-1.3,0.5C289,472.8,288.6,472.7,288.3,472.3z"/>
	<path class="st7" d="M310.3,486h-12.2c0.1,2.1,0.8,3.7,1.9,4.8s2.6,1.7,4.2,1.7c1.5,0,3-0.5,4.5-1.4l1,1.7c-0.9,0.6-1.8,1-2.7,1.3
		c-0.9,0.3-1.9,0.5-3.1,0.5c-1.5,0-3-0.4-4.2-1.1c-1.3-0.7-2.3-1.8-3-3.2c-0.7-1.4-1.1-3-1.1-4.9c0-1.8,0.4-3.5,1.1-4.9
		c0.7-1.4,1.7-2.5,2.9-3.2c1.2-0.8,2.5-1.1,3.8-1.1c2.2,0,3.9,0.7,5.1,2.2c1.2,1.5,1.8,3.5,1.8,6C310.4,485,310.4,485.6,310.3,486z
		 M308.1,484.1c0-1.9-0.4-3.3-1.2-4.3c-0.8-1-1.9-1.5-3.3-1.5c-1.3,0-2.5,0.5-3.5,1.5c-1,1-1.6,2.4-1.8,4.3H308.1z"/>
	<path class="st7" d="M317.5,493.5c-1.2-0.7-2.2-1.8-2.9-3.2c-0.7-1.4-1.1-3-1.1-4.9c0-1.9,0.4-3.5,1.1-4.9c0.8-1.4,1.8-2.5,3.1-3.2
		c1.3-0.7,2.7-1.1,4.2-1.1c1.9,0,3.6,0.7,5.1,2.1l-1.4,1.7c-0.6-0.5-1.2-0.9-1.7-1.2c-0.6-0.3-1.2-0.4-1.9-0.4
		c-1.1,0-2.1,0.3-2.9,0.9c-0.9,0.6-1.6,1.4-2.1,2.5c-0.5,1.1-0.7,2.3-0.7,3.7c0,2.1,0.5,3.8,1.6,5.1c1,1.3,2.4,1.9,4.1,1.9
		c1.5,0,3-0.6,4.3-1.8l1.2,1.8c-0.8,0.7-1.7,1.3-2.6,1.7c-1,0.4-2,0.6-3,0.6C320.1,494.6,318.7,494.3,317.5,493.5z"/>
	<path class="st7" d="M332.6,493.2c-0.8-1-1.1-2.4-1.1-4.2v-10.1h-2.6v-2l2.8-0.2l0.3-5h2.2v5h4.8v2.2h-4.8V489c0,1.2,0.2,2,0.6,2.6
		c0.4,0.6,1.1,0.9,2.2,0.9c0.5,0,1.2-0.2,2-0.5l0.5,2c-1.3,0.4-2.4,0.7-3.2,0.7C334.6,494.6,333.3,494.1,332.6,493.2z"/>
</g>
<g>
	<path class="st7" d="M470.2,476.6h2.2l0.2,3.2h0.1c0.6-1.1,1.3-2,2.2-2.7c0.9-0.7,1.8-1,2.8-1c0.7,0,1.3,0.1,1.8,0.4l-0.5,2.3
		c-0.6-0.2-1.2-0.3-1.7-0.3c-0.8,0-1.6,0.3-2.5,1c-0.8,0.7-1.5,1.7-2.1,3.2v11.5h-2.6V476.6z"/>
	<path class="st7" d="M482.8,492.2c-1.3-1.6-1.9-3.9-1.9-6.8c0-1.8,0.3-3.5,1.1-4.9c0.7-1.4,1.6-2.5,2.8-3.2
		c1.2-0.8,2.4-1.1,3.8-1.1c0.9,0,1.8,0.2,2.5,0.5c0.7,0.3,1.6,0.9,2.5,1.6l-0.1-3v-6.9h2.6v25.9h-2.2l-0.2-2.1h-0.1
		c-0.8,0.8-1.6,1.4-2.5,1.9c-0.9,0.5-1.9,0.7-2.9,0.7C485.9,494.6,484.1,493.8,482.8,492.2z M491.1,491.8c0.8-0.4,1.5-1,2.3-1.9
		v-9.5c-0.8-0.7-1.5-1.2-2.2-1.5c-0.7-0.3-1.5-0.5-2.2-0.5c-1,0-1.9,0.3-2.7,0.9c-0.8,0.6-1.5,1.4-1.9,2.5c-0.5,1.1-0.7,2.3-0.7,3.6
		c0,2.2,0.4,3.9,1.3,5.1c0.9,1.2,2.1,1.9,3.8,1.9C489.5,492.4,490.3,492.2,491.1,491.8z"/>
	<path class="st7" d="M505.2,473.6v3h3.8v2.2h-3.8v15.4h-2.7v-15.4h-2.4v-2l2.4-0.2v-3c0-1.8,0.4-3.2,1.3-4.2c0.8-1,2.1-1.5,3.7-1.5
		c0.9,0,1.9,0.2,2.8,0.6l-0.6,2c-0.7-0.3-1.4-0.4-2-0.4C506.1,470,505.2,471.2,505.2,473.6z"/>
	<path class="st7" d="M512.4,480.8c-0.4-0.4-0.6-0.9-0.6-1.5c0-0.6,0.2-1.1,0.6-1.5c0.4-0.4,0.9-0.6,1.4-0.6c0.6,0,1,0.2,1.4,0.6
		c0.4,0.4,0.6,0.9,0.6,1.5c0,0.6-0.2,1.1-0.6,1.5c-0.4,0.4-0.9,0.6-1.4,0.6C513.3,481.4,512.8,481.2,512.4,480.8z M512.4,494
		c-0.4-0.4-0.6-0.9-0.6-1.5c0-0.6,0.2-1.1,0.6-1.5c0.4-0.4,0.9-0.6,1.4-0.6c0.6,0,1,0.2,1.4,0.6c0.4,0.4,0.6,0.9,0.6,1.5
		c0,0.6-0.2,1.1-0.6,1.5c-0.4,0.4-0.9,0.6-1.4,0.6C513.3,494.6,512.8,494.4,512.4,494z"/>
	<path class="st7" d="M524,493.5c-1.2-0.7-2.2-1.8-3-3.2c-0.7-1.4-1.1-3-1.1-4.9c0-1.9,0.4-3.5,1.1-4.9c0.7-1.4,1.7-2.5,3-3.2
		c1.2-0.7,2.6-1.1,4-1.1c1.5,0,2.8,0.4,4,1.1c1.2,0.7,2.2,1.8,3,3.2c0.7,1.4,1.1,3,1.1,4.9c0,1.9-0.4,3.5-1.1,4.9
		c-0.7,1.4-1.7,2.5-3,3.2c-1.2,0.7-2.6,1.1-4,1.1C526.6,494.6,525.2,494.3,524,493.5z M530.8,491.6c0.8-0.6,1.4-1.4,1.9-2.5
		c0.5-1.1,0.7-2.3,0.7-3.7c0-1.4-0.2-2.6-0.7-3.7c-0.5-1.1-1.1-1.9-1.9-2.5c-0.8-0.6-1.7-0.9-2.8-0.9c-1,0-2,0.3-2.8,0.9
		s-1.4,1.4-1.9,2.5c-0.4,1.1-0.7,2.3-0.7,3.7c0,2.1,0.5,3.8,1.5,5.1c1,1.3,2.3,1.9,3.8,1.9C529,492.4,530,492.1,530.8,491.6z"/>
	<path class="st7" d="M545.9,494c-0.9-0.4-1.7-0.9-2.5-1.7h-0.1l-0.3,1.8h-2.1v-25.9h2.6v7.2l-0.1,3.2c2-1.7,3.8-2.5,5.7-2.5
		c2.2,0,4,0.8,5.2,2.4c1.2,1.6,1.8,3.8,1.8,6.6c0,1.9-0.4,3.6-1.1,5.1c-0.7,1.4-1.6,2.5-2.8,3.3c-1.2,0.8-2.4,1.1-3.8,1.1
		C547.6,494.6,546.8,494.4,545.9,494z M550.7,491.5c0.8-0.6,1.4-1.4,1.9-2.5c0.5-1.1,0.7-2.4,0.7-3.8c0-2.1-0.4-3.8-1.2-5
		c-0.8-1.2-2-1.8-3.7-1.8c-1.5,0-3.2,0.8-5,2.5v9.5c0.8,0.7,1.6,1.1,2.3,1.5c0.8,0.3,1.5,0.5,2.2,0.5
		C549,492.4,549.9,492.1,550.7,491.5z"/>
	<path class="st7" d="M561,476.6h2.6v19.9c0,1.8-0.4,3.2-1.1,4.2c-0.7,1-1.9,1.5-3.5,1.5c-0.9,0-1.7-0.1-2.5-0.4l0.5-2
		c0.6,0.2,1.1,0.3,1.7,0.3c0.8,0,1.4-0.3,1.7-0.9c0.3-0.6,0.5-1.5,0.5-2.7L561,476.6z M560.9,472.3c-0.3-0.3-0.5-0.8-0.5-1.3
		c0-0.5,0.2-1,0.5-1.3c0.3-0.3,0.8-0.5,1.3-0.5c0.5,0,1,0.2,1.3,0.5c0.3,0.3,0.5,0.8,0.5,1.3c0,0.6-0.2,1-0.5,1.3
		c-0.3,0.3-0.8,0.5-1.3,0.5C561.7,472.8,561.3,472.7,560.9,472.3z"/>
	<path class="st7" d="M583,486h-12.2c0.1,2.1,0.8,3.7,1.9,4.8s2.6,1.7,4.2,1.7c1.5,0,3-0.5,4.5-1.4l1,1.7c-0.9,0.6-1.8,1-2.7,1.3
		c-0.9,0.3-1.9,0.5-3.1,0.5c-1.5,0-3-0.4-4.2-1.1c-1.3-0.7-2.3-1.8-3-3.2c-0.7-1.4-1.1-3-1.1-4.9c0-1.8,0.4-3.5,1.1-4.9
		c0.7-1.4,1.7-2.5,2.9-3.2c1.2-0.8,2.5-1.1,3.8-1.1c2.2,0,3.9,0.7,5.1,2.2c1.2,1.5,1.8,3.5,1.8,6C583.1,485,583.1,485.6,583,486z
		 M580.7,484.1c0-1.9-0.4-3.3-1.2-4.3c-0.8-1-1.9-1.5-3.3-1.5c-1.3,0-2.5,0.5-3.5,1.5c-1,1-1.6,2.4-1.8,4.3H580.7z"/>
	<path class="st7" d="M590.1,493.5c-1.2-0.7-2.2-1.8-2.9-3.2c-0.7-1.4-1.1-3-1.1-4.9c0-1.9,0.4-3.5,1.1-4.9c0.8-1.4,1.8-2.5,3.1-3.2
		c1.3-0.7,2.7-1.1,4.2-1.1c1.9,0,3.6,0.7,5.1,2.1l-1.4,1.7c-0.6-0.5-1.2-0.9-1.7-1.2c-0.6-0.3-1.2-0.4-1.9-0.4
		c-1.1,0-2.1,0.3-2.9,0.9s-1.6,1.4-2.1,2.5c-0.5,1.1-0.7,2.3-0.7,3.7c0,2.1,0.5,3.8,1.6,5.1c1,1.3,2.4,1.9,4.1,1.9
		c1.5,0,3-0.6,4.3-1.8l1.2,1.8c-0.8,0.7-1.7,1.3-2.6,1.7c-1,0.4-2,0.6-3,0.6C592.8,494.6,591.4,494.3,590.1,493.5z"/>
	<path class="st7" d="M605.2,493.2c-0.8-1-1.1-2.4-1.1-4.2v-10.1h-2.6v-2l2.8-0.2l0.3-5h2.2v5h4.8v2.2h-4.8V489c0,1.2,0.2,2,0.6,2.6
		c0.4,0.6,1.1,0.9,2.2,0.9c0.5,0,1.2-0.2,2-0.5l0.5,2c-1.3,0.4-2.4,0.7-3.2,0.7C607.2,494.6,606,494.1,605.2,493.2z"/>
</g>
<g>
	<path class="st2" d="M752.9,536.9c-10.6,0-20.9-2.1-30.6-6.2c-9.4-4-17.8-9.6-25-16.9c-7.2-7.2-12.9-15.7-16.9-25
		c-4.1-9.7-6.2-20-6.2-30.6c0-10.6,2.1-20.9,6.2-30.6c4-9.4,9.6-17.8,16.9-25c7.2-7.2,15.7-12.9,25-16.9c9.7-4.1,20-6.2,30.6-6.2
		c10.6,0,20.9,2.1,30.6,6.2c9.4,4,17.8,9.6,25,16.9c7.2,7.2,12.9,15.7,16.9,25c4.1,9.7,6.2,20,6.2,30.6c0,10.6-2.1,20.9-6.2,30.6
		c-4,9.4-9.6,17.8-16.9,25c-7.2,7.2-15.7,12.9-25,16.9C773.9,534.8,763.6,536.9,752.9,536.9z M763.2,380.2
		c-51.3-6.5-94.7,36.8-88.2,88.2c4.4,35,32.7,63.2,67.7,67.7c51.3,6.5,94.7-36.8,88.2-88.2C826.4,412.9,798.2,384.6,763.2,380.2z"/>
</g>
<g>
	<circle class="st1" cx="408.9" cy="178.2" r="103"/>
	<path class="st2" d="M408.9,281.3c-13.9,0-27.4-2.7-40.2-8.1c-12.3-5.2-23.3-12.6-32.8-22.1c-9.5-9.5-16.9-20.5-22.1-32.8
		c-5.4-12.7-8.1-26.2-8.1-40.2c0-13.9,2.7-27.4,8.1-40.2c5.2-12.3,12.6-23.3,22.1-32.8c9.5-9.5,20.5-16.9,32.8-22.1
		c12.7-5.4,26.2-8.1,40.2-8.1c13.9,0,27.4,2.7,40.2,8.1c12.3,5.2,23.3,12.6,32.8,22.1c9.5,9.5,16.9,20.5,22.1,32.8
		c5.4,12.7,8.1,26.2,8.1,40.2c0,13.9-2.7,27.4-8.1,40.2c-5.2,12.3-12.6,23.3-22.1,32.8c-9.5,9.5-20.5,16.9-32.8,22.1
		C436.3,278.6,422.8,281.3,408.9,281.3z M422.3,76.1c-67.2-8.5-124.1,48.3-115.5,115.5c5.8,45.8,42.8,82.9,88.7,88.7
		c67.2,8.5,124.1-48.3,115.5-115.5C505.1,118.9,468.1,81.9,422.3,76.1z"/>
</g>
<g>
	<circle class="st8" cx="752.9" cy="458.1" r="66.6"/>
</g>
<g>
	<circle class="st1" cx="408.9" cy="444.9" r="58.8"/>
	<path class="st2" d="M408.9,503.7c-7.9,0-15.7-1.6-22.9-4.6c-7-3-13.3-7.2-18.7-12.6c-5.4-5.4-9.6-11.7-12.6-18.7
		c-3.1-7.3-4.6-15-4.6-22.9s1.6-15.7,4.6-22.9c3-7,7.2-13.3,12.6-18.7c5.4-5.4,11.7-9.6,18.7-12.6c7.3-3.1,15-4.6,22.9-4.6
		c7.9,0,15.7,1.6,22.9,4.6c7,3,13.3,7.2,18.7,12.6c5.4,5.4,9.6,11.7,12.6,18.7c3.1,7.3,4.6,15,4.6,22.9s-1.6,15.7-4.6,22.9
		c-3,7-7.2,13.3-12.6,18.7c-5.4,5.4-11.7,9.6-18.7,12.6C424.5,502.2,416.8,503.7,408.9,503.7z M416.5,386.6
		c-38.4-4.9-70.8,27.5-65.9,65.9c3.3,26.1,24.4,47.3,50.6,50.6c38.4,4.9,70.8-27.5,65.9-65.9C463.8,411.1,442.7,390,416.5,386.6z"/>
</g>
<g>
	<circle class="st5" cx="408.9" cy="444.9" r="48.9"/>
	<path class="st5" d="M408.9,493.8c-13.1,0-25.4-5.1-34.6-14.3c-9.2-9.2-14.3-21.5-14.3-34.6s5.1-25.4,14.3-34.6
		c9.2-9.2,21.5-14.3,34.6-14.3s25.4,5.1,34.6,14.3c9.2,9.2,14.3,21.5,14.3,34.6s-5.1,25.4-14.3,34.6
		C434.2,488.7,421.9,493.8,408.9,493.8z M408.9,396.1c-26.9,0-48.8,21.9-48.8,48.8c0,26.9,21.9,48.8,48.8,48.8s48.8-21.9,48.8-48.8
		C457.7,418,435.8,396.1,408.9,396.1z"/>
</g>
<g>
	<path class="st6" d="M693.5,452.7c-0.4-0.4-0.6-0.9-0.6-1.5c0-0.6,0.2-1.1,0.6-1.5c0.4-0.4,0.9-0.6,1.4-0.6c0.6,0,1,0.2,1.4,0.6
		c0.4,0.4,0.6,0.9,0.6,1.5c0,0.6-0.2,1.1-0.6,1.5c-0.4,0.4-0.9,0.6-1.4,0.6C694.4,453.3,693.9,453.1,693.5,452.7z M693.5,466
		c-0.4-0.4-0.6-0.9-0.6-1.5c0-0.6,0.2-1.1,0.6-1.5c0.4-0.4,0.9-0.6,1.4-0.6c0.6,0,1,0.2,1.4,0.6c0.4,0.4,0.6,0.9,0.6,1.5
		c0,0.6-0.2,1.1-0.6,1.5c-0.4,0.4-0.9,0.6-1.4,0.6C694.4,466.6,693.9,466.4,693.5,466z"/>
	<path class="st6" d="M700.2,448.5h2.7l2.8,10.5l0.3,1.6c0.3,1.5,0.6,2.6,0.7,3.3h0.1c0.5-1.9,0.9-3.5,1.2-4.9l2.8-10.5h2.6
		l2.9,10.5l1.2,4.9h0.1l1.2-4.9l2.7-10.5h2.5l-4.8,17.6h-3.3l-2.7-9.8l-0.7-2.9c0-0.2-0.2-0.9-0.5-2.2h-0.1c-0.5,2.4-1,4.1-1.3,5.1
		l-2.6,9.8h-3.1L700.2,448.5z"/>
	<path class="st6" d="M730.7,465.5c-1.2-0.7-2.2-1.8-3-3.2c-0.7-1.4-1.1-3-1.1-4.9c0-1.9,0.4-3.5,1.1-4.9c0.7-1.4,1.7-2.5,3-3.2
		c1.2-0.7,2.6-1.1,4-1.1c1.5,0,2.8,0.4,4,1.1c1.2,0.7,2.2,1.8,3,3.2c0.7,1.4,1.1,3,1.1,4.9c0,1.9-0.4,3.5-1.1,4.9
		c-0.7,1.4-1.7,2.5-3,3.2c-1.2,0.7-2.6,1.1-4,1.1C733.3,466.6,732,466.2,730.7,465.5z M737.5,463.5c0.8-0.6,1.4-1.4,1.9-2.5
		c0.5-1.1,0.7-2.3,0.7-3.7c0-1.4-0.2-2.6-0.7-3.7c-0.5-1.1-1.1-1.9-1.9-2.5c-0.8-0.6-1.7-0.9-2.8-0.9c-1,0-2,0.3-2.8,0.9
		s-1.4,1.4-1.9,2.5c-0.4,1.1-0.7,2.3-0.7,3.7c0,2.1,0.5,3.8,1.5,5.1c1,1.3,2.3,1.9,3.8,1.9C735.8,464.4,736.7,464.1,737.5,463.5z"/>
	<path class="st6" d="M747.6,448.5h2.2l0.2,2.6h0.1c1.9-2,3.7-3,5.5-3c2.5,0,4.1,1.1,4.9,3.4c1-1.1,2-2,2.9-2.5
		c0.9-0.6,1.9-0.9,2.9-0.9c3.6,0,5.3,2.3,5.3,6.9v11.2H769v-10.9c0-1.7-0.3-2.9-0.8-3.7c-0.6-0.8-1.4-1.2-2.6-1.2
		c-1.4,0-2.9,0.9-4.6,2.8v12.9h-2.7v-10.9c0-1.7-0.3-2.9-0.8-3.7c-0.6-0.8-1.4-1.2-2.6-1.2c-1.4,0-2.9,0.9-4.6,2.8v12.9h-2.6V448.5z
		"/>
	<path class="st6" d="M777.9,465.3c-1-0.9-1.5-2.1-1.5-3.7c0-1.9,0.9-3.4,2.6-4.4c1.7-1,4.5-1.7,8.3-2.2c0-1.4-0.3-2.5-0.9-3.4
		c-0.6-0.9-1.5-1.3-2.9-1.3c-1.7,0-3.4,0.6-5.3,1.9l-1.1-1.8c2.3-1.5,4.6-2.3,6.8-2.3c2,0,3.5,0.6,4.5,1.9c1,1.3,1.5,3,1.5,5.2v10.9
		h-2.2l-0.2-2.1h-0.1c-2.1,1.7-4.1,2.6-5.9,2.6C780.1,466.6,778.8,466.1,777.9,465.3z M784.7,463.8c0.8-0.4,1.7-1,2.6-1.9v-5.2
		c-3,0.4-5.2,0.9-6.4,1.7c-1.3,0.8-1.9,1.7-1.9,3c0,1,0.3,1.7,0.9,2.2c0.6,0.5,1.4,0.7,2.3,0.7C783.1,464.4,783.9,464.2,784.7,463.8
		z"/>
	<path class="st6" d="M795.8,448.5h2.2l0.2,2.6h0.1c1-1,1.9-1.7,2.8-2.2c0.9-0.5,2-0.8,3.1-0.8c1.8,0,3.2,0.6,4.1,1.7
		c0.9,1.1,1.3,2.9,1.3,5.1v11.2h-2.6v-10.9c0-1.7-0.3-2.9-0.8-3.7c-0.5-0.8-1.4-1.2-2.7-1.2c-0.9,0-1.7,0.2-2.4,0.7
		c-0.7,0.4-1.6,1.2-2.6,2.2v12.9h-2.6V448.5z"/>
</g>
<g>
	<path class="st8" d="M324.6,26.9c-0.5-0.3-0.8-0.8-0.9-1.4c-0.1-0.6,0-1.2,0.2-1.6c0.3-0.5,0.7-0.8,1.3-0.9c0.5-0.1,1,0,1.5,0.3
		c0.5,0.3,0.8,0.8,0.9,1.4c0.1,0.6,0,1.1-0.3,1.6c-0.3,0.5-0.7,0.8-1.3,0.9C325.6,27.3,325,27.2,324.6,26.9z M327.4,39.9
		c-0.5-0.3-0.8-0.8-0.9-1.4c-0.1-0.6,0-1.2,0.2-1.6c0.3-0.5,0.7-0.8,1.3-0.9c0.5-0.1,1,0,1.5,0.3c0.5,0.3,0.8,0.8,0.9,1.4
		c0.1,0.6,0,1.1-0.3,1.6c-0.3,0.5-0.7,0.8-1.3,0.9C328.3,40.3,327.8,40.2,327.4,39.9z"/>
	<path class="st8" d="M331.5,12.7l2.6-0.5l1.2,7.1l0.6,3.7c0.8-1.1,1.6-2,2.4-2.7c0.8-0.7,1.8-1.1,2.9-1.3c1.8-0.3,3.2,0,4.3,1
		c1.1,1,1.8,2.6,2.2,4.8l1.9,11l-2.6,0.5l-1.9-10.7c-0.3-1.7-0.8-2.8-1.4-3.5c-0.7-0.7-1.6-0.9-2.8-0.7c-0.9,0.2-1.6,0.5-2.3,1.1
		s-1.4,1.4-2.2,2.6l2.2,12.7l-2.6,0.5L331.5,12.7z"/>
	<path class="st8" d="M355.1,34.2c-1.1-0.7-1.7-1.9-1.9-3.5c-0.2-1.9,0.4-3.5,2-4.7c1.6-1.2,4.3-2.3,8-3.2c-0.2-1.4-0.6-2.5-1.3-3.3
		c-0.7-0.8-1.7-1.1-3.1-0.9c-1.7,0.2-3.3,1.1-5.1,2.6l-1.3-1.7c2.1-1.8,4.3-2.9,6.5-3.2c2-0.3,3.6,0.2,4.7,1.3
		c1.1,1.1,1.8,2.8,2.1,5l1.4,10.8l-2.2,0.3l-0.5-2.1l-0.1,0c-1.9,2-3.7,3.1-5.5,3.3C357.4,35.2,356.2,34.9,355.1,34.2z M361.7,31.9
		c0.8-0.5,1.5-1.2,2.4-2.2l-0.6-5.1c-3,0.7-5,1.6-6.2,2.5c-1.2,0.9-1.7,2-1.5,3.2c0.1,1,0.5,1.7,1.2,2.1c0.7,0.4,1.5,0.6,2.4,0.4
		C360.2,32.7,361,32.4,361.7,31.9z"/>
	<path class="st8" d="M373.7,32.7c-1.2-0.4-2.2-0.9-3.1-1.5l1.2-1.9c0.9,0.6,1.8,1.1,2.7,1.4s1.8,0.4,2.8,0.3c1.2-0.1,2-0.4,2.6-1.1
		c0.6-0.6,0.8-1.3,0.8-2.2c-0.1-0.8-0.5-1.5-1.2-1.9c-0.8-0.4-1.8-0.8-3.1-1.2c-1.7-0.5-3.1-1-4.1-1.6c-1-0.6-1.6-1.6-1.7-2.9
		c-0.1-1.4,0.3-2.6,1.3-3.7c1-1,2.4-1.6,4.2-1.8c1-0.1,2,0,2.9,0.3c0.9,0.3,1.8,0.7,2.6,1.2l-1.1,1.8c-0.7-0.4-1.4-0.8-2.1-1
		s-1.3-0.3-2.1-0.2c-1.1,0.1-1.9,0.4-2.5,1c-0.5,0.6-0.8,1.2-0.7,2c0,0.5,0.3,1,0.6,1.3c0.4,0.4,0.8,0.6,1.4,0.8
		c0.5,0.2,1.3,0.4,2.2,0.7c1.3,0.4,2.3,0.7,3,1c0.7,0.3,1.4,0.8,1.9,1.4c0.6,0.6,0.9,1.4,1,2.5c0.1,0.9-0.1,1.8-0.5,2.6
		c-0.4,0.8-1.1,1.5-2,2c-0.9,0.5-2,0.9-3.3,1C376,33.1,374.9,33,373.7,32.7z"/>
	<path class="st8" d="M389.7,31.2c-1.4-0.6-2.7-1.4-3.8-2.5l1.6-1.9c0.9,0.9,2,1.6,3.1,2.1s2.4,0.7,3.7,0.7c1.6-0.1,2.9-0.5,3.8-1.3
		c0.9-0.8,1.3-1.8,1.3-3.1c0-0.8-0.2-1.5-0.6-2c-0.4-0.5-0.8-0.9-1.4-1.2s-1.3-0.6-2.3-1l-3.5-1.4c-1.4-0.5-2.6-1.3-3.6-2.2
		s-1.4-2.1-1.5-3.7c0-1.2,0.2-2.3,0.8-3.2c0.6-1,1.4-1.7,2.5-2.3c1.1-0.6,2.3-0.9,3.7-0.9c1.4-0.1,2.7,0.2,3.9,0.6
		c1.2,0.5,2.3,1.2,3.2,2l-1.4,1.8c-1.6-1.5-3.5-2.1-5.6-2.1c-1.4,0.1-2.5,0.4-3.3,1.2c-0.8,0.7-1.2,1.6-1.2,2.7
		c0,0.8,0.2,1.4,0.7,1.9c0.4,0.5,0.9,0.9,1.4,1.1c0.5,0.3,1.2,0.6,2.1,0.9l3.5,1.4c1.6,0.6,2.8,1.4,3.7,2.3c0.9,0.9,1.4,2.2,1.4,3.9
		c0.1,1.3-0.2,2.4-0.8,3.4c-0.6,1-1.5,1.9-2.7,2.5s-2.6,1-4.2,1C392.6,32.1,391.1,31.8,389.7,31.2z"/>
	<path class="st8" d="M406.7,13.6l2.2,0l0.2,2.1l0.1,0c2.1-1.7,4-2.5,5.7-2.5c2.2,0,4,0.9,5.1,2.5c1.2,1.6,1.8,3.8,1.7,6.6
		c0,1.9-0.4,3.6-1.1,5c-0.7,1.4-1.7,2.5-2.8,3.3c-1.2,0.7-2.4,1.1-3.8,1.1c-1.6,0-3.2-0.7-5-2.1l0,3.1l-0.1,6.1l-2.6,0L406.7,13.6z
		 M416.3,28.6c0.8-0.6,1.5-1.4,1.9-2.5s0.7-2.4,0.7-3.8c0-2.1-0.3-3.8-1.1-5c-0.8-1.2-2-1.8-3.7-1.8c-1.5,0-3.1,0.8-5,2.5l-0.1,9.5
		c0.8,0.7,1.6,1.2,2.3,1.5c0.8,0.3,1.5,0.5,2.1,0.5C414.6,29.5,415.5,29.2,416.3,28.6z"/>
	<path class="st8" d="M428.9,31c-1.2-0.8-2.1-1.9-2.8-3.3c-0.7-1.4-1-3.1-0.9-5c0.1-1.9,0.5-3.5,1.4-4.9c0.8-1.4,1.8-2.4,3.1-3.1
		c1.3-0.7,2.6-1,4.1-0.9c1.5,0.1,2.8,0.5,4,1.3c1.2,0.8,2.1,1.9,2.8,3.4c0.7,1.4,1,3.1,0.9,5c-0.1,1.9-0.5,3.5-1.4,4.9
		c-0.8,1.4-1.8,2.4-3.1,3c-1.3,0.7-2.6,1-4.1,0.9C431.4,32.2,430.1,31.8,428.9,31z M435.8,29.3c0.8-0.5,1.5-1.3,2-2.4
		c0.5-1,0.8-2.2,0.9-3.6c0.1-1.4-0.1-2.6-0.5-3.7c-0.4-1.1-1-1.9-1.8-2.6c-0.8-0.6-1.7-1-2.7-1c-1-0.1-2,0.2-2.8,0.7
		c-0.8,0.6-1.5,1.3-2,2.4c-0.5,1-0.8,2.2-0.9,3.6c-0.1,2.1,0.3,3.8,1.2,5.1c0.9,1.3,2.2,2,3.7,2.1C434,30.1,435,29.9,435.8,29.3z"/>
	<path class="st8" d="M446.6,31.4c-0.8-1.2-1-3-0.8-5.2l1-11.1l2.6,0.2l-1,10.8c-0.2,1.7,0,2.9,0.5,3.8c0.5,0.8,1.3,1.3,2.6,1.4
		c0.9,0.1,1.7-0.1,2.5-0.5c0.8-0.4,1.7-1.1,2.7-2.2l1.2-12.6l2.6,0.2l-1.6,17.5l-2.2-0.2l0-2.8l-0.1,0c-1,1-2,1.7-3,2.1
		c-1,0.5-2,0.6-3.2,0.5C448.7,33.3,447.4,32.6,446.6,31.4z"/>
	<path class="st8" d="M465.7,34.4c-1.1-0.6-2-1.3-2.8-2.1l1.6-1.6c0.8,0.8,1.5,1.4,2.3,1.9c0.8,0.5,1.7,0.8,2.7,0.9
		c1.2,0.2,2.1,0,2.8-0.5c0.7-0.5,1.1-1.1,1.2-2c0.1-0.8-0.2-1.6-0.8-2.2s-1.6-1.2-2.8-1.8c-1.6-0.8-2.8-1.6-3.6-2.5
		c-0.8-0.8-1.2-1.9-1-3.2c0.2-1.4,0.9-2.5,2.1-3.3c1.2-0.8,2.7-1.1,4.5-0.8c1,0.1,1.9,0.4,2.8,0.9c0.9,0.5,1.6,1.1,2.3,1.7l-1.5,1.5
		c-0.6-0.6-1.2-1.1-1.8-1.4c-0.6-0.3-1.3-0.6-2-0.7c-1.1-0.1-2,0-2.6,0.4c-0.6,0.4-1,1-1.1,1.8c-0.1,0.5,0,1,0.3,1.4
		c0.3,0.4,0.7,0.8,1.2,1.1c0.5,0.3,1.1,0.7,2,1.2c1.2,0.6,2.1,1.2,2.7,1.6c0.6,0.5,1.2,1,1.6,1.8c0.4,0.7,0.6,1.6,0.4,2.6
		c-0.1,0.9-0.5,1.8-1.1,2.5c-0.6,0.7-1.4,1.2-2.4,1.6c-1,0.3-2.2,0.4-3.5,0.2C467.9,35.4,466.8,35,465.7,34.4z"/>
	<path class="st8" d="M494,30.8l-12-2.1c-0.2,2,0.1,3.7,1.1,5c0.9,1.3,2.2,2.1,3.9,2.4c1.5,0.3,3.1,0.1,4.6-0.6l0.7,1.9
		c-1,0.4-1.9,0.7-2.9,0.8c-1,0.2-2,0.2-3.1,0c-1.5-0.3-2.9-0.9-4-1.8c-1.1-0.9-1.9-2.2-2.4-3.7c-0.5-1.5-0.6-3.2-0.3-5
		c0.3-1.8,1-3.3,1.9-4.6c1-1.3,2.1-2.2,3.4-2.7c1.3-0.5,2.6-0.7,4-0.5c2.1,0.4,3.7,1.4,4.7,3c1,1.7,1.2,3.7,0.8,6.3
		C494.3,29.9,494.1,30.4,494,30.8z M492.1,28.5c0.3-1.8,0.2-3.3-0.5-4.4c-0.6-1.1-1.6-1.8-3-2c-1.3-0.2-2.5,0.1-3.7,0.9
		c-1.2,0.8-2,2.1-2.5,3.9L492.1,28.5z"/>
</g>
<path class="st9" d="M67.5,385.1v-37c0-166.7,153.3-305.3,342.4-305.3s342.4,116.8,342.4,283.4l0.4,40.7"/>
<g>
	<g>
		<polygon class="st5" points="753.1,376.2 729.4,328.9 733.3,327 752.7,365.9 769.1,327.2 773.1,328.8 		"/>
	</g>
</g>
<g>
	<circle class="st7" cx="408.9" cy="178.2" r="91.5"/>
	<path class="st7" d="M408.9,269.8c-24.5,0-47.5-9.5-64.8-26.8c-17.3-17.3-26.8-40.3-26.8-64.8s9.5-47.5,26.8-64.8
		c17.3-17.3,40.3-26.8,64.8-26.8s47.5,9.5,64.8,26.8c17.3,17.3,26.8,40.3,26.8,64.8s-9.5,47.5-26.8,64.8
		C456.4,260.2,433.3,269.8,408.9,269.8z M408.9,86.8c-50.4,0-91.4,41-91.4,91.4s41,91.4,91.4,91.4s91.4-41,91.4-91.4
		S459.3,86.8,408.9,86.8z"/>
</g>
<g>
	<path class="st6" d="M324.8,172.4c-0.4-0.4-0.6-0.9-0.6-1.5c0-0.6,0.2-1.1,0.6-1.5c0.4-0.4,0.9-0.6,1.4-0.6s1,0.2,1.4,0.6
		c0.4,0.4,0.6,0.9,0.6,1.5c0,0.6-0.2,1.1-0.6,1.5c-0.4,0.4-0.9,0.6-1.4,0.6S325.2,172.8,324.8,172.4z M324.8,185.7
		c-0.4-0.4-0.6-0.9-0.6-1.5c0-0.6,0.2-1.1,0.6-1.5c0.4-0.4,0.9-0.6,1.4-0.6s1,0.2,1.4,0.6s0.6,0.9,0.6,1.5c0,0.6-0.2,1.1-0.6,1.5
		c-0.4,0.4-0.9,0.6-1.4,0.6S325.2,186.1,324.8,185.7z"/>
	<path class="st6" d="M333.7,159.9h2.6v7.2l-0.1,3.7c1-1,1.9-1.7,2.8-2.2c0.9-0.5,1.9-0.8,3-0.8c1.8,0,3.2,0.6,4.1,1.7
		c0.9,1.1,1.3,2.9,1.3,5.1v11.2h-2.6V175c0-1.7-0.3-2.9-0.8-3.7c-0.5-0.8-1.4-1.2-2.7-1.2c-0.9,0-1.7,0.2-2.4,0.7
		c-0.7,0.4-1.6,1.2-2.6,2.2v12.9h-2.6V159.9z"/>
	<path class="st6" d="M353.6,185c-1-0.9-1.5-2.1-1.5-3.7c0-1.9,0.9-3.4,2.6-4.4c1.7-1,4.5-1.7,8.3-2.2c0-1.4-0.3-2.5-0.9-3.4
		c-0.6-0.9-1.5-1.3-2.9-1.3c-1.7,0-3.4,0.6-5.3,1.9l-1.1-1.8c2.3-1.5,4.6-2.3,6.8-2.3c2,0,3.5,0.6,4.5,1.9c1,1.3,1.5,3,1.5,5.2v10.9
		h-2.2l-0.2-2.1h-0.1c-2.1,1.7-4.1,2.6-5.9,2.6C355.8,186.3,354.5,185.8,353.6,185z M360.4,183.5c0.8-0.4,1.7-1,2.6-1.9v-5.2
		c-3,0.4-5.2,0.9-6.4,1.7c-1.3,0.8-1.9,1.7-1.9,3c0,1,0.3,1.7,0.9,2.2c0.6,0.5,1.4,0.7,2.3,0.7C358.8,184.1,359.6,183.9,360.4,183.5
		z"/>
	<path class="st6" d="M372.4,185.6c-1.1-0.4-2.1-1-3-1.8l1.3-1.8c0.9,0.7,1.7,1.2,2.5,1.6c0.8,0.4,1.7,0.5,2.8,0.5
		c1.2,0,2.1-0.3,2.7-0.8c0.6-0.6,0.9-1.3,0.9-2.1c0-0.8-0.4-1.5-1.1-2c-0.7-0.5-1.7-1-3-1.5c-1.7-0.6-3-1.3-3.9-2
		c-0.9-0.7-1.4-1.7-1.4-3.1c0-1.4,0.5-2.6,1.6-3.5c1.1-0.9,2.5-1.4,4.4-1.4c1,0,1.9,0.2,2.9,0.5c0.9,0.4,1.7,0.8,2.5,1.4l-1.3,1.7
		c-0.7-0.5-1.4-0.9-2-1.2c-0.6-0.3-1.3-0.4-2.1-0.4c-1.1,0-2,0.3-2.5,0.8c-0.6,0.5-0.9,1.2-0.9,1.9c0,0.5,0.2,1,0.5,1.4
		c0.4,0.4,0.8,0.7,1.3,0.9c0.5,0.2,1.2,0.5,2.1,0.9c1.2,0.5,2.2,0.9,2.9,1.2c0.7,0.4,1.3,0.9,1.8,1.5c0.5,0.7,0.8,1.5,0.8,2.6
		c0,0.9-0.2,1.8-0.7,2.6c-0.5,0.8-1.2,1.4-2.2,1.9s-2.1,0.7-3.4,0.7C374.7,186.3,373.6,186,372.4,185.6z"/>
	<path class="st6" d="M388.7,185.3c-1.4-0.6-2.6-1.5-3.7-2.6l1.6-1.9c0.9,0.9,1.9,1.7,3,2.2s2.4,0.8,3.6,0.8c1.6,0,2.9-0.4,3.8-1.1
		c0.9-0.8,1.4-1.8,1.4-3c0-0.8-0.2-1.5-0.5-2c-0.3-0.5-0.8-1-1.3-1.3c-0.5-0.3-1.3-0.7-2.2-1.1l-3.4-1.5c-1.4-0.6-2.6-1.4-3.5-2.3
		s-1.4-2.2-1.4-3.8c0-1.2,0.3-2.2,0.9-3.2c0.6-0.9,1.5-1.7,2.6-2.2c1.1-0.5,2.4-0.8,3.8-0.8s2.7,0.3,3.9,0.8
		c1.2,0.5,2.2,1.2,3.1,2.1l-1.5,1.7c-1.6-1.5-3.4-2.3-5.5-2.3c-1.4,0-2.5,0.3-3.4,1c-0.8,0.7-1.3,1.6-1.3,2.7c0,0.8,0.2,1.4,0.6,1.9
		c0.4,0.5,0.8,0.9,1.3,1.2c0.5,0.3,1.2,0.6,2.1,1l3.4,1.5c1.6,0.7,2.8,1.5,3.6,2.4c0.9,1,1.3,2.3,1.3,3.9c0,1.3-0.3,2.4-1,3.4
		c-0.7,1-1.6,1.8-2.8,2.4c-1.2,0.6-2.6,0.9-4.2,0.9C391.7,186.3,390.1,185.9,388.7,185.3z"/>
	<path class="st6" d="M405.8,168.2h2.2l0.2,2.1h0.1c2.1-1.7,4-2.5,5.7-2.5c2.2,0,4,0.8,5.2,2.4s1.8,3.8,1.8,6.6
		c0,1.9-0.4,3.6-1.1,5.1c-0.7,1.4-1.6,2.5-2.8,3.3c-1.2,0.8-2.4,1.1-3.8,1.1c-1.6,0-3.2-0.7-5-2.1l0.1,3.1v6.1h-2.6V168.2z
		 M415.6,183.1c0.8-0.6,1.4-1.4,1.9-2.5c0.5-1.1,0.7-2.4,0.7-3.8c0-2.1-0.4-3.8-1.2-5c-0.8-1.2-2-1.8-3.7-1.8c-1.5,0-3.1,0.8-5,2.5
		v9.5c0.8,0.7,1.6,1.2,2.4,1.5c0.8,0.3,1.5,0.5,2.1,0.5C413.9,184,414.8,183.7,415.6,183.1z"/>
	<path class="st6" d="M428.5,185.1c-1.2-0.7-2.2-1.8-3-3.2c-0.7-1.4-1.1-3-1.1-4.9c0-1.9,0.4-3.5,1.1-4.9c0.7-1.4,1.7-2.5,3-3.2
		c1.2-0.7,2.6-1.1,4-1.1c1.5,0,2.8,0.4,4,1.1c1.2,0.7,2.2,1.8,3,3.2c0.7,1.4,1.1,3,1.1,4.9c0,1.9-0.4,3.5-1.1,4.9
		c-0.7,1.4-1.7,2.5-3,3.2c-1.2,0.7-2.6,1.1-4,1.1C431.1,186.3,429.7,185.9,428.5,185.1z M435.3,183.2c0.8-0.6,1.4-1.4,1.9-2.5
		c0.5-1.1,0.7-2.3,0.7-3.7c0-1.4-0.2-2.6-0.7-3.7c-0.5-1.1-1.1-1.9-1.9-2.5c-0.8-0.6-1.7-0.9-2.8-0.9c-1,0-2,0.3-2.8,0.9
		c-0.8,0.6-1.4,1.4-1.9,2.5c-0.4,1.1-0.7,2.3-0.7,3.7c0,2.1,0.5,3.8,1.5,5.1c1,1.3,2.3,1.9,3.8,1.9
		C433.6,184,434.5,183.8,435.3,183.2z"/>
	<path class="st6" d="M446.5,184.5c-0.9-1.1-1.3-2.9-1.3-5.1v-11.2h2.6v10.9c0,1.7,0.3,2.9,0.8,3.7c0.6,0.8,1.5,1.2,2.7,1.2
		c0.9,0,1.7-0.2,2.4-0.7c0.7-0.5,1.6-1.3,2.5-2.4v-12.6h2.6v17.6h-2.2l-0.2-2.8h-0.1c-0.9,1-1.8,1.8-2.7,2.4c-0.9,0.6-2,0.8-3.1,0.8
		C448.7,186.3,447.3,185.7,446.5,184.5z"/>
	<path class="st6" d="M466,185.6c-1.1-0.4-2.1-1-3-1.8l1.3-1.8c0.9,0.7,1.7,1.2,2.5,1.6c0.8,0.4,1.7,0.5,2.8,0.5
		c1.2,0,2.1-0.3,2.7-0.8c0.6-0.6,0.9-1.3,0.9-2.1c0-0.8-0.4-1.5-1.1-2c-0.7-0.5-1.7-1-3-1.5c-1.7-0.6-3-1.3-3.9-2
		c-0.9-0.7-1.4-1.7-1.4-3.1c0-1.4,0.5-2.6,1.6-3.5c1.1-0.9,2.5-1.4,4.4-1.4c1,0,1.9,0.2,2.9,0.5c0.9,0.4,1.7,0.8,2.5,1.4l-1.3,1.7
		c-0.7-0.5-1.4-0.9-2-1.2c-0.6-0.3-1.3-0.4-2.1-0.4c-1.1,0-2,0.3-2.5,0.8c-0.6,0.5-0.9,1.2-0.9,1.9c0,0.5,0.2,1,0.5,1.4
		c0.4,0.4,0.8,0.7,1.3,0.9c0.5,0.2,1.2,0.5,2.1,0.9c1.2,0.5,2.2,0.9,2.9,1.2c0.7,0.4,1.3,0.9,1.8,1.5c0.5,0.7,0.8,1.5,0.8,2.6
		c0,0.9-0.2,1.8-0.7,2.6c-0.5,0.8-1.2,1.4-2.2,1.9s-2.1,0.7-3.4,0.7C468.3,186.3,467.1,186,466,185.6z"/>
	<path class="st6" d="M493.4,177.6h-12.2c0.1,2.1,0.8,3.7,1.9,4.8c1.1,1.1,2.6,1.7,4.2,1.7c1.5,0,3-0.5,4.5-1.4l1,1.7
		c-0.9,0.6-1.8,1-2.7,1.3c-0.9,0.3-1.9,0.5-3.1,0.5c-1.5,0-3-0.4-4.2-1.1c-1.3-0.7-2.3-1.8-3-3.2c-0.7-1.4-1.1-3-1.1-4.9
		c0-1.8,0.4-3.5,1.1-4.9c0.7-1.4,1.7-2.5,2.9-3.2c1.2-0.8,2.5-1.1,3.8-1.1c2.2,0,3.9,0.7,5.1,2.2c1.2,1.5,1.8,3.5,1.8,6
		C493.5,176.7,493.5,177.2,493.4,177.6z M491.2,175.7c0-1.9-0.4-3.3-1.2-4.3c-0.8-1-1.9-1.5-3.3-1.5c-1.3,0-2.5,0.5-3.5,1.5
		c-1,1-1.6,2.4-1.8,4.3H491.2z"/>
</g>
<path class="st10" d="M508,755.9H309.7c-5.8,0-10.5-4.7-10.5-10.5v-85.9c0-5.8,4.7-10.5,10.5-10.5H508c5.8,0,10.5,4.7,10.5,10.5
	v85.9C518.5,751.2,513.8,755.9,508,755.9z"/>
<g>
	<path class="st8" d="M321.6,680.4c0.8-2.8,2.3-6.5,3.2-8.1l1.9-0.2c-0.7,2-1.6,5.5-2,8L321.6,680.4z M326.7,680.4
		c0.8-2.8,2.3-6.5,3.2-8.1l1.9-0.2c-0.7,2-1.6,5.5-2,8L326.7,680.4z"/>
	<path class="st8" d="M333.9,694c2.6-2.6,4.6-4.7,6-6.2c1.4-1.6,2.5-3,3.3-4.3c0.8-1.3,1.1-2.6,1.1-3.7c0-1.3-0.4-2.4-1.1-3.2
		c-0.7-0.8-1.8-1.2-3.2-1.2c-0.9,0-1.7,0.2-2.5,0.7c-0.8,0.5-1.5,1.1-2.2,1.9l-1.5-1.4c1-1,2-1.9,3-2.4c1-0.6,2.2-0.9,3.5-0.9
		c2,0,3.5,0.6,4.7,1.7c1.2,1.1,1.7,2.7,1.7,4.6c0,1.3-0.4,2.7-1.1,4.1c-0.7,1.4-1.7,2.8-2.9,4.2c-1.2,1.4-2.9,3.3-5.1,5.6l0.8,0
		c1.3-0.1,2.2-0.1,2.8-0.1h6.6v2.1h-13.9V694z"/>
	<path class="st8" d="M352.6,692.9c-1.2-2-1.8-4.8-1.8-8.4c0-3.6,0.6-6.4,1.8-8.3c1.2-1.9,2.9-2.9,5-2.9c2.2,0,3.8,1,5,2.9
		c1.2,1.9,1.8,4.7,1.8,8.3c0,3.6-0.6,6.4-1.8,8.4c-1.2,2-2.9,3-5,3C355.5,695.8,353.8,694.9,352.6,692.9z M360.9,691.5
		c0.8-1.6,1.2-3.9,1.2-7c0-3.1-0.4-5.4-1.2-6.9c-0.8-1.5-1.9-2.3-3.3-2.3s-2.5,0.8-3.3,2.3c-0.8,1.5-1.2,3.8-1.2,6.9
		c0,3.1,0.4,5.4,1.2,7c0.8,1.6,1.9,2.3,3.3,2.3S360.1,693.1,360.9,691.5z"/>
	<path class="st8" d="M367.4,694c2.6-2.6,4.6-4.7,6-6.2c1.4-1.6,2.5-3,3.3-4.3c0.8-1.3,1.1-2.6,1.1-3.7c0-1.3-0.4-2.4-1.1-3.2
		c-0.7-0.8-1.8-1.2-3.2-1.2c-0.9,0-1.7,0.2-2.5,0.7c-0.8,0.5-1.5,1.1-2.2,1.9l-1.5-1.4c1-1,2-1.9,3-2.4c1-0.6,2.2-0.9,3.5-0.9
		c2,0,3.5,0.6,4.7,1.7c1.2,1.1,1.7,2.7,1.7,4.6c0,1.3-0.4,2.7-1.1,4.1c-0.7,1.4-1.7,2.8-2.9,4.2c-1.2,1.4-2.9,3.3-5.1,5.6l0.8,0
		c1.3-0.1,2.2-0.1,2.8-0.1h6.6v2.1h-13.9V694z"/>
	<path class="st8" d="M386.1,692.9c-1.2-2-1.8-4.8-1.8-8.4c0-3.6,0.6-6.4,1.8-8.3c1.2-1.9,2.9-2.9,5-2.9s3.8,1,5,2.9
		c1.2,1.9,1.8,4.7,1.8,8.3c0,3.6-0.6,6.4-1.8,8.4c-1.2,2-2.9,3-5,3S387.3,694.9,386.1,692.9z M394.4,691.5c0.8-1.6,1.2-3.9,1.2-7
		c0-3.1-0.4-5.4-1.2-6.9c-0.8-1.5-1.9-2.3-3.3-2.3s-2.5,0.8-3.3,2.3s-1.2,3.8-1.2,6.9c0,3.1,0.4,5.4,1.2,7c0.8,1.6,1.9,2.3,3.3,2.3
		S393.7,693.1,394.4,691.5z"/>
	<path class="st8" d="M401,685.9h7.7v1.9H401V685.9z"/>
	<path class="st8" d="M413.4,692.9c-1.2-2-1.8-4.8-1.8-8.4c0-3.6,0.6-6.4,1.8-8.3c1.2-1.9,2.9-2.9,5-2.9s3.8,1,5,2.9
		c1.2,1.9,1.8,4.7,1.8,8.3c0,3.6-0.6,6.4-1.8,8.4c-1.2,2-2.9,3-5,3S414.6,694.9,413.4,692.9z M421.7,691.5c0.8-1.6,1.2-3.9,1.2-7
		c0-3.1-0.4-5.4-1.2-6.9c-0.8-1.5-1.9-2.3-3.3-2.3s-2.5,0.8-3.3,2.3s-1.2,3.8-1.2,6.9c0,3.1,0.4,5.4,1.2,7c0.8,1.6,1.9,2.3,3.3,2.3
		S420.9,693.1,421.7,691.5z"/>
	<path class="st8" d="M428.2,694c2.6-2.6,4.6-4.7,6-6.2c1.4-1.6,2.5-3,3.3-4.3c0.8-1.3,1.1-2.6,1.1-3.7c0-1.3-0.4-2.4-1.1-3.2
		c-0.7-0.8-1.8-1.2-3.2-1.2c-0.9,0-1.7,0.2-2.5,0.7c-0.8,0.5-1.5,1.1-2.2,1.9l-1.5-1.4c1-1,2-1.9,3-2.4c1-0.6,2.2-0.9,3.5-0.9
		c2,0,3.5,0.6,4.7,1.7c1.2,1.1,1.7,2.7,1.7,4.6c0,1.3-0.4,2.7-1.1,4.1c-0.7,1.4-1.7,2.8-2.9,4.2c-1.2,1.4-2.9,3.3-5.1,5.6l0.8,0
		c1.3-0.1,2.2-0.1,2.8-0.1h6.6v2.1h-13.9V694z"/>
	<path class="st8" d="M445,685.9h7.7v1.9H445V685.9z"/>
	<path class="st8" d="M455.7,693.4h5v-16.5h-4v-1.6c1.8-0.3,3.3-0.8,4.5-1.5h1.9v19.7h4.5v2.1h-12V693.4z"/>
	<path class="st8" d="M471.1,693.4h5v-16.5h-4v-1.6c1.8-0.3,3.3-0.8,4.5-1.5h1.9v19.7h4.5v2.1h-12V693.4z"/>
	<path class="st8" d="M486,680.4c0.8-2.8,2.3-6.5,3.2-8.1l1.9-0.2c-0.7,2-1.6,5.5-2,8L486,680.4z M491,680.4
		c0.8-2.8,2.3-6.5,3.2-8.1l1.9-0.2c-0.7,2-1.6,5.5-2,8L491,680.4z"/>
	<path class="st8" d="M327.7,713.5h2.2l5.2,13.1H333l-4.1-10.8h-0.1l-1.7,4.5l-2.3,6.2h-2.2L327.7,713.5z"/>
	<path class="st8" d="M344.5,713.5h2.2l5.2,13.1h-2.2l-4.1-10.8h-0.1l-1.7,4.5l-2.3,6.2h-2.2L344.5,713.5z"/>
	<path class="st8" d="M359.9,727.7l-5-7.9h2.7l2.3,3.8c0.7,1.2,1.3,2.1,1.7,2.7h0.1l1.5-2.7l2.1-3.8h2.6l-5,8.1l5.4,8.4h-2.7l-2.6-4
		c-0.7-1.2-1.3-2.2-1.8-3h-0.1c-0.4,0.6-0.7,1.3-1.2,2l-0.6,1l-2.4,4h-2.6L359.9,727.7z"/>
	<path class="st8" d="M372.7,736.1c-1.1-0.4-2-1-2.8-1.7l1.3-1.7c0.8,0.7,1.6,1.2,2.4,1.5c0.8,0.3,1.6,0.5,2.6,0.5
		c1.1,0,1.9-0.3,2.5-0.8c0.6-0.5,0.9-1.2,0.9-2c0-0.8-0.3-1.4-1-1.9c-0.7-0.5-1.6-0.9-2.8-1.4c-1.6-0.6-2.8-1.2-3.7-1.9
		c-0.9-0.7-1.3-1.6-1.3-2.9c0-1.3,0.5-2.4,1.5-3.3c1-0.9,2.4-1.3,4.1-1.3c0.9,0,1.8,0.2,2.7,0.5c0.9,0.3,1.6,0.8,2.3,1.3l-1.2,1.6
		c-0.7-0.5-1.3-0.8-1.9-1.1c-0.6-0.3-1.2-0.4-1.9-0.4c-1,0-1.8,0.2-2.4,0.7c-0.5,0.5-0.8,1.1-0.8,1.8c0,0.5,0.2,0.9,0.5,1.3
		s0.7,0.7,1.2,0.9s1.1,0.5,2,0.8c1.2,0.4,2.1,0.8,2.7,1.2c0.7,0.3,1.2,0.8,1.7,1.4c0.5,0.6,0.7,1.4,0.7,2.4c0,0.9-0.2,1.7-0.7,2.4
		c-0.5,0.7-1.1,1.3-2,1.8c-0.9,0.4-2,0.6-3.2,0.6C374.8,736.7,373.7,736.5,372.7,736.1z"/>
	<path class="st8" d="M386.5,734.4c-1.2-1.5-1.8-3.6-1.8-6.4c0-1.7,0.3-3.2,1-4.6c0.7-1.3,1.5-2.3,2.6-3c1.1-0.7,2.3-1.1,3.6-1.1
		c0.9,0,1.7,0.2,2.4,0.5c0.7,0.3,1.5,0.8,2.3,1.5l-0.1-2.9V712h2.5v24.3h-2l-0.2-2h-0.1c-0.7,0.7-1.5,1.3-2.4,1.8
		c-0.9,0.4-1.8,0.7-2.7,0.7C389.4,736.7,387.7,736,386.5,734.4z M394.3,734c0.7-0.4,1.4-1,2.2-1.8v-9c-0.7-0.6-1.4-1.1-2.1-1.4
		c-0.7-0.3-1.4-0.4-2.1-0.4c-0.9,0-1.8,0.3-2.5,0.9c-0.8,0.6-1.4,1.4-1.8,2.4c-0.4,1-0.7,2.1-0.7,3.4c0,2,0.4,3.6,1.2,4.8
		c0.8,1.2,2,1.7,3.5,1.7C392.8,734.6,393.6,734.4,394.3,734z"/>
	<path class="st8" d="M404.6,723.7c-0.4-0.4-0.5-0.8-0.5-1.4c0-0.6,0.2-1.1,0.5-1.4c0.4-0.4,0.8-0.6,1.3-0.6s1,0.2,1.3,0.6
		c0.4,0.4,0.5,0.9,0.5,1.4c0,0.6-0.2,1-0.5,1.4c-0.4,0.4-0.8,0.6-1.3,0.6S405,724.1,404.6,723.7z M404.6,736.2
		c-0.4-0.4-0.5-0.8-0.5-1.4c0-0.6,0.2-1.1,0.5-1.4c0.4-0.4,0.8-0.6,1.3-0.6s1,0.2,1.3,0.6c0.4,0.4,0.5,0.9,0.5,1.4
		c0,0.6-0.2,1-0.5,1.4c-0.4,0.4-0.8,0.6-1.3,0.6S405,736.5,404.6,736.2z"/>
	<path class="st8" d="M413.5,734.4c-1.2-1.5-1.8-3.6-1.8-6.4c0-1.7,0.3-3.2,1-4.6c0.7-1.3,1.5-2.3,2.6-3c1.1-0.7,2.3-1.1,3.6-1.1
		c0.9,0,1.7,0.2,2.4,0.5c0.7,0.3,1.5,0.8,2.3,1.5l-0.1-2.9V712h2.5v24.3h-2l-0.2-2h-0.1c-0.7,0.7-1.5,1.3-2.4,1.8
		c-0.9,0.4-1.8,0.7-2.7,0.7C416.4,736.7,414.8,736,413.5,734.4z M421.3,734c0.7-0.4,1.4-1,2.2-1.8v-9c-0.7-0.6-1.4-1.1-2.1-1.4
		c-0.7-0.3-1.4-0.4-2.1-0.4c-0.9,0-1.8,0.3-2.5,0.9c-0.8,0.6-1.4,1.4-1.8,2.4c-0.4,1-0.7,2.1-0.7,3.4c0,2,0.4,3.6,1.2,4.8
		c0.8,1.2,2,1.7,3.5,1.7C419.8,734.6,420.6,734.4,421.3,734z"/>
	<path class="st8" d="M432,735.5c-0.9-0.8-1.4-2-1.4-3.4c0-1.8,0.8-3.2,2.5-4.1s4.2-1.6,7.8-2c0-1.3-0.3-2.4-0.8-3.2
		c-0.5-0.8-1.4-1.2-2.7-1.2c-1.6,0-3.2,0.6-5,1.8l-1-1.7c2.2-1.5,4.3-2.2,6.4-2.2c1.9,0,3.3,0.6,4.2,1.8c0.9,1.2,1.4,2.8,1.4,4.9
		v10.2h-2l-0.2-2h-0.1c-2,1.6-3.8,2.4-5.6,2.4C434.1,736.7,432.9,736.3,432,735.5z M438.5,734.1c0.8-0.4,1.6-1,2.5-1.8v-4.8
		c-2.8,0.3-4.9,0.9-6,1.6c-1.2,0.7-1.8,1.6-1.8,2.8c0,0.9,0.3,1.6,0.9,2.1c0.6,0.5,1.3,0.7,2.2,0.7
		C436.9,734.7,437.7,734.5,438.5,734.1z"/>
	<path class="st8" d="M449.9,735.3c-0.7-0.9-1.1-2.3-1.1-4v-9.5h-2.5V720l2.6-0.2l0.3-4.7h2.1v4.7h4.5v2h-4.5v9.6
		c0,1.1,0.2,1.9,0.6,2.5c0.4,0.5,1.1,0.8,2,0.8c0.5,0,1.1-0.1,1.9-0.4l0.5,1.9c-1.2,0.4-2.2,0.6-3,0.6
		C451.7,736.7,450.6,736.3,449.9,735.3z"/>
	<path class="st8" d="M471.7,728.6h-11.4c0.1,1.9,0.7,3.4,1.8,4.5c1.1,1.1,2.4,1.6,4,1.6c1.5,0,2.8-0.4,4.2-1.3l0.9,1.6
		c-0.8,0.5-1.7,0.9-2.5,1.2c-0.9,0.3-1.8,0.5-2.9,0.5c-1.5,0-2.8-0.3-4-1c-1.2-0.7-2.1-1.7-2.8-3c-0.7-1.3-1-2.8-1-4.6
		c0-1.7,0.3-3.2,1-4.6c0.7-1.3,1.6-2.3,2.7-3c1.1-0.7,2.3-1.1,3.6-1.1c2,0,3.6,0.7,4.8,2.1c1.1,1.4,1.7,3.3,1.7,5.7
		C471.8,727.7,471.8,728.2,471.7,728.6z M469.6,726.8c0-1.7-0.4-3.1-1.1-4c-0.8-0.9-1.8-1.4-3.1-1.4c-1.2,0-2.3,0.5-3.3,1.4
		c-1,0.9-1.5,2.3-1.7,4H469.6z"/>
</g>
<g>
	<path class="st6" d="M388.6,432.2h2.7V456h-2.7V432.2z"/>
	<path class="st6" d="M398.3,454.1c-1.3-1.6-1.9-3.9-1.9-6.8c0-1.8,0.3-3.5,1.1-4.9c0.7-1.4,1.6-2.5,2.8-3.2
		c1.2-0.8,2.4-1.1,3.8-1.1c0.9,0,1.8,0.2,2.5,0.5c0.7,0.3,1.6,0.9,2.5,1.6l-0.1-3v-6.9h2.6V456h-2.2l-0.2-2.1H409
		c-0.8,0.8-1.6,1.4-2.5,1.9c-0.9,0.5-1.9,0.7-2.9,0.7C401.3,456.5,399.6,455.7,398.3,454.1z M406.5,453.6c0.8-0.4,1.5-1,2.3-1.9
		v-9.5c-0.8-0.7-1.5-1.2-2.2-1.5c-0.7-0.3-1.5-0.5-2.2-0.5c-1,0-1.9,0.3-2.7,0.9c-0.8,0.6-1.5,1.4-1.9,2.5c-0.5,1.1-0.7,2.3-0.7,3.6
		c0,2.2,0.4,3.9,1.3,5.1c0.9,1.2,2.1,1.9,3.8,1.9C405,454.2,405.8,454,406.5,453.6z"/>
	<path class="st6" d="M416.4,453.8h5.3v-17.6h-4.2v-1.7c2-0.3,3.6-0.9,4.8-1.6h2v20.9h4.8v2.2h-12.8V453.8z"/>
</g>
</svg>
