<?xml version="1.0" encoding="utf-8"?>
<!-- Generator: Adobe Illustrator 23.0.1, SVG Export Plug-In . SVG Version: 6.00 Build 0)  -->
<svg version="1.1" id="Layer_1" xmlns="http://www.w3.org/2000/svg" xmlns:xlink="http://www.w3.org/1999/xlink" x="0px" y="0px"
	 viewBox="0 0 1000 180" style="enable-background:new 0 0 1000 180;" xml:space="preserve">
<style type="text/css">
	.st0{fill:#E74011;}
	.st1{fill:#626365;}
</style>
<g>
	<g>
		<g>
			<g>
				<path class="st0" d="M32.45,11.19l5.11,3.47c-2.99,4.08-4.53,8.49-4.63,13.21v6.56h-8.87v-5.59c0-3.28,0.78-6.53,2.34-9.74
					C27.95,15.88,29.97,13.24,32.45,11.19z M47.64,11.19l5.11,3.47c-2.99,4.08-4.53,8.49-4.63,13.21v6.56h-8.87v-5.59
					c0-3.28,0.78-6.53,2.34-9.74C43.14,15.88,45.16,13.24,47.64,11.19z"/>
				<path class="st1" d="M68.09,46.98h-5.55v9.56H59.4V32.91h7.82c2.66,0,4.71,0.61,6.14,1.82c1.43,1.21,2.15,2.98,2.15,5.29
					c0,1.47-0.4,2.75-1.19,3.85c-0.8,1.09-1.9,1.91-3.32,2.45l5.55,10.03v0.19h-3.34L68.09,46.98z M62.53,44.43h4.79
					c1.55,0,2.78-0.4,3.69-1.2c0.91-0.8,1.37-1.88,1.37-3.22c0-1.46-0.44-2.59-1.31-3.37c-0.87-0.78-2.13-1.18-3.77-1.19h-4.77
					V44.43z"/>
				<path class="st1" d="M78.59,47.6c0-1.72,0.34-3.27,1.01-4.64c0.68-1.37,1.62-2.44,2.82-3.18s2.58-1.12,4.13-1.12
					c2.39,0,4.33,0.83,5.8,2.48c1.48,1.66,2.22,3.86,2.22,6.61v0.21c0,1.71-0.33,3.24-0.98,4.6s-1.59,2.42-2.81,3.17
					c-1.22,0.76-2.62,1.14-4.2,1.14c-2.38,0-4.31-0.83-5.79-2.48c-1.48-1.66-2.22-3.85-2.22-6.57V47.6z M81.61,47.96
					c0,1.95,0.45,3.51,1.36,4.69c0.9,1.18,2.11,1.77,3.63,1.77c1.53,0,2.74-0.6,3.64-1.79c0.9-1.2,1.35-2.87,1.35-5.02
					c0-1.93-0.46-3.49-1.37-4.68c-0.92-1.2-2.13-1.79-3.64-1.79c-1.48,0-2.68,0.59-3.59,1.77C82.06,44.07,81.61,45.76,81.61,47.96z"
					/>
				<path class="st1" d="M101.1,38.98l0.08,1.95c1.29-1.51,3.02-2.27,5.21-2.27c2.46,0,4.13,0.94,5.02,2.82
					c0.58-0.84,1.34-1.53,2.28-2.04s2.04-0.78,3.32-0.78c3.85,0,5.81,2.04,5.88,6.12v11.77h-3V44.95c0-1.25-0.29-2.19-0.86-2.82
					c-0.57-0.62-1.54-0.93-2.89-0.93c-1.11,0-2.04,0.33-2.78,1c-0.74,0.67-1.16,1.56-1.28,2.69v11.65h-3.02V45.04
					c0-2.55-1.25-3.83-3.75-3.83c-1.97,0-3.32,0.84-4.04,2.52v12.82h-3V38.98H101.1z"/>
				<path class="st1" d="M134.7,56.87c-2.38,0-4.32-0.78-5.81-2.35c-1.49-1.56-2.24-3.65-2.24-6.27V47.7c0-1.74,0.33-3.3,1-4.67
					c0.67-1.37,1.6-2.44,2.79-3.21c1.2-0.77,2.49-1.16,3.89-1.16c2.28,0,4.06,0.75,5.32,2.26c1.27,1.5,1.9,3.66,1.9,6.46v1.25h-11.9
					c0.04,1.73,0.55,3.13,1.52,4.2c0.97,1.07,2.2,1.6,3.69,1.6c1.06,0,1.96-0.22,2.69-0.65c0.74-0.43,1.38-1.01,1.93-1.72l1.83,1.43
					C139.85,55.74,137.64,56.87,134.7,56.87z M134.33,41.12c-1.21,0-2.23,0.44-3.05,1.32c-0.82,0.88-1.33,2.12-1.53,3.71h8.8v-0.23
					c-0.09-1.53-0.5-2.71-1.23-3.55C136.58,41.54,135.58,41.12,134.33,41.12z"/>
				<path class="st1" d="M168.84,52.4l3.38-13.42h3l-5.11,17.56h-2.44l-4.27-13.31l-4.16,13.31h-2.43l-5.1-17.56h2.99l3.46,13.15
					l4.09-13.15h2.42L168.84,52.4z"/>
				<path class="st1" d="M189.11,56.54c-0.17-0.35-0.31-0.96-0.42-1.85c-1.4,1.45-3.06,2.18-5,2.18c-1.73,0-3.15-0.49-4.26-1.47
					c-1.11-0.98-1.66-2.22-1.66-3.73c0-1.83,0.7-3.25,2.09-4.26s3.35-1.52,5.87-1.52h2.92v-1.38c0-1.05-0.31-1.89-0.94-2.51
					s-1.55-0.93-2.78-0.93c-1.07,0-1.97,0.27-2.69,0.81s-1.09,1.2-1.09,1.96h-3.02c0-0.88,0.31-1.72,0.93-2.54
					c0.62-0.82,1.47-1.46,2.53-1.94s2.24-0.71,3.51-0.71c2.02,0,3.61,0.51,4.76,1.52c1.15,1.01,1.74,2.41,1.79,4.18v8.08
					c0,1.61,0.21,2.89,0.62,3.85v0.26H189.11z M184.13,54.25c0.94,0,1.83-0.24,2.68-0.73c0.84-0.49,1.46-1.12,1.83-1.9v-3.6h-2.35
					c-3.68,0-5.52,1.08-5.52,3.23c0,0.94,0.31,1.68,0.94,2.21C182.34,53.99,183.14,54.25,184.13,54.25z"/>
				<path class="st1" d="M206.51,51.88c0-0.81-0.31-1.44-0.92-1.89c-0.61-0.45-1.68-0.84-3.2-1.16c-1.52-0.32-2.73-0.71-3.62-1.17
					c-0.89-0.45-1.55-1-1.98-1.62c-0.43-0.63-0.64-1.37-0.64-2.24c0-1.44,0.61-2.66,1.83-3.65c1.22-1,2.77-1.49,4.67-1.49
					c1.99,0,3.61,0.51,4.85,1.54c1.24,1.03,1.86,2.34,1.86,3.94h-3.02c0-0.82-0.35-1.53-1.05-2.13c-0.7-0.59-1.58-0.89-2.64-0.89
					c-1.09,0-1.95,0.24-2.56,0.71s-0.93,1.1-0.93,1.87c0,0.73,0.29,1.27,0.86,1.64c0.57,0.37,1.61,0.72,3.11,1.06
					c1.5,0.34,2.71,0.74,3.64,1.2s1.62,1.03,2.07,1.68c0.45,0.65,0.67,1.45,0.67,2.39c0,1.57-0.63,2.83-1.88,3.77
					c-1.26,0.95-2.88,1.42-4.89,1.42c-1.41,0-2.65-0.25-3.73-0.75c-1.08-0.5-1.93-1.19-2.54-2.09s-0.92-1.86-0.92-2.9h3
					c0.05,1.01,0.46,1.8,1.21,2.39c0.75,0.59,1.74,0.88,2.98,0.88c1.14,0,2.05-0.23,2.73-0.69
					C206.17,53.27,206.51,52.65,206.51,51.88z"/>
				<path class="st1" d="M225.76,34.73v4.25h3.28v2.32h-3.28v10.91c0,0.7,0.15,1.23,0.44,1.58c0.29,0.35,0.79,0.53,1.49,0.53
					c0.35,0,0.82-0.06,1.43-0.19v2.42c-0.79,0.22-1.56,0.32-2.3,0.32c-1.34,0-2.35-0.41-3.04-1.22c-0.68-0.81-1.02-1.96-1.02-3.46
					V41.3h-3.2v-2.32h3.2v-4.25H225.76z"/>
				<path class="st1" d="M235.55,41.11c1.33-1.63,3.06-2.45,5.19-2.45c3.71,0,5.58,2.09,5.62,6.28v11.61h-3V44.92
					c-0.01-1.27-0.3-2.2-0.87-2.81c-0.57-0.61-1.45-0.91-2.65-0.91c-0.97,0-1.83,0.26-2.56,0.78c-0.74,0.52-1.31,1.2-1.72,2.05
					v12.51h-3V31.61h3V41.11z"/>
				<path class="st1" d="M258.08,56.87c-2.38,0-4.32-0.78-5.81-2.35c-1.49-1.56-2.24-3.65-2.24-6.27V47.7c0-1.74,0.33-3.3,1-4.67
					c0.67-1.37,1.6-2.44,2.79-3.21c1.2-0.77,2.49-1.16,3.89-1.16c2.28,0,4.06,0.75,5.32,2.26c1.27,1.5,1.9,3.66,1.9,6.46v1.25h-11.9
					c0.04,1.73,0.55,3.13,1.52,4.2c0.97,1.07,2.2,1.6,3.69,1.6c1.06,0,1.96-0.22,2.69-0.65c0.74-0.43,1.38-1.01,1.93-1.72l1.83,1.43
					C263.23,55.74,261.02,56.87,258.08,56.87z M257.7,41.12c-1.21,0-2.23,0.44-3.05,1.32c-0.82,0.88-1.33,2.12-1.53,3.71h8.8v-0.23
					c-0.09-1.53-0.5-2.71-1.23-3.55C259.95,41.54,258.96,41.12,257.7,41.12z"/>
				<path class="st1" d="M283.71,54.42c1.07,0,2.01-0.32,2.81-0.97c0.8-0.65,1.24-1.46,1.33-2.44h2.84
					c-0.05,1.01-0.4,1.96-1.04,2.87c-0.64,0.91-1.49,1.63-2.56,2.18c-1.07,0.54-2.19,0.81-3.38,0.81c-2.39,0-4.29-0.8-5.71-2.39
					c-1.41-1.6-2.12-3.78-2.12-6.55v-0.5c0-1.71,0.31-3.23,0.94-4.56c0.63-1.33,1.53-2.36,2.7-3.1c1.17-0.74,2.56-1.1,4.16-1.1
					c1.97,0,3.61,0.59,4.91,1.77c1.3,1.18,2,2.71,2.09,4.59h-2.84c-0.09-1.14-0.52-2.07-1.29-2.8c-0.77-0.73-1.73-1.1-2.87-1.1
					c-1.53,0-2.71,0.55-3.55,1.65c-0.84,1.1-1.26,2.69-1.26,4.76v0.57c0,2.02,0.42,3.58,1.25,4.67
					C280.97,53.87,282.16,54.42,283.71,54.42z"/>
				<path class="st1" d="M301.35,56.87c-2.38,0-4.32-0.78-5.81-2.35c-1.49-1.56-2.24-3.65-2.24-6.27V47.7c0-1.74,0.33-3.3,1-4.67
					c0.67-1.37,1.6-2.44,2.79-3.21c1.2-0.77,2.49-1.16,3.89-1.16c2.28,0,4.06,0.75,5.32,2.26c1.27,1.5,1.9,3.66,1.9,6.46v1.25h-11.9
					c0.04,1.73,0.55,3.13,1.52,4.2c0.97,1.07,2.2,1.6,3.69,1.6c1.06,0,1.96-0.22,2.69-0.65c0.74-0.43,1.38-1.01,1.93-1.72l1.83,1.43
					C306.5,55.74,304.3,56.87,301.35,56.87z M300.98,41.12c-1.21,0-2.23,0.44-3.05,1.32c-0.82,0.88-1.33,2.12-1.53,3.71h8.8v-0.23
					c-0.09-1.53-0.5-2.71-1.23-3.55C303.23,41.54,302.23,41.12,300.98,41.12z"/>
				<path class="st1" d="M314.52,38.98l0.1,2.21c1.34-1.69,3.09-2.53,5.26-2.53c3.71,0,5.58,2.09,5.62,6.28v11.61h-3V44.92
					c-0.01-1.27-0.3-2.2-0.87-2.81c-0.57-0.61-1.45-0.91-2.65-0.91c-0.97,0-1.83,0.26-2.56,0.78c-0.74,0.52-1.31,1.2-1.72,2.05
					v12.51h-3V38.98H314.52z"/>
				<path class="st1" d="M334.03,34.73v4.25h3.28v2.32h-3.28v10.91c0,0.7,0.15,1.23,0.44,1.58c0.29,0.35,0.79,0.53,1.49,0.53
					c0.35,0,0.82-0.06,1.43-0.19v2.42c-0.79,0.22-1.56,0.32-2.3,0.32c-1.34,0-2.35-0.41-3.04-1.22c-0.68-0.81-1.02-1.96-1.02-3.46
					V41.3h-3.2v-2.32h3.2v-4.25H334.03z"/>
				<path class="st1" d="M349.3,41.67c-0.45-0.08-0.95-0.11-1.48-0.11c-1.97,0-3.31,0.84-4.01,2.52v12.47h-3V38.98h2.92l0.05,2.03
					c0.98-1.57,2.38-2.35,4.19-2.35c0.58,0,1.03,0.08,1.33,0.23V41.67z"/>
				<path class="st1" d="M359.35,56.87c-2.38,0-4.32-0.78-5.81-2.35c-1.49-1.56-2.24-3.65-2.24-6.27V47.7c0-1.74,0.33-3.3,1-4.67
					c0.67-1.37,1.6-2.44,2.79-3.21c1.2-0.77,2.49-1.16,3.89-1.16c2.28,0,4.06,0.75,5.32,2.26c1.27,1.5,1.9,3.66,1.9,6.46v1.25h-11.9
					c0.04,1.73,0.55,3.13,1.52,4.2c0.97,1.07,2.2,1.6,3.69,1.6c1.06,0,1.96-0.22,2.69-0.65c0.74-0.43,1.38-1.01,1.93-1.72l1.83,1.43
					C364.5,55.74,362.29,56.87,359.35,56.87z M358.97,41.12c-1.21,0-2.23,0.44-3.05,1.32c-0.82,0.88-1.33,2.12-1.53,3.71h8.8v-0.23
					c-0.09-1.53-0.5-2.71-1.23-3.55C361.23,41.54,360.23,41.12,358.97,41.12z"/>
				<path class="st1" d="M377.11,47.6c0-1.72,0.34-3.27,1.01-4.64c0.68-1.37,1.62-2.44,2.82-3.18s2.58-1.12,4.13-1.12
					c2.39,0,4.33,0.83,5.8,2.48c1.48,1.66,2.22,3.86,2.22,6.61v0.21c0,1.71-0.33,3.24-0.98,4.6s-1.59,2.42-2.81,3.17
					c-1.22,0.76-2.62,1.14-4.2,1.14c-2.38,0-4.31-0.83-5.79-2.48c-1.48-1.66-2.22-3.85-2.22-6.57V47.6z M380.12,47.96
					c0,1.95,0.45,3.51,1.36,4.69c0.9,1.18,2.11,1.77,3.63,1.77c1.53,0,2.74-0.6,3.64-1.79c0.9-1.2,1.35-2.87,1.35-5.02
					c0-1.93-0.46-3.49-1.37-4.68c-0.92-1.2-2.13-1.79-3.64-1.79c-1.48,0-2.68,0.59-3.59,1.77
					C380.58,44.07,380.12,45.76,380.12,47.96z"/>
				<path class="st1" d="M398.34,56.54V41.3h-2.78v-2.32h2.78v-1.8c0-1.88,0.5-3.34,1.51-4.37c1.01-1.03,2.43-1.54,4.27-1.54
					c0.69,0,1.38,0.09,2.06,0.27l-0.16,2.42c-0.51-0.1-1.05-0.15-1.62-0.15c-0.97,0-1.73,0.29-2.26,0.85s-0.8,1.39-0.8,2.45v1.86
					h3.75v2.32h-3.75v15.24H398.34z"/>
				<path class="st1" d="M420.7,34.73v4.25h3.28v2.32h-3.28v10.91c0,0.7,0.15,1.23,0.44,1.58c0.29,0.35,0.79,0.53,1.49,0.53
					c0.35,0,0.82-0.06,1.43-0.19v2.42c-0.79,0.22-1.56,0.32-2.3,0.32c-1.34,0-2.35-0.41-3.04-1.22c-0.68-0.81-1.02-1.96-1.02-3.46
					V41.3h-3.2v-2.32h3.2v-4.25H420.7z"/>
				<path class="st1" d="M430.49,41.11c1.33-1.63,3.06-2.45,5.19-2.45c3.71,0,5.58,2.09,5.62,6.28v11.61h-3V44.92
					c-0.01-1.27-0.3-2.2-0.87-2.81c-0.57-0.61-1.45-0.91-2.65-0.91c-0.97,0-1.83,0.26-2.56,0.78c-0.74,0.52-1.31,1.2-1.72,2.05
					v12.51h-3V31.61h3V41.11z"/>
				<path class="st1" d="M453.09,56.87c-2.38,0-4.32-0.78-5.81-2.35c-1.49-1.56-2.24-3.65-2.24-6.27V47.7c0-1.74,0.33-3.3,1-4.67
					c0.67-1.37,1.6-2.44,2.79-3.21c1.2-0.77,2.49-1.16,3.89-1.16c2.28,0,4.06,0.75,5.32,2.26c1.27,1.5,1.9,3.66,1.9,6.46v1.25h-11.9
					c0.04,1.73,0.55,3.13,1.52,4.2c0.97,1.07,2.2,1.6,3.69,1.6c1.06,0,1.96-0.22,2.69-0.65c0.74-0.43,1.38-1.01,1.93-1.72l1.83,1.43
					C458.24,55.74,456.03,56.87,453.09,56.87z M452.71,41.12c-1.21,0-2.23,0.44-3.05,1.32c-0.82,0.88-1.33,2.12-1.53,3.71h8.8v-0.23
					c-0.09-1.53-0.5-2.71-1.23-3.55C454.96,41.54,453.97,41.12,452.71,41.12z"/>
				<path class="st1" d="M480.78,46.98h-5.55v9.56h-3.13V32.91h7.82c2.66,0,4.71,0.61,6.14,1.82c1.43,1.21,2.15,2.98,2.15,5.29
					c0,1.47-0.4,2.75-1.19,3.85c-0.8,1.09-1.9,1.91-3.32,2.45l5.55,10.03v0.19h-3.34L480.78,46.98z M475.23,44.43h4.79
					c1.55,0,2.78-0.4,3.69-1.2c0.91-0.8,1.37-1.88,1.37-3.22c0-1.46-0.44-2.59-1.31-3.37c-0.87-0.78-2.13-1.18-3.77-1.19h-4.77
					V44.43z"/>
				<path class="st1" d="M491.31,47.6c0-1.72,0.34-3.27,1.01-4.64c0.68-1.37,1.62-2.44,2.82-3.18s2.58-1.12,4.13-1.12
					c2.39,0,4.33,0.83,5.8,2.48c1.48,1.66,2.22,3.86,2.22,6.61v0.21c0,1.71-0.33,3.24-0.98,4.6s-1.59,2.42-2.81,3.17
					s-2.62,1.14-4.2,1.14c-2.38,0-4.31-0.83-5.79-2.48c-1.48-1.66-2.22-3.85-2.22-6.57V47.6z M494.33,47.96
					c0,1.95,0.45,3.51,1.36,4.69c0.9,1.18,2.11,1.77,3.63,1.77c1.53,0,2.74-0.6,3.64-1.79s1.35-2.87,1.35-5.02
					c0-1.93-0.46-3.49-1.37-4.68c-0.91-1.2-2.13-1.79-3.64-1.79c-1.48,0-2.68,0.59-3.59,1.77
					C494.79,44.07,494.33,45.76,494.33,47.96z"/>
				<path class="st1" d="M513.89,38.98l0.08,1.95c1.29-1.51,3.02-2.27,5.21-2.27c2.46,0,4.13,0.94,5.02,2.82
					c0.58-0.84,1.34-1.53,2.28-2.04s2.04-0.78,3.32-0.78c3.85,0,5.81,2.04,5.88,6.12v11.77h-3V44.95c0-1.25-0.29-2.19-0.86-2.82
					c-0.57-0.62-1.54-0.93-2.89-0.93c-1.12,0-2.04,0.33-2.78,1c-0.74,0.67-1.16,1.56-1.28,2.69v11.65h-3.02V45.04
					c0-2.55-1.25-3.83-3.75-3.83c-1.97,0-3.32,0.84-4.04,2.52v12.82h-3V38.98H513.89z"/>
				<path class="st1" d="M551.05,56.54c-0.17-0.35-0.31-0.96-0.42-1.85c-1.4,1.45-3.06,2.18-5,2.18c-1.73,0-3.15-0.49-4.26-1.47
					c-1.11-0.98-1.66-2.22-1.66-3.73c0-1.83,0.7-3.25,2.09-4.26c1.39-1.01,3.35-1.52,5.87-1.52h2.92v-1.38
					c0-1.05-0.31-1.89-0.94-2.51s-1.55-0.93-2.78-0.93c-1.07,0-1.97,0.27-2.69,0.81c-0.73,0.54-1.09,1.2-1.09,1.96h-3.02
					c0-0.88,0.31-1.72,0.93-2.54c0.62-0.82,1.47-1.46,2.53-1.94s2.24-0.71,3.51-0.71c2.02,0,3.61,0.51,4.76,1.52
					c1.15,1.01,1.74,2.41,1.79,4.18v8.08c0,1.61,0.21,2.89,0.62,3.85v0.26H551.05z M546.06,54.25c0.94,0,1.83-0.24,2.68-0.73
					c0.84-0.49,1.46-1.12,1.83-1.9v-3.6h-2.35c-3.68,0-5.52,1.08-5.52,3.23c0,0.94,0.31,1.68,0.94,2.21
					C544.27,53.99,545.08,54.25,546.06,54.25z"/>
				<path class="st1" d="M561.13,38.98l0.1,2.21c1.34-1.69,3.09-2.53,5.26-2.53c3.71,0,5.58,2.09,5.62,6.28v11.61h-3V44.92
					c-0.01-1.27-0.3-2.2-0.87-2.81c-0.57-0.61-1.45-0.91-2.65-0.91c-0.97,0-1.83,0.26-2.56,0.78c-0.74,0.52-1.31,1.2-1.72,2.05
					v12.51h-3V38.98H561.13z"/>
				<path class="st1" d="M598.69,45.62h-10.24V54h11.9v2.55h-15.01V32.91h14.85v2.55h-11.74v7.61h10.24V45.62z"/>
				<path class="st1" d="M606.58,38.98l0.08,1.95c1.29-1.51,3.02-2.27,5.21-2.27c2.46,0,4.13,0.94,5.02,2.82
					c0.58-0.84,1.34-1.53,2.28-2.04s2.04-0.78,3.32-0.78c3.85,0,5.81,2.04,5.88,6.12v11.77h-3V44.95c0-1.25-0.29-2.19-0.86-2.82
					c-0.57-0.62-1.54-0.93-2.89-0.93c-1.12,0-2.04,0.33-2.78,1c-0.74,0.67-1.16,1.56-1.28,2.69v11.65h-3.02V45.04
					c0-2.55-1.25-3.83-3.75-3.83c-1.97,0-3.32,0.84-4.04,2.52v12.82h-3V38.98H606.58z"/>
				<path class="st1" d="M647.72,47.96c0,2.67-0.61,4.83-1.83,6.46c-1.22,1.63-2.88,2.45-4.97,2.45c-2.13,0-3.81-0.68-5.03-2.03
					v8.46h-3V38.98h2.74l0.15,1.95c1.22-1.51,2.92-2.27,5.1-2.27c2.11,0,3.78,0.8,5.01,2.39c1.23,1.59,1.84,3.8,1.84,6.64V47.96z
					 M644.72,47.62c0-1.98-0.42-3.54-1.27-4.69c-0.84-1.15-2-1.72-3.47-1.72c-1.82,0-3.18,0.81-4.09,2.42v8.39
					c0.9,1.6,2.27,2.4,4.12,2.4c1.44,0,2.58-0.57,3.43-1.71S644.72,49.87,644.72,47.62z"/>
				<path class="st1" d="M651.56,34.32c0-0.49,0.15-0.9,0.45-1.23c0.3-0.34,0.74-0.5,1.32-0.5c0.58,0,1.03,0.17,1.33,0.5
					s0.46,0.75,0.46,1.23c0,0.49-0.15,0.89-0.46,1.22c-0.3,0.32-0.75,0.49-1.33,0.49c-0.58,0-1.03-0.16-1.32-0.49
					C651.7,35.21,651.56,34.81,651.56,34.32z M654.8,56.54h-3V38.98h3V56.54z"/>
				<path class="st1" d="M668.1,41.67c-0.45-0.08-0.95-0.11-1.48-0.11c-1.97,0-3.31,0.84-4.01,2.52v12.47h-3V38.98h2.92l0.05,2.03
					c0.98-1.57,2.38-2.35,4.19-2.35c0.58,0,1.03,0.08,1.33,0.23V41.67z"/>
				<path class="st1" d="M678.14,56.87c-2.38,0-4.32-0.78-5.81-2.35c-1.49-1.56-2.24-3.65-2.24-6.27V47.7c0-1.74,0.33-3.3,1-4.67
					c0.67-1.37,1.6-2.44,2.79-3.21c1.2-0.77,2.49-1.16,3.89-1.16c2.28,0,4.06,0.75,5.32,2.26c1.27,1.5,1.9,3.66,1.9,6.46v1.25h-11.9
					c0.04,1.73,0.55,3.13,1.52,4.2c0.97,1.07,2.2,1.6,3.69,1.6c1.06,0,1.96-0.22,2.69-0.65c0.74-0.43,1.38-1.01,1.93-1.72l1.83,1.43
					C683.29,55.74,681.09,56.87,678.14,56.87z M677.77,41.12c-1.21,0-2.23,0.44-3.05,1.32c-0.82,0.88-1.33,2.12-1.53,3.71h8.8v-0.23
					c-0.09-1.53-0.5-2.71-1.23-3.55C680.02,41.54,679.03,41.12,677.77,41.12z"/>
				<path class="st1" d="M707.54,56.54c-0.17-0.35-0.31-0.96-0.42-1.85c-1.4,1.45-3.06,2.18-5,2.18c-1.73,0-3.15-0.49-4.26-1.47
					c-1.11-0.98-1.66-2.22-1.66-3.73c0-1.83,0.7-3.25,2.09-4.26c1.39-1.01,3.35-1.52,5.87-1.52h2.92v-1.38
					c0-1.05-0.31-1.89-0.94-2.51s-1.55-0.93-2.78-0.93c-1.07,0-1.97,0.27-2.69,0.81c-0.73,0.54-1.09,1.2-1.09,1.96h-3.02
					c0-0.88,0.31-1.72,0.93-2.54c0.62-0.82,1.47-1.46,2.53-1.94s2.24-0.71,3.51-0.71c2.02,0,3.61,0.51,4.76,1.52
					c1.15,1.01,1.74,2.41,1.79,4.18v8.08c0,1.61,0.21,2.89,0.62,3.85v0.26H707.54z M702.56,54.25c0.94,0,1.83-0.24,2.68-0.73
					c0.84-0.49,1.46-1.12,1.83-1.9v-3.6h-2.35c-3.68,0-5.52,1.08-5.52,3.23c0,0.94,0.31,1.68,0.94,2.21
					C700.76,53.99,701.57,54.25,702.56,54.25z"/>
				<path class="st1" d="M717.62,38.98l0.1,2.21c1.34-1.69,3.09-2.53,5.26-2.53c3.71,0,5.58,2.09,5.62,6.28v11.61h-3V44.92
					c-0.01-1.27-0.3-2.2-0.87-2.81c-0.57-0.61-1.45-0.91-2.65-0.91c-0.97,0-1.83,0.26-2.56,0.78c-0.74,0.52-1.31,1.2-1.72,2.05
					v12.51h-3V38.98H717.62z"/>
				<path class="st1" d="M732.39,47.62c0-2.69,0.64-4.86,1.92-6.5c1.28-1.64,2.95-2.46,5.02-2.46c2.06,0,3.69,0.7,4.89,2.11v-9.15h3
					v24.93h-2.76l-0.15-1.88c-1.2,1.47-2.87,2.21-5.02,2.21c-2.03,0-3.69-0.83-4.97-2.5c-1.28-1.67-1.92-3.84-1.92-6.52V47.62z
					 M735.39,47.96c0,1.99,0.41,3.55,1.23,4.67c0.82,1.13,1.96,1.69,3.41,1.69c1.9,0,3.29-0.85,4.17-2.56v-8.07
					c-0.9-1.66-2.28-2.48-4.14-2.48c-1.47,0-2.62,0.57-3.44,1.7S735.39,45.73,735.39,47.96z"/>
				<path class="st1" d="M764.17,34.73v4.25h3.28v2.32h-3.28v10.91c0,0.7,0.15,1.23,0.44,1.58s0.79,0.53,1.49,0.53
					c0.35,0,0.82-0.06,1.43-0.19v2.42c-0.79,0.22-1.56,0.32-2.31,0.32c-1.34,0-2.35-0.41-3.04-1.22c-0.68-0.81-1.02-1.96-1.02-3.46
					V41.3h-3.2v-2.32h3.2v-4.25H764.17z"/>
				<path class="st1" d="M773.96,41.11c1.33-1.63,3.06-2.45,5.19-2.45c3.71,0,5.58,2.09,5.62,6.28v11.61h-3V44.92
					c-0.01-1.27-0.3-2.2-0.87-2.81c-0.57-0.61-1.45-0.91-2.65-0.91c-0.97,0-1.83,0.26-2.56,0.78c-0.74,0.52-1.31,1.2-1.72,2.05
					v12.51h-3V31.61h3V41.11z"/>
				<path class="st1" d="M796.56,56.87c-2.38,0-4.32-0.78-5.81-2.35c-1.49-1.56-2.24-3.65-2.24-6.27V47.7c0-1.74,0.33-3.3,1-4.67
					c0.67-1.37,1.6-2.44,2.79-3.21c1.2-0.77,2.49-1.16,3.89-1.16c2.28,0,4.06,0.75,5.32,2.26c1.27,1.5,1.9,3.66,1.9,6.46v1.25h-11.9
					c0.04,1.73,0.55,3.13,1.52,4.2c0.97,1.07,2.2,1.6,3.69,1.6c1.06,0,1.96-0.22,2.69-0.65c0.74-0.43,1.38-1.01,1.93-1.72l1.83,1.43
					C801.71,55.74,799.5,56.87,796.56,56.87z M796.18,41.12c-1.21,0-2.23,0.44-3.05,1.32c-0.82,0.88-1.33,2.12-1.53,3.71h8.8v-0.23
					c-0.09-1.53-0.5-2.71-1.23-3.55C798.43,41.54,797.44,41.12,796.18,41.12z"/>
				<path class="st1" d="M815.37,41.67c-0.45-0.08-0.95-0.11-1.48-0.11c-1.97,0-3.31,0.84-4.01,2.52v12.47h-3V38.98h2.92l0.05,2.03
					c0.98-1.57,2.38-2.35,4.19-2.35c0.58,0,1.03,0.08,1.33,0.23V41.67z"/>
				<path class="st1" d="M825.42,56.87c-2.38,0-4.32-0.78-5.81-2.35c-1.49-1.56-2.24-3.65-2.24-6.27V47.7c0-1.74,0.33-3.3,1-4.67
					c0.67-1.37,1.6-2.44,2.79-3.21c1.2-0.77,2.49-1.16,3.89-1.16c2.28,0,4.06,0.75,5.32,2.26c1.27,1.5,1.9,3.66,1.9,6.46v1.25h-11.9
					c0.04,1.73,0.55,3.13,1.52,4.2c0.97,1.07,2.2,1.6,3.69,1.6c1.06,0,1.96-0.22,2.69-0.65c0.74-0.43,1.38-1.01,1.93-1.72l1.83,1.43
					C830.57,55.74,828.36,56.87,825.42,56.87z M825.04,41.12c-1.21,0-2.23,0.44-3.05,1.32c-0.82,0.88-1.33,2.12-1.53,3.71h8.8v-0.23
					c-0.09-1.53-0.5-2.71-1.23-3.55C827.29,41.54,826.3,41.12,825.04,41.12z"/>
				<path class="st1" d="M859.52,52.4l3.38-13.42h3l-5.11,17.56h-2.43l-4.27-13.31l-4.16,13.31h-2.43l-5.1-17.56h2.99l3.46,13.15
					l4.09-13.15h2.42L859.52,52.4z"/>
				<path class="st1" d="M876.24,56.87c-2.38,0-4.32-0.78-5.81-2.35c-1.49-1.56-2.24-3.65-2.24-6.27V47.7c0-1.74,0.33-3.3,1-4.67
					c0.67-1.37,1.6-2.44,2.79-3.21c1.2-0.77,2.49-1.16,3.89-1.16c2.28,0,4.06,0.75,5.32,2.26c1.27,1.5,1.9,3.66,1.9,6.46v1.25h-11.9
					c0.04,1.73,0.55,3.13,1.52,4.2c0.97,1.07,2.2,1.6,3.69,1.6c1.06,0,1.96-0.22,2.69-0.65c0.74-0.43,1.38-1.01,1.93-1.72l1.83,1.43
					C881.39,55.74,879.18,56.87,876.24,56.87z M875.87,41.12c-1.21,0-2.23,0.44-3.05,1.32c-0.82,0.88-1.33,2.12-1.53,3.71h8.8v-0.23
					c-0.09-1.53-0.5-2.71-1.23-3.55C878.12,41.54,877.12,41.12,875.87,41.12z"/>
				<path class="st1" d="M895.05,41.67c-0.45-0.08-0.95-0.11-1.48-0.11c-1.97,0-3.31,0.84-4.01,2.52v12.47h-3V38.98h2.92l0.05,2.03
					c0.98-1.57,2.38-2.35,4.19-2.35c0.58,0,1.03,0.08,1.33,0.23V41.67z"/>
				<path class="st1" d="M905.1,56.87c-2.38,0-4.32-0.78-5.81-2.35c-1.49-1.56-2.24-3.65-2.24-6.27V47.7c0-1.74,0.33-3.3,1-4.67
					c0.67-1.37,1.6-2.44,2.79-3.21c1.2-0.77,2.49-1.16,3.89-1.16c2.28,0,4.06,0.75,5.32,2.26c1.27,1.5,1.9,3.66,1.9,6.46v1.25h-11.9
					c0.04,1.73,0.55,3.13,1.52,4.2c0.97,1.07,2.2,1.6,3.69,1.6c1.06,0,1.96-0.22,2.69-0.65c0.74-0.43,1.38-1.01,1.93-1.72l1.83,1.43
					C910.25,55.74,908.04,56.87,905.1,56.87z M904.73,41.12c-1.21,0-2.23,0.44-3.05,1.32c-0.82,0.88-1.33,2.12-1.53,3.71h8.8v-0.23
					c-0.09-1.53-0.5-2.71-1.23-3.55C906.98,41.54,905.98,41.12,904.73,41.12z"/>
				<path class="st1" d="M922.86,47.6c0-1.72,0.34-3.27,1.01-4.64c0.68-1.37,1.62-2.44,2.83-3.18c1.21-0.75,2.58-1.12,4.13-1.12
					c2.39,0,4.33,0.83,5.8,2.48c1.48,1.66,2.22,3.86,2.22,6.61v0.21c0,1.71-0.33,3.24-0.98,4.6s-1.59,2.42-2.81,3.17
					c-1.22,0.76-2.62,1.14-4.2,1.14c-2.38,0-4.31-0.83-5.79-2.48c-1.48-1.66-2.21-3.85-2.21-6.57V47.6z M925.88,47.96
					c0,1.95,0.45,3.51,1.36,4.69c0.9,1.18,2.11,1.77,3.63,1.77c1.53,0,2.74-0.6,3.64-1.79s1.35-2.87,1.35-5.02
					c0-1.93-0.46-3.49-1.37-4.68c-0.91-1.2-2.13-1.79-3.64-1.79c-1.48,0-2.68,0.59-3.59,1.77
					C926.33,44.07,925.88,45.76,925.88,47.96z"/>
				<path class="st1" d="M948.41,52.47l4.35-13.49h3.07l-6.3,17.56h-2.29l-6.36-17.56h3.07L948.41,52.47z"/>
				<path class="st1" d="M966,56.87c-2.38,0-4.32-0.78-5.81-2.35c-1.49-1.56-2.24-3.65-2.24-6.27V47.7c0-1.74,0.33-3.3,1-4.67
					c0.67-1.37,1.6-2.44,2.79-3.21c1.2-0.77,2.49-1.16,3.89-1.16c2.28,0,4.06,0.75,5.32,2.26c1.27,1.5,1.9,3.66,1.9,6.46v1.25h-11.9
					c0.04,1.73,0.55,3.13,1.52,4.2c0.97,1.07,2.2,1.6,3.69,1.6c1.06,0,1.96-0.22,2.69-0.65c0.74-0.43,1.38-1.01,1.93-1.72l1.83,1.43
					C971.15,55.74,968.94,56.87,966,56.87z M965.63,41.12c-1.21,0-2.23,0.44-3.05,1.32c-0.82,0.88-1.33,2.12-1.53,3.71h8.8v-0.23
					c-0.09-1.53-0.5-2.71-1.23-3.55C967.88,41.54,966.88,41.12,965.63,41.12z"/>
				<path class="st1" d="M984.81,41.67c-0.45-0.08-0.95-0.11-1.48-0.11c-1.97,0-3.31,0.84-4.01,2.52v12.47h-3V38.98h2.92l0.05,2.03
					c0.98-1.57,2.38-2.35,4.19-2.35c0.58,0,1.03,0.08,1.33,0.23V41.67z"/>
				<path class="st1" d="M33.68,99.03h3.28v2.45h-3.28v5.49h-3.02v-5.49H19.9v-1.77l10.58-16.38h3.2V99.03z M23.31,99.03h7.35V87.44
					l-0.36,0.65L23.31,99.03z"/>
				<path class="st1" d="M54.56,96.89c0,3.52-0.6,6.13-1.8,7.84c-1.2,1.71-3.08,2.56-5.63,2.56c-2.52,0-4.39-0.84-5.6-2.51
					s-1.84-4.17-1.88-7.49v-4.01c0-3.47,0.6-6.05,1.8-7.74s3.08-2.53,5.65-2.53c2.54,0,4.42,0.81,5.62,2.44
					c1.2,1.63,1.82,4.14,1.85,7.54V96.89z M51.56,92.78c0-2.54-0.36-4.4-1.07-5.56c-0.71-1.16-1.84-1.75-3.39-1.75
					c-1.54,0-2.66,0.58-3.36,1.74c-0.7,1.16-1.07,2.94-1.09,5.34v4.8c0,2.55,0.37,4.44,1.11,5.66c0.74,1.22,1.86,1.83,3.37,1.83
					c1.48,0,2.58-0.57,3.3-1.72c0.72-1.15,1.1-2.95,1.13-5.42V92.78z"/>
				<path class="st1" d="M73.26,96.89c0,3.52-0.6,6.13-1.8,7.84c-1.2,1.71-3.08,2.56-5.63,2.56c-2.52,0-4.39-0.84-5.6-2.51
					s-1.84-4.17-1.88-7.49v-4.01c0-3.47,0.6-6.05,1.8-7.74s3.08-2.53,5.65-2.53c2.54,0,4.42,0.81,5.62,2.44
					c1.2,1.63,1.82,4.14,1.85,7.54V96.89z M70.25,92.78c0-2.54-0.36-4.4-1.07-5.56c-0.71-1.16-1.84-1.75-3.39-1.75
					c-1.54,0-2.66,0.58-3.36,1.74c-0.7,1.16-1.07,2.94-1.09,5.34v4.8c0,2.55,0.37,4.44,1.11,5.66c0.74,1.22,1.86,1.83,3.37,1.83
					c1.48,0,2.58-0.57,3.3-1.72c0.72-1.15,1.1-2.95,1.13-5.42V92.78z"/>
				<path class="st1" d="M77.35,111.68l-1.7-1.17c1.02-1.42,1.55-2.88,1.59-4.38v-2.71h2.94v2.35c0,1.09-0.27,2.19-0.8,3.28
					C78.83,110.14,78.16,111.02,77.35,111.68z"/>
				<path class="st1" d="M98.48,96.89c0,3.52-0.6,6.13-1.8,7.84c-1.2,1.71-3.08,2.56-5.63,2.56c-2.52,0-4.39-0.84-5.6-2.51
					s-1.84-4.17-1.88-7.49v-4.01c0-3.47,0.6-6.05,1.8-7.74s3.08-2.53,5.65-2.53c2.54,0,4.42,0.81,5.62,2.44
					c1.2,1.63,1.82,4.14,1.85,7.54V96.89z M95.48,92.78c0-2.54-0.36-4.4-1.07-5.56c-0.71-1.16-1.84-1.75-3.39-1.75
					c-1.54,0-2.66,0.58-3.36,1.74c-0.7,1.16-1.07,2.94-1.09,5.34v4.8c0,2.55,0.37,4.44,1.11,5.66c0.74,1.22,1.86,1.83,3.37,1.83
					c1.48,0,2.58-0.57,3.3-1.72c0.72-1.15,1.1-2.95,1.13-5.42V92.78z"/>
				<path class="st1" d="M117.18,96.89c0,3.52-0.6,6.13-1.8,7.84c-1.2,1.71-3.08,2.56-5.63,2.56c-2.52,0-4.39-0.84-5.6-2.51
					s-1.84-4.17-1.88-7.49v-4.01c0-3.47,0.6-6.05,1.8-7.74s3.08-2.53,5.65-2.53c2.54,0,4.42,0.81,5.62,2.44
					c1.2,1.63,1.82,4.14,1.85,7.54V96.89z M114.18,92.78c0-2.54-0.36-4.4-1.07-5.56c-0.71-1.16-1.84-1.75-3.39-1.75
					c-1.54,0-2.66,0.58-3.36,1.74c-0.7,1.16-1.07,2.94-1.09,5.34v4.8c0,2.55,0.37,4.44,1.11,5.66c0.74,1.22,1.86,1.83,3.37,1.83
					c1.48,0,2.58-0.57,3.3-1.72c0.72-1.15,1.1-2.95,1.13-5.42V92.78z"/>
				<path class="st1" d="M135.88,96.89c0,3.52-0.6,6.13-1.8,7.84c-1.2,1.71-3.08,2.56-5.63,2.56c-2.52,0-4.39-0.84-5.6-2.51
					s-1.84-4.17-1.88-7.49v-4.01c0-3.47,0.6-6.05,1.8-7.74s3.08-2.53,5.65-2.53c2.54,0,4.42,0.81,5.62,2.44
					c1.2,1.63,1.82,4.14,1.85,7.54V96.89z M132.88,92.78c0-2.54-0.36-4.4-1.07-5.56c-0.71-1.16-1.84-1.75-3.39-1.75
					c-1.54,0-2.66,0.58-3.36,1.74c-0.7,1.16-1.07,2.94-1.09,5.34v4.8c0,2.55,0.37,4.44,1.11,5.66c0.74,1.22,1.86,1.83,3.37,1.83
					c1.48,0,2.58-0.57,3.3-1.72c0.72-1.15,1.1-2.95,1.13-5.42V92.78z"/>
				<path class="st1" d="M153.24,98.84l-1.88,1.96v6.17h-3V82.04h3v15.08l1.61-1.93l5.47-5.78h3.65l-6.83,7.34l7.63,10.23h-3.52
					L153.24,98.84z"/>
				<path class="st1" d="M168.01,89.41l0.08,1.95c1.29-1.51,3.02-2.27,5.21-2.27c2.46,0,4.13,0.94,5.02,2.82
					c0.58-0.84,1.34-1.53,2.28-2.04s2.04-0.78,3.32-0.78c3.85,0,5.81,2.04,5.88,6.12v11.77h-3V95.38c0-1.25-0.29-2.19-0.86-2.82
					c-0.57-0.62-1.54-0.93-2.89-0.93c-1.11,0-2.04,0.33-2.78,1c-0.74,0.67-1.16,1.56-1.28,2.69v11.65h-3.02V95.46
					c0-2.55-1.25-3.83-3.75-3.83c-1.97,0-3.32,0.84-4.04,2.52v12.82h-3V89.41H168.01z"/>
				<path class="st1" d="M201.75,98.03c0-1.72,0.34-3.27,1.01-4.64c0.68-1.37,1.62-2.44,2.82-3.18s2.58-1.12,4.13-1.12
					c2.39,0,4.33,0.83,5.8,2.48c1.48,1.66,2.22,3.86,2.22,6.61v0.21c0,1.71-0.33,3.24-0.98,4.6s-1.59,2.42-2.81,3.17
					c-1.22,0.76-2.62,1.14-4.2,1.14c-2.38,0-4.31-0.83-5.79-2.48c-1.48-1.66-2.22-3.85-2.22-6.57V98.03z M204.77,98.38
					c0,1.95,0.45,3.51,1.36,4.69c0.9,1.18,2.11,1.77,3.63,1.77c1.53,0,2.74-0.6,3.64-1.79c0.9-1.2,1.35-2.87,1.35-5.02
					c0-1.93-0.46-3.49-1.37-4.68c-0.92-1.2-2.13-1.79-3.64-1.79c-1.48,0-2.68,0.59-3.59,1.77C205.23,94.5,204.77,96.19,204.77,98.38
					z"/>
				<path class="st1" d="M222.99,106.97V91.73h-2.78v-2.32h2.78v-1.8c0-1.88,0.5-3.34,1.51-4.37c1.01-1.03,2.43-1.54,4.27-1.54
					c0.69,0,1.38,0.09,2.06,0.27l-0.16,2.42c-0.51-0.1-1.05-0.15-1.62-0.15c-0.97,0-1.73,0.29-2.26,0.85s-0.8,1.39-0.8,2.45v1.86
					h3.75v2.32h-3.75v15.24H222.99z"/>
				<path class="st1" d="M250.42,97.41h-5.55v9.56h-3.13V83.34h7.82c2.66,0,4.71,0.61,6.14,1.82c1.43,1.21,2.15,2.98,2.15,5.29
					c0,1.47-0.4,2.75-1.19,3.85c-0.8,1.09-1.9,1.91-3.32,2.45l5.55,10.03v0.19h-3.34L250.42,97.41z M244.87,94.86h4.79
					c1.55,0,2.78-0.4,3.69-1.2c0.91-0.8,1.37-1.88,1.37-3.22c0-1.46-0.44-2.59-1.31-3.37c-0.87-0.78-2.13-1.18-3.77-1.19h-4.77
					V94.86z"/>
				<path class="st1" d="M260.95,98.03c0-1.72,0.34-3.27,1.01-4.64c0.68-1.37,1.62-2.44,2.82-3.18s2.58-1.12,4.13-1.12
					c2.39,0,4.33,0.83,5.8,2.48c1.48,1.66,2.22,3.86,2.22,6.61v0.21c0,1.71-0.33,3.24-0.98,4.6s-1.59,2.42-2.81,3.17
					c-1.22,0.76-2.62,1.14-4.2,1.14c-2.38,0-4.31-0.83-5.79-2.48c-1.48-1.66-2.22-3.85-2.22-6.57V98.03z M263.97,98.38
					c0,1.95,0.45,3.51,1.36,4.69c0.9,1.18,2.11,1.77,3.63,1.77c1.53,0,2.74-0.6,3.64-1.79c0.9-1.2,1.35-2.87,1.35-5.02
					c0-1.93-0.46-3.49-1.37-4.68c-0.92-1.2-2.13-1.79-3.64-1.79c-1.48,0-2.68,0.59-3.59,1.77C264.43,94.5,263.97,96.19,263.97,98.38
					z"/>
				<path class="st1" d="M283.53,89.41l0.08,1.95c1.29-1.51,3.02-2.27,5.21-2.27c2.46,0,4.13,0.94,5.02,2.82
					c0.58-0.84,1.34-1.53,2.28-2.04s2.04-0.78,3.32-0.78c3.85,0,5.81,2.04,5.88,6.12v11.77h-3V95.38c0-1.25-0.29-2.19-0.86-2.82
					c-0.57-0.62-1.54-0.93-2.89-0.93c-1.11,0-2.04,0.33-2.78,1c-0.74,0.67-1.16,1.56-1.28,2.69v11.65h-3.02V95.46
					c0-2.55-1.25-3.83-3.75-3.83c-1.97,0-3.32,0.84-4.04,2.52v12.82h-3V89.41H283.53z"/>
				<path class="st1" d="M320.69,106.97c-0.17-0.35-0.31-0.96-0.42-1.85c-1.4,1.45-3.06,2.18-5,2.18c-1.73,0-3.15-0.49-4.26-1.47
					c-1.11-0.98-1.66-2.22-1.66-3.73c0-1.83,0.7-3.25,2.09-4.26s3.35-1.52,5.87-1.52h2.92v-1.38c0-1.05-0.31-1.89-0.94-2.51
					s-1.55-0.93-2.78-0.93c-1.07,0-1.97,0.27-2.69,0.81s-1.09,1.2-1.09,1.96h-3.02c0-0.88,0.31-1.72,0.93-2.54
					c0.62-0.82,1.47-1.46,2.53-1.94s2.24-0.71,3.51-0.71c2.02,0,3.61,0.51,4.76,1.52c1.15,1.01,1.74,2.41,1.79,4.18v8.08
					c0,1.61,0.21,2.89,0.62,3.85v0.26H320.69z M315.7,104.68c0.94,0,1.83-0.24,2.68-0.73c0.84-0.49,1.46-1.12,1.83-1.9v-3.6h-2.35
					c-3.68,0-5.52,1.08-5.52,3.23c0,0.94,0.31,1.68,0.94,2.21C313.91,104.42,314.72,104.68,315.7,104.68z"/>
				<path class="st1" d="M330.77,89.41l0.1,2.21c1.34-1.69,3.09-2.53,5.26-2.53c3.71,0,5.58,2.09,5.62,6.28v11.61h-3V95.35
					c-0.01-1.27-0.3-2.2-0.87-2.81c-0.57-0.61-1.45-0.91-2.65-0.91c-0.97,0-1.83,0.26-2.56,0.78c-0.74,0.52-1.31,1.2-1.72,2.05
					v12.51h-3V89.41H330.77z"/>
				<path class="st1" d="M363.64,97.41h-5.55v9.56h-3.13V83.34h7.82c2.66,0,4.71,0.61,6.14,1.82c1.43,1.21,2.15,2.98,2.15,5.29
					c0,1.47-0.4,2.75-1.19,3.85c-0.8,1.09-1.9,1.91-3.32,2.45l5.55,10.03v0.19h-3.34L363.64,97.41z M358.08,94.86h4.79
					c1.55,0,2.78-0.4,3.69-1.2c0.91-0.8,1.37-1.88,1.37-3.22c0-1.46-0.44-2.59-1.31-3.37c-0.87-0.78-2.13-1.18-3.77-1.19h-4.77
					V94.86z"/>
				<path class="st1" d="M374.17,98.03c0-1.72,0.34-3.27,1.01-4.64c0.68-1.37,1.62-2.44,2.82-3.18s2.58-1.12,4.13-1.12
					c2.39,0,4.33,0.83,5.8,2.48c1.48,1.66,2.22,3.86,2.22,6.61v0.21c0,1.71-0.33,3.24-0.98,4.6s-1.59,2.42-2.81,3.17
					c-1.22,0.76-2.62,1.14-4.2,1.14c-2.38,0-4.31-0.83-5.79-2.48c-1.48-1.66-2.22-3.85-2.22-6.57V98.03z M377.19,98.38
					c0,1.95,0.45,3.51,1.36,4.69c0.9,1.18,2.11,1.77,3.63,1.77c1.53,0,2.74-0.6,3.64-1.79c0.9-1.2,1.35-2.87,1.35-5.02
					c0-1.93-0.46-3.49-1.37-4.68c-0.92-1.2-2.13-1.79-3.64-1.79c-1.48,0-2.68,0.59-3.59,1.77C377.64,94.5,377.19,96.19,377.19,98.38
					z"/>
				<path class="st1" d="M404.77,106.97c-0.17-0.35-0.31-0.96-0.42-1.85c-1.4,1.45-3.06,2.18-5,2.18c-1.73,0-3.15-0.49-4.26-1.47
					c-1.11-0.98-1.66-2.22-1.66-3.73c0-1.83,0.7-3.25,2.09-4.26s3.35-1.52,5.87-1.52h2.92v-1.38c0-1.05-0.31-1.89-0.94-2.51
					s-1.55-0.93-2.78-0.93c-1.07,0-1.97,0.27-2.69,0.81s-1.09,1.2-1.09,1.96h-3.02c0-0.88,0.31-1.72,0.93-2.54
					c0.62-0.82,1.47-1.46,2.53-1.94s2.24-0.71,3.51-0.71c2.02,0,3.61,0.51,4.76,1.52c1.15,1.01,1.74,2.41,1.79,4.18v8.08
					c0,1.61,0.21,2.89,0.62,3.85v0.26H404.77z M399.78,104.68c0.94,0,1.83-0.24,2.68-0.73c0.84-0.49,1.46-1.12,1.83-1.9v-3.6h-2.35
					c-3.68,0-5.52,1.08-5.52,3.23c0,0.94,0.31,1.68,0.94,2.21C397.99,104.42,398.8,104.68,399.78,104.68z"/>
				<path class="st1" d="M411.28,98.04c0-2.69,0.64-4.86,1.92-6.5c1.28-1.64,2.95-2.46,5.02-2.46c2.06,0,3.68,0.7,4.89,2.11v-9.15h3
					v24.93h-2.76l-0.15-1.88c-1.2,1.47-2.87,2.21-5.02,2.21c-2.03,0-3.69-0.83-4.98-2.5c-1.28-1.67-1.92-3.84-1.92-6.52V98.04z
					 M414.28,98.38c0,1.99,0.41,3.55,1.23,4.67c0.82,1.13,1.96,1.69,3.41,1.69c1.9,0,3.29-0.85,4.17-2.56v-8.07
					c-0.9-1.66-2.28-2.48-4.14-2.48c-1.47,0-2.62,0.57-3.44,1.7C414.69,94.47,414.28,96.15,414.28,98.38z"/>
				<path class="st1" d="M440.98,102.31c0-0.81-0.31-1.44-0.92-1.89c-0.61-0.45-1.68-0.84-3.2-1.16c-1.52-0.32-2.73-0.71-3.62-1.17
					c-0.89-0.45-1.55-1-1.98-1.62c-0.43-0.63-0.64-1.37-0.64-2.24c0-1.44,0.61-2.66,1.83-3.65c1.22-1,2.77-1.49,4.67-1.49
					c1.99,0,3.61,0.51,4.85,1.54c1.24,1.03,1.86,2.34,1.86,3.94h-3.02c0-0.82-0.35-1.53-1.05-2.13c-0.7-0.59-1.58-0.89-2.64-0.89
					c-1.09,0-1.95,0.24-2.56,0.71s-0.93,1.1-0.93,1.87c0,0.73,0.29,1.27,0.86,1.64c0.57,0.37,1.61,0.72,3.11,1.06
					c1.5,0.34,2.71,0.74,3.64,1.2s1.62,1.03,2.07,1.68c0.45,0.65,0.67,1.45,0.67,2.39c0,1.57-0.63,2.83-1.88,3.77
					c-1.26,0.95-2.88,1.42-4.89,1.42c-1.41,0-2.65-0.25-3.73-0.75c-1.08-0.5-1.93-1.19-2.54-2.09s-0.92-1.86-0.92-2.9h3
					c0.05,1.01,0.46,1.8,1.21,2.39c0.75,0.59,1.74,0.88,2.98,0.88c1.14,0,2.05-0.23,2.73-0.69
					C440.64,103.69,440.98,103.08,440.98,102.31z"/>
				<path class="st1" d="M463.2,104.84c1.07,0,2.01-0.32,2.81-0.97c0.8-0.65,1.24-1.46,1.33-2.44h2.84
					c-0.05,1.01-0.4,1.96-1.04,2.87c-0.64,0.91-1.49,1.63-2.56,2.18c-1.07,0.54-2.19,0.81-3.38,0.81c-2.39,0-4.29-0.8-5.71-2.39
					c-1.41-1.6-2.12-3.78-2.12-6.55v-0.5c0-1.71,0.31-3.23,0.94-4.56c0.63-1.33,1.53-2.36,2.7-3.1c1.17-0.74,2.56-1.1,4.16-1.1
					c1.97,0,3.61,0.59,4.91,1.77c1.3,1.18,2,2.71,2.09,4.59h-2.84c-0.09-1.14-0.52-2.07-1.29-2.8c-0.77-0.73-1.73-1.1-2.87-1.1
					c-1.53,0-2.71,0.55-3.55,1.65c-0.84,1.1-1.26,2.69-1.26,4.76v0.57c0,2.02,0.42,3.58,1.25,4.67
					C460.47,104.3,461.66,104.84,463.2,104.84z"/>
				<path class="st1" d="M472.76,98.03c0-1.72,0.34-3.27,1.01-4.64c0.68-1.37,1.62-2.44,2.82-3.18s2.58-1.12,4.13-1.12
					c2.39,0,4.33,0.83,5.8,2.48c1.48,1.66,2.22,3.86,2.22,6.61v0.21c0,1.71-0.33,3.24-0.98,4.6s-1.59,2.42-2.81,3.17
					c-1.22,0.76-2.62,1.14-4.2,1.14c-2.38,0-4.31-0.83-5.79-2.48c-1.48-1.66-2.22-3.85-2.22-6.57V98.03z M475.78,98.38
					c0,1.95,0.45,3.51,1.36,4.69c0.9,1.18,2.11,1.77,3.63,1.77c1.53,0,2.74-0.6,3.64-1.79c0.9-1.2,1.35-2.87,1.35-5.02
					c0-1.93-0.46-3.49-1.37-4.68c-0.92-1.2-2.13-1.79-3.64-1.79c-1.48,0-2.68,0.59-3.59,1.77C476.24,94.5,475.78,96.19,475.78,98.38
					z"/>
				<path class="st1" d="M495.29,89.41l0.1,2.21c1.34-1.69,3.09-2.53,5.26-2.53c3.71,0,5.58,2.09,5.62,6.28v11.61h-3V95.35
					c-0.01-1.27-0.3-2.2-0.87-2.81c-0.57-0.61-1.45-0.91-2.65-0.91c-0.97,0-1.83,0.26-2.56,0.78c-0.74,0.52-1.31,1.2-1.72,2.05
					v12.51h-3V89.41H495.29z"/>
				<path class="st1" d="M513.57,89.41l0.1,2.21c1.34-1.69,3.09-2.53,5.26-2.53c3.71,0,5.58,2.09,5.62,6.28v11.61h-3V95.35
					c-0.01-1.27-0.3-2.2-0.87-2.81c-0.57-0.61-1.45-0.91-2.65-0.91c-0.97,0-1.83,0.26-2.56,0.78c-0.74,0.52-1.31,1.2-1.72,2.05
					v12.51h-3V89.41H513.57z"/>
				<path class="st1" d="M536.29,107.29c-2.38,0-4.32-0.78-5.81-2.35c-1.49-1.56-2.24-3.65-2.24-6.27v-0.55c0-1.74,0.33-3.3,1-4.67
					c0.67-1.37,1.6-2.44,2.79-3.21c1.2-0.77,2.49-1.16,3.89-1.16c2.28,0,4.06,0.75,5.32,2.26c1.27,1.5,1.9,3.66,1.9,6.46v1.25h-11.9
					c0.04,1.73,0.55,3.13,1.52,4.2c0.97,1.07,2.2,1.6,3.69,1.6c1.06,0,1.96-0.22,2.69-0.65c0.74-0.43,1.38-1.01,1.93-1.72l1.83,1.43
					C541.44,106.16,539.23,107.29,536.29,107.29z M535.92,91.55c-1.21,0-2.23,0.44-3.05,1.32c-0.82,0.88-1.33,2.12-1.53,3.71h8.8
					v-0.23c-0.09-1.53-0.5-2.71-1.23-3.55C538.17,91.97,537.17,91.55,535.92,91.55z"/>
				<path class="st1" d="M553.66,104.84c1.07,0,2.01-0.32,2.81-0.97c0.8-0.65,1.24-1.46,1.33-2.44h2.84
					c-0.05,1.01-0.4,1.96-1.04,2.87c-0.64,0.91-1.49,1.63-2.56,2.18c-1.07,0.54-2.19,0.81-3.38,0.81c-2.39,0-4.29-0.8-5.71-2.39
					s-2.12-3.78-2.12-6.55v-0.5c0-1.71,0.31-3.23,0.94-4.56s1.53-2.36,2.7-3.1c1.17-0.74,2.56-1.1,4.16-1.1
					c1.97,0,3.61,0.59,4.91,1.77c1.3,1.18,2,2.71,2.09,4.59h-2.84c-0.09-1.14-0.52-2.07-1.29-2.8c-0.77-0.73-1.73-1.1-2.87-1.1
					c-1.53,0-2.71,0.55-3.55,1.65c-0.84,1.1-1.26,2.69-1.26,4.76v0.57c0,2.02,0.42,3.58,1.25,4.67
					C550.92,104.3,552.11,104.84,553.66,104.84z"/>
				<path class="st1" d="M568.09,85.15v4.25h3.28v2.32h-3.28v10.91c0,0.7,0.15,1.23,0.44,1.58s0.79,0.53,1.49,0.53
					c0.35,0,0.82-0.06,1.43-0.19v2.42c-0.79,0.22-1.56,0.32-2.31,0.32c-1.34,0-2.35-0.41-3.04-1.22c-0.68-0.81-1.02-1.96-1.02-3.46
					V91.73h-3.2v-2.32h3.2v-4.25H568.09z"/>
				<path class="st1" d="M574.89,84.75c0-0.49,0.15-0.9,0.45-1.23c0.3-0.34,0.74-0.5,1.32-0.5c0.58,0,1.03,0.17,1.33,0.5
					s0.46,0.75,0.46,1.23c0,0.49-0.15,0.89-0.46,1.22c-0.3,0.32-0.75,0.49-1.33,0.49c-0.58,0-1.03-0.16-1.32-0.49
					C575.04,85.64,574.89,85.23,574.89,84.75z M578.14,106.97h-3V89.41h3V106.97z"/>
				<path class="st1" d="M585.75,89.41l0.1,2.21c1.34-1.69,3.09-2.53,5.26-2.53c3.71,0,5.58,2.09,5.62,6.28v11.61h-3V95.35
					c-0.01-1.27-0.3-2.2-0.87-2.81c-0.57-0.61-1.45-0.91-2.65-0.91c-0.97,0-1.83,0.26-2.56,0.78c-0.74,0.52-1.31,1.2-1.72,2.05
					v12.51h-3V89.41H585.75z"/>
				<path class="st1" d="M600.47,98.04c0-2.74,0.63-4.92,1.9-6.53c1.27-1.62,2.94-2.43,5.03-2.43c2.14,0,3.81,0.76,5.02,2.27
					l0.15-1.95h2.74v17.14c0,2.27-0.67,4.06-2.02,5.37c-1.35,1.31-3.16,1.96-5.43,1.96c-1.27,0-2.5-0.27-3.72-0.81
					s-2.14-1.28-2.78-2.22l1.56-1.8c1.29,1.59,2.86,2.39,4.72,2.39c1.46,0,2.6-0.41,3.42-1.23s1.23-1.98,1.23-3.47v-1.51
					c-1.2,1.39-2.84,2.08-4.92,2.08c-2.06,0-3.72-0.83-4.99-2.48C601.11,103.15,600.47,100.9,600.47,98.04z M603.49,98.38
					c0,1.98,0.41,3.54,1.22,4.67s1.95,1.7,3.41,1.7c1.89,0,3.28-0.86,4.17-2.58v-8.02c-0.92-1.68-2.3-2.52-4.14-2.52
					c-1.46,0-2.6,0.57-3.42,1.7C603.9,94.47,603.49,96.15,603.49,98.38z"/>
				<path class="st1" d="M632.07,85.15v4.25h3.28v2.32h-3.28v10.91c0,0.7,0.15,1.23,0.44,1.58s0.79,0.53,1.49,0.53
					c0.35,0,0.82-0.06,1.43-0.19v2.42c-0.79,0.22-1.56,0.32-2.31,0.32c-1.34,0-2.35-0.41-3.04-1.22c-0.68-0.81-1.02-1.96-1.02-3.46
					V91.73h-3.2v-2.32h3.2v-4.25H632.07z"/>
				<path class="st1" d="M641.86,91.53c1.33-1.63,3.06-2.45,5.19-2.45c3.71,0,5.58,2.09,5.62,6.28v11.61h-3V95.35
					c-0.01-1.27-0.3-2.2-0.87-2.81c-0.57-0.61-1.45-0.91-2.65-0.91c-0.97,0-1.83,0.26-2.56,0.78c-0.74,0.52-1.31,1.2-1.72,2.05
					v12.51h-3V82.04h3V91.53z"/>
				<path class="st1" d="M664.46,107.29c-2.38,0-4.32-0.78-5.81-2.35c-1.49-1.56-2.24-3.65-2.24-6.27v-0.55c0-1.74,0.33-3.3,1-4.67
					c0.67-1.37,1.6-2.44,2.79-3.21c1.2-0.77,2.49-1.16,3.89-1.16c2.28,0,4.06,0.75,5.32,2.26c1.27,1.5,1.9,3.66,1.9,6.46v1.25h-11.9
					c0.04,1.73,0.55,3.13,1.52,4.2c0.97,1.07,2.2,1.6,3.69,1.6c1.06,0,1.96-0.22,2.69-0.65c0.74-0.43,1.38-1.01,1.93-1.72l1.83,1.43
					C669.61,106.16,667.4,107.29,664.46,107.29z M664.08,91.55c-1.21,0-2.23,0.44-3.05,1.32c-0.82,0.88-1.33,2.12-1.53,3.71h8.8
					v-0.23c-0.09-1.53-0.5-2.71-1.23-3.55C666.33,91.97,665.34,91.55,664.08,91.55z"/>
				<path class="st1" d="M697.84,98.38c0,2.67-0.61,4.83-1.83,6.46c-1.22,1.63-2.88,2.45-4.97,2.45c-2.13,0-3.81-0.68-5.03-2.03
					v8.46h-3V89.41h2.74l0.15,1.95c1.22-1.51,2.92-2.27,5.1-2.27c2.11,0,3.78,0.8,5.01,2.39c1.23,1.59,1.84,3.8,1.84,6.64V98.38z
					 M694.84,98.04c0-1.98-0.42-3.54-1.27-4.69c-0.84-1.15-2-1.72-3.47-1.72c-1.82,0-3.18,0.81-4.09,2.42v8.39
					c0.9,1.6,2.27,2.4,4.12,2.4c1.44,0,2.58-0.57,3.43-1.71S694.84,100.29,694.84,98.04z"/>
				<path class="st1" d="M710.15,92.1c-0.45-0.08-0.95-0.11-1.48-0.11c-1.97,0-3.31,0.84-4.01,2.52v12.47h-3V89.41h2.92l0.05,2.03
					c0.98-1.57,2.38-2.35,4.19-2.35c0.58,0,1.03,0.08,1.33,0.23V92.1z"/>
				<path class="st1" d="M712.11,98.03c0-1.72,0.34-3.27,1.01-4.64c0.68-1.37,1.62-2.44,2.83-3.18c1.21-0.75,2.58-1.12,4.13-1.12
					c2.39,0,4.33,0.83,5.8,2.48c1.48,1.66,2.22,3.86,2.22,6.61v0.21c0,1.71-0.33,3.24-0.98,4.6s-1.59,2.42-2.81,3.17
					c-1.22,0.76-2.62,1.14-4.2,1.14c-2.38,0-4.31-0.83-5.79-2.48c-1.48-1.66-2.21-3.85-2.21-6.57V98.03z M715.13,98.38
					c0,1.95,0.45,3.51,1.36,4.69c0.9,1.18,2.11,1.77,3.63,1.77c1.53,0,2.74-0.6,3.64-1.79s1.35-2.87,1.35-5.02
					c0-1.93-0.46-3.49-1.37-4.68c-0.91-1.2-2.13-1.79-3.64-1.79c-1.48,0-2.68,0.59-3.59,1.77C715.59,94.5,715.13,96.19,715.13,98.38
					z"/>
				<path class="st1" d="M737.66,102.9l4.35-13.49h3.07l-6.3,17.56h-2.29l-6.36-17.56h3.07L737.66,102.9z"/>
				<path class="st1" d="M747.98,84.75c0-0.49,0.15-0.9,0.45-1.23c0.3-0.34,0.74-0.5,1.32-0.5c0.58,0,1.03,0.17,1.33,0.5
					s0.46,0.75,0.46,1.23c0,0.49-0.15,0.89-0.46,1.22c-0.3,0.32-0.75,0.49-1.33,0.49c-0.58,0-1.03-0.16-1.32-0.49
					C748.13,85.64,747.98,85.23,747.98,84.75z M751.23,106.97h-3V89.41h3V106.97z"/>
				<path class="st1" d="M758.88,89.41l0.1,2.21c1.34-1.69,3.09-2.53,5.26-2.53c3.71,0,5.58,2.09,5.62,6.28v11.61h-3V95.35
					c-0.01-1.27-0.3-2.2-0.87-2.81c-0.57-0.61-1.45-0.91-2.65-0.91c-0.97,0-1.83,0.26-2.56,0.78c-0.74,0.52-1.31,1.2-1.72,2.05
					v12.51h-3V89.41H758.88z"/>
				<path class="st1" d="M781.42,104.84c1.07,0,2.01-0.32,2.81-0.97c0.8-0.65,1.24-1.46,1.33-2.44h2.84
					c-0.05,1.01-0.4,1.96-1.04,2.87c-0.64,0.91-1.49,1.63-2.56,2.18c-1.07,0.54-2.19,0.81-3.38,0.81c-2.39,0-4.29-0.8-5.71-2.39
					s-2.12-3.78-2.12-6.55v-0.5c0-1.71,0.31-3.23,0.94-4.56s1.53-2.36,2.7-3.1c1.17-0.74,2.56-1.1,4.16-1.1
					c1.97,0,3.61,0.59,4.91,1.77c1.3,1.18,2,2.71,2.09,4.59h-2.84c-0.09-1.14-0.52-2.07-1.29-2.8c-0.77-0.73-1.73-1.1-2.87-1.1
					c-1.53,0-2.71,0.55-3.55,1.65c-0.84,1.1-1.26,2.69-1.26,4.76v0.57c0,2.02,0.42,3.58,1.25,4.67
					C778.68,104.3,779.88,104.84,781.42,104.84z"/>
				<path class="st1" d="M799.07,107.29c-2.38,0-4.32-0.78-5.81-2.35c-1.49-1.56-2.24-3.65-2.24-6.27v-0.55c0-1.74,0.33-3.3,1-4.67
					c0.67-1.37,1.6-2.44,2.79-3.21c1.2-0.77,2.49-1.16,3.89-1.16c2.28,0,4.06,0.75,5.32,2.26c1.27,1.5,1.9,3.66,1.9,6.46v1.25h-11.9
					c0.04,1.73,0.55,3.13,1.52,4.2c0.97,1.07,2.2,1.6,3.69,1.6c1.06,0,1.96-0.22,2.69-0.65c0.74-0.43,1.38-1.01,1.93-1.72l1.83,1.43
					C804.22,106.16,802.01,107.29,799.07,107.29z M798.69,91.55c-1.21,0-2.23,0.44-3.05,1.32c-0.82,0.88-1.33,2.12-1.53,3.71h8.8
					v-0.23c-0.09-1.53-0.5-2.71-1.23-3.55C800.94,91.97,799.95,91.55,798.69,91.55z"/>
				<path class="st1" d="M819.62,102.31c0-0.81-0.31-1.44-0.92-1.89c-0.61-0.45-1.68-0.84-3.2-1.16c-1.52-0.32-2.73-0.71-3.62-1.17
					c-0.89-0.45-1.55-1-1.98-1.62c-0.43-0.63-0.64-1.37-0.64-2.24c0-1.44,0.61-2.66,1.83-3.65c1.22-1,2.77-1.49,4.67-1.49
					c1.99,0,3.61,0.51,4.84,1.54c1.24,1.03,1.86,2.34,1.86,3.94h-3.02c0-0.82-0.35-1.53-1.05-2.13c-0.7-0.59-1.58-0.89-2.64-0.89
					c-1.09,0-1.95,0.24-2.57,0.71c-0.62,0.48-0.92,1.1-0.92,1.87c0,0.73,0.29,1.27,0.86,1.64c0.57,0.37,1.61,0.72,3.11,1.06
					s2.71,0.74,3.64,1.2c0.93,0.47,1.62,1.03,2.07,1.68c0.45,0.65,0.67,1.45,0.67,2.39c0,1.57-0.63,2.83-1.88,3.77
					c-1.25,0.95-2.88,1.42-4.89,1.42c-1.41,0-2.65-0.25-3.73-0.75s-1.93-1.19-2.54-2.09s-0.92-1.86-0.92-2.9h3
					c0.05,1.01,0.46,1.8,1.21,2.39c0.75,0.59,1.75,0.88,2.98,0.88c1.14,0,2.05-0.23,2.74-0.69
					C819.27,103.69,819.62,103.08,819.62,102.31z"/>
				<path class="st1" d="M838.83,85.15v4.25h3.28v2.32h-3.28v10.91c0,0.7,0.15,1.23,0.44,1.58s0.79,0.53,1.49,0.53
					c0.35,0,0.82-0.06,1.43-0.19v2.42c-0.79,0.22-1.56,0.32-2.31,0.32c-1.34,0-2.35-0.41-3.04-1.22c-0.68-0.81-1.02-1.96-1.02-3.46
					V91.73h-3.2v-2.32h3.2v-4.25H838.83z"/>
				<path class="st1" d="M844.83,98.03c0-1.72,0.34-3.27,1.01-4.64c0.68-1.37,1.62-2.44,2.83-3.18c1.21-0.75,2.58-1.12,4.13-1.12
					c2.39,0,4.33,0.83,5.8,2.48c1.48,1.66,2.22,3.86,2.22,6.61v0.21c0,1.71-0.33,3.24-0.98,4.6s-1.59,2.42-2.81,3.17
					c-1.22,0.76-2.62,1.14-4.2,1.14c-2.38,0-4.31-0.83-5.79-2.48c-1.48-1.66-2.21-3.85-2.21-6.57V98.03z M847.84,98.38
					c0,1.95,0.45,3.51,1.36,4.69c0.9,1.18,2.11,1.77,3.63,1.77c1.53,0,2.74-0.6,3.64-1.79s1.35-2.87,1.35-5.02
					c0-1.93-0.46-3.49-1.37-4.68c-0.91-1.2-2.13-1.79-3.64-1.79c-1.48,0-2.68,0.59-3.59,1.77C848.3,94.5,847.84,96.19,847.84,98.38z
					"/>
				<path class="st1" d="M881.95,97.41h-5.55v9.56h-3.13V83.34h7.82c2.66,0,4.71,0.61,6.14,1.82c1.43,1.21,2.15,2.98,2.15,5.29
					c0,1.47-0.4,2.75-1.19,3.85c-0.8,1.09-1.9,1.91-3.32,2.45l5.55,10.03v0.19h-3.34L881.95,97.41z M876.4,94.86h4.79
					c1.55,0,2.78-0.4,3.69-1.2c0.91-0.8,1.37-1.88,1.37-3.22c0-1.46-0.44-2.59-1.31-3.37c-0.87-0.78-2.13-1.18-3.77-1.19h-4.77
					V94.86z"/>
				<path class="st1" d="M892.48,98.03c0-1.72,0.34-3.27,1.01-4.64c0.68-1.37,1.62-2.44,2.83-3.18c1.21-0.75,2.58-1.12,4.13-1.12
					c2.39,0,4.33,0.83,5.8,2.48c1.48,1.66,2.22,3.86,2.22,6.61v0.21c0,1.71-0.33,3.24-0.98,4.6s-1.59,2.42-2.81,3.17
					c-1.22,0.76-2.62,1.14-4.2,1.14c-2.38,0-4.31-0.83-5.79-2.48c-1.48-1.66-2.21-3.85-2.21-6.57V98.03z M895.5,98.38
					c0,1.95,0.45,3.51,1.36,4.69c0.9,1.18,2.11,1.77,3.63,1.77c1.53,0,2.74-0.6,3.64-1.79s1.35-2.87,1.35-5.02
					c0-1.93-0.46-3.49-1.37-4.68c-0.91-1.2-2.13-1.79-3.64-1.79c-1.48,0-2.68,0.59-3.59,1.77C895.96,94.5,895.5,96.19,895.5,98.38z"
					/>
				<path class="st1" d="M915.06,89.41l0.08,1.95c1.29-1.51,3.02-2.27,5.21-2.27c2.46,0,4.13,0.94,5.02,2.82
					c0.58-0.84,1.34-1.53,2.28-2.04s2.04-0.78,3.32-0.78c3.85,0,5.81,2.04,5.88,6.12v11.77h-3V95.38c0-1.25-0.29-2.19-0.86-2.82
					c-0.57-0.62-1.54-0.93-2.89-0.93c-1.12,0-2.04,0.33-2.78,1c-0.74,0.67-1.16,1.56-1.28,2.69v11.65h-3.02V95.46
					c0-2.55-1.25-3.83-3.75-3.83c-1.97,0-3.32,0.84-4.04,2.52v12.82h-3V89.41H915.06z"/>
				<path class="st1" d="M948.66,107.29c-2.38,0-4.32-0.78-5.81-2.35c-1.49-1.56-2.24-3.65-2.24-6.27v-0.55c0-1.74,0.33-3.3,1-4.67
					c0.67-1.37,1.6-2.44,2.79-3.21c1.2-0.77,2.49-1.16,3.89-1.16c2.28,0,4.06,0.75,5.32,2.26c1.27,1.5,1.9,3.66,1.9,6.46v1.25h-11.9
					c0.04,1.73,0.55,3.13,1.52,4.2c0.97,1.07,2.2,1.6,3.69,1.6c1.06,0,1.96-0.22,2.69-0.65c0.74-0.43,1.38-1.01,1.93-1.72l1.83,1.43
					C953.81,106.16,951.6,107.29,948.66,107.29z M948.29,91.55c-1.21,0-2.23,0.44-3.05,1.32c-0.82,0.88-1.33,2.12-1.53,3.71h8.8
					v-0.23c-0.09-1.53-0.5-2.71-1.23-3.55C950.54,91.97,949.54,91.55,948.29,91.55z"/>
				<path class="st1" d="M959.05,105.39c0-0.52,0.15-0.95,0.46-1.3c0.31-0.35,0.77-0.52,1.39-0.52c0.62,0,1.08,0.17,1.4,0.52
					c0.32,0.35,0.48,0.78,0.48,1.3c0,0.5-0.16,0.91-0.48,1.25s-0.79,0.5-1.4,0.5c-0.62,0-1.08-0.17-1.39-0.5
					S959.05,105.89,959.05,105.39z"/>
				<path class="st1" d="M34.83,151.21h-9.9l-2.22,6.18H19.5l9.02-23.63h2.73l9.04,23.63h-3.2L34.83,151.21z M25.87,148.66h8.04
					l-4.03-11.05L25.87,148.66z"/>
				<path class="st1" d="M53.84,155.66c-1.17,1.37-2.88,2.06-5.15,2.06c-1.87,0-3.3-0.54-4.28-1.63c-0.98-1.09-1.47-2.7-1.49-4.83
					v-11.43h3v11.35c0,2.66,1.08,3.99,3.25,3.99c2.29,0,3.82-0.85,4.58-2.56v-12.77h3v17.56h-2.86L53.84,155.66z"/>
				<path class="st1" d="M60.61,148.47c0-2.74,0.63-4.92,1.9-6.53s2.94-2.43,5.03-2.43c2.14,0,3.81,0.76,5.02,2.27l0.15-1.95h2.74
					v17.14c0,2.27-0.67,4.06-2.02,5.37c-1.35,1.31-3.16,1.96-5.43,1.96c-1.27,0-2.51-0.27-3.72-0.81s-2.14-1.28-2.78-2.22l1.56-1.8
					c1.29,1.59,2.86,2.39,4.72,2.39c1.46,0,2.6-0.41,3.42-1.23s1.23-1.98,1.23-3.47v-1.51c-1.2,1.39-2.84,2.08-4.92,2.08
					c-2.06,0-3.72-0.83-4.99-2.48C61.25,153.58,60.61,151.32,60.61,148.47z M63.63,148.81c0,1.98,0.41,3.54,1.22,4.67
					s1.95,1.7,3.41,1.7c1.89,0,3.28-0.86,4.17-2.58v-8.02c-0.92-1.68-2.3-2.52-4.14-2.52c-1.46,0-2.6,0.57-3.42,1.7
					S63.63,146.58,63.63,148.81z"/>
				<path class="st1" d="M90.82,155.66c-1.17,1.37-2.88,2.06-5.15,2.06c-1.87,0-3.3-0.54-4.28-1.63c-0.98-1.09-1.47-2.7-1.49-4.83
					v-11.43h3v11.35c0,2.66,1.08,3.99,3.25,3.99c2.29,0,3.82-0.85,4.58-2.56v-12.77h3v17.56h-2.86L90.82,155.66z"/>
				<path class="st1" d="M108.53,152.74c0-0.81-0.31-1.44-0.92-1.89c-0.61-0.45-1.68-0.84-3.2-1.16c-1.52-0.32-2.73-0.71-3.62-1.17
					c-0.89-0.45-1.55-1-1.98-1.62c-0.43-0.63-0.64-1.37-0.64-2.24c0-1.44,0.61-2.66,1.83-3.65c1.22-1,2.77-1.49,4.67-1.49
					c1.99,0,3.61,0.51,4.85,1.54c1.24,1.03,1.86,2.34,1.86,3.94h-3.02c0-0.82-0.35-1.53-1.05-2.13c-0.7-0.59-1.58-0.89-2.64-0.89
					c-1.09,0-1.95,0.24-2.56,0.71s-0.93,1.1-0.93,1.87c0,0.73,0.29,1.27,0.86,1.64c0.57,0.37,1.61,0.72,3.11,1.06
					c1.5,0.34,2.71,0.74,3.64,1.2s1.62,1.03,2.07,1.68c0.45,0.65,0.67,1.45,0.67,2.39c0,1.57-0.63,2.83-1.88,3.77
					c-1.26,0.95-2.88,1.42-4.89,1.42c-1.41,0-2.65-0.25-3.73-0.75c-1.08-0.5-1.93-1.19-2.54-2.09s-0.92-1.86-0.92-2.9h3
					c0.05,1.01,0.46,1.8,1.21,2.39c0.75,0.59,1.74,0.88,2.98,0.88c1.14,0,2.05-0.23,2.73-0.69
					C108.18,154.12,108.53,153.5,108.53,152.74z"/>
				<path class="st1" d="M119.52,135.58v4.25h3.28v2.32h-3.28v10.91c0,0.7,0.15,1.23,0.44,1.58c0.29,0.35,0.79,0.53,1.49,0.53
					c0.35,0,0.82-0.06,1.43-0.19v2.42c-0.79,0.22-1.56,0.32-2.3,0.32c-1.34,0-2.35-0.41-3.04-1.22c-0.68-0.81-1.02-1.96-1.02-3.46
					v-10.89h-3.2v-2.32h3.2v-4.25H119.52z"/>
				<path class="st1" d="M137.14,155.66c-1.17,1.37-2.88,2.06-5.15,2.06c-1.87,0-3.3-0.54-4.28-1.63c-0.98-1.09-1.47-2.7-1.49-4.83
					v-11.43h3v11.35c0,2.66,1.08,3.99,3.25,3.99c2.29,0,3.82-0.85,4.58-2.56v-12.77h3v17.56h-2.86L137.14,155.66z"/>
				<path class="st1" d="M154.85,152.74c0-0.81-0.31-1.44-0.92-1.89c-0.61-0.45-1.68-0.84-3.2-1.16c-1.52-0.32-2.73-0.71-3.62-1.17
					c-0.89-0.45-1.55-1-1.98-1.62c-0.43-0.63-0.64-1.37-0.64-2.24c0-1.44,0.61-2.66,1.83-3.65c1.22-1,2.77-1.49,4.67-1.49
					c1.99,0,3.61,0.51,4.85,1.54c1.24,1.03,1.86,2.34,1.86,3.94h-3.02c0-0.82-0.35-1.53-1.05-2.13c-0.7-0.59-1.58-0.89-2.64-0.89
					c-1.09,0-1.95,0.24-2.56,0.71s-0.93,1.1-0.93,1.87c0,0.73,0.29,1.27,0.86,1.64c0.57,0.37,1.61,0.72,3.11,1.06
					c1.5,0.34,2.71,0.74,3.64,1.2s1.62,1.03,2.07,1.68c0.45,0.65,0.67,1.45,0.67,2.39c0,1.57-0.63,2.83-1.88,3.77
					c-1.26,0.95-2.88,1.42-4.89,1.42c-1.41,0-2.65-0.25-3.73-0.75c-1.08-0.5-1.93-1.19-2.54-2.09s-0.92-1.86-0.92-2.9h3
					c0.05,1.01,0.46,1.8,1.21,2.39c0.75,0.59,1.74,0.88,2.98,0.88c1.14,0,2.05-0.23,2.73-0.69
					C154.51,154.12,154.85,153.5,154.85,152.74z"/>
				<path class="st1" d="M184.87,148.81c0,2.68-0.62,4.84-1.85,6.47c-1.23,1.63-2.89,2.44-4.97,2.44c-2.22,0-3.93-0.78-5.15-2.35
					l-0.15,2.03H170v-24.93h3v9.3c1.21-1.5,2.88-2.26,5.02-2.26s3.81,0.81,5.02,2.42c1.22,1.61,1.83,3.82,1.83,6.62V148.81z
					 M181.86,148.47c0-2.04-0.4-3.63-1.19-4.74c-0.79-1.11-1.93-1.67-3.41-1.67c-1.98,0-3.4,0.92-4.27,2.76v7.6
					c0.92,1.84,2.35,2.76,4.3,2.76c1.44,0,2.56-0.56,3.36-1.67C181.46,152.38,181.86,150.71,181.86,148.47z"/>
				<path class="st1" d="M195.94,157.72c-2.38,0-4.32-0.78-5.81-2.35c-1.49-1.56-2.24-3.65-2.24-6.27v-0.55c0-1.74,0.33-3.3,1-4.67
					c0.67-1.37,1.6-2.44,2.79-3.21c1.2-0.77,2.49-1.16,3.89-1.16c2.28,0,4.06,0.75,5.32,2.26c1.27,1.5,1.9,3.66,1.9,6.46v1.25h-11.9
					c0.04,1.73,0.55,3.13,1.52,4.2c0.97,1.07,2.2,1.6,3.69,1.6c1.06,0,1.96-0.22,2.69-0.65c0.74-0.43,1.38-1.01,1.93-1.72l1.83,1.43
					C201.09,156.59,198.88,157.72,195.94,157.72z M195.56,141.97c-1.21,0-2.23,0.44-3.05,1.32c-0.82,0.88-1.33,2.12-1.53,3.71h8.8
					v-0.23c-0.09-1.53-0.5-2.71-1.23-3.55C197.81,142.39,196.82,141.97,195.56,141.97z"/>
				<path class="st1" d="M213.31,155.27c1.07,0,2.01-0.32,2.81-0.97c0.8-0.65,1.24-1.46,1.33-2.44h2.84
					c-0.05,1.01-0.4,1.96-1.04,2.87c-0.64,0.91-1.49,1.63-2.56,2.18c-1.07,0.54-2.19,0.81-3.38,0.81c-2.39,0-4.29-0.8-5.71-2.39
					c-1.41-1.6-2.12-3.78-2.12-6.55v-0.5c0-1.71,0.31-3.23,0.94-4.56c0.63-1.33,1.53-2.36,2.7-3.1c1.17-0.74,2.56-1.1,4.16-1.1
					c1.97,0,3.61,0.59,4.91,1.77c1.3,1.18,2,2.71,2.09,4.59h-2.84c-0.09-1.14-0.52-2.07-1.29-2.8c-0.77-0.73-1.73-1.1-2.87-1.1
					c-1.53,0-2.71,0.55-3.55,1.65c-0.84,1.1-1.26,2.69-1.26,4.76v0.57c0,2.02,0.42,3.58,1.25,4.67
					C210.57,154.72,211.76,155.27,213.31,155.27z"/>
				<path class="st1" d="M234.5,157.4c-0.17-0.35-0.31-0.96-0.42-1.85c-1.4,1.45-3.06,2.18-5,2.18c-1.73,0-3.15-0.49-4.26-1.47
					c-1.11-0.98-1.66-2.22-1.66-3.73c0-1.83,0.7-3.25,2.09-4.26s3.35-1.52,5.87-1.52h2.92v-1.38c0-1.05-0.31-1.89-0.94-2.51
					s-1.55-0.93-2.78-0.93c-1.07,0-1.97,0.27-2.69,0.81s-1.09,1.2-1.09,1.96h-3.02c0-0.88,0.31-1.72,0.93-2.54
					c0.62-0.82,1.47-1.46,2.53-1.94s2.24-0.71,3.51-0.71c2.02,0,3.61,0.51,4.76,1.52c1.15,1.01,1.74,2.41,1.79,4.18v8.08
					c0,1.61,0.21,2.89,0.62,3.85v0.26H234.5z M229.52,155.11c0.94,0,1.83-0.24,2.68-0.73c0.84-0.49,1.46-1.12,1.83-1.9v-3.6h-2.35
					c-3.68,0-5.52,1.08-5.52,3.23c0,0.94,0.31,1.68,0.94,2.21C227.73,154.84,228.54,155.11,229.52,155.11z"/>
				<path class="st1" d="M244.57,139.83l0.08,1.95c1.29-1.51,3.02-2.27,5.21-2.27c2.46,0,4.13,0.94,5.02,2.82
					c0.58-0.84,1.34-1.53,2.28-2.04s2.04-0.78,3.32-0.78c3.85,0,5.81,2.04,5.88,6.12v11.77h-3v-11.59c0-1.25-0.29-2.19-0.86-2.82
					c-0.57-0.62-1.54-0.93-2.89-0.93c-1.11,0-2.04,0.33-2.78,1c-0.74,0.67-1.16,1.56-1.28,2.69v11.65h-3.02v-11.51
					c0-2.55-1.25-3.83-3.75-3.83c-1.97,0-3.32,0.84-4.04,2.52v12.82h-3v-17.56H244.57z"/>
				<path class="st1" d="M278.17,157.72c-2.38,0-4.32-0.78-5.81-2.35c-1.49-1.56-2.24-3.65-2.24-6.27v-0.55c0-1.74,0.33-3.3,1-4.67
					c0.67-1.37,1.6-2.44,2.79-3.21c1.2-0.77,2.49-1.16,3.89-1.16c2.28,0,4.06,0.75,5.32,2.26c1.27,1.5,1.9,3.66,1.9,6.46v1.25h-11.9
					c0.04,1.73,0.55,3.13,1.52,4.2c0.97,1.07,2.2,1.6,3.69,1.6c1.06,0,1.96-0.22,2.69-0.65c0.74-0.43,1.38-1.01,1.93-1.72l1.83,1.43
					C283.32,156.59,281.11,157.72,278.17,157.72z M277.79,141.97c-1.21,0-2.23,0.44-3.05,1.32c-0.82,0.88-1.33,2.12-1.53,3.71h8.8
					v-0.23c-0.09-1.53-0.5-2.71-1.23-3.55C280.05,142.39,279.05,141.97,277.79,141.97z"/>
				<path class="st1" d="M300.8,135.58v4.25h3.28v2.32h-3.28v10.91c0,0.7,0.15,1.23,0.44,1.58c0.29,0.35,0.79,0.53,1.49,0.53
					c0.35,0,0.82-0.06,1.43-0.19v2.42c-0.79,0.22-1.56,0.32-2.3,0.32c-1.34,0-2.35-0.41-3.04-1.22c-0.68-0.81-1.02-1.96-1.02-3.46
					v-10.89h-3.2v-2.32h3.2v-4.25H300.8z"/>
				<path class="st1" d="M310.58,141.96c1.33-1.63,3.06-2.45,5.19-2.45c3.71,0,5.58,2.09,5.62,6.28v11.61h-3v-11.62
					c-0.01-1.27-0.3-2.2-0.87-2.81c-0.57-0.61-1.45-0.91-2.65-0.91c-0.97,0-1.83,0.26-2.56,0.78c-0.74,0.52-1.31,1.2-1.72,2.05
					v12.51h-3v-24.93h3V141.96z"/>
				<path class="st1" d="M333.18,157.72c-2.38,0-4.32-0.78-5.81-2.35c-1.49-1.56-2.24-3.65-2.24-6.27v-0.55c0-1.74,0.33-3.3,1-4.67
					c0.67-1.37,1.6-2.44,2.79-3.21c1.2-0.77,2.49-1.16,3.89-1.16c2.28,0,4.06,0.75,5.32,2.26c1.27,1.5,1.9,3.66,1.9,6.46v1.25h-11.9
					c0.04,1.73,0.55,3.13,1.52,4.2c0.97,1.07,2.2,1.6,3.69,1.6c1.06,0,1.96-0.22,2.69-0.65c0.74-0.43,1.38-1.01,1.93-1.72l1.83,1.43
					C338.33,156.59,336.12,157.72,333.18,157.72z M332.81,141.97c-1.21,0-2.23,0.44-3.05,1.32c-0.82,0.88-1.33,2.12-1.53,3.71h8.8
					v-0.23c-0.09-1.53-0.5-2.71-1.23-3.55C335.06,142.39,334.06,141.97,332.81,141.97z"/>
				<path class="st1" d="M353.21,157.4v-15.24h-2.78v-2.32h2.78v-1.8c0-1.88,0.5-3.34,1.51-4.37c1.01-1.03,2.43-1.54,4.27-1.54
					c0.69,0,1.38,0.09,2.06,0.27l-0.16,2.42c-0.51-0.1-1.05-0.15-1.62-0.15c-0.97,0-1.73,0.29-2.26,0.85s-0.8,1.39-0.8,2.45v1.86
					h3.75v2.32h-3.75v15.24H353.21z"/>
				<path class="st1" d="M363.29,135.17c0-0.49,0.15-0.9,0.45-1.23c0.3-0.34,0.74-0.5,1.32-0.5s1.03,0.17,1.33,0.5
					c0.3,0.34,0.45,0.75,0.45,1.23c0,0.49-0.15,0.89-0.45,1.22c-0.3,0.32-0.75,0.49-1.33,0.49s-1.03-0.16-1.32-0.49
					C363.44,136.07,363.29,135.66,363.29,135.17z M366.54,157.4h-3v-17.56h3V157.4z"/>
				<path class="st1" d="M379.83,142.53c-0.45-0.08-0.95-0.11-1.48-0.11c-1.97,0-3.31,0.84-4.01,2.52v12.47h-3v-17.56h2.92
					l0.05,2.03c0.98-1.57,2.38-2.35,4.19-2.35c0.58,0,1.03,0.08,1.33,0.23V142.53z"/>
				<path class="st1" d="M392.81,152.74c0-0.81-0.31-1.44-0.92-1.89c-0.61-0.45-1.68-0.84-3.2-1.16c-1.52-0.32-2.73-0.71-3.62-1.17
					c-0.89-0.45-1.55-1-1.98-1.62c-0.43-0.63-0.64-1.37-0.64-2.24c0-1.44,0.61-2.66,1.83-3.65c1.22-1,2.77-1.49,4.67-1.49
					c1.99,0,3.61,0.51,4.85,1.54c1.24,1.03,1.86,2.34,1.86,3.94h-3.02c0-0.82-0.35-1.53-1.05-2.13c-0.7-0.59-1.58-0.89-2.64-0.89
					c-1.09,0-1.95,0.24-2.56,0.71s-0.93,1.1-0.93,1.87c0,0.73,0.29,1.27,0.86,1.64c0.57,0.37,1.61,0.72,3.11,1.06
					c1.5,0.34,2.71,0.74,3.64,1.2s1.62,1.03,2.07,1.68c0.45,0.65,0.67,1.45,0.67,2.39c0,1.57-0.63,2.83-1.88,3.77
					c-1.26,0.95-2.88,1.42-4.89,1.42c-1.41,0-2.65-0.25-3.73-0.75c-1.08-0.5-1.93-1.19-2.54-2.09s-0.92-1.86-0.92-2.9h3
					c0.05,1.01,0.46,1.8,1.21,2.39c0.75,0.59,1.74,0.88,2.98,0.88c1.14,0,2.05-0.23,2.73-0.69
					C392.47,154.12,392.81,153.5,392.81,152.74z"/>
				<path class="st1" d="M403.8,135.58v4.25h3.28v2.32h-3.28v10.91c0,0.7,0.15,1.23,0.44,1.58c0.29,0.35,0.79,0.53,1.49,0.53
					c0.35,0,0.82-0.06,1.43-0.19v2.42c-0.79,0.22-1.56,0.32-2.3,0.32c-1.34,0-2.35-0.41-3.04-1.22c-0.68-0.81-1.02-1.96-1.02-3.46
					v-10.89h-3.2v-2.32h3.2v-4.25H403.8z"/>
				<path class="st1" d="M427.96,147.83h-5.55v9.56h-3.13v-23.63h7.82c2.66,0,4.71,0.61,6.14,1.82c1.43,1.21,2.15,2.98,2.15,5.29
					c0,1.47-0.4,2.75-1.19,3.85c-0.8,1.09-1.9,1.91-3.32,2.45l5.55,10.03v0.19h-3.34L427.96,147.83z M422.41,145.29h4.79
					c1.55,0,2.78-0.4,3.69-1.2c0.91-0.8,1.37-1.88,1.37-3.22c0-1.46-0.44-2.59-1.31-3.37c-0.87-0.78-2.13-1.18-3.77-1.19h-4.77
					V145.29z"/>
				<path class="st1" d="M438.49,148.45c0-1.72,0.34-3.27,1.01-4.64c0.68-1.37,1.62-2.44,2.82-3.18s2.58-1.12,4.13-1.12
					c2.39,0,4.33,0.83,5.8,2.48c1.48,1.66,2.22,3.86,2.22,6.61v0.21c0,1.71-0.33,3.24-0.98,4.6s-1.59,2.42-2.81,3.17
					c-1.22,0.76-2.62,1.14-4.2,1.14c-2.38,0-4.31-0.83-5.79-2.48c-1.48-1.66-2.22-3.85-2.22-6.57V148.45z M441.51,148.81
					c0,1.95,0.45,3.51,1.36,4.69c0.9,1.18,2.11,1.77,3.63,1.77c1.53,0,2.74-0.6,3.64-1.79c0.9-1.2,1.35-2.87,1.35-5.02
					c0-1.93-0.46-3.49-1.37-4.68c-0.92-1.2-2.13-1.79-3.64-1.79c-1.48,0-2.68,0.59-3.59,1.77
					C441.96,144.92,441.51,146.61,441.51,148.81z"/>
				<path class="st1" d="M461.07,139.83l0.08,1.95c1.29-1.51,3.02-2.27,5.21-2.27c2.46,0,4.13,0.94,5.02,2.82
					c0.58-0.84,1.34-1.53,2.28-2.04s2.04-0.78,3.32-0.78c3.85,0,5.81,2.04,5.88,6.12v11.77h-3v-11.59c0-1.25-0.29-2.19-0.86-2.82
					c-0.57-0.62-1.54-0.93-2.89-0.93c-1.11,0-2.04,0.33-2.78,1c-0.74,0.67-1.16,1.56-1.28,2.69v11.65h-3.02v-11.51
					c0-2.55-1.25-3.83-3.75-3.83c-1.97,0-3.32,0.84-4.04,2.52v12.82h-3v-17.56H461.07z"/>
				<path class="st1" d="M498.22,157.4c-0.17-0.35-0.31-0.96-0.42-1.85c-1.4,1.45-3.06,2.18-5,2.18c-1.73,0-3.15-0.49-4.26-1.47
					c-1.11-0.98-1.66-2.22-1.66-3.73c0-1.83,0.7-3.25,2.09-4.26s3.35-1.52,5.87-1.52h2.92v-1.38c0-1.05-0.31-1.89-0.94-2.51
					s-1.55-0.93-2.78-0.93c-1.07,0-1.97,0.27-2.69,0.81s-1.09,1.2-1.09,1.96h-3.02c0-0.88,0.31-1.72,0.93-2.54
					c0.62-0.82,1.47-1.46,2.53-1.94s2.24-0.71,3.51-0.71c2.02,0,3.61,0.51,4.76,1.52c1.15,1.01,1.74,2.41,1.79,4.18v8.08
					c0,1.61,0.21,2.89,0.62,3.85v0.26H498.22z M493.24,155.11c0.94,0,1.83-0.24,2.68-0.73c0.84-0.49,1.46-1.12,1.83-1.9v-3.6h-2.35
					c-3.68,0-5.52,1.08-5.52,3.23c0,0.94,0.31,1.68,0.94,2.21C491.45,154.84,492.26,155.11,493.24,155.11z"/>
				<path class="st1" d="M508.3,139.83l0.1,2.21c1.34-1.69,3.09-2.53,5.26-2.53c3.71,0,5.58,2.09,5.62,6.28v11.61h-3v-11.62
					c-0.01-1.27-0.3-2.2-0.87-2.81c-0.57-0.61-1.45-0.91-2.65-0.91c-0.97,0-1.83,0.26-2.56,0.78c-0.74,0.52-1.31,1.2-1.72,2.05
					v12.51h-3v-17.56H508.3z"/>
				<path class="st1" d="M545.87,146.47h-10.24v8.38h11.9v2.55h-15.01v-23.63h14.85v2.55h-11.74v7.61h10.24V146.47z"/>
				<path class="st1" d="M553.75,139.83l0.08,1.95c1.29-1.51,3.02-2.27,5.21-2.27c2.46,0,4.13,0.94,5.02,2.82
					c0.58-0.84,1.34-1.53,2.28-2.04s2.04-0.78,3.32-0.78c3.85,0,5.81,2.04,5.88,6.12v11.77h-3v-11.59c0-1.25-0.29-2.19-0.86-2.82
					c-0.57-0.62-1.54-0.93-2.89-0.93c-1.12,0-2.04,0.33-2.78,1c-0.74,0.67-1.16,1.56-1.28,2.69v11.65h-3.02v-11.51
					c0-2.55-1.25-3.83-3.75-3.83c-1.97,0-3.32,0.84-4.04,2.52v12.82h-3v-17.56H553.75z"/>
				<path class="st1" d="M594.9,148.81c0,2.67-0.61,4.83-1.83,6.46c-1.22,1.63-2.88,2.45-4.97,2.45c-2.13,0-3.81-0.68-5.03-2.03
					v8.46h-3v-24.32h2.74l0.15,1.95c1.22-1.51,2.92-2.27,5.1-2.27c2.11,0,3.78,0.8,5.01,2.39c1.23,1.59,1.84,3.8,1.84,6.64V148.81z
					 M591.9,148.47c0-1.98-0.42-3.54-1.27-4.69c-0.84-1.15-2-1.72-3.47-1.72c-1.82,0-3.18,0.81-4.09,2.42v8.39
					c0.9,1.6,2.27,2.4,4.12,2.4c1.44,0,2.58-0.57,3.43-1.71S591.9,150.72,591.9,148.47z"/>
				<path class="st1" d="M606,157.72c-2.38,0-4.32-0.78-5.81-2.35c-1.49-1.56-2.24-3.65-2.24-6.27v-0.55c0-1.74,0.33-3.3,1-4.67
					c0.67-1.37,1.6-2.44,2.79-3.21c1.2-0.77,2.49-1.16,3.89-1.16c2.28,0,4.06,0.75,5.32,2.26c1.27,1.5,1.9,3.66,1.9,6.46v1.25h-11.9
					c0.04,1.73,0.55,3.13,1.52,4.2c0.97,1.07,2.2,1.6,3.69,1.6c1.06,0,1.96-0.22,2.69-0.65c0.74-0.43,1.38-1.01,1.93-1.72l1.83,1.43
					C611.16,156.59,608.95,157.72,606,157.72z M605.63,141.97c-1.21,0-2.23,0.44-3.05,1.32c-0.82,0.88-1.33,2.12-1.53,3.71h8.8
					v-0.23c-0.09-1.53-0.5-2.71-1.23-3.55C607.88,142.39,606.89,141.97,605.63,141.97z"/>
				<path class="st1" d="M624.82,142.53c-0.45-0.08-0.95-0.11-1.48-0.11c-1.97,0-3.31,0.84-4.01,2.52v12.47h-3v-17.56h2.92
					l0.05,2.03c0.98-1.57,2.38-2.35,4.19-2.35c0.58,0,1.03,0.08,1.33,0.23V142.53z"/>
				<path class="st1" d="M626.78,148.45c0-1.72,0.34-3.27,1.01-4.64c0.68-1.37,1.62-2.44,2.83-3.18c1.21-0.75,2.58-1.12,4.13-1.12
					c2.39,0,4.33,0.83,5.8,2.48c1.48,1.66,2.22,3.86,2.22,6.61v0.21c0,1.71-0.33,3.24-0.98,4.6s-1.59,2.42-2.81,3.17
					c-1.22,0.76-2.62,1.14-4.2,1.14c-2.38,0-4.31-0.83-5.79-2.48c-1.48-1.66-2.21-3.85-2.21-6.57V148.45z M629.8,148.81
					c0,1.95,0.45,3.51,1.36,4.69c0.9,1.18,2.11,1.77,3.63,1.77c1.53,0,2.74-0.6,3.64-1.79s1.35-2.87,1.35-5.02
					c0-1.93-0.46-3.49-1.37-4.68c-0.91-1.2-2.13-1.79-3.64-1.79c-1.48,0-2.68,0.59-3.59,1.77
					C630.26,144.92,629.8,146.61,629.8,148.81z"/>
				<path class="st1" d="M655.03,142.53c-0.45-0.08-0.95-0.11-1.48-0.11c-1.97,0-3.31,0.84-4.01,2.52v12.47h-3v-17.56h2.92
					l0.05,2.03c0.98-1.57,2.38-2.35,4.19-2.35c0.58,0,1.03,0.08,1.33,0.23V142.53z"/>
				<path class="st1" d="M657.85,155.82c0-0.52,0.15-0.95,0.46-1.3c0.31-0.35,0.77-0.52,1.39-0.52c0.62,0,1.08,0.17,1.4,0.52
					c0.32,0.35,0.48,0.78,0.48,1.3c0,0.5-0.16,0.91-0.48,1.25s-0.79,0.5-1.4,0.5c-0.62,0-1.08-0.17-1.39-0.5
					S657.85,156.32,657.85,155.82z"/>
				<path class="st0" d="M672.22,141.58l-5.06-3.47c2.99-4.18,4.53-8.58,4.63-13.21v-6.94h8.82v6.27c-0.03,3.22-0.83,6.42-2.39,9.62
					C676.66,137.04,674.66,139.62,672.22,141.58z M687.02,141.58l-5.06-3.47c2.99-4.18,4.53-8.58,4.63-13.21v-6.94h8.83v6.27
					c-0.03,3.22-0.83,6.42-2.39,9.62C691.47,137.04,689.46,139.62,687.02,141.58z"/>
			</g>
		</g>
	</g>
</g>
</svg>
