<?xml version="1.0" encoding="utf-8"?>
<!-- Generator: Adobe Illustrator 23.0.1, SVG Export Plug-In . SVG Version: 6.00 Build 0)  -->
<svg version="1.1" id="Layer_1" xmlns="http://www.w3.org/2000/svg" xmlns:xlink="http://www.w3.org/1999/xlink" x="0px" y="0px"
	 viewBox="0 0 1000 180" style="enable-background:new 0 0 1000 180;" xml:space="preserve">
<style type="text/css">
	.st0{fill:#EA5926;}
	.st1{fill:#FFFFFF;}
	.st2{fill:#626365;}
</style>
<path class="st0" d="M149.07,58.7c0,1.88-1.88,3.57-3.94,3.57c-89.4,0-89.4,0-89.4,0c-2.07,0-3.76-1.69-3.76-3.57
	c0-27.23,0-27.23,0-27.23c0-2.07,1.69-3.76,3.76-3.76c89.4,0,89.4,0,89.4,0c2.07,0,3.94,1.69,3.94,3.76V58.7z"/>
<path class="st0" d="M691.66,58.7c0,1.88-1.88,3.57-3.94,3.57c-89.4,0-217.09,0-217.09,0c-2.07,0-3.76-1.69-3.76-3.57
	c0-27.23,0-27.23,0-27.23c0-2.07,1.69-3.76,3.76-3.76c89.4,0,217.09,0,217.09,0c2.07,0,3.94,1.69,3.94,3.76V58.7z"/>
<path class="st0" d="M454.88,110.19c0,1.88-1.88,3.57-3.94,3.57c-89.4,0-210.09,0-210.09,0c-2.07,0-3.76-1.69-3.76-3.57
	c0-27.23,0-27.23,0-27.23c0-2.07,1.69-3.76,3.76-3.76c89.4,0,210.09,0,210.09,0c2.07,0,3.94,1.69,3.94,3.76V110.19z"/>
<path class="st0" d="M198.85,110.19c0,1.88-1.88,3.57-3.94,3.57c-89.4,0-176.09,0-176.09,0c-2.07,0-3.76-1.69-3.76-3.57
	c0-27.23,0-27.23,0-27.23c0-2.07,1.69-3.76,3.76-3.76c89.4,0,176.09,0,176.09,0c2.07,0,3.94,1.69,3.94,3.76V110.19z"/>
<path class="st0" d="M966.29,108.38c0,1.88-1.88,3.57-3.94,3.57c-89.4,0-89.4,0-89.4,0c-2.07,0-3.76-1.69-3.76-3.57
	c0-27.23,0-27.23,0-27.23c0-2.07,1.69-3.76,3.76-3.76c89.4,0,89.4,0,89.4,0c2.07,0,3.94,1.69,3.94,3.76V108.38z"/>
<g>
	<g>
		<g>
			<g>
				<g>
					<g>
						<path class="st0" d="M30.45,11.19l5.11,3.47c-2.99,4.08-4.53,8.49-4.63,13.21v6.56h-8.87v-5.59c0-3.28,0.78-6.53,2.34-9.74
							C25.95,15.88,27.97,13.24,30.45,11.19z M45.64,11.19l5.11,3.47c-2.99,4.08-4.53,8.49-4.63,13.21v6.56h-8.87v-5.59
							c0-3.28,0.78-6.53,2.34-9.74C41.14,15.88,43.16,13.24,45.64,11.19z"/>
					</g>
				</g>
				<path class="st1" d="M69.09,46.98h-5.55v9.56H60.4V32.91h7.82c2.66,0,4.71,0.61,6.14,1.82c1.43,1.21,2.15,2.98,2.15,5.29
					c0,1.47-0.4,2.75-1.19,3.85c-0.8,1.09-1.9,1.91-3.32,2.45l5.55,10.03v0.19h-3.34L69.09,46.98z M63.53,44.43h4.79
					c1.55,0,2.78-0.4,3.69-1.2c0.91-0.8,1.37-1.88,1.37-3.22c0-1.46-0.44-2.59-1.31-3.37c-0.87-0.78-2.13-1.18-3.77-1.19h-4.77
					V44.43z"/>
				<path class="st1" d="M79.59,47.6c0-1.72,0.34-3.27,1.01-4.64c0.68-1.37,1.62-2.44,2.82-3.18s2.58-1.12,4.13-1.12
					c2.39,0,4.33,0.83,5.8,2.48c1.48,1.66,2.22,3.86,2.22,6.61v0.21c0,1.71-0.33,3.24-0.98,4.6s-1.59,2.42-2.81,3.17
					c-1.22,0.76-2.62,1.14-4.2,1.14c-2.38,0-4.31-0.83-5.79-2.48c-1.48-1.66-2.22-3.85-2.22-6.57V47.6z M82.61,47.96
					c0,1.95,0.45,3.51,1.36,4.69c0.9,1.18,2.11,1.77,3.63,1.77c1.53,0,2.74-0.6,3.64-1.79c0.9-1.2,1.35-2.87,1.35-5.02
					c0-1.93-0.46-3.49-1.37-4.68c-0.92-1.2-2.13-1.79-3.64-1.79c-1.48,0-2.68,0.59-3.59,1.77C83.06,44.07,82.61,45.76,82.61,47.96z"
					/>
				<path class="st1" d="M102.1,38.98l0.08,1.95c1.29-1.51,3.02-2.27,5.21-2.27c2.46,0,4.13,0.94,5.02,2.82
					c0.58-0.84,1.34-1.53,2.28-2.04s2.04-0.78,3.32-0.78c3.85,0,5.81,2.04,5.88,6.12v11.77h-3V44.95c0-1.25-0.29-2.19-0.86-2.82
					c-0.57-0.62-1.54-0.93-2.89-0.93c-1.11,0-2.04,0.33-2.78,1c-0.74,0.67-1.16,1.56-1.28,2.69v11.65h-3.02V45.04
					c0-2.55-1.25-3.83-3.75-3.83c-1.97,0-3.32,0.84-4.04,2.52v12.82h-3V38.98H102.1z"/>
				<path class="st1" d="M135.7,56.87c-2.38,0-4.32-0.78-5.81-2.35c-1.49-1.56-2.24-3.65-2.24-6.27V47.7c0-1.74,0.33-3.3,1-4.67
					c0.67-1.37,1.6-2.44,2.79-3.21c1.2-0.77,2.49-1.16,3.89-1.16c2.28,0,4.06,0.75,5.32,2.26c1.27,1.5,1.9,3.66,1.9,6.46v1.25h-11.9
					c0.04,1.73,0.55,3.13,1.52,4.2c0.97,1.07,2.2,1.6,3.69,1.6c1.06,0,1.96-0.22,2.69-0.65c0.74-0.43,1.38-1.01,1.93-1.72l1.83,1.43
					C140.85,55.74,138.64,56.87,135.7,56.87z M135.33,41.12c-1.21,0-2.23,0.44-3.05,1.32c-0.82,0.88-1.33,2.12-1.53,3.71h8.8v-0.23
					c-0.09-1.53-0.5-2.71-1.23-3.55C137.58,41.54,136.58,41.12,135.33,41.12z"/>
				<path class="st2" d="M169.84,52.4l3.38-13.42h3l-5.11,17.56h-2.44l-4.27-13.31l-4.16,13.31h-2.43l-5.1-17.56h2.99l3.46,13.15
					l4.09-13.15h2.42L169.84,52.4z"/>
				<path class="st2" d="M190.11,56.54c-0.17-0.35-0.31-0.96-0.42-1.85c-1.4,1.45-3.06,2.18-5,2.18c-1.73,0-3.15-0.49-4.26-1.47
					c-1.11-0.98-1.66-2.22-1.66-3.73c0-1.83,0.7-3.25,2.09-4.26s3.35-1.52,5.87-1.52h2.92v-1.38c0-1.05-0.31-1.89-0.94-2.51
					s-1.55-0.93-2.78-0.93c-1.07,0-1.97,0.27-2.69,0.81s-1.09,1.2-1.09,1.96h-3.02c0-0.88,0.31-1.72,0.93-2.54
					c0.62-0.82,1.47-1.46,2.53-1.94s2.24-0.71,3.51-0.71c2.02,0,3.61,0.51,4.76,1.52c1.15,1.01,1.74,2.41,1.79,4.18v8.08
					c0,1.61,0.21,2.89,0.62,3.85v0.26H190.11z M185.13,54.25c0.94,0,1.83-0.24,2.68-0.73c0.84-0.49,1.46-1.12,1.83-1.9v-3.6h-2.35
					c-3.68,0-5.52,1.08-5.52,3.23c0,0.94,0.31,1.68,0.94,2.21C183.34,53.99,184.14,54.25,185.13,54.25z"/>
				<path class="st2" d="M207.51,51.88c0-0.81-0.31-1.44-0.92-1.89c-0.61-0.45-1.68-0.84-3.2-1.16c-1.52-0.32-2.73-0.71-3.62-1.17
					c-0.89-0.45-1.55-1-1.98-1.62c-0.43-0.63-0.64-1.37-0.64-2.24c0-1.44,0.61-2.66,1.83-3.65c1.22-1,2.77-1.49,4.67-1.49
					c1.99,0,3.61,0.51,4.85,1.54c1.24,1.03,1.86,2.34,1.86,3.94h-3.02c0-0.82-0.35-1.53-1.05-2.13c-0.7-0.59-1.58-0.89-2.64-0.89
					c-1.09,0-1.95,0.24-2.56,0.71s-0.93,1.1-0.93,1.87c0,0.73,0.29,1.27,0.86,1.64c0.57,0.37,1.61,0.72,3.11,1.06
					c1.5,0.34,2.71,0.74,3.64,1.2s1.62,1.03,2.07,1.68c0.45,0.65,0.67,1.45,0.67,2.39c0,1.57-0.63,2.83-1.88,3.77
					c-1.26,0.95-2.88,1.42-4.89,1.42c-1.41,0-2.65-0.25-3.73-0.75c-1.08-0.5-1.93-1.19-2.54-2.09s-0.92-1.86-0.92-2.9h3
					c0.05,1.01,0.46,1.8,1.21,2.39c0.75,0.59,1.74,0.88,2.98,0.88c1.14,0,2.05-0.23,2.73-0.69
					C207.17,53.27,207.51,52.65,207.51,51.88z"/>
				<path class="st2" d="M226.76,34.73v4.25h3.28v2.32h-3.28v10.91c0,0.7,0.15,1.23,0.44,1.58c0.29,0.35,0.79,0.53,1.49,0.53
					c0.35,0,0.82-0.06,1.43-0.19v2.42c-0.79,0.22-1.56,0.32-2.3,0.32c-1.34,0-2.35-0.41-3.04-1.22c-0.68-0.81-1.02-1.96-1.02-3.46
					V41.3h-3.2v-2.32h3.2v-4.25H226.76z"/>
				<path class="st2" d="M236.55,41.11c1.33-1.63,3.06-2.45,5.19-2.45c3.71,0,5.58,2.09,5.62,6.28v11.61h-3V44.92
					c-0.01-1.27-0.3-2.2-0.87-2.81c-0.57-0.61-1.45-0.91-2.65-0.91c-0.97,0-1.83,0.26-2.56,0.78c-0.74,0.52-1.31,1.2-1.72,2.05
					v12.51h-3V31.61h3V41.11z"/>
				<path class="st2" d="M259.08,56.87c-2.38,0-4.32-0.78-5.81-2.35c-1.49-1.56-2.24-3.65-2.24-6.27V47.7c0-1.74,0.33-3.3,1-4.67
					c0.67-1.37,1.6-2.44,2.79-3.21c1.2-0.77,2.49-1.16,3.89-1.16c2.28,0,4.06,0.75,5.32,2.26c1.27,1.5,1.9,3.66,1.9,6.46v1.25h-11.9
					c0.04,1.73,0.55,3.13,1.52,4.2c0.97,1.07,2.2,1.6,3.69,1.6c1.06,0,1.96-0.22,2.69-0.65c0.74-0.43,1.38-1.01,1.93-1.72l1.83,1.43
					C264.23,55.74,262.02,56.87,259.08,56.87z M258.7,41.12c-1.21,0-2.23,0.44-3.05,1.32c-0.82,0.88-1.33,2.12-1.53,3.71h8.8v-0.23
					c-0.09-1.53-0.5-2.71-1.23-3.55C260.95,41.54,259.96,41.12,258.7,41.12z"/>
				<path class="st2" d="M284.71,54.42c1.07,0,2.01-0.32,2.81-0.97c0.8-0.65,1.24-1.46,1.33-2.44h2.84
					c-0.05,1.01-0.4,1.96-1.04,2.87c-0.64,0.91-1.49,1.63-2.56,2.18c-1.07,0.54-2.19,0.81-3.38,0.81c-2.39,0-4.29-0.8-5.71-2.39
					c-1.41-1.6-2.12-3.78-2.12-6.55v-0.5c0-1.71,0.31-3.23,0.94-4.56c0.63-1.33,1.53-2.36,2.7-3.1c1.17-0.74,2.56-1.1,4.16-1.1
					c1.97,0,3.61,0.59,4.91,1.77c1.3,1.18,2,2.71,2.09,4.59h-2.84c-0.09-1.14-0.52-2.07-1.29-2.8c-0.77-0.73-1.73-1.1-2.87-1.1
					c-1.53,0-2.71,0.55-3.55,1.65c-0.84,1.1-1.26,2.69-1.26,4.76v0.57c0,2.02,0.42,3.58,1.25,4.67
					C281.97,53.87,283.16,54.42,284.71,54.42z"/>
				<path class="st2" d="M302.35,56.87c-2.38,0-4.32-0.78-5.81-2.35c-1.49-1.56-2.24-3.65-2.24-6.27V47.7c0-1.74,0.33-3.3,1-4.67
					c0.67-1.37,1.6-2.44,2.79-3.21c1.2-0.77,2.49-1.16,3.89-1.16c2.28,0,4.06,0.75,5.32,2.26c1.27,1.5,1.9,3.66,1.9,6.46v1.25h-11.9
					c0.04,1.73,0.55,3.13,1.52,4.2c0.97,1.07,2.2,1.6,3.69,1.6c1.06,0,1.96-0.22,2.69-0.65c0.74-0.43,1.38-1.01,1.93-1.72l1.83,1.43
					C307.5,55.74,305.3,56.87,302.35,56.87z M301.98,41.12c-1.21,0-2.23,0.44-3.05,1.32c-0.82,0.88-1.33,2.12-1.53,3.71h8.8v-0.23
					c-0.09-1.53-0.5-2.71-1.23-3.55C304.23,41.54,303.23,41.12,301.98,41.12z"/>
				<path class="st2" d="M315.52,38.98l0.1,2.21c1.34-1.69,3.09-2.53,5.26-2.53c3.71,0,5.58,2.09,5.62,6.28v11.61h-3V44.92
					c-0.01-1.27-0.3-2.2-0.87-2.81c-0.57-0.61-1.45-0.91-2.65-0.91c-0.97,0-1.83,0.26-2.56,0.78c-0.74,0.52-1.31,1.2-1.72,2.05
					v12.51h-3V38.98H315.52z"/>
				<path class="st2" d="M335.03,34.73v4.25h3.28v2.32h-3.28v10.91c0,0.7,0.15,1.23,0.44,1.58c0.29,0.35,0.79,0.53,1.49,0.53
					c0.35,0,0.82-0.06,1.43-0.19v2.42c-0.79,0.22-1.56,0.32-2.3,0.32c-1.34,0-2.35-0.41-3.04-1.22c-0.68-0.81-1.02-1.96-1.02-3.46
					V41.3h-3.2v-2.32h3.2v-4.25H335.03z"/>
				<path class="st2" d="M350.3,41.67c-0.45-0.08-0.95-0.11-1.48-0.11c-1.97,0-3.31,0.84-4.01,2.52v12.47h-3V38.98h2.92l0.05,2.03
					c0.98-1.57,2.38-2.35,4.19-2.35c0.58,0,1.03,0.08,1.33,0.23V41.67z"/>
				<path class="st2" d="M360.35,56.87c-2.38,0-4.32-0.78-5.81-2.35c-1.49-1.56-2.24-3.65-2.24-6.27V47.7c0-1.74,0.33-3.3,1-4.67
					c0.67-1.37,1.6-2.44,2.79-3.21c1.2-0.77,2.49-1.16,3.89-1.16c2.28,0,4.06,0.75,5.32,2.26c1.27,1.5,1.9,3.66,1.9,6.46v1.25h-11.9
					c0.04,1.73,0.55,3.13,1.52,4.2c0.97,1.07,2.2,1.6,3.69,1.6c1.06,0,1.96-0.22,2.69-0.65c0.74-0.43,1.38-1.01,1.93-1.72l1.83,1.43
					C365.5,55.74,363.29,56.87,360.35,56.87z M359.97,41.12c-1.21,0-2.23,0.44-3.05,1.32c-0.82,0.88-1.33,2.12-1.53,3.71h8.8v-0.23
					c-0.09-1.53-0.5-2.71-1.23-3.55C362.23,41.54,361.23,41.12,359.97,41.12z"/>
				<path class="st2" d="M378.11,47.6c0-1.72,0.34-3.27,1.01-4.64c0.68-1.37,1.62-2.44,2.82-3.18s2.58-1.12,4.13-1.12
					c2.39,0,4.33,0.83,5.8,2.48c1.48,1.66,2.22,3.86,2.22,6.61v0.21c0,1.71-0.33,3.24-0.98,4.6s-1.59,2.42-2.81,3.17
					c-1.22,0.76-2.62,1.14-4.2,1.14c-2.38,0-4.31-0.83-5.79-2.48c-1.48-1.66-2.22-3.85-2.22-6.57V47.6z M381.12,47.96
					c0,1.95,0.45,3.51,1.36,4.69c0.9,1.18,2.11,1.77,3.63,1.77c1.53,0,2.74-0.6,3.64-1.79c0.9-1.2,1.35-2.87,1.35-5.02
					c0-1.93-0.46-3.49-1.37-4.68c-0.92-1.2-2.13-1.79-3.64-1.79c-1.48,0-2.68,0.59-3.59,1.77
					C381.58,44.07,381.12,45.76,381.12,47.96z"/>
				<path class="st2" d="M399.34,56.54V41.3h-2.78v-2.32h2.78v-1.8c0-1.88,0.5-3.34,1.51-4.37c1.01-1.03,2.43-1.54,4.27-1.54
					c0.69,0,1.38,0.09,2.06,0.27l-0.16,2.42c-0.51-0.1-1.05-0.15-1.62-0.15c-0.97,0-1.73,0.29-2.26,0.85s-0.8,1.39-0.8,2.45v1.86
					h3.75v2.32h-3.75v15.24H399.34z"/>
				<path class="st2" d="M421.7,34.73v4.25h3.28v2.32h-3.28v10.91c0,0.7,0.15,1.23,0.44,1.58c0.29,0.35,0.79,0.53,1.49,0.53
					c0.35,0,0.82-0.06,1.43-0.19v2.42c-0.79,0.22-1.56,0.32-2.3,0.32c-1.34,0-2.35-0.41-3.04-1.22c-0.68-0.81-1.02-1.96-1.02-3.46
					V41.3h-3.2v-2.32h3.2v-4.25H421.7z"/>
				<path class="st2" d="M431.49,41.11c1.33-1.63,3.06-2.45,5.19-2.45c3.71,0,5.58,2.09,5.62,6.28v11.61h-3V44.92
					c-0.01-1.27-0.3-2.2-0.87-2.81c-0.57-0.61-1.45-0.91-2.65-0.91c-0.97,0-1.83,0.26-2.56,0.78c-0.74,0.52-1.31,1.2-1.72,2.05
					v12.51h-3V31.61h3V41.11z"/>
				<path class="st2" d="M454.09,56.87c-2.38,0-4.32-0.78-5.81-2.35c-1.49-1.56-2.24-3.65-2.24-6.27V47.7c0-1.74,0.33-3.3,1-4.67
					c0.67-1.37,1.6-2.44,2.79-3.21c1.2-0.77,2.49-1.16,3.89-1.16c2.28,0,4.06,0.75,5.32,2.26c1.27,1.5,1.9,3.66,1.9,6.46v1.25h-11.9
					c0.04,1.73,0.55,3.13,1.52,4.2c0.97,1.07,2.2,1.6,3.69,1.6c1.06,0,1.96-0.22,2.69-0.65c0.74-0.43,1.38-1.01,1.93-1.72l1.83,1.43
					C459.24,55.74,457.03,56.87,454.09,56.87z M453.71,41.12c-1.21,0-2.23,0.44-3.05,1.32c-0.82,0.88-1.33,2.12-1.53,3.71h8.8v-0.23
					c-0.09-1.53-0.5-2.71-1.23-3.55C455.96,41.54,454.97,41.12,453.71,41.12z"/>
				<path class="st1" d="M481.78,46.98h-5.55v9.56h-3.13V32.91h7.82c2.66,0,4.71,0.61,6.14,1.82c1.43,1.21,2.15,2.98,2.15,5.29
					c0,1.47-0.4,2.75-1.19,3.85c-0.8,1.09-1.9,1.91-3.32,2.45l5.55,10.03v0.19h-3.34L481.78,46.98z M476.23,44.43h4.79
					c1.55,0,2.78-0.4,3.69-1.2c0.91-0.8,1.37-1.88,1.37-3.22c0-1.46-0.44-2.59-1.31-3.37c-0.87-0.78-2.13-1.18-3.77-1.19h-4.77
					V44.43z"/>
				<path class="st1" d="M492.31,47.6c0-1.72,0.34-3.27,1.01-4.64c0.68-1.37,1.62-2.44,2.82-3.18s2.58-1.12,4.13-1.12
					c2.39,0,4.33,0.83,5.8,2.48c1.48,1.66,2.22,3.86,2.22,6.61v0.21c0,1.71-0.33,3.24-0.98,4.6s-1.59,2.42-2.81,3.17
					s-2.62,1.14-4.2,1.14c-2.38,0-4.31-0.83-5.79-2.48c-1.48-1.66-2.22-3.85-2.22-6.57V47.6z M495.33,47.96
					c0,1.95,0.45,3.51,1.36,4.69c0.9,1.18,2.11,1.77,3.63,1.77c1.53,0,2.74-0.6,3.64-1.79s1.35-2.87,1.35-5.02
					c0-1.93-0.46-3.49-1.37-4.68c-0.91-1.2-2.13-1.79-3.64-1.79c-1.48,0-2.68,0.59-3.59,1.77
					C495.79,44.07,495.33,45.76,495.33,47.96z"/>
				<path class="st1" d="M514.89,38.98l0.08,1.95c1.29-1.51,3.02-2.27,5.21-2.27c2.46,0,4.13,0.94,5.02,2.82
					c0.58-0.84,1.34-1.53,2.28-2.04s2.04-0.78,3.32-0.78c3.85,0,5.81,2.04,5.88,6.12v11.77h-3V44.95c0-1.25-0.29-2.19-0.86-2.82
					c-0.57-0.62-1.54-0.93-2.89-0.93c-1.12,0-2.04,0.33-2.78,1c-0.74,0.67-1.16,1.56-1.28,2.69v11.65h-3.02V45.04
					c0-2.55-1.25-3.83-3.75-3.83c-1.97,0-3.32,0.84-4.04,2.52v12.82h-3V38.98H514.89z"/>
				<path class="st1" d="M552.05,56.54c-0.17-0.35-0.31-0.96-0.42-1.85c-1.4,1.45-3.06,2.18-5,2.18c-1.73,0-3.15-0.49-4.26-1.47
					c-1.11-0.98-1.66-2.22-1.66-3.73c0-1.83,0.7-3.25,2.09-4.26c1.39-1.01,3.35-1.52,5.87-1.52h2.92v-1.38
					c0-1.05-0.31-1.89-0.94-2.51s-1.55-0.93-2.78-0.93c-1.07,0-1.97,0.27-2.69,0.81c-0.73,0.54-1.09,1.2-1.09,1.96h-3.02
					c0-0.88,0.31-1.72,0.93-2.54c0.62-0.82,1.47-1.46,2.53-1.94s2.24-0.71,3.51-0.71c2.02,0,3.61,0.51,4.76,1.52
					c1.15,1.01,1.74,2.41,1.79,4.18v8.08c0,1.61,0.21,2.89,0.62,3.85v0.26H552.05z M547.06,54.25c0.94,0,1.83-0.24,2.68-0.73
					c0.84-0.49,1.46-1.12,1.83-1.9v-3.6h-2.35c-3.68,0-5.52,1.08-5.52,3.23c0,0.94,0.31,1.68,0.94,2.21
					C545.27,53.99,546.08,54.25,547.06,54.25z"/>
				<path class="st1" d="M562.13,38.98l0.1,2.21c1.34-1.69,3.09-2.53,5.26-2.53c3.71,0,5.58,2.09,5.62,6.28v11.61h-3V44.92
					c-0.01-1.27-0.3-2.2-0.87-2.81c-0.57-0.61-1.45-0.91-2.65-0.91c-0.97,0-1.83,0.26-2.56,0.78c-0.74,0.52-1.31,1.2-1.72,2.05
					v12.51h-3V38.98H562.13z"/>
				<path class="st1" d="M599.69,45.62h-10.24V54h11.9v2.55h-15.01V32.91h14.85v2.55h-11.74v7.61h10.24V45.62z"/>
				<path class="st1" d="M607.58,38.98l0.08,1.95c1.29-1.51,3.02-2.27,5.21-2.27c2.46,0,4.13,0.94,5.02,2.82
					c0.58-0.84,1.34-1.53,2.28-2.04s2.04-0.78,3.32-0.78c3.85,0,5.81,2.04,5.88,6.12v11.77h-3V44.95c0-1.25-0.29-2.19-0.86-2.82
					c-0.57-0.62-1.54-0.93-2.89-0.93c-1.12,0-2.04,0.33-2.78,1c-0.74,0.67-1.16,1.56-1.28,2.69v11.65h-3.02V45.04
					c0-2.55-1.25-3.83-3.75-3.83c-1.97,0-3.32,0.84-4.04,2.52v12.82h-3V38.98H607.58z"/>
				<path class="st1" d="M648.72,47.96c0,2.67-0.61,4.83-1.83,6.46c-1.22,1.63-2.88,2.45-4.97,2.45c-2.13,0-3.81-0.68-5.03-2.03
					v8.46h-3V38.98h2.74l0.15,1.95c1.22-1.51,2.92-2.27,5.1-2.27c2.11,0,3.78,0.8,5.01,2.39c1.23,1.59,1.84,3.8,1.84,6.64V47.96z
					 M645.72,47.62c0-1.98-0.42-3.54-1.27-4.69c-0.84-1.15-2-1.72-3.47-1.72c-1.82,0-3.18,0.81-4.09,2.42v8.39
					c0.9,1.6,2.27,2.4,4.12,2.4c1.44,0,2.58-0.57,3.43-1.71S645.72,49.87,645.72,47.62z"/>
				<path class="st1" d="M652.56,34.32c0-0.49,0.15-0.9,0.45-1.23c0.3-0.34,0.74-0.5,1.32-0.5c0.58,0,1.03,0.17,1.33,0.5
					s0.46,0.75,0.46,1.23c0,0.49-0.15,0.89-0.46,1.22c-0.3,0.32-0.75,0.49-1.33,0.49c-0.58,0-1.03-0.16-1.32-0.49
					C652.7,35.21,652.56,34.81,652.56,34.32z M655.8,56.54h-3V38.98h3V56.54z"/>
				<path class="st1" d="M669.1,41.67c-0.45-0.08-0.95-0.11-1.48-0.11c-1.97,0-3.31,0.84-4.01,2.52v12.47h-3V38.98h2.92l0.05,2.03
					c0.98-1.57,2.38-2.35,4.19-2.35c0.58,0,1.03,0.08,1.33,0.23V41.67z"/>
				<path class="st1" d="M679.14,56.87c-2.38,0-4.32-0.78-5.81-2.35c-1.49-1.56-2.24-3.65-2.24-6.27V47.7c0-1.74,0.33-3.3,1-4.67
					c0.67-1.37,1.6-2.44,2.79-3.21c1.2-0.77,2.49-1.16,3.89-1.16c2.28,0,4.06,0.75,5.32,2.26c1.27,1.5,1.9,3.66,1.9,6.46v1.25h-11.9
					c0.04,1.73,0.55,3.13,1.52,4.2c0.97,1.07,2.2,1.6,3.69,1.6c1.06,0,1.96-0.22,2.69-0.65c0.74-0.43,1.38-1.01,1.93-1.72l1.83,1.43
					C684.29,55.74,682.09,56.87,679.14,56.87z M678.77,41.12c-1.21,0-2.23,0.44-3.05,1.32c-0.82,0.88-1.33,2.12-1.53,3.71h8.8v-0.23
					c-0.09-1.53-0.5-2.71-1.23-3.55C681.02,41.54,680.03,41.12,678.77,41.12z"/>
				<path class="st2" d="M708.54,56.54c-0.17-0.35-0.31-0.96-0.42-1.85c-1.4,1.45-3.06,2.18-5,2.18c-1.73,0-3.15-0.49-4.26-1.47
					c-1.11-0.98-1.66-2.22-1.66-3.73c0-1.83,0.7-3.25,2.09-4.26c1.39-1.01,3.35-1.52,5.87-1.52h2.92v-1.38
					c0-1.05-0.31-1.89-0.94-2.51s-1.55-0.93-2.78-0.93c-1.07,0-1.97,0.27-2.69,0.81c-0.73,0.54-1.09,1.2-1.09,1.96h-3.02
					c0-0.88,0.31-1.72,0.93-2.54c0.62-0.82,1.47-1.46,2.53-1.94s2.24-0.71,3.51-0.71c2.02,0,3.61,0.51,4.76,1.52
					c1.15,1.01,1.74,2.41,1.79,4.18v8.08c0,1.61,0.21,2.89,0.62,3.85v0.26H708.54z M703.56,54.25c0.94,0,1.83-0.24,2.68-0.73
					c0.84-0.49,1.46-1.12,1.83-1.9v-3.6h-2.35c-3.68,0-5.52,1.08-5.52,3.23c0,0.94,0.31,1.68,0.94,2.21
					C701.76,53.99,702.57,54.25,703.56,54.25z"/>
				<path class="st2" d="M718.62,38.98l0.1,2.21c1.34-1.69,3.09-2.53,5.26-2.53c3.71,0,5.58,2.09,5.62,6.28v11.61h-3V44.92
					c-0.01-1.27-0.3-2.2-0.87-2.81c-0.57-0.61-1.45-0.91-2.65-0.91c-0.97,0-1.83,0.26-2.56,0.78c-0.74,0.52-1.31,1.2-1.72,2.05
					v12.51h-3V38.98H718.62z"/>
				<path class="st2" d="M733.39,47.62c0-2.69,0.64-4.86,1.92-6.5c1.28-1.64,2.95-2.46,5.02-2.46c2.06,0,3.69,0.7,4.89,2.11v-9.15h3
					v24.93h-2.76l-0.15-1.88c-1.2,1.47-2.87,2.21-5.02,2.21c-2.03,0-3.69-0.83-4.97-2.5c-1.28-1.67-1.92-3.84-1.92-6.52V47.62z
					 M736.39,47.96c0,1.99,0.41,3.55,1.23,4.67c0.82,1.13,1.96,1.69,3.41,1.69c1.9,0,3.29-0.85,4.17-2.56v-8.07
					c-0.9-1.66-2.28-2.48-4.14-2.48c-1.47,0-2.62,0.57-3.44,1.7S736.39,45.73,736.39,47.96z"/>
				<path class="st2" d="M765.17,34.73v4.25h3.28v2.32h-3.28v10.91c0,0.7,0.15,1.23,0.44,1.58s0.79,0.53,1.49,0.53
					c0.35,0,0.82-0.06,1.43-0.19v2.42c-0.79,0.22-1.56,0.32-2.31,0.32c-1.34,0-2.35-0.41-3.04-1.22c-0.68-0.81-1.02-1.96-1.02-3.46
					V41.3h-3.2v-2.32h3.2v-4.25H765.17z"/>
				<path class="st2" d="M774.96,41.11c1.33-1.63,3.06-2.45,5.19-2.45c3.71,0,5.58,2.09,5.62,6.28v11.61h-3V44.92
					c-0.01-1.27-0.3-2.2-0.87-2.81c-0.57-0.61-1.45-0.91-2.65-0.91c-0.97,0-1.83,0.26-2.56,0.78c-0.74,0.52-1.31,1.2-1.72,2.05
					v12.51h-3V31.61h3V41.11z"/>
				<path class="st2" d="M797.56,56.87c-2.38,0-4.32-0.78-5.81-2.35c-1.49-1.56-2.24-3.65-2.24-6.27V47.7c0-1.74,0.33-3.3,1-4.67
					c0.67-1.37,1.6-2.44,2.79-3.21c1.2-0.77,2.49-1.16,3.89-1.16c2.28,0,4.06,0.75,5.32,2.26c1.27,1.5,1.9,3.66,1.9,6.46v1.25h-11.9
					c0.04,1.73,0.55,3.13,1.52,4.2c0.97,1.07,2.2,1.6,3.69,1.6c1.06,0,1.96-0.22,2.69-0.65c0.74-0.43,1.38-1.01,1.93-1.72l1.83,1.43
					C802.71,55.74,800.5,56.87,797.56,56.87z M797.18,41.12c-1.21,0-2.23,0.44-3.05,1.32c-0.82,0.88-1.33,2.12-1.53,3.71h8.8v-0.23
					c-0.09-1.53-0.5-2.71-1.23-3.55C799.43,41.54,798.44,41.12,797.18,41.12z"/>
				<path class="st2" d="M816.37,41.67c-0.45-0.08-0.95-0.11-1.48-0.11c-1.97,0-3.31,0.84-4.01,2.52v12.47h-3V38.98h2.92l0.05,2.03
					c0.98-1.57,2.38-2.35,4.19-2.35c0.58,0,1.03,0.08,1.33,0.23V41.67z"/>
				<path class="st2" d="M826.42,56.87c-2.38,0-4.32-0.78-5.81-2.35c-1.49-1.56-2.24-3.65-2.24-6.27V47.7c0-1.74,0.33-3.3,1-4.67
					c0.67-1.37,1.6-2.44,2.79-3.21c1.2-0.77,2.49-1.16,3.89-1.16c2.28,0,4.06,0.75,5.32,2.26c1.27,1.5,1.9,3.66,1.9,6.46v1.25h-11.9
					c0.04,1.73,0.55,3.13,1.52,4.2c0.97,1.07,2.2,1.6,3.69,1.6c1.06,0,1.96-0.22,2.69-0.65c0.74-0.43,1.38-1.01,1.93-1.72l1.83,1.43
					C831.57,55.74,829.36,56.87,826.42,56.87z M826.04,41.12c-1.21,0-2.23,0.44-3.05,1.32c-0.82,0.88-1.33,2.12-1.53,3.71h8.8v-0.23
					c-0.09-1.53-0.5-2.71-1.23-3.55C828.29,41.54,827.3,41.12,826.04,41.12z"/>
				<path class="st2" d="M860.52,52.4l3.38-13.42h3l-5.11,17.56h-2.43l-4.27-13.31l-4.16,13.31h-2.43l-5.1-17.56h2.99l3.46,13.15
					l4.09-13.15h2.42L860.52,52.4z"/>
				<path class="st2" d="M877.24,56.87c-2.38,0-4.32-0.78-5.81-2.35c-1.49-1.56-2.24-3.65-2.24-6.27V47.7c0-1.74,0.33-3.3,1-4.67
					c0.67-1.37,1.6-2.44,2.79-3.21c1.2-0.77,2.49-1.16,3.89-1.16c2.28,0,4.06,0.75,5.32,2.26c1.27,1.5,1.9,3.66,1.9,6.46v1.25h-11.9
					c0.04,1.73,0.55,3.13,1.52,4.2c0.97,1.07,2.2,1.6,3.69,1.6c1.06,0,1.96-0.22,2.69-0.65c0.74-0.43,1.38-1.01,1.93-1.72l1.83,1.43
					C882.39,55.74,880.18,56.87,877.24,56.87z M876.87,41.12c-1.21,0-2.23,0.44-3.05,1.32c-0.82,0.88-1.33,2.12-1.53,3.71h8.8v-0.23
					c-0.09-1.53-0.5-2.71-1.23-3.55C879.12,41.54,878.12,41.12,876.87,41.12z"/>
				<path class="st2" d="M896.05,41.67c-0.45-0.08-0.95-0.11-1.48-0.11c-1.97,0-3.31,0.84-4.01,2.52v12.47h-3V38.98h2.92l0.05,2.03
					c0.98-1.57,2.38-2.35,4.19-2.35c0.58,0,1.03,0.08,1.33,0.23V41.67z"/>
				<path class="st2" d="M906.1,56.87c-2.38,0-4.32-0.78-5.81-2.35c-1.49-1.56-2.24-3.65-2.24-6.27V47.7c0-1.74,0.33-3.3,1-4.67
					c0.67-1.37,1.6-2.44,2.79-3.21c1.2-0.77,2.49-1.16,3.89-1.16c2.28,0,4.06,0.75,5.32,2.26c1.27,1.5,1.9,3.66,1.9,6.46v1.25h-11.9
					c0.04,1.73,0.55,3.13,1.52,4.2c0.97,1.07,2.2,1.6,3.69,1.6c1.06,0,1.96-0.22,2.69-0.65c0.74-0.43,1.38-1.01,1.93-1.72l1.83,1.43
					C911.25,55.74,909.04,56.87,906.1,56.87z M905.73,41.12c-1.21,0-2.23,0.44-3.05,1.32c-0.82,0.88-1.33,2.12-1.53,3.71h8.8v-0.23
					c-0.09-1.53-0.5-2.71-1.23-3.55C907.98,41.54,906.98,41.12,905.73,41.12z"/>
				<path class="st2" d="M923.86,47.6c0-1.72,0.34-3.27,1.01-4.64c0.68-1.37,1.62-2.44,2.83-3.18c1.21-0.75,2.58-1.12,4.13-1.12
					c2.39,0,4.33,0.83,5.8,2.48c1.48,1.66,2.22,3.86,2.22,6.61v0.21c0,1.71-0.33,3.24-0.98,4.6s-1.59,2.42-2.81,3.17
					c-1.22,0.76-2.62,1.14-4.2,1.14c-2.38,0-4.31-0.83-5.79-2.48c-1.48-1.66-2.21-3.85-2.21-6.57V47.6z M926.88,47.96
					c0,1.95,0.45,3.51,1.36,4.69c0.9,1.18,2.11,1.77,3.63,1.77c1.53,0,2.74-0.6,3.64-1.79s1.35-2.87,1.35-5.02
					c0-1.93-0.46-3.49-1.37-4.68c-0.91-1.2-2.13-1.79-3.64-1.79c-1.48,0-2.68,0.59-3.59,1.77
					C927.33,44.07,926.88,45.76,926.88,47.96z"/>
				<path class="st2" d="M949.41,52.47l4.35-13.49h3.07l-6.3,17.56h-2.29l-6.36-17.56h3.07L949.41,52.47z"/>
				<path class="st2" d="M967,56.87c-2.38,0-4.32-0.78-5.81-2.35c-1.49-1.56-2.24-3.65-2.24-6.27V47.7c0-1.74,0.33-3.3,1-4.67
					c0.67-1.37,1.6-2.44,2.79-3.21c1.2-0.77,2.49-1.16,3.89-1.16c2.28,0,4.06,0.75,5.32,2.26c1.27,1.5,1.9,3.66,1.9,6.46v1.25h-11.9
					c0.04,1.73,0.55,3.13,1.52,4.2c0.97,1.07,2.2,1.6,3.69,1.6c1.06,0,1.96-0.22,2.69-0.65c0.74-0.43,1.38-1.01,1.93-1.72l1.83,1.43
					C972.15,55.74,969.94,56.87,967,56.87z M966.63,41.12c-1.21,0-2.23,0.44-3.05,1.32c-0.82,0.88-1.33,2.12-1.53,3.71h8.8v-0.23
					c-0.09-1.53-0.5-2.71-1.23-3.55C968.88,41.54,967.88,41.12,966.63,41.12z"/>
				<path class="st2" d="M985.81,41.67c-0.45-0.08-0.95-0.11-1.48-0.11c-1.97,0-3.31,0.84-4.01,2.52v12.47h-3V38.98h2.92l0.05,2.03
					c0.98-1.57,2.38-2.35,4.19-2.35c0.58,0,1.03,0.08,1.33,0.23V41.67z"/>
				<path class="st1" d="M34.68,99.03h3.28v2.45h-3.28v5.49h-3.02v-5.49H20.9v-1.77l10.58-16.38h3.2V99.03z M24.31,99.03h7.35V87.44
					l-0.36,0.65L24.31,99.03z"/>
				<path class="st1" d="M55.56,96.89c0,3.52-0.6,6.13-1.8,7.84c-1.2,1.71-3.08,2.56-5.63,2.56c-2.52,0-4.39-0.84-5.6-2.51
					s-1.84-4.17-1.88-7.49v-4.01c0-3.47,0.6-6.05,1.8-7.74s3.08-2.53,5.65-2.53c2.54,0,4.42,0.81,5.62,2.44
					c1.2,1.63,1.82,4.14,1.85,7.54V96.89z M52.56,92.78c0-2.54-0.36-4.4-1.07-5.56c-0.71-1.16-1.84-1.75-3.39-1.75
					c-1.54,0-2.66,0.58-3.36,1.74c-0.7,1.16-1.07,2.94-1.09,5.34v4.8c0,2.55,0.37,4.44,1.11,5.66c0.74,1.22,1.86,1.83,3.37,1.83
					c1.48,0,2.58-0.57,3.3-1.72c0.72-1.15,1.1-2.95,1.13-5.42V92.78z"/>
				<path class="st1" d="M74.26,96.89c0,3.52-0.6,6.13-1.8,7.84c-1.2,1.71-3.08,2.56-5.63,2.56c-2.52,0-4.39-0.84-5.6-2.51
					s-1.84-4.17-1.88-7.49v-4.01c0-3.47,0.6-6.05,1.8-7.74s3.08-2.53,5.65-2.53c2.54,0,4.42,0.81,5.62,2.44
					c1.2,1.63,1.82,4.14,1.85,7.54V96.89z M71.25,92.78c0-2.54-0.36-4.4-1.07-5.56c-0.71-1.16-1.84-1.75-3.39-1.75
					c-1.54,0-2.66,0.58-3.36,1.74c-0.7,1.16-1.07,2.94-1.09,5.34v4.8c0,2.55,0.37,4.44,1.11,5.66c0.74,1.22,1.86,1.83,3.37,1.83
					c1.48,0,2.58-0.57,3.3-1.72c0.72-1.15,1.1-2.95,1.13-5.42V92.78z"/>
				<path class="st1" d="M78.35,111.68l-1.7-1.17c1.02-1.42,1.55-2.88,1.59-4.38v-2.71h2.94v2.35c0,1.09-0.27,2.19-0.8,3.28
					C79.83,110.14,79.16,111.02,78.35,111.68z"/>
				<path class="st1" d="M99.48,96.89c0,3.52-0.6,6.13-1.8,7.84c-1.2,1.71-3.08,2.56-5.63,2.56c-2.52,0-4.39-0.84-5.6-2.51
					s-1.84-4.17-1.88-7.49v-4.01c0-3.47,0.6-6.05,1.8-7.74s3.08-2.53,5.65-2.53c2.54,0,4.42,0.81,5.62,2.44
					c1.2,1.63,1.82,4.14,1.85,7.54V96.89z M96.48,92.78c0-2.54-0.36-4.4-1.07-5.56c-0.71-1.16-1.84-1.75-3.39-1.75
					c-1.54,0-2.66,0.58-3.36,1.74c-0.7,1.16-1.07,2.94-1.09,5.34v4.8c0,2.55,0.37,4.44,1.11,5.66c0.74,1.22,1.86,1.83,3.37,1.83
					c1.48,0,2.58-0.57,3.3-1.72c0.72-1.15,1.1-2.95,1.13-5.42V92.78z"/>
				<path class="st1" d="M118.18,96.89c0,3.52-0.6,6.13-1.8,7.84c-1.2,1.71-3.08,2.56-5.63,2.56c-2.52,0-4.39-0.84-5.6-2.51
					s-1.84-4.17-1.88-7.49v-4.01c0-3.47,0.6-6.05,1.8-7.74s3.08-2.53,5.65-2.53c2.54,0,4.42,0.81,5.62,2.44
					c1.2,1.63,1.82,4.14,1.85,7.54V96.89z M115.18,92.78c0-2.54-0.36-4.4-1.07-5.56c-0.71-1.16-1.84-1.75-3.39-1.75
					c-1.54,0-2.66,0.58-3.36,1.74c-0.7,1.16-1.07,2.94-1.09,5.34v4.8c0,2.55,0.37,4.44,1.11,5.66c0.74,1.22,1.86,1.83,3.37,1.83
					c1.48,0,2.58-0.57,3.3-1.72c0.72-1.15,1.1-2.95,1.13-5.42V92.78z"/>
				<path class="st1" d="M136.88,96.89c0,3.52-0.6,6.13-1.8,7.84c-1.2,1.71-3.08,2.56-5.63,2.56c-2.52,0-4.39-0.84-5.6-2.51
					s-1.84-4.17-1.88-7.49v-4.01c0-3.47,0.6-6.05,1.8-7.74s3.08-2.53,5.65-2.53c2.54,0,4.42,0.81,5.62,2.44
					c1.2,1.63,1.82,4.14,1.85,7.54V96.89z M133.88,92.78c0-2.54-0.36-4.4-1.07-5.56c-0.71-1.16-1.84-1.75-3.39-1.75
					c-1.54,0-2.66,0.58-3.36,1.74c-0.7,1.16-1.07,2.94-1.09,5.34v4.8c0,2.55,0.37,4.44,1.11,5.66c0.74,1.22,1.86,1.83,3.37,1.83
					c1.48,0,2.58-0.57,3.3-1.72c0.72-1.15,1.1-2.95,1.13-5.42V92.78z"/>
				<path class="st1" d="M154.24,98.84l-1.88,1.96v6.17h-3V82.04h3v15.08l1.61-1.93l5.47-5.78h3.65l-6.83,7.34l7.63,10.23h-3.52
					L154.24,98.84z"/>
				<path class="st1" d="M169.01,89.41l0.08,1.95c1.29-1.51,3.02-2.27,5.21-2.27c2.46,0,4.13,0.94,5.02,2.82
					c0.58-0.84,1.34-1.53,2.28-2.04s2.04-0.78,3.32-0.78c3.85,0,5.81,2.04,5.88,6.12v11.77h-3V95.38c0-1.25-0.29-2.19-0.86-2.82
					c-0.57-0.62-1.54-0.93-2.89-0.93c-1.11,0-2.04,0.33-2.78,1c-0.74,0.67-1.16,1.56-1.28,2.69v11.65h-3.02V95.46
					c0-2.55-1.25-3.83-3.75-3.83c-1.97,0-3.32,0.84-4.04,2.52v12.82h-3V89.41H169.01z"/>
				<path class="st2" d="M202.75,98.03c0-1.72,0.34-3.27,1.01-4.64c0.68-1.37,1.62-2.44,2.82-3.18s2.58-1.12,4.13-1.12
					c2.39,0,4.33,0.83,5.8,2.48c1.48,1.66,2.22,3.86,2.22,6.61v0.21c0,1.71-0.33,3.24-0.98,4.6s-1.59,2.42-2.81,3.17
					c-1.22,0.76-2.62,1.14-4.2,1.14c-2.38,0-4.31-0.83-5.79-2.48c-1.48-1.66-2.22-3.85-2.22-6.57V98.03z M205.77,98.38
					c0,1.95,0.45,3.51,1.36,4.69c0.9,1.18,2.11,1.77,3.63,1.77c1.53,0,2.74-0.6,3.64-1.79c0.9-1.2,1.35-2.87,1.35-5.02
					c0-1.93-0.46-3.49-1.37-4.68c-0.92-1.2-2.13-1.79-3.64-1.79c-1.48,0-2.68,0.59-3.59,1.77C206.23,94.5,205.77,96.19,205.77,98.38
					z"/>
				<path class="st2" d="M223.99,106.97V91.73h-2.78v-2.32h2.78v-1.8c0-1.88,0.5-3.34,1.51-4.37c1.01-1.03,2.43-1.54,4.27-1.54
					c0.69,0,1.38,0.09,2.06,0.27l-0.16,2.42c-0.51-0.1-1.05-0.15-1.62-0.15c-0.97,0-1.73,0.29-2.26,0.85s-0.8,1.39-0.8,2.45v1.86
					h3.75v2.32h-3.75v15.24H223.99z"/>
				<path class="st1" d="M251.42,97.41h-5.55v9.56h-3.13V83.34h7.82c2.66,0,4.71,0.61,6.14,1.82c1.43,1.21,2.15,2.98,2.15,5.29
					c0,1.47-0.4,2.75-1.19,3.85c-0.8,1.09-1.9,1.91-3.32,2.45l5.55,10.03v0.19h-3.34L251.42,97.41z M245.87,94.86h4.79
					c1.55,0,2.78-0.4,3.69-1.2c0.91-0.8,1.37-1.88,1.37-3.22c0-1.46-0.44-2.59-1.31-3.37c-0.87-0.78-2.13-1.18-3.77-1.19h-4.77
					V94.86z"/>
				<path class="st1" d="M261.95,98.03c0-1.72,0.34-3.27,1.01-4.64c0.68-1.37,1.62-2.44,2.82-3.18s2.58-1.12,4.13-1.12
					c2.39,0,4.33,0.83,5.8,2.48c1.48,1.66,2.22,3.86,2.22,6.61v0.21c0,1.71-0.33,3.24-0.98,4.6s-1.59,2.42-2.81,3.17
					c-1.22,0.76-2.62,1.14-4.2,1.14c-2.38,0-4.31-0.83-5.79-2.48c-1.48-1.66-2.22-3.85-2.22-6.57V98.03z M264.97,98.38
					c0,1.95,0.45,3.51,1.36,4.69c0.9,1.18,2.11,1.77,3.63,1.77c1.53,0,2.74-0.6,3.64-1.79c0.9-1.2,1.35-2.87,1.35-5.02
					c0-1.93-0.46-3.49-1.37-4.68c-0.92-1.2-2.13-1.79-3.64-1.79c-1.48,0-2.68,0.59-3.59,1.77C265.43,94.5,264.97,96.19,264.97,98.38
					z"/>
				<path class="st1" d="M284.53,89.41l0.08,1.95c1.29-1.51,3.02-2.27,5.21-2.27c2.46,0,4.13,0.94,5.02,2.82
					c0.58-0.84,1.34-1.53,2.28-2.04s2.04-0.78,3.32-0.78c3.85,0,5.81,2.04,5.88,6.12v11.77h-3V95.38c0-1.25-0.29-2.19-0.86-2.82
					c-0.57-0.62-1.54-0.93-2.89-0.93c-1.11,0-2.04,0.33-2.78,1c-0.74,0.67-1.16,1.56-1.28,2.69v11.65h-3.02V95.46
					c0-2.55-1.25-3.83-3.75-3.83c-1.97,0-3.32,0.84-4.04,2.52v12.82h-3V89.41H284.53z"/>
				<path class="st1" d="M321.69,106.97c-0.17-0.35-0.31-0.96-0.42-1.85c-1.4,1.45-3.06,2.18-5,2.18c-1.73,0-3.15-0.49-4.26-1.47
					c-1.11-0.98-1.66-2.22-1.66-3.73c0-1.83,0.7-3.25,2.09-4.26s3.35-1.52,5.87-1.52h2.92v-1.38c0-1.05-0.31-1.89-0.94-2.51
					s-1.55-0.93-2.78-0.93c-1.07,0-1.97,0.27-2.69,0.81s-1.09,1.2-1.09,1.96h-3.02c0-0.88,0.31-1.72,0.93-2.54
					c0.62-0.82,1.47-1.46,2.53-1.94s2.24-0.71,3.51-0.71c2.02,0,3.61,0.51,4.76,1.52c1.15,1.01,1.74,2.41,1.79,4.18v8.08
					c0,1.61,0.21,2.89,0.62,3.85v0.26H321.69z M316.7,104.68c0.94,0,1.83-0.24,2.68-0.73c0.84-0.49,1.46-1.12,1.83-1.9v-3.6h-2.35
					c-3.68,0-5.52,1.08-5.52,3.23c0,0.94,0.31,1.68,0.94,2.21C314.91,104.42,315.72,104.68,316.7,104.68z"/>
				<path class="st1" d="M331.77,89.41l0.1,2.21c1.34-1.69,3.09-2.53,5.26-2.53c3.71,0,5.58,2.09,5.62,6.28v11.61h-3V95.35
					c-0.01-1.27-0.3-2.2-0.87-2.81c-0.57-0.61-1.45-0.91-2.65-0.91c-0.97,0-1.83,0.26-2.56,0.78c-0.74,0.52-1.31,1.2-1.72,2.05
					v12.51h-3V89.41H331.77z"/>
				<path class="st1" d="M364.64,97.41h-5.55v9.56h-3.13V83.34h7.82c2.66,0,4.71,0.61,6.14,1.82c1.43,1.21,2.15,2.98,2.15,5.29
					c0,1.47-0.4,2.75-1.19,3.85c-0.8,1.09-1.9,1.91-3.32,2.45l5.55,10.03v0.19h-3.34L364.64,97.41z M359.08,94.86h4.79
					c1.55,0,2.78-0.4,3.69-1.2c0.91-0.8,1.37-1.88,1.37-3.22c0-1.46-0.44-2.59-1.31-3.37c-0.87-0.78-2.13-1.18-3.77-1.19h-4.77
					V94.86z"/>
				<path class="st1" d="M375.17,98.03c0-1.72,0.34-3.27,1.01-4.64c0.68-1.37,1.62-2.44,2.82-3.18s2.58-1.12,4.13-1.12
					c2.39,0,4.33,0.83,5.8,2.48c1.48,1.66,2.22,3.86,2.22,6.61v0.21c0,1.71-0.33,3.24-0.98,4.6s-1.59,2.42-2.81,3.17
					c-1.22,0.76-2.62,1.14-4.2,1.14c-2.38,0-4.31-0.83-5.79-2.48c-1.48-1.66-2.22-3.85-2.22-6.57V98.03z M378.19,98.38
					c0,1.95,0.45,3.51,1.36,4.69c0.9,1.18,2.11,1.77,3.63,1.77c1.53,0,2.74-0.6,3.64-1.79c0.9-1.2,1.35-2.87,1.35-5.02
					c0-1.93-0.46-3.49-1.37-4.68c-0.92-1.2-2.13-1.79-3.64-1.79c-1.48,0-2.68,0.59-3.59,1.77C378.64,94.5,378.19,96.19,378.19,98.38
					z"/>
				<path class="st1" d="M405.77,106.97c-0.17-0.35-0.31-0.96-0.42-1.85c-1.4,1.45-3.06,2.18-5,2.18c-1.73,0-3.15-0.49-4.26-1.47
					c-1.11-0.98-1.66-2.22-1.66-3.73c0-1.83,0.7-3.25,2.09-4.26s3.35-1.52,5.87-1.52h2.92v-1.38c0-1.05-0.31-1.89-0.94-2.51
					s-1.55-0.93-2.78-0.93c-1.07,0-1.97,0.27-2.69,0.81s-1.09,1.2-1.09,1.96h-3.02c0-0.88,0.31-1.72,0.93-2.54
					c0.62-0.82,1.47-1.46,2.53-1.94s2.24-0.71,3.51-0.71c2.02,0,3.61,0.51,4.76,1.52c1.15,1.01,1.74,2.41,1.79,4.18v8.08
					c0,1.61,0.21,2.89,0.62,3.85v0.26H405.77z M400.78,104.68c0.94,0,1.83-0.24,2.68-0.73c0.84-0.49,1.46-1.12,1.83-1.9v-3.6h-2.35
					c-3.68,0-5.52,1.08-5.52,3.23c0,0.94,0.31,1.68,0.94,2.21C398.99,104.42,399.8,104.68,400.78,104.68z"/>
				<path class="st1" d="M412.28,98.04c0-2.69,0.64-4.86,1.92-6.5c1.28-1.64,2.95-2.46,5.02-2.46c2.06,0,3.68,0.7,4.89,2.11v-9.15h3
					v24.93h-2.76l-0.15-1.88c-1.2,1.47-2.87,2.21-5.02,2.21c-2.03,0-3.69-0.83-4.98-2.5c-1.28-1.67-1.92-3.84-1.92-6.52V98.04z
					 M415.28,98.38c0,1.99,0.41,3.55,1.23,4.67c0.82,1.13,1.96,1.69,3.41,1.69c1.9,0,3.29-0.85,4.17-2.56v-8.07
					c-0.9-1.66-2.28-2.48-4.14-2.48c-1.47,0-2.62,0.57-3.44,1.7C415.69,94.47,415.28,96.15,415.28,98.38z"/>
				<path class="st1" d="M441.98,102.31c0-0.81-0.31-1.44-0.92-1.89c-0.61-0.45-1.68-0.84-3.2-1.16c-1.52-0.32-2.73-0.71-3.62-1.17
					c-0.89-0.45-1.55-1-1.98-1.62c-0.43-0.63-0.64-1.37-0.64-2.24c0-1.44,0.61-2.66,1.83-3.65c1.22-1,2.77-1.49,4.67-1.49
					c1.99,0,3.61,0.51,4.85,1.54c1.24,1.03,1.86,2.34,1.86,3.94h-3.02c0-0.82-0.35-1.53-1.05-2.13c-0.7-0.59-1.58-0.89-2.64-0.89
					c-1.09,0-1.95,0.24-2.56,0.71s-0.93,1.1-0.93,1.87c0,0.73,0.29,1.27,0.86,1.64c0.57,0.37,1.61,0.72,3.11,1.06
					c1.5,0.34,2.71,0.74,3.64,1.2s1.62,1.03,2.07,1.68c0.45,0.65,0.67,1.45,0.67,2.39c0,1.57-0.63,2.83-1.88,3.77
					c-1.26,0.95-2.88,1.42-4.89,1.42c-1.41,0-2.65-0.25-3.73-0.75c-1.08-0.5-1.93-1.19-2.54-2.09s-0.92-1.86-0.92-2.9h3
					c0.05,1.01,0.46,1.8,1.21,2.39c0.75,0.59,1.74,0.88,2.98,0.88c1.14,0,2.05-0.23,2.73-0.69
					C441.64,103.69,441.98,103.08,441.98,102.31z"/>
				<path class="st2" d="M464.2,104.84c1.07,0,2.01-0.32,2.81-0.97c0.8-0.65,1.24-1.46,1.33-2.44h2.84
					c-0.05,1.01-0.4,1.96-1.04,2.87c-0.64,0.91-1.49,1.63-2.56,2.18c-1.07,0.54-2.19,0.81-3.38,0.81c-2.39,0-4.29-0.8-5.71-2.39
					c-1.41-1.6-2.12-3.78-2.12-6.55v-0.5c0-1.71,0.31-3.23,0.94-4.56c0.63-1.33,1.53-2.36,2.7-3.1c1.17-0.74,2.56-1.1,4.16-1.1
					c1.97,0,3.61,0.59,4.91,1.77c1.3,1.18,2,2.71,2.09,4.59h-2.84c-0.09-1.14-0.52-2.07-1.29-2.8c-0.77-0.73-1.73-1.1-2.87-1.1
					c-1.53,0-2.71,0.55-3.55,1.65c-0.84,1.1-1.26,2.69-1.26,4.76v0.57c0,2.02,0.42,3.58,1.25,4.67
					C461.47,104.3,462.66,104.84,464.2,104.84z"/>
				<path class="st2" d="M473.76,98.03c0-1.72,0.34-3.27,1.01-4.64c0.68-1.37,1.62-2.44,2.82-3.18s2.58-1.12,4.13-1.12
					c2.39,0,4.33,0.83,5.8,2.48c1.48,1.66,2.22,3.86,2.22,6.61v0.21c0,1.71-0.33,3.24-0.98,4.6s-1.59,2.42-2.81,3.17
					c-1.22,0.76-2.62,1.14-4.2,1.14c-2.38,0-4.31-0.83-5.79-2.48c-1.48-1.66-2.22-3.85-2.22-6.57V98.03z M476.78,98.38
					c0,1.95,0.45,3.51,1.36,4.69c0.9,1.18,2.11,1.77,3.63,1.77c1.53,0,2.74-0.6,3.64-1.79c0.9-1.2,1.35-2.87,1.35-5.02
					c0-1.93-0.46-3.49-1.37-4.68c-0.92-1.2-2.13-1.79-3.64-1.79c-1.48,0-2.68,0.59-3.59,1.77C477.24,94.5,476.78,96.19,476.78,98.38
					z"/>
				<path class="st2" d="M496.29,89.41l0.1,2.21c1.34-1.69,3.09-2.53,5.26-2.53c3.71,0,5.58,2.09,5.62,6.28v11.61h-3V95.35
					c-0.01-1.27-0.3-2.2-0.87-2.81c-0.57-0.61-1.45-0.91-2.65-0.91c-0.97,0-1.83,0.26-2.56,0.78c-0.74,0.52-1.31,1.2-1.72,2.05
					v12.51h-3V89.41H496.29z"/>
				<path class="st2" d="M514.57,89.41l0.1,2.21c1.34-1.69,3.09-2.53,5.26-2.53c3.71,0,5.58,2.09,5.62,6.28v11.61h-3V95.35
					c-0.01-1.27-0.3-2.2-0.87-2.81c-0.57-0.61-1.45-0.91-2.65-0.91c-0.97,0-1.83,0.26-2.56,0.78c-0.74,0.52-1.31,1.2-1.72,2.05
					v12.51h-3V89.41H514.57z"/>
				<path class="st2" d="M537.29,107.29c-2.38,0-4.32-0.78-5.81-2.35c-1.49-1.56-2.24-3.65-2.24-6.27v-0.55c0-1.74,0.33-3.3,1-4.67
					c0.67-1.37,1.6-2.44,2.79-3.21c1.2-0.77,2.49-1.16,3.89-1.16c2.28,0,4.06,0.75,5.32,2.26c1.27,1.5,1.9,3.66,1.9,6.46v1.25h-11.9
					c0.04,1.73,0.55,3.13,1.52,4.2c0.97,1.07,2.2,1.6,3.69,1.6c1.06,0,1.96-0.22,2.69-0.65c0.74-0.43,1.38-1.01,1.93-1.72l1.83,1.43
					C542.44,106.16,540.23,107.29,537.29,107.29z M536.92,91.55c-1.21,0-2.23,0.44-3.05,1.32c-0.82,0.88-1.33,2.12-1.53,3.71h8.8
					v-0.23c-0.09-1.53-0.5-2.71-1.23-3.55C539.17,91.97,538.17,91.55,536.92,91.55z"/>
				<path class="st2" d="M554.66,104.84c1.07,0,2.01-0.32,2.81-0.97c0.8-0.65,1.24-1.46,1.33-2.44h2.84
					c-0.05,1.01-0.4,1.96-1.04,2.87c-0.64,0.91-1.49,1.63-2.56,2.18c-1.07,0.54-2.19,0.81-3.38,0.81c-2.39,0-4.29-0.8-5.71-2.39
					s-2.12-3.78-2.12-6.55v-0.5c0-1.71,0.31-3.23,0.94-4.56s1.53-2.36,2.7-3.1c1.17-0.74,2.56-1.1,4.16-1.1
					c1.97,0,3.61,0.59,4.91,1.77c1.3,1.18,2,2.71,2.09,4.59h-2.84c-0.09-1.14-0.52-2.07-1.29-2.8c-0.77-0.73-1.73-1.1-2.87-1.1
					c-1.53,0-2.71,0.55-3.55,1.65c-0.84,1.1-1.26,2.69-1.26,4.76v0.57c0,2.02,0.42,3.58,1.25,4.67
					C551.92,104.3,553.11,104.84,554.66,104.84z"/>
				<path class="st2" d="M569.09,85.15v4.25h3.28v2.32h-3.28v10.91c0,0.7,0.15,1.23,0.44,1.58s0.79,0.53,1.49,0.53
					c0.35,0,0.82-0.06,1.43-0.19v2.42c-0.79,0.22-1.56,0.32-2.31,0.32c-1.34,0-2.35-0.41-3.04-1.22c-0.68-0.81-1.02-1.96-1.02-3.46
					V91.73h-3.2v-2.32h3.2v-4.25H569.09z"/>
				<path class="st2" d="M575.89,84.75c0-0.49,0.15-0.9,0.45-1.23c0.3-0.34,0.74-0.5,1.32-0.5c0.58,0,1.03,0.17,1.33,0.5
					s0.46,0.75,0.46,1.23c0,0.49-0.15,0.89-0.46,1.22c-0.3,0.32-0.75,0.49-1.33,0.49c-0.58,0-1.03-0.16-1.32-0.49
					C576.04,85.64,575.89,85.23,575.89,84.75z M579.14,106.97h-3V89.41h3V106.97z"/>
				<path class="st2" d="M586.75,89.41l0.1,2.21c1.34-1.69,3.09-2.53,5.26-2.53c3.71,0,5.58,2.09,5.62,6.28v11.61h-3V95.35
					c-0.01-1.27-0.3-2.2-0.87-2.81c-0.57-0.61-1.45-0.91-2.65-0.91c-0.97,0-1.83,0.26-2.56,0.78c-0.74,0.52-1.31,1.2-1.72,2.05
					v12.51h-3V89.41H586.75z"/>
				<path class="st2" d="M601.47,98.04c0-2.74,0.63-4.92,1.9-6.53c1.27-1.62,2.94-2.43,5.03-2.43c2.14,0,3.81,0.76,5.02,2.27
					l0.15-1.95h2.74v17.14c0,2.27-0.67,4.06-2.02,5.37c-1.35,1.31-3.16,1.96-5.43,1.96c-1.27,0-2.5-0.27-3.72-0.81
					s-2.14-1.28-2.78-2.22l1.56-1.8c1.29,1.59,2.86,2.39,4.72,2.39c1.46,0,2.6-0.41,3.42-1.23s1.23-1.98,1.23-3.47v-1.51
					c-1.2,1.39-2.84,2.08-4.92,2.08c-2.06,0-3.72-0.83-4.99-2.48C602.11,103.15,601.47,100.9,601.47,98.04z M604.49,98.38
					c0,1.98,0.41,3.54,1.22,4.67s1.95,1.7,3.41,1.7c1.89,0,3.28-0.86,4.17-2.58v-8.02c-0.92-1.68-2.3-2.52-4.14-2.52
					c-1.46,0-2.6,0.57-3.42,1.7C604.9,94.47,604.49,96.15,604.49,98.38z"/>
				<path class="st2" d="M633.07,85.15v4.25h3.28v2.32h-3.28v10.91c0,0.7,0.15,1.23,0.44,1.58s0.79,0.53,1.49,0.53
					c0.35,0,0.82-0.06,1.43-0.19v2.42c-0.79,0.22-1.56,0.32-2.31,0.32c-1.34,0-2.35-0.41-3.04-1.22c-0.68-0.81-1.02-1.96-1.02-3.46
					V91.73h-3.2v-2.32h3.2v-4.25H633.07z"/>
				<path class="st2" d="M642.86,91.53c1.33-1.63,3.06-2.45,5.19-2.45c3.71,0,5.58,2.09,5.62,6.28v11.61h-3V95.35
					c-0.01-1.27-0.3-2.2-0.87-2.81c-0.57-0.61-1.45-0.91-2.65-0.91c-0.97,0-1.83,0.26-2.56,0.78c-0.74,0.52-1.31,1.2-1.72,2.05
					v12.51h-3V82.04h3V91.53z"/>
				<path class="st2" d="M665.46,107.29c-2.38,0-4.32-0.78-5.81-2.35c-1.49-1.56-2.24-3.65-2.24-6.27v-0.55c0-1.74,0.33-3.3,1-4.67
					c0.67-1.37,1.6-2.44,2.79-3.21c1.2-0.77,2.49-1.16,3.89-1.16c2.28,0,4.06,0.75,5.32,2.26c1.27,1.5,1.9,3.66,1.9,6.46v1.25h-11.9
					c0.04,1.73,0.55,3.13,1.52,4.2c0.97,1.07,2.2,1.6,3.69,1.6c1.06,0,1.96-0.22,2.69-0.65c0.74-0.43,1.38-1.01,1.93-1.72l1.83,1.43
					C670.61,106.16,668.4,107.29,665.46,107.29z M665.08,91.55c-1.21,0-2.23,0.44-3.05,1.32c-0.82,0.88-1.33,2.12-1.53,3.71h8.8
					v-0.23c-0.09-1.53-0.5-2.71-1.23-3.55C667.33,91.97,666.34,91.55,665.08,91.55z"/>
				<path class="st2" d="M698.84,98.38c0,2.67-0.61,4.83-1.83,6.46c-1.22,1.63-2.88,2.45-4.97,2.45c-2.13,0-3.81-0.68-5.03-2.03
					v8.46h-3V89.41h2.74l0.15,1.95c1.22-1.51,2.92-2.27,5.1-2.27c2.11,0,3.78,0.8,5.01,2.39c1.23,1.59,1.84,3.8,1.84,6.64V98.38z
					 M695.84,98.04c0-1.98-0.42-3.54-1.27-4.69c-0.84-1.15-2-1.72-3.47-1.72c-1.82,0-3.18,0.81-4.09,2.42v8.39
					c0.9,1.6,2.27,2.4,4.12,2.4c1.44,0,2.58-0.57,3.43-1.71S695.84,100.29,695.84,98.04z"/>
				<path class="st2" d="M711.15,92.1c-0.45-0.08-0.95-0.11-1.48-0.11c-1.97,0-3.31,0.84-4.01,2.52v12.47h-3V89.41h2.92l0.05,2.03
					c0.98-1.57,2.38-2.35,4.19-2.35c0.58,0,1.03,0.08,1.33,0.23V92.1z"/>
				<path class="st2" d="M713.11,98.03c0-1.72,0.34-3.27,1.01-4.64c0.68-1.37,1.62-2.44,2.83-3.18c1.21-0.75,2.58-1.12,4.13-1.12
					c2.39,0,4.33,0.83,5.8,2.48c1.48,1.66,2.22,3.86,2.22,6.61v0.21c0,1.71-0.33,3.24-0.98,4.6s-1.59,2.42-2.81,3.17
					c-1.22,0.76-2.62,1.14-4.2,1.14c-2.38,0-4.31-0.83-5.79-2.48c-1.48-1.66-2.21-3.85-2.21-6.57V98.03z M716.13,98.38
					c0,1.95,0.45,3.51,1.36,4.69c0.9,1.18,2.11,1.77,3.63,1.77c1.53,0,2.74-0.6,3.64-1.79s1.35-2.87,1.35-5.02
					c0-1.93-0.46-3.49-1.37-4.68c-0.91-1.2-2.13-1.79-3.64-1.79c-1.48,0-2.68,0.59-3.59,1.77C716.59,94.5,716.13,96.19,716.13,98.38
					z"/>
				<path class="st2" d="M738.66,102.9l4.35-13.49h3.07l-6.3,17.56h-2.29l-6.36-17.56h3.07L738.66,102.9z"/>
				<path class="st2" d="M748.98,84.75c0-0.49,0.15-0.9,0.45-1.23c0.3-0.34,0.74-0.5,1.32-0.5c0.58,0,1.03,0.17,1.33,0.5
					s0.46,0.75,0.46,1.23c0,0.49-0.15,0.89-0.46,1.22c-0.3,0.32-0.75,0.49-1.33,0.49c-0.58,0-1.03-0.16-1.32-0.49
					C749.13,85.64,748.98,85.23,748.98,84.75z M752.23,106.97h-3V89.41h3V106.97z"/>
				<path class="st2" d="M759.88,89.41l0.1,2.21c1.34-1.69,3.09-2.53,5.26-2.53c3.71,0,5.58,2.09,5.62,6.28v11.61h-3V95.35
					c-0.01-1.27-0.3-2.2-0.87-2.81c-0.57-0.61-1.45-0.91-2.65-0.91c-0.97,0-1.83,0.26-2.56,0.78c-0.74,0.52-1.31,1.2-1.72,2.05
					v12.51h-3V89.41H759.88z"/>
				<path class="st2" d="M782.42,104.84c1.07,0,2.01-0.32,2.81-0.97c0.8-0.65,1.24-1.46,1.33-2.44h2.84
					c-0.05,1.01-0.4,1.96-1.04,2.87c-0.64,0.91-1.49,1.63-2.56,2.18c-1.07,0.54-2.19,0.81-3.38,0.81c-2.39,0-4.29-0.8-5.71-2.39
					s-2.12-3.78-2.12-6.55v-0.5c0-1.71,0.31-3.23,0.94-4.56s1.53-2.36,2.7-3.1c1.17-0.74,2.56-1.1,4.16-1.1
					c1.97,0,3.61,0.59,4.91,1.77c1.3,1.18,2,2.71,2.09,4.59h-2.84c-0.09-1.14-0.52-2.07-1.29-2.8c-0.77-0.73-1.73-1.1-2.87-1.1
					c-1.53,0-2.71,0.55-3.55,1.65c-0.84,1.1-1.26,2.69-1.26,4.76v0.57c0,2.02,0.42,3.58,1.25,4.67
					C779.68,104.3,780.88,104.84,782.42,104.84z"/>
				<path class="st2" d="M800.07,107.29c-2.38,0-4.32-0.78-5.81-2.35c-1.49-1.56-2.24-3.65-2.24-6.27v-0.55c0-1.74,0.33-3.3,1-4.67
					c0.67-1.37,1.6-2.44,2.79-3.21c1.2-0.77,2.49-1.16,3.89-1.16c2.28,0,4.06,0.75,5.32,2.26c1.27,1.5,1.9,3.66,1.9,6.46v1.25h-11.9
					c0.04,1.73,0.55,3.13,1.52,4.2c0.97,1.07,2.2,1.6,3.69,1.6c1.06,0,1.96-0.22,2.69-0.65c0.74-0.43,1.38-1.01,1.93-1.72l1.83,1.43
					C805.22,106.16,803.01,107.29,800.07,107.29z M799.69,91.55c-1.21,0-2.23,0.44-3.05,1.32c-0.82,0.88-1.33,2.12-1.53,3.71h8.8
					v-0.23c-0.09-1.53-0.5-2.71-1.23-3.55C801.94,91.97,800.95,91.55,799.69,91.55z"/>
				<path class="st2" d="M820.62,102.31c0-0.81-0.31-1.44-0.92-1.89c-0.61-0.45-1.68-0.84-3.2-1.16c-1.52-0.32-2.73-0.71-3.62-1.17
					c-0.89-0.45-1.55-1-1.98-1.62c-0.43-0.63-0.64-1.37-0.64-2.24c0-1.44,0.61-2.66,1.83-3.65c1.22-1,2.77-1.49,4.67-1.49
					c1.99,0,3.61,0.51,4.84,1.54c1.24,1.03,1.86,2.34,1.86,3.94h-3.02c0-0.82-0.35-1.53-1.05-2.13c-0.7-0.59-1.58-0.89-2.64-0.89
					c-1.09,0-1.95,0.24-2.57,0.71c-0.62,0.48-0.92,1.1-0.92,1.87c0,0.73,0.29,1.27,0.86,1.64c0.57,0.37,1.61,0.72,3.11,1.06
					s2.71,0.74,3.64,1.2c0.93,0.47,1.62,1.03,2.07,1.68c0.45,0.65,0.67,1.45,0.67,2.39c0,1.57-0.63,2.83-1.88,3.77
					c-1.25,0.95-2.88,1.42-4.89,1.42c-1.41,0-2.65-0.25-3.73-0.75s-1.93-1.19-2.54-2.09s-0.92-1.86-0.92-2.9h3
					c0.05,1.01,0.46,1.8,1.21,2.39c0.75,0.59,1.75,0.88,2.98,0.88c1.14,0,2.05-0.23,2.74-0.69
					C820.27,103.69,820.62,103.08,820.62,102.31z"/>
				<path class="st2" d="M839.83,85.15v4.25h3.28v2.32h-3.28v10.91c0,0.7,0.15,1.23,0.44,1.58s0.79,0.53,1.49,0.53
					c0.35,0,0.82-0.06,1.43-0.19v2.42c-0.79,0.22-1.56,0.32-2.31,0.32c-1.34,0-2.35-0.41-3.04-1.22c-0.68-0.81-1.02-1.96-1.02-3.46
					V91.73h-3.2v-2.32h3.2v-4.25H839.83z"/>
				<path class="st2" d="M845.83,98.03c0-1.72,0.34-3.27,1.01-4.64c0.68-1.37,1.62-2.44,2.83-3.18c1.21-0.75,2.58-1.12,4.13-1.12
					c2.39,0,4.33,0.83,5.8,2.48c1.48,1.66,2.22,3.86,2.22,6.61v0.21c0,1.71-0.33,3.24-0.98,4.6s-1.59,2.42-2.81,3.17
					c-1.22,0.76-2.62,1.14-4.2,1.14c-2.38,0-4.31-0.83-5.79-2.48c-1.48-1.66-2.21-3.85-2.21-6.57V98.03z M848.84,98.38
					c0,1.95,0.45,3.51,1.36,4.69c0.9,1.18,2.11,1.77,3.63,1.77c1.53,0,2.74-0.6,3.64-1.79s1.35-2.87,1.35-5.02
					c0-1.93-0.46-3.49-1.37-4.68c-0.91-1.2-2.13-1.79-3.64-1.79c-1.48,0-2.68,0.59-3.59,1.77C849.3,94.5,848.84,96.19,848.84,98.38z
					"/>
				<path class="st1" d="M882.95,97.41h-5.55v9.56h-3.13V83.34h7.82c2.66,0,4.71,0.61,6.14,1.82c1.43,1.21,2.15,2.98,2.15,5.29
					c0,1.47-0.4,2.75-1.19,3.85c-0.8,1.09-1.9,1.91-3.32,2.45l5.55,10.03v0.19h-3.34L882.95,97.41z M877.4,94.86h4.79
					c1.55,0,2.78-0.4,3.69-1.2c0.91-0.8,1.37-1.88,1.37-3.22c0-1.46-0.44-2.59-1.31-3.37c-0.87-0.78-2.13-1.18-3.77-1.19h-4.77
					V94.86z"/>
				<path class="st1" d="M893.48,98.03c0-1.72,0.34-3.27,1.01-4.64c0.68-1.37,1.62-2.44,2.83-3.18c1.21-0.75,2.58-1.12,4.13-1.12
					c2.39,0,4.33,0.83,5.8,2.48c1.48,1.66,2.22,3.86,2.22,6.61v0.21c0,1.71-0.33,3.24-0.98,4.6s-1.59,2.42-2.81,3.17
					c-1.22,0.76-2.62,1.14-4.2,1.14c-2.38,0-4.31-0.83-5.79-2.48c-1.48-1.66-2.21-3.85-2.21-6.57V98.03z M896.5,98.38
					c0,1.95,0.45,3.51,1.36,4.69c0.9,1.18,2.11,1.77,3.63,1.77c1.53,0,2.74-0.6,3.64-1.79s1.35-2.87,1.35-5.02
					c0-1.93-0.46-3.49-1.37-4.68c-0.91-1.2-2.13-1.79-3.64-1.79c-1.48,0-2.68,0.59-3.59,1.77C896.96,94.5,896.5,96.19,896.5,98.38z"
					/>
				<path class="st1" d="M916.06,89.41l0.08,1.95c1.29-1.51,3.02-2.27,5.21-2.27c2.46,0,4.13,0.94,5.02,2.82
					c0.58-0.84,1.34-1.53,2.28-2.04s2.04-0.78,3.32-0.78c3.85,0,5.81,2.04,5.88,6.12v11.77h-3V95.38c0-1.25-0.29-2.19-0.86-2.82
					c-0.57-0.62-1.54-0.93-2.89-0.93c-1.12,0-2.04,0.33-2.78,1c-0.74,0.67-1.16,1.56-1.28,2.69v11.65h-3.02V95.46
					c0-2.55-1.25-3.83-3.75-3.83c-1.97,0-3.32,0.84-4.04,2.52v12.82h-3V89.41H916.06z"/>
				<path class="st1" d="M949.66,107.29c-2.38,0-4.32-0.78-5.81-2.35c-1.49-1.56-2.24-3.65-2.24-6.27v-0.55c0-1.74,0.33-3.3,1-4.67
					c0.67-1.37,1.6-2.44,2.79-3.21c1.2-0.77,2.49-1.16,3.89-1.16c2.28,0,4.06,0.75,5.32,2.26c1.27,1.5,1.9,3.66,1.9,6.46v1.25h-11.9
					c0.04,1.73,0.55,3.13,1.52,4.2c0.97,1.07,2.2,1.6,3.69,1.6c1.06,0,1.96-0.22,2.69-0.65c0.74-0.43,1.38-1.01,1.93-1.72l1.83,1.43
					C954.81,106.16,952.6,107.29,949.66,107.29z M949.29,91.55c-1.21,0-2.23,0.44-3.05,1.32c-0.82,0.88-1.33,2.12-1.53,3.71h8.8
					v-0.23c-0.09-1.53-0.5-2.71-1.23-3.55C951.54,91.97,950.54,91.55,949.29,91.55z"/>
				<path class="st1" d="M960.05,105.39c0-0.52,0.15-0.95,0.46-1.3c0.31-0.35,0.77-0.52,1.39-0.52c0.62,0,1.08,0.17,1.4,0.52
					c0.32,0.35,0.48,0.78,0.48,1.3c0,0.5-0.16,0.91-0.48,1.25s-0.79,0.5-1.4,0.5c-0.62,0-1.08-0.17-1.39-0.5
					S960.05,105.89,960.05,105.39z"/>
				<path class="st2" d="M35.83,151.21h-9.9l-2.22,6.18H20.5l9.02-23.63h2.73l9.04,23.63h-3.2L35.83,151.21z M26.87,148.66h8.04
					l-4.03-11.05L26.87,148.66z"/>
				<path class="st2" d="M54.84,155.66c-1.17,1.37-2.88,2.06-5.15,2.06c-1.87,0-3.3-0.54-4.28-1.63c-0.98-1.09-1.47-2.7-1.49-4.83
					v-11.43h3v11.35c0,2.66,1.08,3.99,3.25,3.99c2.29,0,3.82-0.85,4.58-2.56v-12.77h3v17.56h-2.86L54.84,155.66z"/>
				<path class="st2" d="M61.61,148.47c0-2.74,0.63-4.92,1.9-6.53s2.94-2.43,5.03-2.43c2.14,0,3.81,0.76,5.02,2.27l0.15-1.95h2.74
					v17.14c0,2.27-0.67,4.06-2.02,5.37c-1.35,1.31-3.16,1.96-5.43,1.96c-1.27,0-2.51-0.27-3.72-0.81s-2.14-1.28-2.78-2.22l1.56-1.8
					c1.29,1.59,2.86,2.39,4.72,2.39c1.46,0,2.6-0.41,3.42-1.23s1.23-1.98,1.23-3.47v-1.51c-1.2,1.39-2.84,2.08-4.92,2.08
					c-2.06,0-3.72-0.83-4.99-2.48C62.25,153.58,61.61,151.32,61.61,148.47z M64.63,148.81c0,1.98,0.41,3.54,1.22,4.67
					s1.95,1.7,3.41,1.7c1.89,0,3.28-0.86,4.17-2.58v-8.02c-0.92-1.68-2.3-2.52-4.14-2.52c-1.46,0-2.6,0.57-3.42,1.7
					S64.63,146.58,64.63,148.81z"/>
				<path class="st2" d="M91.82,155.66c-1.17,1.37-2.88,2.06-5.15,2.06c-1.87,0-3.3-0.54-4.28-1.63c-0.98-1.09-1.47-2.7-1.49-4.83
					v-11.43h3v11.35c0,2.66,1.08,3.99,3.25,3.99c2.29,0,3.82-0.85,4.58-2.56v-12.77h3v17.56h-2.86L91.82,155.66z"/>
				<path class="st2" d="M109.53,152.74c0-0.81-0.31-1.44-0.92-1.89c-0.61-0.45-1.68-0.84-3.2-1.16c-1.52-0.32-2.73-0.71-3.62-1.17
					c-0.89-0.45-1.55-1-1.98-1.62c-0.43-0.63-0.64-1.37-0.64-2.24c0-1.44,0.61-2.66,1.83-3.65c1.22-1,2.77-1.49,4.67-1.49
					c1.99,0,3.61,0.51,4.85,1.54c1.24,1.03,1.86,2.34,1.86,3.94h-3.02c0-0.82-0.35-1.53-1.05-2.13c-0.7-0.59-1.58-0.89-2.64-0.89
					c-1.09,0-1.95,0.24-2.56,0.71s-0.93,1.1-0.93,1.87c0,0.73,0.29,1.27,0.86,1.64c0.57,0.37,1.61,0.72,3.11,1.06
					c1.5,0.34,2.71,0.74,3.64,1.2s1.62,1.03,2.07,1.68c0.45,0.65,0.67,1.45,0.67,2.39c0,1.57-0.63,2.83-1.88,3.77
					c-1.26,0.95-2.88,1.42-4.89,1.42c-1.41,0-2.65-0.25-3.73-0.75c-1.08-0.5-1.93-1.19-2.54-2.09s-0.92-1.86-0.92-2.9h3
					c0.05,1.01,0.46,1.8,1.21,2.39c0.75,0.59,1.74,0.88,2.98,0.88c1.14,0,2.05-0.23,2.73-0.69
					C109.18,154.12,109.53,153.5,109.53,152.74z"/>
				<path class="st2" d="M120.52,135.58v4.25h3.28v2.32h-3.28v10.91c0,0.7,0.15,1.23,0.44,1.58c0.29,0.35,0.79,0.53,1.49,0.53
					c0.35,0,0.82-0.06,1.43-0.19v2.42c-0.79,0.22-1.56,0.32-2.3,0.32c-1.34,0-2.35-0.41-3.04-1.22c-0.68-0.81-1.02-1.96-1.02-3.46
					v-10.89h-3.2v-2.32h3.2v-4.25H120.52z"/>
				<path class="st2" d="M138.14,155.66c-1.17,1.37-2.88,2.06-5.15,2.06c-1.87,0-3.3-0.54-4.28-1.63c-0.98-1.09-1.47-2.7-1.49-4.83
					v-11.43h3v11.35c0,2.66,1.08,3.99,3.25,3.99c2.29,0,3.82-0.85,4.58-2.56v-12.77h3v17.56h-2.86L138.14,155.66z"/>
				<path class="st2" d="M155.85,152.74c0-0.81-0.31-1.44-0.92-1.89c-0.61-0.45-1.68-0.84-3.2-1.16c-1.52-0.32-2.73-0.71-3.62-1.17
					c-0.89-0.45-1.55-1-1.98-1.62c-0.43-0.63-0.64-1.37-0.64-2.24c0-1.44,0.61-2.66,1.83-3.65c1.22-1,2.77-1.49,4.67-1.49
					c1.99,0,3.61,0.51,4.85,1.54c1.24,1.03,1.86,2.34,1.86,3.94h-3.02c0-0.82-0.35-1.53-1.05-2.13c-0.7-0.59-1.58-0.89-2.64-0.89
					c-1.09,0-1.95,0.24-2.56,0.71s-0.93,1.1-0.93,1.87c0,0.73,0.29,1.27,0.86,1.64c0.57,0.37,1.61,0.72,3.11,1.06
					c1.5,0.34,2.71,0.74,3.64,1.2s1.62,1.03,2.07,1.68c0.45,0.65,0.67,1.45,0.67,2.39c0,1.57-0.63,2.83-1.88,3.77
					c-1.26,0.95-2.88,1.42-4.89,1.42c-1.41,0-2.65-0.25-3.73-0.75c-1.08-0.5-1.93-1.19-2.54-2.09s-0.92-1.86-0.92-2.9h3
					c0.05,1.01,0.46,1.8,1.21,2.39c0.75,0.59,1.74,0.88,2.98,0.88c1.14,0,2.05-0.23,2.73-0.69
					C155.51,154.12,155.85,153.5,155.85,152.74z"/>
				<path class="st2" d="M185.87,148.81c0,2.68-0.62,4.84-1.85,6.47c-1.23,1.63-2.89,2.44-4.97,2.44c-2.22,0-3.93-0.78-5.15-2.35
					l-0.15,2.03H171v-24.93h3v9.3c1.21-1.5,2.88-2.26,5.02-2.26s3.81,0.81,5.02,2.42c1.22,1.61,1.83,3.82,1.83,6.62V148.81z
					 M182.86,148.47c0-2.04-0.4-3.63-1.19-4.74c-0.79-1.11-1.93-1.67-3.41-1.67c-1.98,0-3.4,0.92-4.27,2.76v7.6
					c0.92,1.84,2.35,2.76,4.3,2.76c1.44,0,2.56-0.56,3.36-1.67C182.46,152.38,182.86,150.71,182.86,148.47z"/>
				<path class="st2" d="M196.94,157.72c-2.38,0-4.32-0.78-5.81-2.35c-1.49-1.56-2.24-3.65-2.24-6.27v-0.55c0-1.74,0.33-3.3,1-4.67
					c0.67-1.37,1.6-2.44,2.79-3.21c1.2-0.77,2.49-1.16,3.89-1.16c2.28,0,4.06,0.75,5.32,2.26c1.27,1.5,1.9,3.66,1.9,6.46v1.25h-11.9
					c0.04,1.73,0.55,3.13,1.52,4.2c0.97,1.07,2.2,1.6,3.69,1.6c1.06,0,1.96-0.22,2.69-0.65c0.74-0.43,1.38-1.01,1.93-1.72l1.83,1.43
					C202.09,156.59,199.88,157.72,196.94,157.72z M196.56,141.97c-1.21,0-2.23,0.44-3.05,1.32c-0.82,0.88-1.33,2.12-1.53,3.71h8.8
					v-0.23c-0.09-1.53-0.5-2.71-1.23-3.55C198.81,142.39,197.82,141.97,196.56,141.97z"/>
				<path class="st2" d="M214.31,155.27c1.07,0,2.01-0.32,2.81-0.97c0.8-0.65,1.24-1.46,1.33-2.44h2.84
					c-0.05,1.01-0.4,1.96-1.04,2.87c-0.64,0.91-1.49,1.63-2.56,2.18c-1.07,0.54-2.19,0.81-3.38,0.81c-2.39,0-4.29-0.8-5.71-2.39
					c-1.41-1.6-2.12-3.78-2.12-6.55v-0.5c0-1.71,0.31-3.23,0.94-4.56c0.63-1.33,1.53-2.36,2.7-3.1c1.17-0.74,2.56-1.1,4.16-1.1
					c1.97,0,3.61,0.59,4.91,1.77c1.3,1.18,2,2.71,2.09,4.59h-2.84c-0.09-1.14-0.52-2.07-1.29-2.8c-0.77-0.73-1.73-1.1-2.87-1.1
					c-1.53,0-2.71,0.55-3.55,1.65c-0.84,1.1-1.26,2.69-1.26,4.76v0.57c0,2.02,0.42,3.58,1.25,4.67
					C211.57,154.72,212.76,155.27,214.31,155.27z"/>
				<path class="st2" d="M235.5,157.4c-0.17-0.35-0.31-0.96-0.42-1.85c-1.4,1.45-3.06,2.18-5,2.18c-1.73,0-3.15-0.49-4.26-1.47
					c-1.11-0.98-1.66-2.22-1.66-3.73c0-1.83,0.7-3.25,2.09-4.26s3.35-1.52,5.87-1.52h2.92v-1.38c0-1.05-0.31-1.89-0.94-2.51
					s-1.55-0.93-2.78-0.93c-1.07,0-1.97,0.27-2.69,0.81s-1.09,1.2-1.09,1.96h-3.02c0-0.88,0.31-1.72,0.93-2.54
					c0.62-0.82,1.47-1.46,2.53-1.94s2.24-0.71,3.51-0.71c2.02,0,3.61,0.51,4.76,1.52c1.15,1.01,1.74,2.41,1.79,4.18v8.08
					c0,1.61,0.21,2.89,0.62,3.85v0.26H235.5z M230.52,155.11c0.94,0,1.83-0.24,2.68-0.73c0.84-0.49,1.46-1.12,1.83-1.9v-3.6h-2.35
					c-3.68,0-5.52,1.08-5.52,3.23c0,0.94,0.31,1.68,0.94,2.21C228.73,154.84,229.54,155.11,230.52,155.11z"/>
				<path class="st2" d="M245.57,139.83l0.08,1.95c1.29-1.51,3.02-2.27,5.21-2.27c2.46,0,4.13,0.94,5.02,2.82
					c0.58-0.84,1.34-1.53,2.28-2.04s2.04-0.78,3.32-0.78c3.85,0,5.81,2.04,5.88,6.12v11.77h-3v-11.59c0-1.25-0.29-2.19-0.86-2.82
					c-0.57-0.62-1.54-0.93-2.89-0.93c-1.11,0-2.04,0.33-2.78,1c-0.74,0.67-1.16,1.56-1.28,2.69v11.65h-3.02v-11.51
					c0-2.55-1.25-3.83-3.75-3.83c-1.97,0-3.32,0.84-4.04,2.52v12.82h-3v-17.56H245.57z"/>
				<path class="st2" d="M279.17,157.72c-2.38,0-4.32-0.78-5.81-2.35c-1.49-1.56-2.24-3.65-2.24-6.27v-0.55c0-1.74,0.33-3.3,1-4.67
					c0.67-1.37,1.6-2.44,2.79-3.21c1.2-0.77,2.49-1.16,3.89-1.16c2.28,0,4.06,0.75,5.32,2.26c1.27,1.5,1.9,3.66,1.9,6.46v1.25h-11.9
					c0.04,1.73,0.55,3.13,1.52,4.2c0.97,1.07,2.2,1.6,3.69,1.6c1.06,0,1.96-0.22,2.69-0.65c0.74-0.43,1.38-1.01,1.93-1.72l1.83,1.43
					C284.32,156.59,282.11,157.72,279.17,157.72z M278.79,141.97c-1.21,0-2.23,0.44-3.05,1.32c-0.82,0.88-1.33,2.12-1.53,3.71h8.8
					v-0.23c-0.09-1.53-0.5-2.71-1.23-3.55C281.05,142.39,280.05,141.97,278.79,141.97z"/>
				<path class="st2" d="M301.8,135.58v4.25h3.28v2.32h-3.28v10.91c0,0.7,0.15,1.23,0.44,1.58c0.29,0.35,0.79,0.53,1.49,0.53
					c0.35,0,0.82-0.06,1.43-0.19v2.42c-0.79,0.22-1.56,0.32-2.3,0.32c-1.34,0-2.35-0.41-3.04-1.22c-0.68-0.81-1.02-1.96-1.02-3.46
					v-10.89h-3.2v-2.32h3.2v-4.25H301.8z"/>
				<path class="st2" d="M311.58,141.96c1.33-1.63,3.06-2.45,5.19-2.45c3.71,0,5.58,2.09,5.62,6.28v11.61h-3v-11.62
					c-0.01-1.27-0.3-2.2-0.87-2.81c-0.57-0.61-1.45-0.91-2.65-0.91c-0.97,0-1.83,0.26-2.56,0.78c-0.74,0.52-1.31,1.2-1.72,2.05
					v12.51h-3v-24.93h3V141.96z"/>
				<path class="st2" d="M334.18,157.72c-2.38,0-4.32-0.78-5.81-2.35c-1.49-1.56-2.24-3.65-2.24-6.27v-0.55c0-1.74,0.33-3.3,1-4.67
					c0.67-1.37,1.6-2.44,2.79-3.21c1.2-0.77,2.49-1.16,3.89-1.16c2.28,0,4.06,0.75,5.32,2.26c1.27,1.5,1.9,3.66,1.9,6.46v1.25h-11.9
					c0.04,1.73,0.55,3.13,1.52,4.2c0.97,1.07,2.2,1.6,3.69,1.6c1.06,0,1.96-0.22,2.69-0.65c0.74-0.43,1.38-1.01,1.93-1.72l1.83,1.43
					C339.33,156.59,337.12,157.72,334.18,157.72z M333.81,141.97c-1.21,0-2.23,0.44-3.05,1.32c-0.82,0.88-1.33,2.12-1.53,3.71h8.8
					v-0.23c-0.09-1.53-0.5-2.71-1.23-3.55C336.06,142.39,335.06,141.97,333.81,141.97z"/>
				<path class="st2" d="M354.21,157.4v-15.24h-2.78v-2.32h2.78v-1.8c0-1.88,0.5-3.34,1.51-4.37c1.01-1.03,2.43-1.54,4.27-1.54
					c0.69,0,1.38,0.09,2.06,0.27l-0.16,2.42c-0.51-0.1-1.05-0.15-1.62-0.15c-0.97,0-1.73,0.29-2.26,0.85s-0.8,1.39-0.8,2.45v1.86
					h3.75v2.32h-3.75v15.24H354.21z"/>
				<path class="st2" d="M364.29,135.17c0-0.49,0.15-0.9,0.45-1.23c0.3-0.34,0.74-0.5,1.32-0.5s1.03,0.17,1.33,0.5
					c0.3,0.34,0.45,0.75,0.45,1.23c0,0.49-0.15,0.89-0.45,1.22c-0.3,0.32-0.75,0.49-1.33,0.49s-1.03-0.16-1.32-0.49
					C364.44,136.07,364.29,135.66,364.29,135.17z M367.54,157.4h-3v-17.56h3V157.4z"/>
				<path class="st2" d="M380.83,142.53c-0.45-0.08-0.95-0.11-1.48-0.11c-1.97,0-3.31,0.84-4.01,2.52v12.47h-3v-17.56h2.92
					l0.05,2.03c0.98-1.57,2.38-2.35,4.19-2.35c0.58,0,1.03,0.08,1.33,0.23V142.53z"/>
				<path class="st2" d="M393.81,152.74c0-0.81-0.31-1.44-0.92-1.89c-0.61-0.45-1.68-0.84-3.2-1.16c-1.52-0.32-2.73-0.71-3.62-1.17
					c-0.89-0.45-1.55-1-1.98-1.62c-0.43-0.63-0.64-1.37-0.64-2.24c0-1.44,0.61-2.66,1.83-3.65c1.22-1,2.77-1.49,4.67-1.49
					c1.99,0,3.61,0.51,4.85,1.54c1.24,1.03,1.86,2.34,1.86,3.94h-3.02c0-0.82-0.35-1.53-1.05-2.13c-0.7-0.59-1.58-0.89-2.64-0.89
					c-1.09,0-1.95,0.24-2.56,0.71s-0.93,1.1-0.93,1.87c0,0.73,0.29,1.27,0.86,1.64c0.57,0.37,1.61,0.72,3.11,1.06
					c1.5,0.34,2.71,0.74,3.64,1.2s1.62,1.03,2.07,1.68c0.45,0.65,0.67,1.45,0.67,2.39c0,1.57-0.63,2.83-1.88,3.77
					c-1.26,0.95-2.88,1.42-4.89,1.42c-1.41,0-2.65-0.25-3.73-0.75c-1.08-0.5-1.93-1.19-2.54-2.09s-0.92-1.86-0.92-2.9h3
					c0.05,1.01,0.46,1.8,1.21,2.39c0.75,0.59,1.74,0.88,2.98,0.88c1.14,0,2.05-0.23,2.73-0.69
					C393.47,154.12,393.81,153.5,393.81,152.74z"/>
				<path class="st2" d="M404.8,135.58v4.25h3.28v2.32h-3.28v10.91c0,0.7,0.15,1.23,0.44,1.58c0.29,0.35,0.79,0.53,1.49,0.53
					c0.35,0,0.82-0.06,1.43-0.19v2.42c-0.79,0.22-1.56,0.32-2.3,0.32c-1.34,0-2.35-0.41-3.04-1.22c-0.68-0.81-1.02-1.96-1.02-3.46
					v-10.89h-3.2v-2.32h3.2v-4.25H404.8z"/>
				<path class="st2" d="M428.96,147.83h-5.55v9.56h-3.13v-23.63h7.82c2.66,0,4.71,0.61,6.14,1.82c1.43,1.21,2.15,2.98,2.15,5.29
					c0,1.47-0.4,2.75-1.19,3.85c-0.8,1.09-1.9,1.91-3.32,2.45l5.55,10.03v0.19h-3.34L428.96,147.83z M423.41,145.29h4.79
					c1.55,0,2.78-0.4,3.69-1.2c0.91-0.8,1.37-1.88,1.37-3.22c0-1.46-0.44-2.59-1.31-3.37c-0.87-0.78-2.13-1.18-3.77-1.19h-4.77
					V145.29z"/>
				<path class="st2" d="M439.49,148.45c0-1.72,0.34-3.27,1.01-4.64c0.68-1.37,1.62-2.44,2.82-3.18s2.58-1.12,4.13-1.12
					c2.39,0,4.33,0.83,5.8,2.48c1.48,1.66,2.22,3.86,2.22,6.61v0.21c0,1.71-0.33,3.24-0.98,4.6s-1.59,2.42-2.81,3.17
					c-1.22,0.76-2.62,1.14-4.2,1.14c-2.38,0-4.31-0.83-5.79-2.48c-1.48-1.66-2.22-3.85-2.22-6.57V148.45z M442.51,148.81
					c0,1.95,0.45,3.51,1.36,4.69c0.9,1.18,2.11,1.77,3.63,1.77c1.53,0,2.74-0.6,3.64-1.79c0.9-1.2,1.35-2.87,1.35-5.02
					c0-1.93-0.46-3.49-1.37-4.68c-0.92-1.2-2.13-1.79-3.64-1.79c-1.48,0-2.68,0.59-3.59,1.77
					C442.96,144.92,442.51,146.61,442.51,148.81z"/>
				<path class="st2" d="M462.07,139.83l0.08,1.95c1.29-1.51,3.02-2.27,5.21-2.27c2.46,0,4.13,0.94,5.02,2.82
					c0.58-0.84,1.34-1.53,2.28-2.04s2.04-0.78,3.32-0.78c3.85,0,5.81,2.04,5.88,6.12v11.77h-3v-11.59c0-1.25-0.29-2.19-0.86-2.82
					c-0.57-0.62-1.54-0.93-2.89-0.93c-1.11,0-2.04,0.33-2.78,1c-0.74,0.67-1.16,1.56-1.28,2.69v11.65h-3.02v-11.51
					c0-2.55-1.25-3.83-3.75-3.83c-1.97,0-3.32,0.84-4.04,2.52v12.82h-3v-17.56H462.07z"/>
				<path class="st2" d="M499.22,157.4c-0.17-0.35-0.31-0.96-0.42-1.85c-1.4,1.45-3.06,2.18-5,2.18c-1.73,0-3.15-0.49-4.26-1.47
					c-1.11-0.98-1.66-2.22-1.66-3.73c0-1.83,0.7-3.25,2.09-4.26s3.35-1.52,5.87-1.52h2.92v-1.38c0-1.05-0.31-1.89-0.94-2.51
					s-1.55-0.93-2.78-0.93c-1.07,0-1.97,0.27-2.69,0.81s-1.09,1.2-1.09,1.96h-3.02c0-0.88,0.31-1.72,0.93-2.54
					c0.62-0.82,1.47-1.46,2.53-1.94s2.24-0.71,3.51-0.71c2.02,0,3.61,0.51,4.76,1.52c1.15,1.01,1.74,2.41,1.79,4.18v8.08
					c0,1.61,0.21,2.89,0.62,3.85v0.26H499.22z M494.24,155.11c0.94,0,1.83-0.24,2.68-0.73c0.84-0.49,1.46-1.12,1.83-1.9v-3.6h-2.35
					c-3.68,0-5.52,1.08-5.52,3.23c0,0.94,0.31,1.68,0.94,2.21C492.45,154.84,493.26,155.11,494.24,155.11z"/>
				<path class="st2" d="M509.3,139.83l0.1,2.21c1.34-1.69,3.09-2.53,5.26-2.53c3.71,0,5.58,2.09,5.62,6.28v11.61h-3v-11.62
					c-0.01-1.27-0.3-2.2-0.87-2.81c-0.57-0.61-1.45-0.91-2.65-0.91c-0.97,0-1.83,0.26-2.56,0.78c-0.74,0.52-1.31,1.2-1.72,2.05
					v12.51h-3v-17.56H509.3z"/>
				<path class="st2" d="M546.87,146.47h-10.24v8.38h11.9v2.55h-15.01v-23.63h14.85v2.55h-11.74v7.61h10.24V146.47z"/>
				<path class="st2" d="M554.75,139.83l0.08,1.95c1.29-1.51,3.02-2.27,5.21-2.27c2.46,0,4.13,0.94,5.02,2.82
					c0.58-0.84,1.34-1.53,2.28-2.04s2.04-0.78,3.32-0.78c3.85,0,5.81,2.04,5.88,6.12v11.77h-3v-11.59c0-1.25-0.29-2.19-0.86-2.82
					c-0.57-0.62-1.54-0.93-2.89-0.93c-1.12,0-2.04,0.33-2.78,1c-0.74,0.67-1.16,1.56-1.28,2.69v11.65h-3.02v-11.51
					c0-2.55-1.25-3.83-3.75-3.83c-1.97,0-3.32,0.84-4.04,2.52v12.82h-3v-17.56H554.75z"/>
				<path class="st2" d="M595.9,148.81c0,2.67-0.61,4.83-1.83,6.46c-1.22,1.63-2.88,2.45-4.97,2.45c-2.13,0-3.81-0.68-5.03-2.03
					v8.46h-3v-24.32h2.74l0.15,1.95c1.22-1.51,2.92-2.27,5.1-2.27c2.11,0,3.78,0.8,5.01,2.39c1.23,1.59,1.84,3.8,1.84,6.64V148.81z
					 M592.9,148.47c0-1.98-0.42-3.54-1.27-4.69c-0.84-1.15-2-1.72-3.47-1.72c-1.82,0-3.18,0.81-4.09,2.42v8.39
					c0.9,1.6,2.27,2.4,4.12,2.4c1.44,0,2.58-0.57,3.43-1.71S592.9,150.72,592.9,148.47z"/>
				<path class="st2" d="M607,157.72c-2.38,0-4.32-0.78-5.81-2.35c-1.49-1.56-2.24-3.65-2.24-6.27v-0.55c0-1.74,0.33-3.3,1-4.67
					c0.67-1.37,1.6-2.44,2.79-3.21c1.2-0.77,2.49-1.16,3.89-1.16c2.28,0,4.06,0.75,5.32,2.26c1.27,1.5,1.9,3.66,1.9,6.46v1.25h-11.9
					c0.04,1.73,0.55,3.13,1.52,4.2c0.97,1.07,2.2,1.6,3.69,1.6c1.06,0,1.96-0.22,2.69-0.65c0.74-0.43,1.38-1.01,1.93-1.72l1.83,1.43
					C612.16,156.59,609.95,157.72,607,157.72z M606.63,141.97c-1.21,0-2.23,0.44-3.05,1.32c-0.82,0.88-1.33,2.12-1.53,3.71h8.8
					v-0.23c-0.09-1.53-0.5-2.71-1.23-3.55C608.88,142.39,607.89,141.97,606.63,141.97z"/>
				<path class="st2" d="M625.82,142.53c-0.45-0.08-0.95-0.11-1.48-0.11c-1.97,0-3.31,0.84-4.01,2.52v12.47h-3v-17.56h2.92
					l0.05,2.03c0.98-1.57,2.38-2.35,4.19-2.35c0.58,0,1.03,0.08,1.33,0.23V142.53z"/>
				<path class="st2" d="M627.78,148.45c0-1.72,0.34-3.27,1.01-4.64c0.68-1.37,1.62-2.44,2.83-3.18c1.21-0.75,2.58-1.12,4.13-1.12
					c2.39,0,4.33,0.83,5.8,2.48c1.48,1.66,2.22,3.86,2.22,6.61v0.21c0,1.71-0.33,3.24-0.98,4.6s-1.59,2.42-2.81,3.17
					c-1.22,0.76-2.62,1.14-4.2,1.14c-2.38,0-4.31-0.83-5.79-2.48c-1.48-1.66-2.21-3.85-2.21-6.57V148.45z M630.8,148.81
					c0,1.95,0.45,3.51,1.36,4.69c0.9,1.18,2.11,1.77,3.63,1.77c1.53,0,2.74-0.6,3.64-1.79s1.35-2.87,1.35-5.02
					c0-1.93-0.46-3.49-1.37-4.68c-0.91-1.2-2.13-1.79-3.64-1.79c-1.48,0-2.68,0.59-3.59,1.77
					C631.26,144.92,630.8,146.61,630.8,148.81z"/>
				<path class="st2" d="M656.03,142.53c-0.45-0.08-0.95-0.11-1.48-0.11c-1.97,0-3.31,0.84-4.01,2.52v12.47h-3v-17.56h2.92
					l0.05,2.03c0.98-1.57,2.38-2.35,4.19-2.35c0.58,0,1.03,0.08,1.33,0.23V142.53z"/>
				<path class="st2" d="M658.85,155.82c0-0.52,0.15-0.95,0.46-1.3c0.31-0.35,0.77-0.52,1.39-0.52c0.62,0,1.08,0.17,1.4,0.52
					c0.32,0.35,0.48,0.78,0.48,1.3c0,0.5-0.16,0.91-0.48,1.25s-0.79,0.5-1.4,0.5c-0.62,0-1.08-0.17-1.39-0.5
					S658.85,156.32,658.85,155.82z"/>
				<g>
					<g>
						<path class="st0" d="M673.22,141.58l-5.06-3.47c2.99-4.18,4.53-8.58,4.63-13.21v-6.94h8.82v6.27
							c-0.03,3.22-0.83,6.42-2.39,9.62C677.66,137.04,675.66,139.62,673.22,141.58z M688.02,141.58l-5.06-3.47
							c2.99-4.18,4.53-8.58,4.63-13.21v-6.94h8.83v6.27c-0.03,3.22-0.83,6.42-2.39,9.62C692.47,137.04,690.46,139.62,688.02,141.58z
							"/>
					</g>
				</g>
			</g>
		</g>
	</g>
</g>
</svg>
